<?xml version="1.0" encoding="UTF-8"?>

<!DOCTYPE svg PUBLIC '-//W3C//DTD SVG 1.0//EN' 'http://www.w3.org/TR/2001/REC-SVG-20010904/DTD/svg10.dtd'>
<svg style="fill-opacity:1; color-rendering:auto; color-interpolation:auto; stroke:black; text-rendering:auto; stroke-linecap:square; stroke-miterlimit:10; stroke-opacity:1; shape-rendering:auto; fill:black; stroke-dasharray:none; font-weight:normal; stroke-width:1; font-family:&apos;Dialog&apos;; font-style:normal; stroke-linejoin:miter; font-size:12; stroke-dashoffset:0; image-rendering:auto;" xmlns="http://www.w3.org/2000/svg" width="1076" xmlns:xlink="http://www.w3.org/1999/xlink" height="1038">
  <!--Generated by the Batik Graphics2D SVG Generator-->
  <defs id="genericDefs" />
  <g>
    <defs id="defs1">
      <clipPath clipPathUnits="userSpaceOnUse" id="clipPath1">
        <path d="M-3 -3 L1057 -3 L1057 867 L-3 867 L-3 -3 Z" />
      </clipPath>
      <clipPath clipPathUnits="userSpaceOnUse" id="clipPath2">
        <path d="M0 0 L1050 0 L1050 15 L0 15 L0 0 Z" />
      </clipPath>
      <clipPath clipPathUnits="userSpaceOnUse" id="clipPath3">
        <path d="M-3 -3 L257 -3 L257 127 L-3 127 L-3 -3 Z" />
      </clipPath>
      <clipPath clipPathUnits="userSpaceOnUse" id="clipPath4">
        <path d="M0 0 L250 0 L250 15 L0 15 L0 0 Z" />
      </clipPath>
      <clipPath clipPathUnits="userSpaceOnUse" id="clipPath5">
        <path d="M-3 -3 L627 -3 L627 807 L-3 807 L-3 -3 Z" />
      </clipPath>
      <clipPath clipPathUnits="userSpaceOnUse" id="clipPath6">
        <path d="M0 0 L620 0 L620 15 L0 15 L0 0 Z" />
      </clipPath>
      <clipPath clipPathUnits="userSpaceOnUse" id="clipPath7">
        <path d="M-3 -3 L377 -3 L377 237 L-3 237 L-3 -3 Z" />
      </clipPath>
      <clipPath clipPathUnits="userSpaceOnUse" id="clipPath8">
        <path d="M0 0 L370 0 L370 15 L0 15 L0 0 Z" />
      </clipPath>
      <clipPath clipPathUnits="userSpaceOnUse" id="clipPath9">
        <path d="M-3 -3 L147 -3 L147 67 L-3 67 L-3 -3 Z" />
      </clipPath>
      <clipPath clipPathUnits="userSpaceOnUse" id="clipPath10">
        <path d="M0 0 L0 52 L140 52 L140 0 Z" />
      </clipPath>
      <clipPath clipPathUnits="userSpaceOnUse" id="clipPath11">
        <path d="M0 0 L140 0 L140 15 L0 15 L0 0 Z" />
      </clipPath>
      <clipPath clipPathUnits="userSpaceOnUse" id="clipPath12">
        <path d="M-3 -3 L137 -3 L137 67 L-3 67 L-3 -3 Z" />
      </clipPath>
      <clipPath clipPathUnits="userSpaceOnUse" id="clipPath13">
        <path d="M0 0 L0 52 L130 52 L130 0 Z" />
      </clipPath>
      <clipPath clipPathUnits="userSpaceOnUse" id="clipPath14">
        <path d="M0 0 L130 0 L130 15 L0 15 L0 0 Z" />
      </clipPath>
      <clipPath clipPathUnits="userSpaceOnUse" id="clipPath15">
        <path d="M-3 -3 L97 -3 L97 47 L-3 47 L-3 -3 Z" />
      </clipPath>
      <clipPath clipPathUnits="userSpaceOnUse" id="clipPath16">
        <path d="M0 0 L0 32 L90 32 L90 0 Z" />
      </clipPath>
      <clipPath clipPathUnits="userSpaceOnUse" id="clipPath17">
        <path d="M0 0 L90 0 L90 15 L0 15 L0 0 Z" />
      </clipPath>
      <clipPath clipPathUnits="userSpaceOnUse" id="clipPath18">
        <path d="M-3 -3 L277 -3 L277 127 L-3 127 L-3 -3 Z" />
      </clipPath>
      <clipPath clipPathUnits="userSpaceOnUse" id="clipPath19">
        <path d="M0 0 L0 112 L270 112 L270 0 Z" />
      </clipPath>
      <clipPath clipPathUnits="userSpaceOnUse" id="clipPath20">
        <path d="M0 0 L270 0 L270 15 L0 15 L0 0 Z" />
      </clipPath>
      <clipPath clipPathUnits="userSpaceOnUse" id="clipPath21">
        <path d="M-3 -3 L97 -3 L97 77 L-3 77 L-3 -3 Z" />
      </clipPath>
      <clipPath clipPathUnits="userSpaceOnUse" id="clipPath22">
        <path d="M0 0 L0 62 L90 62 L90 0 Z" />
      </clipPath>
      <clipPath clipPathUnits="userSpaceOnUse" id="clipPath23">
        <path d="M-3 -3 L117 -3 L117 57 L-3 57 L-3 -3 Z" />
      </clipPath>
      <clipPath clipPathUnits="userSpaceOnUse" id="clipPath24">
        <path d="M0 0 L0 42 L110 42 L110 0 Z" />
      </clipPath>
      <clipPath clipPathUnits="userSpaceOnUse" id="clipPath25">
        <path d="M0 0 L110 0 L110 15 L0 15 L0 0 Z" />
      </clipPath>
      <clipPath clipPathUnits="userSpaceOnUse" id="clipPath26">
        <path d="M-3 -3 L107 -3 L107 97 L-3 97 L-3 -3 Z" />
      </clipPath>
      <clipPath clipPathUnits="userSpaceOnUse" id="clipPath27">
        <path d="M0 0 L0 82 L100 82 L100 0 Z" />
      </clipPath>
      <clipPath clipPathUnits="userSpaceOnUse" id="clipPath28">
        <path d="M0 0 L100 0 L100 15 L0 15 L0 0 Z" />
      </clipPath>
      <clipPath clipPathUnits="userSpaceOnUse" id="clipPath29">
        <path d="M-3 -3 L87 -3 L87 47 L-3 47 L-3 -3 Z" />
      </clipPath>
      <clipPath clipPathUnits="userSpaceOnUse" id="clipPath30">
        <path d="M0 0 L0 32 L80 32 L80 0 Z" />
      </clipPath>
      <clipPath clipPathUnits="userSpaceOnUse" id="clipPath31">
        <path d="M0 0 L80 0 L80 15 L0 15 L0 0 Z" />
      </clipPath>
      <clipPath clipPathUnits="userSpaceOnUse" id="clipPath32">
        <path d="M-3 -3 L117 -3 L117 47 L-3 47 L-3 -3 Z" />
      </clipPath>
      <clipPath clipPathUnits="userSpaceOnUse" id="clipPath33">
        <path d="M0 0 L0 32 L110 32 L110 0 Z" />
      </clipPath>
      <clipPath clipPathUnits="userSpaceOnUse" id="clipPath34">
        <path d="M-3 -3 L127 -3 L127 67 L-3 67 L-3 -3 Z" />
      </clipPath>
      <clipPath clipPathUnits="userSpaceOnUse" id="clipPath35">
        <path d="M0 0 L0 52 L120 52 L120 0 Z" />
      </clipPath>
      <clipPath clipPathUnits="userSpaceOnUse" id="clipPath36">
        <path d="M0 0 L120 0 L120 15 L0 15 L0 0 Z" />
      </clipPath>
      <clipPath clipPathUnits="userSpaceOnUse" id="clipPath37">
        <path d="M-3 -3 L107 -3 L107 67 L-3 67 L-3 -3 Z" />
      </clipPath>
      <clipPath clipPathUnits="userSpaceOnUse" id="clipPath38">
        <path d="M0 0 L0 52 L100 52 L100 0 Z" />
      </clipPath>
      <clipPath clipPathUnits="userSpaceOnUse" id="clipPath39">
        <path d="M-3 -3 L57 -3 L57 21 L-3 21 L-3 -3 Z" />
      </clipPath>
      <clipPath clipPathUnits="userSpaceOnUse" id="clipPath40">
        <path d="M-3 -3 L55 -3 L55 21 L-3 21 L-3 -3 Z" />
      </clipPath>
      <clipPath clipPathUnits="userSpaceOnUse" id="clipPath41">
        <path d="M-3 -3 L77 -3 L77 21 L-3 21 L-3 -3 Z" />
      </clipPath>
      <clipPath clipPathUnits="userSpaceOnUse" id="clipPath42">
        <path d="M-3 -3 L33 -3 L33 21 L-3 21 L-3 -3 Z" />
      </clipPath>
      <clipPath clipPathUnits="userSpaceOnUse" id="clipPath43">
        <path d="M-3 -3 L32 -3 L32 21 L-3 21 L-3 -3 Z" />
      </clipPath>
      <clipPath clipPathUnits="userSpaceOnUse" id="clipPath44">
        <path d="M0 0 L70 0 L70 70 L0 70 L0 0 Z" />
      </clipPath>
      <clipPath clipPathUnits="userSpaceOnUse" id="clipPath45">
        <path d="M0 0 L204 0 L204 204 L0 204 L0 0 Z" />
      </clipPath>
      <clipPath clipPathUnits="userSpaceOnUse" id="clipPath46">
        <path d="M0 0 L240 0 L240 210 L0 210 L0 0 Z" />
      </clipPath>
      <clipPath clipPathUnits="userSpaceOnUse" id="clipPath47">
        <path d="M0 0 L260 0 L260 180 L0 180 L0 0 Z" />
      </clipPath>
      <clipPath clipPathUnits="userSpaceOnUse" id="clipPath48">
        <path d="M0 0 L169 0 L169 190 L0 190 L0 0 Z" />
      </clipPath>
      <clipPath clipPathUnits="userSpaceOnUse" id="clipPath49">
        <path d="M0 0 L70 0 L70 310 L0 310 L0 0 Z" />
      </clipPath>
      <clipPath clipPathUnits="userSpaceOnUse" id="clipPath50">
        <path d="M0 0 L160 0 L160 160 L0 160 L0 0 Z" />
      </clipPath>
      <clipPath clipPathUnits="userSpaceOnUse" id="clipPath51">
        <path d="M0 0 L240 0 L240 360 L0 360 L0 0 Z" />
      </clipPath>
      <clipPath clipPathUnits="userSpaceOnUse" id="clipPath52">
        <path d="M0 0 L299 0 L299 240 L0 240 L0 0 Z" />
      </clipPath>
      <clipPath clipPathUnits="userSpaceOnUse" id="clipPath53">
        <path d="M0 0 L70 0 L70 170 L0 170 L0 0 Z" />
      </clipPath>
      <clipPath clipPathUnits="userSpaceOnUse" id="clipPath54">
        <path d="M0 0 L70 0 L70 220 L0 220 L0 0 Z" />
      </clipPath>
      <clipPath clipPathUnits="userSpaceOnUse" id="clipPath55">
        <path d="M0 0 L250 0 L250 320 L0 320 L0 0 Z" />
      </clipPath>
      <clipPath clipPathUnits="userSpaceOnUse" id="clipPath56">
        <path d="M0 0 L320 0 L320 480 L0 480 L0 0 Z" />
      </clipPath>
      <clipPath clipPathUnits="userSpaceOnUse" id="clipPath57">
        <path d="M0 0 L377 0 L377 417 L0 417 L0 0 Z" />
      </clipPath>
      <clipPath clipPathUnits="userSpaceOnUse" id="clipPath58">
        <path d="M0 0 L397 0 L397 587 L0 587 L0 0 Z" />
      </clipPath>
      <clipPath clipPathUnits="userSpaceOnUse" id="clipPath59">
        <path d="M0 0 L425 0 L425 735 L0 735 L0 0 Z" />
      </clipPath>
      <clipPath clipPathUnits="userSpaceOnUse" id="clipPath60">
        <path d="M0 0 L174 0 L174 115 L0 115 L0 0 Z" />
      </clipPath>
      <clipPath clipPathUnits="userSpaceOnUse" id="clipPath61">
        <path d="M0 0 L159 0 L159 70 L0 70 L0 0 Z" />
      </clipPath>
      <clipPath clipPathUnits="userSpaceOnUse" id="clipPath62">
        <path d="M0 0 L75 0 L75 184 L0 184 L0 0 Z" />
      </clipPath>
      <clipPath clipPathUnits="userSpaceOnUse" id="clipPath63">
        <path d="M0 0 L244 0 L244 115 L0 115 L0 0 Z" />
      </clipPath>
      <clipPath clipPathUnits="userSpaceOnUse" id="clipPath64">
        <path d="M-26 -14 L52 -14 L52 28 L-26 28 L-26 -14 Z" />
      </clipPath>
      <clipPath clipPathUnits="userSpaceOnUse" id="clipPath65">
        <path d="M-25 -14 L50 -14 L50 28 L-25 28 L-25 -14 Z" />
      </clipPath>
      <clipPath clipPathUnits="userSpaceOnUse" id="clipPath66">
        <path d="M-70 -14 L140 -14 L140 28 L-70 28 L-70 -14 Z" />
      </clipPath>
      <clipPath clipPathUnits="userSpaceOnUse" id="clipPath67">
        <path d="M-48 -14 L96 -14 L96 28 L-48 28 L-48 -14 Z" />
      </clipPath>
      <clipPath clipPathUnits="userSpaceOnUse" id="clipPath68">
        <path d="M-50 -14 L100 -14 L100 28 L-50 28 L-50 -14 Z" />
      </clipPath>
    </defs>
    <g style="fill:white; text-rendering:geometricPrecision; stroke:white;">
      <rect x="0" y="0" width="1076" style="stroke:none;" height="1038" />
      <rect x="588" y="28" transform="translate(-588,-28)" width="1075" style="fill:none; stroke:black;" height="1037" />
      <text x="595" y="45" transform="translate(-588,-28)" style="fill:black; stroke:none;" xml:space="preserve">class Actions</text>
      <line transform="translate(-588,-28)" x1="588" x2="668" y1="52" style="fill:none; stroke:black;" y2="52" />
      <line transform="translate(-588,-28)" x1="674" x2="674" y1="28" style="fill:none; stroke:black;" y2="42" />
      <line transform="translate(-588,-28)" x1="674" x2="668" y1="42" style="fill:none; stroke:black;" y2="52" />
    </g>
    <g transform="translate(12,164)" style="font-size:11; fill:rgb(122,207,245); text-rendering:geometricPrecision; font-family:sans-serif; stroke:rgb(122,207,245);">
      <rect x="0" y="0" width="209" style="clip-path:url(#clipPath1); stroke:none;" height="20" />
      <rect x="0" y="20" width="1049" style="clip-path:url(#clipPath1); stroke:none;" height="839" />
    </g>
    <g transform="translate(12,164)" style="font-size:11; stroke-linecap:butt; text-rendering:geometricPrecision; font-family:sans-serif; stroke-linejoin:round; stroke-miterlimit:0;">
      <rect x="0" y="0" width="209" style="clip-path:url(#clipPath1); fill:none;" height="20" />
      <rect x="0" y="20" width="1049" style="clip-path:url(#clipPath1); fill:none;" height="839" />
    </g>
    <g style="text-rendering:geometricPrecision; font-size:11; font-family:sans-serif;" transform="translate(12,184)">
      <text x="499" y="12" style="clip-path:url(#clipPath2); stroke:none;" xml:space="preserve">controllers</text>
    </g>
    <g transform="translate(292,34)" style="font-size:11; fill:rgb(122,207,245); text-rendering:geometricPrecision; font-family:sans-serif; stroke:rgb(122,207,245);">
      <rect x="0" y="0" width="49" style="clip-path:url(#clipPath3); stroke:none;" height="20" />
      <rect x="0" y="20" width="249" style="clip-path:url(#clipPath3); stroke:none;" height="99" />
    </g>
    <g transform="translate(292,34)" style="font-size:11; stroke-linecap:butt; text-rendering:geometricPrecision; font-family:sans-serif; stroke-linejoin:round; stroke-miterlimit:0;">
      <rect x="0" y="0" width="49" style="clip-path:url(#clipPath3); fill:none;" height="20" />
      <rect x="0" y="20" width="249" style="clip-path:url(#clipPath3); fill:none;" height="99" />
    </g>
    <g style="text-rendering:geometricPrecision; font-size:11; font-family:sans-serif;" transform="translate(292,54)">
      <text x="108" y="12" style="clip-path:url(#clipPath4); stroke:none;" xml:space="preserve">libGDX</text>
    </g>
    <g transform="translate(32,194)" style="font-size:11; fill:rgb(122,207,245); text-rendering:geometricPrecision; font-family:sans-serif; stroke:rgb(122,207,245);">
      <rect x="0" y="0" width="123" style="clip-path:url(#clipPath5); stroke:none;" height="20" />
      <rect x="0" y="20" width="619" style="clip-path:url(#clipPath5); stroke:none;" height="779" />
    </g>
    <g transform="translate(32,194)" style="font-size:11; stroke-linecap:butt; text-rendering:geometricPrecision; font-family:sans-serif; stroke-linejoin:round; stroke-miterlimit:0;">
      <rect x="0" y="0" width="123" style="clip-path:url(#clipPath5); fill:none;" height="20" />
      <rect x="0" y="20" width="619" style="clip-path:url(#clipPath5); fill:none;" height="779" />
    </g>
    <g style="text-rendering:geometricPrecision; font-size:11; font-family:sans-serif;" transform="translate(32,214)">
      <text x="292" y="12" style="clip-path:url(#clipPath6); stroke:none;" xml:space="preserve">actions</text>
    </g>
    <g transform="translate(672,214)" style="font-size:11; fill:rgb(122,207,245); text-rendering:geometricPrecision; font-family:sans-serif; stroke:rgb(122,207,245);">
      <rect x="0" y="0" width="73" style="clip-path:url(#clipPath7); stroke:none;" height="20" />
      <rect x="0" y="20" width="369" style="clip-path:url(#clipPath7); stroke:none;" height="209" />
    </g>
    <g transform="translate(672,214)" style="font-size:11; stroke-linecap:butt; text-rendering:geometricPrecision; font-family:sans-serif; stroke-linejoin:round; stroke-miterlimit:0;">
      <rect x="0" y="0" width="73" style="clip-path:url(#clipPath7); fill:none;" height="20" />
      <rect x="0" y="20" width="369" style="clip-path:url(#clipPath7); fill:none;" height="209" />
    </g>
    <g style="text-rendering:geometricPrecision; font-size:11; font-family:sans-serif;" transform="translate(672,234)">
      <text x="160" y="12" style="clip-path:url(#clipPath8); stroke:none;" xml:space="preserve">pathfinder</text>
    </g>
    <g transform="translate(312,74)" style="font-size:11; fill:rgb(122,207,245); text-rendering:geometricPrecision; font-family:sans-serif; stroke:rgb(122,207,245); font-weight:bold;">
      <rect x="0" y="0" width="140" style="clip-path:url(#clipPath9); stroke:none;" height="60" />
    </g>
    <g transform="translate(312,74)" style="font-size:11; stroke-linecap:butt; text-rendering:geometricPrecision; font-family:sans-serif; stroke-linejoin:round; font-weight:bold; stroke-miterlimit:0;">
      <rect x="0" y="0" width="140" style="clip-path:url(#clipPath9); fill:none;" height="60" />
      <line x1="0" x2="140" y1="15" style="clip-path:url(#clipPath9); fill:none;" y2="15" />
    </g>
    <g style="text-rendering:geometricPrecision; font-size:11; font-family:sans-serif;" transform="translate(312,89)">
      <text x="2" y="14" style="clip-path:url(#clipPath10); stroke:none;" xml:space="preserve">+act(delta : float) : boolean</text>
      <text x="2" y="29" style="clip-path:url(#clipPath10); stroke:none;" xml:space="preserve">+finish() : void</text>
    </g>
    <g transform="translate(312,74)" style="text-rendering:geometricPrecision; font-size:11; font-weight:bold; font-family:sans-serif;">
      <text x="52" y="12" style="clip-path:url(#clipPath11); stroke:none;" xml:space="preserve">Action</text>
    </g>
    <g transform="translate(312,244)" style="font-size:11; fill:rgb(122,207,245); text-rendering:geometricPrecision; font-family:sans-serif; stroke:rgb(122,207,245); font-weight:bold;">
      <rect x="0" y="0" width="130" style="clip-path:url(#clipPath12); stroke:none;" height="60" />
    </g>
    <g transform="translate(312,244)" style="font-size:11; stroke-linecap:butt; text-rendering:geometricPrecision; font-family:sans-serif; stroke-linejoin:round; font-weight:bold; stroke-miterlimit:0;">
      <rect x="0" y="0" width="130" style="clip-path:url(#clipPath12); fill:none;" height="60" />
      <line x1="0" x2="130" y1="15" style="clip-path:url(#clipPath12); fill:none;" y2="15" />
    </g>
    <g style="text-rendering:geometricPrecision; font-size:11; font-family:sans-serif;" transform="translate(312,259)">
      <text x="2" y="14" style="clip-path:url(#clipPath13); stroke:none;" xml:space="preserve">-character : MCharacter</text>
    </g>
    <g transform="translate(312,244)" style="text-rendering:geometricPrecision; font-size:11; font-weight:bold; font-family:sans-serif;">
      <text x="32" y="12" style="clip-path:url(#clipPath14); stroke:none;" xml:space="preserve">GameAction</text>
    </g>
    <g transform="translate(492,444)" style="font-size:11; fill:rgb(122,207,245); text-rendering:geometricPrecision; font-family:sans-serif; stroke:rgb(122,207,245); font-weight:bold;">
      <rect x="0" y="0" width="90" style="clip-path:url(#clipPath15); stroke:none;" height="40" />
    </g>
    <g transform="translate(492,444)" style="font-size:11; stroke-linecap:butt; text-rendering:geometricPrecision; font-family:sans-serif; stroke-linejoin:round; font-weight:bold; stroke-miterlimit:0;">
      <rect x="0" y="0" width="90" style="clip-path:url(#clipPath15); fill:none;" height="40" />
      <line x1="0" x2="90" y1="15" style="clip-path:url(#clipPath15); fill:none;" y2="15" />
    </g>
    <g style="text-rendering:geometricPrecision; font-size:11; font-family:sans-serif;" transform="translate(492,459)">
      <text x="2" y="14" style="clip-path:url(#clipPath16); stroke:none;" xml:space="preserve">-destination : int</text>
    </g>
    <g transform="translate(492,444)" style="text-rendering:geometricPrecision; font-size:11; font-weight:bold; font-family:sans-serif;">
      <text x="30" y="12" style="clip-path:url(#clipPath17); stroke:none;" xml:space="preserve">GoTo</text>
    </g>
    <g transform="translate(752,284)" style="font-size:11; fill:rgb(122,207,245); text-rendering:geometricPrecision; font-family:sans-serif; stroke:rgb(122,207,245); font-weight:bold;">
      <rect x="0" y="0" width="270" style="clip-path:url(#clipPath18); stroke:none;" height="120" />
    </g>
    <g transform="translate(752,284)" style="font-size:11; stroke-linecap:butt; text-rendering:geometricPrecision; font-family:sans-serif; stroke-linejoin:round; font-weight:bold; stroke-miterlimit:0;">
      <rect x="0" y="0" width="270" style="clip-path:url(#clipPath18); fill:none;" height="120" />
      <line x1="0" x2="270" y1="15" style="clip-path:url(#clipPath18); fill:none;" y2="15" />
    </g>
    <g style="text-rendering:geometricPrecision; font-size:11; font-family:sans-serif;" transform="translate(752,299)">
      <text x="2" y="14" style="clip-path:url(#clipPath19); stroke:none;" xml:space="preserve">-ALLOW_DIAGONAL_MOVEMENT : boolean = false</text>
      <line x1="2" x2="250" y1="16" style="clip-path:url(#clipPath19); fill:none;" y2="16" />
      <text x="2" y="29" style="clip-path:url(#clipPath19); stroke:none;" xml:space="preserve">-STRAIGHT_MOVEMENT_COST : int = 10</text>
      <line x1="2" x2="198" y1="31" style="clip-path:url(#clipPath19); fill:none;" y2="31" />
      <text x="2" y="44" style="clip-path:url(#clipPath19); stroke:none;" xml:space="preserve">-DIAGONAL_MOVEMENT_COST : int = 14</text>
      <line x1="2" x2="201" y1="46" style="clip-path:url(#clipPath19); fill:none;" y2="46" />
      <line x1="0" x2="270" y1="49" style="stroke-linecap:butt; clip-path:url(#clipPath19); fill:none; stroke-linejoin:bevel; stroke-miterlimit:0;" y2="49" />
      <text x="2" y="63" style="clip-path:url(#clipPath19); stroke:none;" xml:space="preserve">+Pathfinder(beginNode : Node, goalNode : Node)</text>
      <text x="2" y="78" style="clip-path:url(#clipPath19); stroke:none;" xml:space="preserve">+run()</text>
      <text x="2" y="93" style="clip-path:url(#clipPath19); stroke:none;" xml:space="preserve">+getPath() : Node [0..*]</text>
    </g>
    <g transform="translate(752,284)" style="text-rendering:geometricPrecision; font-size:11; font-weight:bold; font-family:sans-serif;">
      <text x="107" y="12" style="clip-path:url(#clipPath20); stroke:none;" xml:space="preserve">Pathfinder</text>
    </g>
    <g transform="translate(302,544)" style="font-size:11; fill:rgb(122,207,245); text-rendering:geometricPrecision; font-family:sans-serif; stroke:rgb(122,207,245); font-weight:bold;">
      <rect x="0" y="0" width="90" style="clip-path:url(#clipPath21); stroke:none;" height="70" />
    </g>
    <g transform="translate(302,544)" style="font-size:11; stroke-linecap:butt; text-rendering:geometricPrecision; font-family:sans-serif; stroke-linejoin:round; font-weight:bold; stroke-miterlimit:0;">
      <rect x="0" y="0" width="90" style="clip-path:url(#clipPath21); fill:none;" height="70" />
      <line x1="0" x2="90" y1="15" style="clip-path:url(#clipPath21); fill:none;" y2="15" />
    </g>
    <g transform="translate(302,559)" style="font-size:11; stroke-linecap:butt; text-rendering:geometricPrecision; font-family:sans-serif; stroke-linejoin:round; stroke-miterlimit:0;">
      <text x="2" y="14" style="clip-path:url(#clipPath22); stroke:none;" xml:space="preserve">-dorm : Dorm</text>
      <text x="2" y="29" style="clip-path:url(#clipPath22); stroke:none;" xml:space="preserve">-bed : Bed</text>
    </g>
    <g transform="translate(302,544)" style="font-size:11; stroke-linecap:butt; text-rendering:geometricPrecision; font-family:sans-serif; stroke-linejoin:round; font-weight:bold; stroke-miterlimit:0;">
      <text x="13" y="12" style="clip-path:url(#clipPath17); stroke:none;" xml:space="preserve">GoSleeping</text>
    </g>
    <g transform="translate(222,394)" style="font-size:11; fill:rgb(122,207,245); text-rendering:geometricPrecision; font-family:sans-serif; stroke:rgb(122,207,245); font-weight:bold;">
      <rect x="0" y="0" width="110" style="clip-path:url(#clipPath23); stroke:none;" height="50" />
    </g>
    <g transform="translate(222,394)" style="font-size:11; stroke-linecap:butt; text-rendering:geometricPrecision; font-family:sans-serif; stroke-linejoin:round; font-weight:bold; stroke-miterlimit:0;">
      <rect x="0" y="0" width="110" style="clip-path:url(#clipPath23); fill:none;" height="50" />
      <line x1="0" x2="110" y1="15" style="clip-path:url(#clipPath23); fill:none;" y2="15" />
    </g>
    <g style="text-rendering:geometricPrecision; font-size:11; font-family:sans-serif;" transform="translate(222,409)">
      <text x="2" y="14" style="clip-path:url(#clipPath24); stroke:none;" xml:space="preserve">-needs : Needs</text>
    </g>
    <g transform="translate(222,394)" style="text-rendering:geometricPrecision; font-size:11; font-weight:bold; font-family:sans-serif;">
      <text x="18" y="12" style="clip-path:url(#clipPath25); stroke:none;" xml:space="preserve">ManageNeeds</text>
    </g>
    <g transform="translate(162,594)" style="font-size:11; fill:rgb(122,207,245); text-rendering:geometricPrecision; font-family:sans-serif; stroke:rgb(122,207,245); font-weight:bold;">
      <rect x="0" y="0" width="100" style="clip-path:url(#clipPath26); stroke:none;" height="90" />
    </g>
    <g transform="translate(162,594)" style="font-size:11; stroke-linecap:butt; text-rendering:geometricPrecision; font-family:sans-serif; stroke-linejoin:round; font-weight:bold; stroke-miterlimit:0;">
      <rect x="0" y="0" width="100" style="clip-path:url(#clipPath26); fill:none;" height="90" />
      <line x1="0" x2="100" y1="15" style="clip-path:url(#clipPath26); fill:none;" y2="15" />
    </g>
    <g transform="translate(162,609)" style="font-size:11; stroke-linecap:butt; text-rendering:geometricPrecision; font-family:sans-serif; stroke-linejoin:round; stroke-miterlimit:0;">
      <text x="2" y="14" style="clip-path:url(#clipPath27); stroke:none;" xml:space="preserve">-tavern : Tavern</text>
      <text x="2" y="29" style="clip-path:url(#clipPath27); stroke:none;" xml:space="preserve">-table : Table</text>
      <text x="2" y="44" style="clip-path:url(#clipPath27); stroke:none;" xml:space="preserve">-counter : Counter</text>
      <text x="2" y="59" style="clip-path:url(#clipPath27); stroke:none;" xml:space="preserve">-slot : Slot</text>
    </g>
    <g transform="translate(162,594)" style="font-size:11; stroke-linecap:butt; text-rendering:geometricPrecision; font-family:sans-serif; stroke-linejoin:round; font-weight:bold; stroke-miterlimit:0;">
      <text x="20" y="12" style="clip-path:url(#clipPath28); stroke:none;" xml:space="preserve">GoDrinking</text>
    </g>
    <g transform="translate(72,714)" style="font-size:11; fill:rgb(122,207,245); text-rendering:geometricPrecision; font-family:sans-serif; stroke:rgb(122,207,245); font-weight:bold;">
      <rect x="0" y="0" width="80" style="clip-path:url(#clipPath29); stroke:none;" height="40" />
    </g>
    <g transform="translate(72,714)" style="font-size:11; stroke-linecap:butt; text-rendering:geometricPrecision; font-family:sans-serif; stroke-linejoin:round; font-weight:bold; stroke-miterlimit:0;">
      <rect x="0" y="0" width="80" style="clip-path:url(#clipPath29); fill:none;" height="40" />
      <line x1="0" x2="80" y1="15" style="clip-path:url(#clipPath29); fill:none;" y2="15" />
    </g>
    <g transform="translate(72,714)" style="font-size:11; stroke-linecap:butt; text-rendering:geometricPrecision; font-family:sans-serif; stroke-linejoin:round; font-weight:bold; stroke-miterlimit:0;">
      <text x="21" y="12" style="clip-path:url(#clipPath31); stroke:none;" xml:space="preserve">Mining</text>
    </g>
    <g transform="translate(242,714)" style="font-size:11; fill:rgb(122,207,245); text-rendering:geometricPrecision; font-family:sans-serif; stroke:rgb(122,207,245); font-weight:bold;">
      <rect x="0" y="0" width="110" style="clip-path:url(#clipPath32); stroke:none;" height="40" />
    </g>
    <g transform="translate(242,714)" style="font-size:11; stroke-linecap:butt; text-rendering:geometricPrecision; font-family:sans-serif; stroke-linejoin:round; font-weight:bold; stroke-miterlimit:0;">
      <rect x="0" y="0" width="110" style="clip-path:url(#clipPath32); fill:none;" height="40" />
      <line x1="0" x2="110" y1="15" style="clip-path:url(#clipPath32); fill:none;" y2="15" />
    </g>
    <g style="text-rendering:geometricPrecision; font-size:11; font-family:sans-serif;" transform="translate(242,729)">
      <text x="2" y="14" style="clip-path:url(#clipPath33); stroke:none;" xml:space="preserve">-blockPosition : int[2]</text>
    </g>
    <g transform="translate(242,714)" style="text-rendering:geometricPrecision; font-size:11; font-weight:bold; font-family:sans-serif;">
      <text x="23" y="12" style="clip-path:url(#clipPath25); stroke:none;" xml:space="preserve">MineABlock</text>
    </g>
    <g transform="translate(122,784)" style="font-size:11; fill:rgb(122,207,245); text-rendering:geometricPrecision; font-family:sans-serif; stroke:rgb(122,207,245); font-weight:bold;">
      <rect x="0" y="0" width="120" style="clip-path:url(#clipPath34); stroke:none;" height="60" />
    </g>
    <g transform="translate(122,784)" style="font-size:11; stroke-linecap:butt; text-rendering:geometricPrecision; font-family:sans-serif; stroke-linejoin:round; font-weight:bold; stroke-miterlimit:0;">
      <rect x="0" y="0" width="120" style="clip-path:url(#clipPath34); fill:none;" height="60" />
      <line x1="0" x2="120" y1="15" style="clip-path:url(#clipPath34); fill:none;" y2="15" />
    </g>
    <g transform="translate(122,799)" style="font-size:11; stroke-linecap:butt; text-rendering:geometricPrecision; font-family:sans-serif; stroke-linejoin:round; stroke-miterlimit:0;">
      <text x="2" y="14" style="clip-path:url(#clipPath35); stroke:none;" xml:space="preserve">-workshop : Workshop</text>
      <text x="2" y="29" style="clip-path:url(#clipPath35); stroke:none;" xml:space="preserve">-anvil : Anvil</text>
    </g>
    <g transform="translate(122,784)" style="font-size:11; stroke-linecap:butt; text-rendering:geometricPrecision; font-family:sans-serif; stroke-linejoin:round; font-weight:bold; stroke-miterlimit:0;">
      <text x="38" y="12" style="clip-path:url(#clipPath36); stroke:none;" xml:space="preserve">Crafting</text>
    </g>
    <g transform="translate(132,894)" style="font-size:11; fill:rgb(122,207,245); text-rendering:geometricPrecision; font-family:sans-serif; stroke:rgb(122,207,245); font-weight:bold;">
      <rect x="0" y="0" width="100" style="clip-path:url(#clipPath37); stroke:none;" height="60" />
    </g>
    <g transform="translate(132,894)" style="font-size:11; stroke-linecap:butt; text-rendering:geometricPrecision; font-family:sans-serif; stroke-linejoin:round; font-weight:bold; stroke-miterlimit:0;">
      <rect x="0" y="0" width="100" style="clip-path:url(#clipPath37); fill:none;" height="60" />
      <line x1="0" x2="100" y1="15" style="clip-path:url(#clipPath37); fill:none;" y2="15" />
    </g>
    <g style="text-rendering:geometricPrecision; font-size:11; font-family:sans-serif;" transform="translate(132,909)">
      <text x="2" y="14" style="clip-path:url(#clipPath38); stroke:none;" xml:space="preserve">-Tavern : tavern</text>
      <text x="2" y="29" style="clip-path:url(#clipPath38); stroke:none;" xml:space="preserve">-Counter : counter</text>
    </g>
    <g transform="translate(132,894)" style="text-rendering:geometricPrecision; font-size:11; font-weight:bold; font-family:sans-serif;">
      <text x="29" y="12" style="clip-path:url(#clipPath28); stroke:none;" xml:space="preserve">Serving</text>
    </g>
    <g transform="translate(292,904)" style="font-size:11; fill:rgb(122,207,245); text-rendering:geometricPrecision; font-family:sans-serif; stroke:rgb(122,207,245); font-weight:bold;">
      <rect x="0" y="0" width="90" style="clip-path:url(#clipPath15); stroke:none;" height="40" />
    </g>
    <g transform="translate(292,904)" style="font-size:11; stroke-linecap:butt; text-rendering:geometricPrecision; font-family:sans-serif; stroke-linejoin:round; font-weight:bold; stroke-miterlimit:0;">
      <rect x="0" y="0" width="90" style="clip-path:url(#clipPath15); fill:none;" height="40" />
      <line x1="0" x2="90" y1="15" style="clip-path:url(#clipPath15); fill:none;" y2="15" />
    </g>
    <g transform="translate(292,919)" style="font-size:11; stroke-linecap:butt; text-rendering:geometricPrecision; font-family:sans-serif; stroke-linejoin:round; stroke-miterlimit:0;">
      <text x="2" y="14" style="clip-path:url(#clipPath16); stroke:none;" xml:space="preserve">-barrel : Barrel</text>
    </g>
    <g transform="translate(292,904)" style="font-size:11; stroke-linecap:butt; text-rendering:geometricPrecision; font-family:sans-serif; stroke-linejoin:round; font-weight:bold; stroke-miterlimit:0;">
      <text x="13" y="12" style="clip-path:url(#clipPath17); stroke:none;" xml:space="preserve">ServeABeer</text>
    </g>
    <g transform="translate(102,254)" style="font-size:11; fill:rgb(122,207,245); text-rendering:geometricPrecision; font-family:sans-serif; stroke:rgb(122,207,245); font-weight:bold;">
      <rect x="0" y="0" width="80" style="clip-path:url(#clipPath29); stroke:none;" height="40" />
    </g>
    <g transform="translate(102,254)" style="font-size:11; stroke-linecap:butt; text-rendering:geometricPrecision; font-family:sans-serif; stroke-linejoin:round; font-weight:bold; stroke-miterlimit:0;">
      <rect x="0" y="0" width="80" style="clip-path:url(#clipPath29); fill:none;" height="40" />
      <line x1="0" x2="80" y1="15" style="clip-path:url(#clipPath29); fill:none;" y2="15" />
    </g>
    <g transform="translate(102,254)" style="text-rendering:geometricPrecision; font-size:11; font-weight:bold; font-family:sans-serif;">
      <text x="9" y="12" style="clip-path:url(#clipPath31); stroke:none;" xml:space="preserve">GoWorking</text>
    </g>
    <g transform="translate(328,270)" style="font-size:11; stroke-linecap:butt; text-rendering:geometricPrecision; font-family:sans-serif; stroke-linejoin:round;">
      <line x1="34" x2="34" y1="33" style="clip-path:url(#clipPath46); fill:none;" y2="53" />
      <line x1="34" x2="204" y1="53" style="clip-path:url(#clipPath46); fill:none;" y2="53" />
      <line x1="204" x2="204" y1="53" style="clip-path:url(#clipPath46); fill:none;" y2="173" />
      <polygon style="fill:white; clip-path:url(#clipPath46); stroke:none;" points=" 34 33 28 45 40 45" />
      <polygon style="fill:none; clip-path:url(#clipPath46);" points=" 34 33 28 45 40 45" />
    </g>
    <g transform="translate(528,300)" style="font-size:11; stroke-linecap:butt; text-rendering:geometricPrecision; font-family:sans-serif; stroke-linejoin:round;">
      <line x1="33" x2="33" y1="119" style="clip-path:url(#clipPath47); fill:none;" y2="33" />
      <line x1="33" x2="223" y1="33" style="clip-path:url(#clipPath47); fill:none;" y2="33" />
      <polygon style="clip-path:url(#clipPath47); stroke:none;" points=" 33 143 39 131 33 119 27 131" />
      <polygon style="fill:none; clip-path:url(#clipPath47);" points=" 33 143 39 131 33 119 27 131" />
    </g>
    <g transform="translate(358,430)" style="font-size:11; stroke-linecap:butt; text-rendering:geometricPrecision; font-family:sans-serif; stroke-linejoin:round;">
      <line x1="58" x2="94" y1="153" style="clip-path:url(#clipPath48); fill:none;" y2="153" />
      <line x1="94" x2="94" y1="153" style="clip-path:url(#clipPath48); fill:none;" y2="33" />
      <line x1="94" x2="132" y1="33" style="clip-path:url(#clipPath48); fill:none;" y2="33" />
      <polygon style="clip-path:url(#clipPath48); stroke:none;" points=" 34 153 46 159 58 153 46 147" />
      <polygon style="fill:none; clip-path:url(#clipPath48);" points=" 34 153 46 159 58 153 46 147" />
    </g>
    <g transform="translate(328,270)" style="font-size:11; stroke-linecap:butt; text-rendering:geometricPrecision; font-family:sans-serif; stroke-linejoin:round;">
      <line x1="34" x2="34" y1="33" style="clip-path:url(#clipPath49); fill:none;" y2="273" />
      <polygon style="fill:white; clip-path:url(#clipPath49); stroke:none;" points=" 34 33 28 45 40 45" />
      <polygon style="fill:none; clip-path:url(#clipPath49);" points=" 34 33 28 45 40 45" />
    </g>
    <g transform="translate(238,270)" style="font-size:11; stroke-linecap:butt; text-rendering:geometricPrecision; font-family:sans-serif; stroke-linejoin:round;">
      <line x1="124" x2="124" y1="33" style="clip-path:url(#clipPath50); fill:none;" y2="53" />
      <line x1="124" x2="34" y1="53" style="clip-path:url(#clipPath50); fill:none;" y2="53" />
      <line x1="34" x2="34" y1="53" style="clip-path:url(#clipPath50); fill:none;" y2="123" />
      <polygon style="fill:white; clip-path:url(#clipPath50); stroke:none;" points=" 124 33 118 45 130 45" />
      <polygon style="fill:none; clip-path:url(#clipPath50);" points=" 124 33 118 45 130 45" />
    </g>
    <g transform="translate(158,270)" style="font-size:11; stroke-linecap:butt; text-rendering:geometricPrecision; font-family:sans-serif; stroke-linejoin:round;">
      <line x1="204" x2="204" y1="33" style="clip-path:url(#clipPath51); fill:none;" y2="53" />
      <line x1="204" x2="34" y1="53" style="clip-path:url(#clipPath51); fill:none;" y2="53" />
      <line x1="34" x2="34" y1="53" style="clip-path:url(#clipPath51); fill:none;" y2="323" />
      <polygon style="fill:white; clip-path:url(#clipPath51); stroke:none;" points=" 204 33 198 45 210 45" />
      <polygon style="fill:none; clip-path:url(#clipPath51);" points=" 204 33 198 45 210 45" />
    </g>
    <g transform="translate(228,430)" style="font-size:11; stroke-linecap:butt; text-rendering:geometricPrecision; font-family:sans-serif; stroke-linejoin:round;">
      <line x1="58" x2="224" y1="203" style="clip-path:url(#clipPath52); fill:none;" y2="203" />
      <line x1="224" x2="224" y1="203" style="clip-path:url(#clipPath52); fill:none;" y2="33" />
      <line x1="224" x2="262" y1="33" style="clip-path:url(#clipPath52); fill:none;" y2="33" />
      <polygon style="clip-path:url(#clipPath52); stroke:none;" points=" 34 203 46 209 58 203 46 197" />
      <polygon style="fill:none; clip-path:url(#clipPath52);" points=" 34 203 46 209 58 203 46 197" />
    </g>
    <g transform="translate(278,410)" style="font-size:11; stroke-linecap:butt; text-rendering:geometricPrecision; font-family:sans-serif; stroke-linejoin:round;">
      <line x1="34" x2="34" y1="57" style="clip-path:url(#clipPath53); fill:none;" y2="133" />
      <polygon style="clip-path:url(#clipPath53); stroke:none;" points=" 34 33 28 45 34 57 40 45" />
      <polygon style="fill:none; clip-path:url(#clipPath53);" points=" 34 33 28 45 34 57 40 45" />
    </g>
    <g transform="translate(208,410)" style="font-size:11; stroke-linecap:butt; text-rendering:geometricPrecision; font-family:sans-serif; stroke-linejoin:round;">
      <line x1="34" x2="34" y1="57" style="clip-path:url(#clipPath54); fill:none;" y2="183" />
      <polygon style="clip-path:url(#clipPath54); stroke:none;" points=" 34 33 28 45 34 57 40 45" />
      <polygon style="fill:none; clip-path:url(#clipPath54);" points=" 34 33 28 45 34 57 40 45" />
    </g>
    <g transform="translate(318,450)" style="font-size:11; stroke-linecap:butt; text-rendering:geometricPrecision; font-family:sans-serif; stroke-linejoin:round;">
      <line x1="58" x2="214" y1="284" style="clip-path:url(#clipPath55); fill:none;" y2="284" />
      <line x1="214" x2="214" y1="284" style="clip-path:url(#clipPath55); fill:none;" y2="33" />
      <polygon style="clip-path:url(#clipPath55); stroke:none;" points=" 34 284 46 290 58 284 46 278" />
      <polygon style="fill:none; clip-path:url(#clipPath55);" points=" 34 284 46 290 58 284 46 278" />
    </g>
    <g transform="translate(78,270)" style="font-size:11; stroke-linecap:butt; text-rendering:geometricPrecision; font-family:sans-serif; stroke-linejoin:round;">
      <line x1="284" x2="284" y1="33" style="clip-path:url(#clipPath56); fill:none;" y2="53" />
      <line x1="284" x2="34" y1="53" style="clip-path:url(#clipPath56); fill:none;" y2="53" />
      <line x1="34" x2="34" y1="53" style="clip-path:url(#clipPath56); fill:none;" y2="424" />
      <line x1="34" x2="214" y1="424" style="clip-path:url(#clipPath56); fill:none;" y2="424" />
      <line x1="214" x2="214" y1="424" style="clip-path:url(#clipPath56); fill:none;" y2="443" />
      <polygon style="fill:white; clip-path:url(#clipPath56); stroke:none;" points=" 284 33 278 45 290 45" />
      <polygon style="fill:none; clip-path:url(#clipPath56);" points=" 284 33 278 45 290 45" />
    </g>
    <g transform="translate(200,442)" style="font-size:11; stroke-linecap:butt; text-rendering:geometricPrecision; font-family:sans-serif; stroke-linejoin:round;">
      <line x1="65" x2="331" y1="372" style="clip-path:url(#clipPath57); fill:none;" y2="372" />
      <line x1="331" x2="331" y1="372" style="clip-path:url(#clipPath57); fill:none;" y2="42" />
      <polygon style="clip-path:url(#clipPath57); stroke:none;" points=" 41 372 53 378 65 372 53 366" />
      <polygon style="fill:none; clip-path:url(#clipPath57);" points=" 41 372 53 378 65 372 53 366" />
    </g>
    <g transform="translate(10,262)" style="font-size:11; stroke-linecap:butt; text-rendering:geometricPrecision; font-family:sans-serif; stroke-linejoin:round;">
      <line x1="351" x2="351" y1="42" style="clip-path:url(#clipPath58); fill:none;" y2="62" />
      <line x1="351" x2="41" y1="62" style="clip-path:url(#clipPath58); fill:none;" y2="62" />
      <line x1="41" x2="41" y1="62" style="clip-path:url(#clipPath58); fill:none;" y2="542" />
      <line x1="41" x2="111" y1="542" style="clip-path:url(#clipPath58); fill:none;" y2="542" />
      <polygon style="fill:white; clip-path:url(#clipPath58); stroke:none;" points=" 351 42 345 54 357 54" />
      <polygon style="fill:none; clip-path:url(#clipPath58);" points=" 351 42 345 54 357 54" />
    </g>
    <g transform="translate(-4,248)" style="font-size:11; stroke-linecap:butt; text-rendering:geometricPrecision; font-family:sans-serif; stroke-linejoin:round;">
      <line x1="366" x2="366" y1="56" style="clip-path:url(#clipPath59); fill:none;" y2="74" />
      <line x1="366" x2="56" y1="74" style="clip-path:url(#clipPath59); fill:none;" y2="74" />
      <line x1="56" x2="56" y1="74" style="clip-path:url(#clipPath59); fill:none;" y2="675" />
      <line x1="56" x2="134" y1="675" style="clip-path:url(#clipPath59); fill:none;" y2="675" />
      <polygon style="fill:white; clip-path:url(#clipPath59); stroke:none;" points=" 366 56 360 68 372 68" />
      <polygon style="fill:none; clip-path:url(#clipPath59);" points=" 366 56 360 68 372 68" />
    </g>
    <g transform="translate(176,868)" style="font-size:11; stroke-linecap:butt; text-rendering:geometricPrecision; font-family:sans-serif; stroke-linejoin:round;">
      <line x1="80" x2="114" y1="56" style="clip-path:url(#clipPath60); fill:none;" y2="56" />
      <polygon style="clip-path:url(#clipPath60); stroke:none;" points=" 56 56 68 62 80 56 68 50" />
      <polygon style="fill:none; clip-path:url(#clipPath60);" points=" 56 56 68 62 80 56 68 50" />
    </g>
    <g transform="translate(78,270)" style="font-size:11; stroke-linecap:butt; text-rendering:geometricPrecision; font-family:sans-serif; stroke-linejoin:round;">
      <line x1="284" x2="284" y1="33" style="clip-path:url(#clipPath56); fill:none;" y2="53" />
      <line x1="284" x2="34" y1="53" style="clip-path:url(#clipPath56); fill:none;" y2="53" />
      <line x1="34" x2="34" y1="53" style="clip-path:url(#clipPath56); fill:none;" y2="443" />
      <polygon style="fill:white; clip-path:url(#clipPath56); stroke:none;" points=" 284 33 278 45 290 45" />
      <polygon style="fill:none; clip-path:url(#clipPath56);" points=" 284 33 278 45 290 45" />
    </g>
    <g transform="translate(118,700)" style="font-size:11; stroke-linecap:butt; text-rendering:geometricPrecision; font-family:sans-serif; stroke-linejoin:round;">
      <line x1="58" x2="122" y1="34" style="clip-path:url(#clipPath61); fill:none;" y2="34" />
      <polygon style="clip-path:url(#clipPath61); stroke:none;" points=" 34 34 46 40 58 34 46 28" />
      <polygon style="fill:none; clip-path:url(#clipPath61);" points=" 34 34 46 40 58 34 46 28" />
    </g>
    <g transform="translate(341,98)" style="font-size:11; stroke-linecap:butt; text-rendering:geometricPrecision; font-family:sans-serif; stroke-linejoin:round;">
      <line x1="35" x2="35" y1="36" style="clip-path:url(#clipPath62); fill:none;" y2="145" />
      <polygon style="fill:white; clip-path:url(#clipPath62); stroke:none;" points=" 35 36 29 48 41 48" />
      <polygon style="fill:none; clip-path:url(#clipPath62);" points=" 35 36 29 48 41 48" />
    </g>
    <g transform="translate(126,218)" style="font-size:11; stroke-linecap:butt; text-rendering:geometricPrecision; font-family:sans-serif; stroke-linejoin:round;">
      <line x1="184" x2="56" y1="56" style="clip-path:url(#clipPath63); fill:none;" y2="56" />
      <polygon style="fill:white; clip-path:url(#clipPath63); stroke:none;" points=" 184 56 172 50 172 62" />
      <polygon style="fill:none; clip-path:url(#clipPath63);" points=" 184 56 172 50 172 62" />
    </g>
    <g style="text-rendering:geometricPrecision; font-size:11; font-family:sans-serif;" transform="translate(462,464)">
      <text x="10" y="12" style="clip-path:url(#clipPath64); stroke:none;" xml:space="preserve">1</text>
    </g>
    <g style="text-rendering:geometricPrecision; font-size:11; font-family:sans-serif;" transform="translate(532,484)">
      <text x="9" y="12" style="clip-path:url(#clipPath65); stroke:none;" xml:space="preserve">1</text>
    </g>
    <g style="text-rendering:geometricPrecision; font-size:11; font-family:sans-serif;" transform="translate(722,334)">
      <text x="10" y="12" style="clip-path:url(#clipPath64); stroke:none;" xml:space="preserve">1</text>
    </g>
    <g style="text-rendering:geometricPrecision; font-size:11; font-family:sans-serif;" transform="translate(692,304)">
      <text x="10" y="12" style="clip-path:url(#clipPath66); stroke:none;" xml:space="preserve">pathfinder</text>
    </g>
    <g style="text-rendering:geometricPrecision; font-size:11; font-family:sans-serif;" transform="translate(202,734)">
      <text x="9" y="12" style="clip-path:url(#clipPath67); stroke:none;" xml:space="preserve">[1 .. *]</text>
    </g>
    <g style="text-rendering:geometricPrecision; font-size:11; font-family:sans-serif;" transform="translate(262,524)">
      <text x="9" y="12" style="clip-path:url(#clipPath68); stroke:none;" xml:space="preserve">[0 .. 1]</text>
    </g>
    <g style="text-rendering:geometricPrecision; font-size:11; font-family:sans-serif;" transform="translate(202,574)">
      <text x="9" y="12" style="clip-path:url(#clipPath68); stroke:none;" xml:space="preserve">[0 .. 1]</text>
    </g>
  </g>
</svg>
