<?xml version="1.0" encoding="UTF-8"?>

<!DOCTYPE svg PUBLIC '-//W3C//DTD SVG 1.0//EN' 'http://www.w3.org/TR/2001/REC-SVG-20010904/DTD/svg10.dtd'>
<svg style="fill-opacity:1; color-rendering:auto; color-interpolation:auto; stroke:black; text-rendering:auto; stroke-linecap:square; stroke-miterlimit:10; stroke-opacity:1; shape-rendering:auto; fill:black; stroke-dasharray:none; font-weight:normal; stroke-width:1; font-family:&apos;Dialog&apos;; font-style:normal; stroke-linejoin:miter; font-size:12; stroke-dashoffset:0; image-rendering:auto;" xmlns="http://www.w3.org/2000/svg" width="520" xmlns:xlink="http://www.w3.org/1999/xlink" height="568">
  <!--Generated by the Batik Graphics2D SVG Generator-->
  <defs id="genericDefs" />
  <g>
    <defs id="defs1">
      <clipPath clipPathUnits="userSpaceOnUse" id="clipPath1">
        <path d="M-3 -3 L501 -3 L501 527 L-3 527 L-3 -3 Z" />
      </clipPath>
      <clipPath clipPathUnits="userSpaceOnUse" id="clipPath2">
        <path d="M0 0 L0 512 L7 512 L7 0 Z" />
      </clipPath>
      <clipPath clipPathUnits="userSpaceOnUse" id="clipPath3">
        <path d="M-3 -3 L501 -3 L501 22 L-3 22 L-3 -3 Z" />
      </clipPath>
      <clipPath clipPathUnits="userSpaceOnUse" id="clipPath4">
        <path d="M0 0 L494 0 L494 15 L0 15 L0 0 Z" />
      </clipPath>
      <clipPath clipPathUnits="userSpaceOnUse" id="clipPath5">
        <path d="M-3 -3 L501 -3 L501 511 L-3 511 L-3 -3 Z" />
      </clipPath>
      <clipPath clipPathUnits="userSpaceOnUse" id="clipPath6">
        <path d="M-3 -3 L47 -3 L47 27 L-3 27 L-3 -3 Z" />
      </clipPath>
      <clipPath clipPathUnits="userSpaceOnUse" id="clipPath7">
        <path d="M-3 -3 L27 -3 L27 27 L-3 27 L-3 -3 Z" />
      </clipPath>
      <clipPath clipPathUnits="userSpaceOnUse" id="clipPath8">
        <path d="M-3 -3 L187 -3 L187 147 L-3 147 L-3 -3 Z" />
      </clipPath>
      <clipPath clipPathUnits="userSpaceOnUse" id="clipPath9">
        <path d="M0 0 L180 0 L180 140 L0 140 L0 0 Z" />
      </clipPath>
      <clipPath clipPathUnits="userSpaceOnUse" id="clipPath10">
        <path d="M-3 -3 L27 -3 L27 47 L-3 47 L-3 -3 Z" />
      </clipPath>
      <clipPath clipPathUnits="userSpaceOnUse" id="clipPath11">
        <path d="M-3 -3 L97 -3 L97 53 L-3 53 L-3 -3 Z" />
      </clipPath>
      <clipPath clipPathUnits="userSpaceOnUse" id="clipPath12">
        <path d="M0 0 L0 46 L90 46 L90 0 Z" />
      </clipPath>
      <clipPath clipPathUnits="userSpaceOnUse" id="clipPath13">
        <path d="M-494 -503 L988 -503 L988 1006 L-494 1006 L-494 -503 Z" />
      </clipPath>
      <clipPath clipPathUnits="userSpaceOnUse" id="clipPath14">
        <path d="M0 0 L225 0 L225 94 L0 94 L0 0 Z" />
      </clipPath>
      <clipPath clipPathUnits="userSpaceOnUse" id="clipPath15">
        <path d="M0 0 L94 0 L94 174 L0 174 L0 0 Z" />
      </clipPath>
      <clipPath clipPathUnits="userSpaceOnUse" id="clipPath16">
        <path d="M0 0 L157 0 L157 184 L0 184 L0 0 Z" />
      </clipPath>
      <clipPath clipPathUnits="userSpaceOnUse" id="clipPath17">
        <path d="M0 0 L94 0 L94 194 L0 194 L0 0 Z" />
      </clipPath>
      <clipPath clipPathUnits="userSpaceOnUse" id="clipPath18">
        <path d="M0 0 L156 0 L156 94 L0 94 L0 0 Z" />
      </clipPath>
      <clipPath clipPathUnits="userSpaceOnUse" id="clipPath19">
        <path d="M-40 -15 L80 -15 L80 30 L-40 30 L-40 -15 Z" />
      </clipPath>
      <clipPath clipPathUnits="userSpaceOnUse" id="clipPath20">
        <path d="M-44 -15 L88 -15 L88 30 L-44 30 L-44 -15 Z" />
      </clipPath>
    </defs>
    <g style="fill:white; text-rendering:geometricPrecision; stroke:white;">
      <rect x="0" y="0" width="520" style="stroke:none;" height="568" />
      <rect x="8" y="8" transform="translate(-8,-8)" width="519" style="fill:none; stroke:black;" height="567" />
      <text x="15" y="25" transform="translate(-8,-8)" style="fill:black; stroke:none;" xml:space="preserve">act BarmanWaiting</text>
      <line transform="translate(-8,-8)" x1="8" x2="119" y1="32" style="fill:none; stroke:black;" y2="32" />
      <line transform="translate(-8,-8)" x1="125" x2="125" y1="8" style="fill:none; stroke:black;" y2="22" />
      <line transform="translate(-8,-8)" x1="125" x2="119" y1="22" style="fill:none; stroke:black;" y2="32" />
    </g>
    <g transform="translate(12,34)" style="text-rendering:geometricPrecision; stroke-width:2; font-size:11; font-family:sans-serif;">
      <rect x="0" y="0" width="494" style="clip-path:url(#clipPath3); fill:none;" height="15" />
    </g>
    <g style="text-rendering:geometricPrecision; font-size:11; font-family:sans-serif;" transform="translate(12,34)">
      <text x="227" y="12" style="clip-path:url(#clipPath4); stroke:none;" xml:space="preserve">:BarMan</text>
    </g>
    <g transform="translate(12,50)" style="text-rendering:geometricPrecision; stroke-width:2; font-size:11; font-family:sans-serif;">
      <rect x="0" y="0" width="494" style="clip-path:url(#clipPath5); fill:none;" height="504" />
    </g>
    <g style="text-rendering:geometricPrecision; font-size:11; font-family:sans-serif;" transform="translate(72,134)">
      <circle style="clip-path:url(#clipPath6); stroke:none;" r="10" cx="20" cy="10" />
    </g>
    <g style="text-rendering:geometricPrecision; font-size:11; font-family:sans-serif;" transform="translate(312,464)">
      <circle style="clip-path:url(#clipPath7); stroke:none;" r="6.6667" cx="10" cy="10" />
      <circle style="stroke-linecap:butt; clip-path:url(#clipPath7); fill:none; stroke-linejoin:round; stroke-miterlimit:0;" r="10" cx="10" cy="10" />
    </g>
    <g transform="translate(232,124)" style="font-size:11; fill:rgb(122,207,245); text-rendering:geometricPrecision; font-family:sans-serif; stroke:rgb(122,207,245);">
      <rect x="1" y="1" width="178" style="clip-path:url(#clipPath8); stroke:none;" rx="15" ry="15" height="138" />
    </g>
    <g transform="translate(232,124)" style="font-size:11; stroke-linecap:butt; text-rendering:geometricPrecision; font-family:sans-serif; stroke-linejoin:round; stroke-miterlimit:0;">
      <rect x="1" y="1" width="178" style="clip-path:url(#clipPath8); fill:none;" rx="15" ry="15" height="138" />
    </g>
    <g style="text-rendering:geometricPrecision; font-size:11; font-family:sans-serif;" transform="translate(232,124)">
      <text x="50" y="74" style="clip-path:url(#clipPath9); stroke:none;" xml:space="preserve">Lave des verres</text>
    </g>
    <g transform="translate(312,334)" style="font-size:11; fill:rgb(122,207,245); text-rendering:geometricPrecision; font-family:sans-serif; stroke:rgb(122,207,245);">
      <polygon style="clip-path:url(#clipPath10); stroke:none;" points=" 10 7 17 20 10 32 3 20" />
    </g>
    <g transform="translate(312,334)" style="font-size:11; stroke-linecap:butt; text-rendering:geometricPrecision; font-family:sans-serif; stroke-linejoin:round; stroke-miterlimit:0;">
      <polygon style="fill:none; clip-path:url(#clipPath10);" points=" 10 7 17 20 10 32 3 20" />
    </g>
    <g transform="translate(392,334)" style="font-size:11; fill:rgb(122,207,245); text-rendering:geometricPrecision; font-family:sans-serif; stroke:rgb(122,207,245);">
      <polygon style="clip-path:url(#clipPath11); stroke:none;" points=" 0 0 74 0 89 15 74 15 74 0 89 15 89 45 0 45" />
    </g>
    <g transform="translate(392,334)" style="font-size:11; stroke-linecap:butt; text-rendering:geometricPrecision; font-family:sans-serif; stroke-linejoin:round; stroke-miterlimit:0;">
      <polygon style="fill:none; clip-path:url(#clipPath11);" points=" 0 0 74 0 89 15 74 15 74 0 89 15 89 45 0 45" />
    </g>
    <g style="text-rendering:geometricPrecision; font-size:11; font-family:&apos;Tahoma&apos;;" transform="translate(392,334)">
      <path d="M10.0625 11.9548 L11.1875 12.2517 Q10.8281 13.6423 9.9062 14.3767 Q8.9844 15.1111 7.6406 15.1111 Q6.25 15.1111 5.375 14.5486 Q4.5 13.9861 4.0469 12.9157 Q3.5938 11.8454 3.5938 10.6111 Q3.5938 9.2673 4.1094 8.2673 Q4.625 7.2673 5.5703 6.7517 Q6.5156 6.2361 7.6562 6.2361 Q8.9375 6.2361 9.8203 6.8923 Q10.7031 7.5486 11.0469 8.7361 L9.9219 9.0017 Q9.625 8.0642 9.0547 7.6345 Q8.4844 7.2048 7.625 7.2048 Q6.6406 7.2048 5.9766 7.6814 Q5.3125 8.1579 5.0391 8.9548 Q4.7656 9.7517 4.7656 10.6111 Q4.7656 11.7048 5.0859 12.5173 Q5.4062 13.3298 6.0781 13.7361 Q6.75 14.1423 7.5469 14.1423 Q8.5 14.1423 9.1641 13.5954 Q9.8281 13.0486 10.0625 11.9548 ZM12.7656 14.9704 L12.7656 6.3767 L13.8281 6.3767 L13.8281 14.9704 L12.7656 14.9704 ZM15.7969 7.5954 L15.7969 6.3767 L16.8594 6.3767 L16.8594 7.5954 L15.7969 7.5954 ZM15.7969 14.9704 L15.7969 8.7517 L16.8594 8.7517 L16.8594 14.9704 L15.7969 14.9704 ZM23.0469 12.9704 L24.1406 13.0954 Q23.8906 14.0486 23.1875 14.5798 Q22.4844 15.1111 21.4062 15.1111 Q20.0469 15.1111 19.2422 14.2673 Q18.4375 13.4236 18.4375 11.9079 Q18.4375 10.3454 19.25 9.4782 Q20.0625 8.6111 21.3438 8.6111 Q22.5938 8.6111 23.3828 9.4548 Q24.1719 10.2986 24.1719 11.8454 Q24.1719 11.9392 24.1719 12.1267 L19.5312 12.1267 Q19.5938 13.1579 20.1094 13.697 Q20.625 14.2361 21.4062 14.2361 Q21.9844 14.2361 22.3984 13.9314 Q22.8125 13.6267 23.0469 12.9704 ZM19.5938 11.2673 L23.0625 11.2673 Q23 10.4704 22.6719 10.0798 Q22.1562 9.4704 21.3594 9.4704 Q20.625 9.4704 20.1328 9.9548 Q19.6406 10.4392 19.5938 11.2673 ZM25.7969 14.9704 L25.7969 8.7517 L26.7344 8.7517 L26.7344 9.6267 Q27.4219 8.6111 28.7188 8.6111 Q29.2812 8.6111 29.7578 8.8142 Q30.2344 9.0173 30.4688 9.3454 Q30.7031 9.6736 30.7969 10.1111 Q30.8438 10.4079 30.8438 11.1423 L30.8438 14.9704 L29.7969 14.9704 L29.7969 11.1892 Q29.7969 10.5329 29.6719 10.2204 Q29.5469 9.9079 29.2344 9.7126 Q28.9219 9.5173 28.5 9.5173 Q27.8281 9.5173 27.3359 9.947 Q26.8438 10.3767 26.8438 11.5642 L26.8438 14.9704 L25.7969 14.9704 ZM35.0938 14.0329 L35.25 14.9548 Q34.7969 15.0486 34.4531 15.0486 Q33.875 15.0486 33.5625 14.8689 Q33.25 14.6892 33.1172 14.3923 Q32.9844 14.0954 32.9844 13.1423 L32.9844 9.5642 L32.2188 9.5642 L32.2188 8.7517 L32.9844 8.7517 L32.9844 7.2048 L34.0312 6.5798 L34.0312 8.7517 L35.0938 8.7517 L35.0938 9.5642 L34.0312 9.5642 L34.0312 13.2048 Q34.0312 13.6579 34.0859 13.7829 Q34.1406 13.9079 34.2656 13.9861 Q34.3906 14.0642 34.625 14.0642 Q34.8125 14.0642 35.0938 14.0329 ZM42.8594 14.2048 Q42.2656 14.7048 41.7266 14.9079 Q41.1875 15.1111 40.5625 15.1111 Q39.5312 15.1111 38.9844 14.6111 Q38.4375 14.1111 38.4375 13.3298 Q38.4375 12.8767 38.6406 12.4939 Q38.8438 12.1111 39.1875 11.8845 Q39.5312 11.6579 39.9531 11.5486 Q40.25 11.4548 40.8906 11.3767 Q42.1562 11.2361 42.7656 11.0173 Q42.7656 10.7986 42.7656 10.7517 Q42.7656 10.0954 42.4688 9.8298 Q42.0625 9.4861 41.2656 9.4861 Q40.5312 9.4861 40.1719 9.7439 Q39.8125 10.0017 39.6406 10.6579 L38.6094 10.5173 Q38.75 9.8611 39.0781 9.4548 Q39.4062 9.0486 40.0156 8.8298 Q40.625 8.6111 41.4219 8.6111 Q42.2188 8.6111 42.7188 8.7986 Q43.2188 8.9861 43.4531 9.2673 Q43.6875 9.5486 43.7812 9.9861 Q43.8281 10.2517 43.8281 10.9548 L43.8281 12.3611 Q43.8281 13.8298 43.8984 14.2204 Q43.9688 14.6111 44.1719 14.9704 L43.0625 14.9704 Q42.9062 14.6423 42.8594 14.2048 ZM42.7656 11.8454 Q42.1875 12.0798 41.0469 12.2517 Q40.3906 12.3454 40.125 12.4626 Q39.8594 12.5798 39.7109 12.7986 Q39.5625 13.0173 39.5625 13.2986 Q39.5625 13.7204 39.8828 14.0017 Q40.2031 14.2829 40.8125 14.2829 Q41.4219 14.2829 41.8984 14.0173 Q42.375 13.7517 42.5938 13.2829 Q42.7656 12.9236 42.7656 12.2361 L42.7656 11.8454 ZM41.8438 6.9704 L41 6.9704 L39.6406 5.3298 L41.0625 5.3298 L41.8438 6.9704 ZM48.375 13.1111 L49.4062 12.9548 Q49.5 13.5798 49.8984 13.9079 Q50.2969 14.2361 51.0312 14.2361 Q51.75 14.2361 52.1016 13.947 Q52.4531 13.6579 52.4531 13.2517 Q52.4531 12.8923 52.1406 12.6892 Q51.9219 12.5486 51.0625 12.3298 Q49.9062 12.0329 49.4609 11.822 Q49.0156 11.6111 48.7812 11.2361 Q48.5469 10.8611 48.5469 10.3923 Q48.5469 9.9861 48.7344 9.6267 Q48.9219 9.2673 49.25 9.0329 Q49.5 8.8611 49.9219 8.7361 Q50.3438 8.6111 50.8438 8.6111 Q51.5625 8.6111 52.1172 8.822 Q52.6719 9.0329 52.9375 9.3923 Q53.2031 9.7517 53.2969 10.3454 L52.2656 10.4861 Q52.2031 10.0173 51.8672 9.7439 Q51.5312 9.4704 50.9062 9.4704 Q50.1875 9.4704 49.875 9.7126 Q49.5625 9.9548 49.5625 10.2829 Q49.5625 10.4861 49.6875 10.6423 Q49.8281 10.8142 50.0938 10.9236 Q50.25 10.9861 51.0312 11.1892 Q52.1562 11.5017 52.5938 11.6892 Q53.0312 11.8767 53.2812 12.2361 Q53.5312 12.5954 53.5312 13.1423 Q53.5312 13.6736 53.2266 14.1345 Q52.9219 14.5954 52.3438 14.8532 Q51.7656 15.1111 51.0312 15.1111 Q49.8125 15.1111 49.1797 14.6032 Q48.5469 14.0954 48.375 13.1111 ZM60.0469 12.9704 L61.1406 13.0954 Q60.8906 14.0486 60.1875 14.5798 Q59.4844 15.1111 58.4062 15.1111 Q57.0469 15.1111 56.2422 14.2673 Q55.4375 13.4236 55.4375 11.9079 Q55.4375 10.3454 56.25 9.4782 Q57.0625 8.6111 58.3438 8.6111 Q59.5938 8.6111 60.3828 9.4548 Q61.1719 10.2986 61.1719 11.8454 Q61.1719 11.9392 61.1719 12.1267 L56.5312 12.1267 Q56.5938 13.1579 57.1094 13.697 Q57.625 14.2361 58.4062 14.2361 Q58.9844 14.2361 59.3984 13.9314 Q59.8125 13.6267 60.0469 12.9704 ZM56.5938 11.2673 L60.0625 11.2673 Q60 10.4704 59.6719 10.0798 Q59.1562 9.4704 58.3594 9.4704 Q57.625 9.4704 57.1328 9.9548 Q56.6406 10.4392 56.5938 11.2673 ZM62.7812 14.9704 L62.7812 8.7517 L63.7344 8.7517 L63.7344 9.6892 Q64.0938 9.0329 64.3984 8.822 Q64.7031 8.6111 65.0781 8.6111 Q65.6094 8.6111 66.1562 8.9392 L65.7969 9.9236 Q65.4062 9.6892 65.0312 9.6892 Q64.6719 9.6892 64.3984 9.9001 Q64.125 10.1111 64.0156 10.4861 Q63.8281 11.0486 63.8281 11.7048 L63.8281 14.9704 L62.7812 14.9704 ZM68.5156 14.9704 L66.1562 8.7517 L67.2656 8.7517 L68.6094 12.4704 Q68.8125 13.0798 69 13.7204 Q69.1406 13.2361 69.3906 12.5486 L70.7812 8.7517 L71.8594 8.7517 L69.5 14.9704 L68.5156 14.9704 ZM71.7969 7.5954 L71.7969 6.3767 L72.8594 6.3767 L72.8594 7.5954 L71.7969 7.5954 ZM71.7969 14.9704 L71.7969 8.7517 L72.8594 8.7517 L72.8594 14.9704 L71.7969 14.9704 ZM74.7812 14.9704 L74.7812 8.7517 L75.7344 8.7517 L75.7344 9.6892 Q76.0938 9.0329 76.3984 8.822 Q76.7031 8.6111 77.0781 8.6111 Q77.6094 8.6111 78.1562 8.9392 L77.7969 9.9236 Q77.4062 9.6892 77.0312 9.6892 Q76.6719 9.6892 76.3984 9.9001 Q76.125 10.1111 76.0156 10.4861 Q75.8281 11.0486 75.8281 11.7048 L75.8281 14.9704 L74.7812 14.9704 Z" style="clip-path:url(#clipPath12); stroke:none;" />
    </g>
    <g transform="translate(55,98)" style="font-size:11; stroke-linecap:butt; text-rendering:geometricPrecision; font-family:sans-serif; stroke-linejoin:round;">
      <line x1="46" x2="176" y1="46" style="clip-path:url(#clipPath14); fill:none;" y2="46" />
      <line x1="176" x2="164" y1="46" style="clip-path:url(#clipPath14); fill:none;" y2="40" />
      <line x1="176" x2="164" y1="46" style="clip-path:url(#clipPath14); fill:none;" y2="52" />
    </g>
    <g transform="translate(276,218)" style="font-size:11; stroke-linecap:butt; text-rendering:geometricPrecision; font-family:sans-serif; stroke-linejoin:round;">
      <line x1="45" x2="45" y1="46" style="clip-path:url(#clipPath15); fill:none;" y2="125" />
      <line x1="45" x2="51" y1="125" style="clip-path:url(#clipPath15); fill:none;" y2="113" />
      <line x1="45" x2="39" y1="125" style="clip-path:url(#clipPath15); fill:none;" y2="113" />
    </g>
    <g transform="translate(206,218)" style="font-size:11; stroke-linecap:butt; text-rendering:geometricPrecision; font-family:sans-serif; stroke-linejoin:round;">
      <line x1="108" x2="46" y1="136" style="clip-path:url(#clipPath16); fill:none;" y2="136" />
      <line x1="46" x2="46" y1="136" style="clip-path:url(#clipPath16); fill:none;" y2="46" />
      <line x1="46" x2="40" y1="46" style="clip-path:url(#clipPath16); fill:none;" y2="58" />
      <line x1="46" x2="52" y1="46" style="clip-path:url(#clipPath16); fill:none;" y2="58" />
    </g>
    <g transform="translate(276,319)" style="font-size:11; stroke-linecap:butt; text-rendering:geometricPrecision; font-family:sans-serif; stroke-linejoin:round;">
      <line x1="45" x2="45" y1="45" style="clip-path:url(#clipPath17); fill:none;" y2="145" />
      <line x1="45" x2="51" y1="145" style="clip-path:url(#clipPath17); fill:none;" y2="133" />
      <line x1="45" x2="39" y1="145" style="clip-path:url(#clipPath17); fill:none;" y2="133" />
    </g>
    <g transform="translate(283,308)" style="font-size:11; stroke-linecap:butt; text-rendering:geometricPrecision; font-family:sans-serif; stroke-linejoin:round; stroke-dasharray:4;">
      <line x1="108" x2="46" y1="45" style="clip-path:url(#clipPath18); fill:none;" y2="45" />
    </g>
    <g style="text-rendering:geometricPrecision; font-size:11; font-family:sans-serif;" transform="translate(312,402)">
      <text x="9" y="12" style="clip-path:url(#clipPath19); stroke:none;" xml:space="preserve">[oui]</text>
    </g>
    <g style="text-rendering:geometricPrecision; font-size:11; font-family:sans-serif;" transform="translate(214,339)">
      <text x="10" y="12" style="clip-path:url(#clipPath20); stroke:none;" xml:space="preserve">[non]</text>
    </g>
  </g>
</svg>
