<?xml version="1.0" encoding="UTF-8"?>

<!DOCTYPE svg PUBLIC '-//W3C//DTD SVG 1.0//EN' 'http://www.w3.org/TR/2001/REC-SVG-20010904/DTD/svg10.dtd'>
<svg style="fill-opacity:1; color-rendering:auto; color-interpolation:auto; stroke:black; text-rendering:auto; stroke-linecap:square; stroke-miterlimit:10; stroke-opacity:1; shape-rendering:auto; fill:black; stroke-dasharray:none; font-weight:normal; stroke-width:1; font-family:&apos;Dialog&apos;; font-style:normal; stroke-linejoin:miter; font-size:12; stroke-dashoffset:0; image-rendering:auto;" xmlns="http://www.w3.org/2000/svg" width="526" xmlns:xlink="http://www.w3.org/1999/xlink" height="478">
  <!--Generated by the Batik Graphics2D SVG Generator-->
  <defs id="genericDefs" />
  <g>
    <defs id="defs1">
      <clipPath clipPathUnits="userSpaceOnUse" id="clipPath1">
        <path d="M-3 -3 L507 -3 L507 437 L-3 437 L-3 -3 Z" />
      </clipPath>
      <clipPath clipPathUnits="userSpaceOnUse" id="clipPath2">
        <path d="M0 0 L0 422 L7 422 L7 0 Z" />
      </clipPath>
      <clipPath clipPathUnits="userSpaceOnUse" id="clipPath3">
        <path d="M-3 -3 L507 -3 L507 22 L-3 22 L-3 -3 Z" />
      </clipPath>
      <clipPath clipPathUnits="userSpaceOnUse" id="clipPath4">
        <path d="M0 0 L500 0 L500 15 L0 15 L0 0 Z" />
      </clipPath>
      <clipPath clipPathUnits="userSpaceOnUse" id="clipPath5">
        <path d="M-3 -3 L507 -3 L507 421 L-3 421 L-3 -3 Z" />
      </clipPath>
      <clipPath clipPathUnits="userSpaceOnUse" id="clipPath6">
        <path d="M-3 -3 L47 -3 L47 27 L-3 27 L-3 -3 Z" />
      </clipPath>
      <clipPath clipPathUnits="userSpaceOnUse" id="clipPath7">
        <path d="M-3 -3 L27 -3 L27 27 L-3 27 L-3 -3 Z" />
      </clipPath>
      <clipPath clipPathUnits="userSpaceOnUse" id="clipPath8">
        <path d="M-3 -3 L187 -3 L187 147 L-3 147 L-3 -3 Z" />
      </clipPath>
      <clipPath clipPathUnits="userSpaceOnUse" id="clipPath9">
        <path d="M0 0 L180 0 L180 140 L0 140 L0 0 Z" />
      </clipPath>
      <clipPath clipPathUnits="userSpaceOnUse" id="clipPath10">
        <path d="M-3 -3 L27 -3 L27 47 L-3 47 L-3 -3 Z" />
      </clipPath>
      <clipPath clipPathUnits="userSpaceOnUse" id="clipPath11">
        <path d="M-3 -3 L97 -3 L97 53 L-3 53 L-3 -3 Z" />
      </clipPath>
      <clipPath clipPathUnits="userSpaceOnUse" id="clipPath12">
        <path d="M0 0 L0 46 L90 46 L90 0 Z" />
      </clipPath>
      <clipPath clipPathUnits="userSpaceOnUse" id="clipPath13">
        <path d="M-500 -414 L1000 -414 L1000 828 L-500 828 L-500 -414 Z" />
      </clipPath>
      <clipPath clipPathUnits="userSpaceOnUse" id="clipPath14">
        <path d="M0 0 L113 0 L113 80 L0 80 L0 0 Z" />
      </clipPath>
      <clipPath clipPathUnits="userSpaceOnUse" id="clipPath15">
        <path d="M0 0 L80 0 L80 167 L0 167 L0 0 Z" />
      </clipPath>
      <clipPath clipPathUnits="userSpaceOnUse" id="clipPath16">
        <path d="M0 0 L104 0 L104 204 L0 204 L0 0 Z" />
      </clipPath>
      <clipPath clipPathUnits="userSpaceOnUse" id="clipPath17">
        <path d="M0 0 L210 0 L210 80 L0 80 L0 0 Z" />
      </clipPath>
      <clipPath clipPathUnits="userSpaceOnUse" id="clipPath18">
        <path d="M0 0 L144 0 L144 180 L0 180 L0 0 Z" />
      </clipPath>
      <clipPath clipPathUnits="userSpaceOnUse" id="clipPath19">
        <path d="M-44 -15 L88 -15 L88 30 L-44 30 L-44 -15 Z" />
      </clipPath>
      <clipPath clipPathUnits="userSpaceOnUse" id="clipPath20">
        <path d="M-40 -15 L80 -15 L80 30 L-40 30 L-40 -15 Z" />
      </clipPath>
    </defs>
    <g style="fill:white; text-rendering:geometricPrecision; stroke:white;">
      <rect x="0" y="0" width="526" style="stroke:none;" height="478" />
      <rect x="58" y="68" transform="translate(-58,-68)" width="525" style="fill:none; stroke:black;" height="477" />
      <text x="65" y="85" transform="translate(-58,-68)" style="fill:black; stroke:none;" xml:space="preserve">act CrafterWaiting</text>
      <line transform="translate(-58,-68)" x1="58" x2="162" y1="92" style="fill:none; stroke:black;" y2="92" />
      <line transform="translate(-58,-68)" x1="168" x2="168" y1="68" style="fill:none; stroke:black;" y2="82" />
      <line transform="translate(-58,-68)" x1="168" x2="162" y1="82" style="fill:none; stroke:black;" y2="92" />
    </g>
    <g transform="translate(12,34)" style="text-rendering:geometricPrecision; stroke-width:2; font-size:11; font-family:sans-serif;">
      <rect x="0" y="0" width="500" style="clip-path:url(#clipPath3); fill:none;" height="15" />
    </g>
    <g style="text-rendering:geometricPrecision; font-size:11; font-family:sans-serif;" transform="translate(12,34)">
      <text x="231" y="12" style="clip-path:url(#clipPath4); stroke:none;" xml:space="preserve">:Crafter</text>
    </g>
    <g transform="translate(12,49)" style="text-rendering:geometricPrecision; stroke-width:2; font-size:11; font-family:sans-serif;">
      <rect x="0" y="0" width="500" style="clip-path:url(#clipPath5); fill:none;" height="414" />
    </g>
    <g style="text-rendering:geometricPrecision; font-size:11; font-family:sans-serif;" transform="translate(32,84)">
      <circle style="clip-path:url(#clipPath6); stroke:none;" r="10" cx="20" cy="10" />
    </g>
    <g style="text-rendering:geometricPrecision; font-size:11; font-family:sans-serif;" transform="translate(272,424)">
      <circle style="clip-path:url(#clipPath7); stroke:none;" r="6.6667" cx="10" cy="10" />
      <circle style="stroke-linecap:butt; clip-path:url(#clipPath7); fill:none; stroke-linejoin:round; stroke-miterlimit:0;" r="10" cx="10" cy="10" />
    </g>
    <g transform="translate(192,74)" style="font-size:11; fill:rgb(122,207,245); text-rendering:geometricPrecision; font-family:sans-serif; stroke:rgb(122,207,245);">
      <rect x="1" y="1" width="178" style="clip-path:url(#clipPath8); stroke:none;" rx="15" ry="15" height="138" />
    </g>
    <g transform="translate(192,74)" style="font-size:11; stroke-linecap:butt; text-rendering:geometricPrecision; font-family:sans-serif; stroke-linejoin:round; stroke-miterlimit:0;">
      <rect x="1" y="1" width="178" style="clip-path:url(#clipPath8); fill:none;" rx="15" ry="15" height="138" />
    </g>
    <g style="text-rendering:geometricPrecision; font-size:11; font-family:sans-serif;" transform="translate(192,74)">
      <text x="40" y="74" style="clip-path:url(#clipPath9); stroke:none;" xml:space="preserve">Attend dans la forge</text>
    </g>
    <g transform="translate(272,294)" style="font-size:11; fill:rgb(122,207,245); text-rendering:geometricPrecision; font-family:sans-serif; stroke:rgb(122,207,245);">
      <polygon style="clip-path:url(#clipPath10); stroke:none;" points=" 10 7 17 20 10 32 3 20" />
    </g>
    <g transform="translate(272,294)" style="font-size:11; stroke-linecap:butt; text-rendering:geometricPrecision; font-family:sans-serif; stroke-linejoin:round; stroke-miterlimit:0;">
      <polygon style="fill:none; clip-path:url(#clipPath10);" points=" 10 7 17 20 10 32 3 20" />
    </g>
    <g transform="translate(322,294)" style="font-size:11; fill:rgb(122,207,245); text-rendering:geometricPrecision; font-family:sans-serif; stroke:rgb(122,207,245);">
      <polygon style="clip-path:url(#clipPath11); stroke:none;" points=" 0 0 74 0 89 15 74 15 74 0 89 15 89 45 0 45" />
    </g>
    <g transform="translate(322,294)" style="font-size:11; stroke-linecap:butt; text-rendering:geometricPrecision; font-family:sans-serif; stroke-linejoin:round; stroke-miterlimit:0;">
      <polygon style="fill:none; clip-path:url(#clipPath11);" points=" 0 0 74 0 89 15 74 15 74 0 89 15 89 45 0 45" />
    </g>
    <g style="text-rendering:geometricPrecision; font-size:11; font-family:&apos;Tahoma&apos;;" transform="translate(322,294)">
      <path d="M3.9219 14.9704 L3.9219 6.3767 L7.1719 6.3767 Q8.0156 6.3767 8.4688 6.4548 Q9.1094 6.5642 9.5391 6.8611 Q9.9688 7.1579 10.2266 7.6892 Q10.4844 8.2204 10.4844 8.8611 Q10.4844 9.9548 9.7891 10.7126 Q9.0938 11.4704 7.2656 11.4704 L5.0625 11.4704 L5.0625 14.9704 L3.9219 14.9704 ZM5.0625 10.4704 L7.2812 10.4704 Q8.3906 10.4704 8.8516 10.0564 Q9.3125 9.6423 9.3125 8.8923 Q9.3125 8.3611 9.0391 7.9782 Q8.7656 7.5954 8.3281 7.4704 Q8.0312 7.3923 7.2656 7.3923 L5.0625 7.3923 L5.0625 10.4704 ZM11.7969 7.5954 L11.7969 6.3767 L12.8594 6.3767 L12.8594 7.5954 L11.7969 7.5954 ZM11.7969 14.9704 L11.7969 8.7517 L12.8594 8.7517 L12.8594 14.9704 L11.7969 14.9704 ZM14.4062 11.8611 Q14.4062 10.1267 15.3594 9.2986 Q16.1562 8.6111 17.3125 8.6111 Q18.5938 8.6111 19.4141 9.447 Q20.2344 10.2829 20.2344 11.7673 Q20.2344 12.9704 19.875 13.6579 Q19.5156 14.3454 18.8203 14.7282 Q18.125 15.1111 17.3125 15.1111 Q16.0156 15.1111 15.2109 14.2751 Q14.4062 13.4392 14.4062 11.8611 ZM15.4844 11.8611 Q15.4844 13.0486 16.0078 13.6423 Q16.5312 14.2361 17.3125 14.2361 Q18.1094 14.2361 18.625 13.6423 Q19.1406 13.0486 19.1406 11.8298 Q19.1406 10.6736 18.6172 10.0798 Q18.0938 9.4861 17.3125 9.4861 Q16.5312 9.4861 16.0078 10.072 Q15.4844 10.6579 15.4844 11.8611 ZM25.8594 12.6892 L26.8906 12.8298 Q26.7188 13.8923 26.0156 14.5017 Q25.3125 15.1111 24.2969 15.1111 Q23.0156 15.1111 22.2422 14.2751 Q21.4688 13.4392 21.4688 11.8767 Q21.4688 10.8767 21.8047 10.1189 Q22.1406 9.3611 22.8203 8.9861 Q23.5 8.6111 24.3125 8.6111 Q25.3125 8.6111 25.9609 9.1189 Q26.6094 9.6267 26.7969 10.5798 L25.7656 10.7361 Q25.625 10.1111 25.25 9.7907 Q24.875 9.4704 24.3438 9.4704 Q23.5469 9.4704 23.0469 10.0407 Q22.5469 10.6111 22.5469 11.8454 Q22.5469 13.1111 23.0312 13.6736 Q23.5156 14.2361 24.2812 14.2361 Q24.9062 14.2361 25.3203 13.8611 Q25.7344 13.4861 25.8594 12.6892 ZM27.7969 14.9704 L27.7969 6.3767 L28.8438 6.3767 L28.8438 9.4548 Q29.5781 8.6111 30.7031 8.6111 Q31.4062 8.6111 31.9141 8.8845 Q32.4219 9.1579 32.6406 9.6345 Q32.8594 10.1111 32.8594 11.0329 L32.8594 14.9704 L31.8125 14.9704 L31.8125 11.0329 Q31.8125 10.2361 31.4688 9.8767 Q31.125 9.5173 30.5 9.5173 Q30.0312 9.5173 29.6172 9.7595 Q29.2031 10.0017 29.0234 10.4157 Q28.8438 10.8298 28.8438 11.5642 L28.8438 14.9704 L27.7969 14.9704 ZM39.0469 12.9704 L40.1406 13.0954 Q39.8906 14.0486 39.1875 14.5798 Q38.4844 15.1111 37.4062 15.1111 Q36.0469 15.1111 35.2422 14.2673 Q34.4375 13.4236 34.4375 11.9079 Q34.4375 10.3454 35.25 9.4782 Q36.0625 8.6111 37.3438 8.6111 Q38.5938 8.6111 39.3828 9.4548 Q40.1719 10.2986 40.1719 11.8454 Q40.1719 11.9392 40.1719 12.1267 L35.5312 12.1267 Q35.5938 13.1579 36.1094 13.697 Q36.625 14.2361 37.4062 14.2361 Q37.9844 14.2361 38.3984 13.9314 Q38.8125 13.6267 39.0469 12.9704 ZM35.5938 11.2673 L39.0625 11.2673 Q39 10.4704 38.6719 10.0798 Q38.1562 9.4704 37.3594 9.4704 Q36.625 9.4704 36.1328 9.9548 Q35.6406 10.4392 35.5938 11.2673 ZM48.8594 14.2048 Q48.2656 14.7048 47.7266 14.9079 Q47.1875 15.1111 46.5625 15.1111 Q45.5312 15.1111 44.9844 14.6111 Q44.4375 14.1111 44.4375 13.3298 Q44.4375 12.8767 44.6406 12.4939 Q44.8438 12.1111 45.1875 11.8845 Q45.5312 11.6579 45.9531 11.5486 Q46.25 11.4548 46.8906 11.3767 Q48.1562 11.2361 48.7656 11.0173 Q48.7656 10.7986 48.7656 10.7517 Q48.7656 10.0954 48.4688 9.8298 Q48.0625 9.4861 47.2656 9.4861 Q46.5312 9.4861 46.1719 9.7439 Q45.8125 10.0017 45.6406 10.6579 L44.6094 10.5173 Q44.75 9.8611 45.0781 9.4548 Q45.4062 9.0486 46.0156 8.8298 Q46.625 8.6111 47.4219 8.6111 Q48.2188 8.6111 48.7188 8.7986 Q49.2188 8.9861 49.4531 9.2673 Q49.6875 9.5486 49.7812 9.9861 Q49.8281 10.2517 49.8281 10.9548 L49.8281 12.3611 Q49.8281 13.8298 49.8984 14.2204 Q49.9688 14.6111 50.1719 14.9704 L49.0625 14.9704 Q48.9062 14.6423 48.8594 14.2048 ZM48.7656 11.8454 Q48.1875 12.0798 47.0469 12.2517 Q46.3906 12.3454 46.125 12.4626 Q45.8594 12.5798 45.7109 12.7986 Q45.5625 13.0173 45.5625 13.2986 Q45.5625 13.7204 45.8828 14.0017 Q46.2031 14.2829 46.8125 14.2829 Q47.4219 14.2829 47.8984 14.0173 Q48.375 13.7517 48.5938 13.2829 Q48.7656 12.9236 48.7656 12.2361 L48.7656 11.8454 ZM47.8438 6.9704 L47 6.9704 L45.6406 5.3298 L47.0625 5.3298 L47.8438 6.9704 Z" style="clip-path:url(#clipPath12); stroke:none;" />
      <path d="M8.0469 26.9704 L9.1406 27.0954 Q8.8906 28.0486 8.1875 28.5798 Q7.4844 29.1111 6.4062 29.1111 Q5.0469 29.1111 4.2422 28.2673 Q3.4375 27.4236 3.4375 25.9079 Q3.4375 24.3454 4.25 23.4782 Q5.0625 22.6111 6.3438 22.6111 Q7.5938 22.6111 8.3828 23.4548 Q9.1719 24.2986 9.1719 25.8454 Q9.1719 25.9392 9.1719 26.1267 L4.5312 26.1267 Q4.5938 27.1579 5.1094 27.697 Q5.625 28.2361 6.4062 28.2361 Q6.9844 28.2361 7.3984 27.9314 Q7.8125 27.6267 8.0469 26.9704 ZM4.5938 25.2673 L8.0625 25.2673 Q8 24.4704 7.6719 24.0798 Q7.1562 23.4704 6.3594 23.4704 Q5.625 23.4704 5.1328 23.9548 Q4.6406 24.4392 4.5938 25.2673 ZM10.7969 28.9704 L10.7969 22.7517 L11.7344 22.7517 L11.7344 23.6267 Q12.4219 22.6111 13.7188 22.6111 Q14.2812 22.6111 14.7578 22.8142 Q15.2344 23.0173 15.4688 23.3454 Q15.7031 23.6736 15.7969 24.1111 Q15.8438 24.4079 15.8438 25.1423 L15.8438 28.9704 L14.7969 28.9704 L14.7969 25.1892 Q14.7969 24.5329 14.6719 24.2204 Q14.5469 23.9079 14.2344 23.7126 Q13.9219 23.5173 13.5 23.5173 Q12.8281 23.5173 12.3359 23.947 Q11.8438 24.3767 11.8438 25.5642 L11.8438 28.9704 L10.7969 28.9704 ZM20.0938 28.0329 L20.25 28.9548 Q19.7969 29.0486 19.4531 29.0486 Q18.875 29.0486 18.5625 28.8689 Q18.25 28.6892 18.1172 28.3923 Q17.9844 28.0954 17.9844 27.1423 L17.9844 23.5642 L17.2188 23.5642 L17.2188 22.7517 L17.9844 22.7517 L17.9844 21.2048 L19.0312 20.5798 L19.0312 22.7517 L20.0938 22.7517 L20.0938 23.5642 L19.0312 23.5642 L19.0312 27.2048 Q19.0312 27.6579 19.0859 27.7829 Q19.1406 27.9079 19.2656 27.9861 Q19.3906 28.0642 19.625 28.0642 Q19.8125 28.0642 20.0938 28.0329 ZM20.7812 28.9704 L20.7812 22.7517 L21.7344 22.7517 L21.7344 23.6892 Q22.0938 23.0329 22.3984 22.822 Q22.7031 22.6111 23.0781 22.6111 Q23.6094 22.6111 24.1562 22.9392 L23.7969 23.9236 Q23.4062 23.6892 23.0312 23.6892 Q22.6719 23.6892 22.3984 23.9001 Q22.125 24.1111 22.0156 24.4861 Q21.8281 25.0486 21.8281 25.7048 L21.8281 28.9704 L20.7812 28.9704 ZM29.0469 26.9704 L30.1406 27.0954 Q29.8906 28.0486 29.1875 28.5798 Q28.4844 29.1111 27.4062 29.1111 Q26.0469 29.1111 25.2422 28.2673 Q24.4375 27.4236 24.4375 25.9079 Q24.4375 24.3454 25.25 23.4782 Q26.0625 22.6111 27.3438 22.6111 Q28.5938 22.6111 29.3828 23.4548 Q30.1719 24.2986 30.1719 25.8454 Q30.1719 25.9392 30.1719 26.1267 L25.5312 26.1267 Q25.5938 27.1579 26.1094 27.697 Q26.625 28.2361 27.4062 28.2361 Q27.9844 28.2361 28.3984 27.9314 Q28.8125 27.6267 29.0469 26.9704 ZM25.5938 25.2673 L29.0625 25.2673 Q29 24.4704 28.6719 24.0798 Q28.1562 23.4704 27.3594 23.4704 Q26.625 23.4704 26.1328 23.9548 Q25.6406 24.4392 25.5938 25.2673 ZM34.0938 28.0329 L34.25 28.9548 Q33.7969 29.0486 33.4531 29.0486 Q32.875 29.0486 32.5625 28.8689 Q32.25 28.6892 32.1172 28.3923 Q31.9844 28.0954 31.9844 27.1423 L31.9844 23.5642 L31.2188 23.5642 L31.2188 22.7517 L31.9844 22.7517 L31.9844 21.2048 L33.0312 20.5798 L33.0312 22.7517 L34.0938 22.7517 L34.0938 23.5642 L33.0312 23.5642 L33.0312 27.2048 Q33.0312 27.6579 33.0859 27.7829 Q33.1406 27.9079 33.2656 27.9861 Q33.3906 28.0642 33.625 28.0642 Q33.8125 28.0642 34.0938 28.0329 ZM39.0469 26.9704 L40.1406 27.0954 Q39.8906 28.0486 39.1875 28.5798 Q38.4844 29.1111 37.4062 29.1111 Q36.0469 29.1111 35.2422 28.2673 Q34.4375 27.4236 34.4375 25.9079 Q34.4375 24.3454 35.25 23.4782 Q36.0625 22.6111 37.3438 22.6111 Q38.5938 22.6111 39.3828 23.4548 Q40.1719 24.2986 40.1719 25.8454 Q40.1719 25.9392 40.1719 26.1267 L35.5312 26.1267 Q35.5938 27.1579 36.1094 27.697 Q36.625 28.2361 37.4062 28.2361 Q37.9844 28.2361 38.3984 27.9314 Q38.8125 27.6267 39.0469 26.9704 ZM35.5938 25.2673 L39.0625 25.2673 Q39 24.4704 38.6719 24.0798 Q38.1562 23.4704 37.3594 23.4704 Q36.625 23.4704 36.1328 23.9548 Q35.6406 24.4392 35.5938 25.2673 ZM41.7969 28.9704 L41.7969 22.7517 L42.7344 22.7517 L42.7344 23.6267 Q43.4219 22.6111 44.7188 22.6111 Q45.2812 22.6111 45.7578 22.8142 Q46.2344 23.0173 46.4688 23.3454 Q46.7031 23.6736 46.7969 24.1111 Q46.8438 24.4079 46.8438 25.1423 L46.8438 28.9704 L45.7969 28.9704 L45.7969 25.1892 Q45.7969 24.5329 45.6719 24.2204 Q45.5469 23.9079 45.2344 23.7126 Q44.9219 23.5173 44.5 23.5173 Q43.8281 23.5173 43.3359 23.947 Q42.8438 24.3767 42.8438 25.5642 L42.8438 28.9704 L41.7969 28.9704 ZM48.7969 21.5954 L48.7969 20.3767 L49.8594 20.3767 L49.8594 21.5954 L48.7969 21.5954 ZM48.7969 28.9704 L48.7969 22.7517 L49.8594 22.7517 L49.8594 28.9704 L48.7969 28.9704 ZM51.7812 28.9704 L51.7812 22.7517 L52.7344 22.7517 L52.7344 23.6892 Q53.0938 23.0329 53.3984 22.822 Q53.7031 22.6111 54.0781 22.6111 Q54.6094 22.6111 55.1562 22.9392 L54.7969 23.9236 Q54.4062 23.6892 54.0312 23.6892 Q53.6719 23.6892 53.3984 23.9001 Q53.125 24.1111 53.0156 24.4861 Q52.8281 25.0486 52.8281 25.7048 L52.8281 28.9704 L51.7812 28.9704 Z" style="clip-path:url(#clipPath12); stroke:none;" />
    </g>
    <g transform="translate(250,275)" style="font-size:11; stroke-linecap:butt; text-rendering:geometricPrecision; font-family:sans-serif; stroke-linejoin:round; stroke-dasharray:4;">
      <line x1="71" x2="38" y1="38" style="clip-path:url(#clipPath14); fill:none;" y2="38" />
    </g>
    <g transform="translate(243,175)" style="font-size:11; stroke-linecap:butt; text-rendering:geometricPrecision; font-family:sans-serif; stroke-linejoin:round;">
      <line x1="38" x2="38" y1="39" style="clip-path:url(#clipPath15); fill:none;" y2="125" />
      <line x1="38" x2="44" y1="125" style="clip-path:url(#clipPath15); fill:none;" y2="113" />
      <line x1="38" x2="32" y1="125" style="clip-path:url(#clipPath15); fill:none;" y2="113" />
    </g>
    <g transform="translate(232,274)" style="font-size:11; stroke-linecap:butt; text-rendering:geometricPrecision; font-family:sans-serif; stroke-linejoin:round;">
      <line x1="50" x2="50" y1="50" style="clip-path:url(#clipPath16); fill:none;" y2="150" />
      <line x1="50" x2="56" y1="150" style="clip-path:url(#clipPath16); fill:none;" y2="138" />
      <line x1="50" x2="44" y1="150" style="clip-path:url(#clipPath16); fill:none;" y2="138" />
    </g>
    <g transform="translate(23,55)" style="font-size:11; stroke-linecap:butt; text-rendering:geometricPrecision; font-family:sans-serif; stroke-linejoin:round;">
      <line x1="39" x2="168" y1="39" style="clip-path:url(#clipPath17); fill:none;" y2="39" />
      <line x1="168" x2="156" y1="39" style="clip-path:url(#clipPath17); fill:none;" y2="33" />
      <line x1="168" x2="156" y1="39" style="clip-path:url(#clipPath17); fill:none;" y2="45" />
    </g>
    <g transform="translate(173,175)" style="font-size:11; stroke-linecap:butt; text-rendering:geometricPrecision; font-family:sans-serif; stroke-linejoin:round;">
      <line x1="102" x2="39" y1="139" style="clip-path:url(#clipPath18); fill:none;" y2="139" />
      <line x1="39" x2="39" y1="139" style="clip-path:url(#clipPath18); fill:none;" y2="59" />
      <line x1="39" x2="39" y1="59" style="clip-path:url(#clipPath18); fill:none;" y2="39" />
      <line x1="39" x2="33" y1="39" style="clip-path:url(#clipPath18); fill:none;" y2="51" />
      <line x1="39" x2="45" y1="39" style="clip-path:url(#clipPath18); fill:none;" y2="51" />
    </g>
    <g style="text-rendering:geometricPrecision; font-size:11; font-family:sans-serif;" transform="translate(175,299)">
      <text x="10" y="12" style="clip-path:url(#clipPath19); stroke:none;" xml:space="preserve">[non]</text>
    </g>
    <g style="text-rendering:geometricPrecision; font-size:11; font-family:sans-serif;" transform="translate(282,364)">
      <text x="9" y="12" style="clip-path:url(#clipPath20); stroke:none;" xml:space="preserve">[oui]</text>
    </g>
  </g>
</svg>
