<?xml version="1.0" encoding="UTF-8"?>

<!DOCTYPE svg PUBLIC '-//W3C//DTD SVG 1.0//EN' 'http://www.w3.org/TR/2001/REC-SVG-20010904/DTD/svg10.dtd'>
<svg style="fill-opacity:1; color-rendering:auto; color-interpolation:auto; stroke:black; text-rendering:auto; stroke-linecap:square; stroke-miterlimit:10; stroke-opacity:1; shape-rendering:auto; fill:black; stroke-dasharray:none; font-weight:normal; stroke-width:1; font-family:&apos;Dialog&apos;; font-style:normal; stroke-linejoin:miter; font-size:12; stroke-dashoffset:0; image-rendering:auto;" xmlns="http://www.w3.org/2000/svg" width="916" xmlns:xlink="http://www.w3.org/1999/xlink" height="799">
  <!--Generated by the Batik Graphics2D SVG Generator-->
  <defs id="genericDefs" />
  <g>
    <defs id="defs1">
      <clipPath clipPathUnits="userSpaceOnUse" id="clipPath1">
        <path d="M-3 -3 L897 -3 L897 757 L-3 757 L-3 -3 Z" />
      </clipPath>
      <clipPath clipPathUnits="userSpaceOnUse" id="clipPath2">
        <path d="M0 0 L0 741 L7 741 L7 0 Z" />
      </clipPath>
      <clipPath clipPathUnits="userSpaceOnUse" id="clipPath3">
        <path d="M-3 -3 L467 -3 L467 23 L-3 23 L-3 -3 Z" />
      </clipPath>
      <clipPath clipPathUnits="userSpaceOnUse" id="clipPath4">
        <path d="M0 0 L460 0 L460 15 L0 15 L0 0 Z" />
      </clipPath>
      <clipPath clipPathUnits="userSpaceOnUse" id="clipPath5">
        <path d="M-3 -3 L467 -3 L467 741 L-3 741 L-3 -3 Z" />
      </clipPath>
      <clipPath clipPathUnits="userSpaceOnUse" id="clipPath6">
        <path d="M-3 -3 L437 -3 L437 23 L-3 23 L-3 -3 Z" />
      </clipPath>
      <clipPath clipPathUnits="userSpaceOnUse" id="clipPath7">
        <path d="M0 0 L430 0 L430 15 L0 15 L0 0 Z" />
      </clipPath>
      <clipPath clipPathUnits="userSpaceOnUse" id="clipPath8">
        <path d="M-3 -3 L437 -3 L437 740 L-3 740 L-3 -3 Z" />
      </clipPath>
      <clipPath clipPathUnits="userSpaceOnUse" id="clipPath9">
        <path d="M-3 -3 L87 -3 L87 47 L-3 47 L-3 -3 Z" />
      </clipPath>
      <clipPath clipPathUnits="userSpaceOnUse" id="clipPath10">
        <path d="M0 0 L80 0 L80 40 L0 40 L0 0 Z" />
      </clipPath>
      <clipPath clipPathUnits="userSpaceOnUse" id="clipPath11">
        <path d="M-3 -3 L47 -3 L47 27 L-3 27 L-3 -3 Z" />
      </clipPath>
      <clipPath clipPathUnits="userSpaceOnUse" id="clipPath12">
        <path d="M-3 -3 L147 -3 L147 47 L-3 47 L-3 -3 Z" />
      </clipPath>
      <clipPath clipPathUnits="userSpaceOnUse" id="clipPath13">
        <path d="M0 0 L0 21 L138 21 L138 0 Z" />
      </clipPath>
      <clipPath clipPathUnits="userSpaceOnUse" id="clipPath14">
        <path d="M-3 -3 L287 -3 L287 47 L-3 47 L-3 -3 Z" />
      </clipPath>
      <clipPath clipPathUnits="userSpaceOnUse" id="clipPath15">
        <path d="M0 0 L0 21 L272 21 L272 0 Z" />
      </clipPath>
      <clipPath clipPathUnits="userSpaceOnUse" id="clipPath16">
        <path d="M-3 -3 L387 -3 L387 47 L-3 47 L-3 -3 Z" />
      </clipPath>
      <clipPath clipPathUnits="userSpaceOnUse" id="clipPath17">
        <path d="M0 0 L0 21 L364 21 L364 0 Z" />
      </clipPath>
      <clipPath clipPathUnits="userSpaceOnUse" id="clipPath18">
        <path d="M0 0 L0 21 L127 21 L127 0 Z" />
      </clipPath>
      <clipPath clipPathUnits="userSpaceOnUse" id="clipPath19">
        <path d="M-3 -3 L197 -3 L197 47 L-3 47 L-3 -3 Z" />
      </clipPath>
      <clipPath clipPathUnits="userSpaceOnUse" id="clipPath20">
        <path d="M0 0 L0 21 L187 21 L187 0 Z" />
      </clipPath>
      <clipPath clipPathUnits="userSpaceOnUse" id="clipPath21">
        <path d="M0 0 L0 21 L134 21 L134 0 Z" />
      </clipPath>
      <clipPath clipPathUnits="userSpaceOnUse" id="clipPath22">
        <path d="M-3 -3 L237 -3 L237 47 L-3 47 L-3 -3 Z" />
      </clipPath>
      <clipPath clipPathUnits="userSpaceOnUse" id="clipPath23">
        <path d="M0 0 L0 21 L225 21 L225 0 Z" />
      </clipPath>
      <clipPath clipPathUnits="userSpaceOnUse" id="clipPath24">
        <path d="M0 0 L0 21 L179 21 L179 0 Z" />
      </clipPath>
      <clipPath clipPathUnits="userSpaceOnUse" id="clipPath25">
        <path d="M-3 -3 L137 -3 L137 47 L-3 47 L-3 -3 Z" />
      </clipPath>
      <clipPath clipPathUnits="userSpaceOnUse" id="clipPath26">
        <path d="M-430 -733 L860 -733 L860 1466 L-430 1466 L-430 -733 Z" />
      </clipPath>
      <clipPath clipPathUnits="userSpaceOnUse" id="clipPath27">
        <path d="M-460 -734 L920 -734 L920 1468 L-460 1468 L-460 -734 Z" />
      </clipPath>
      <clipPath clipPathUnits="userSpaceOnUse" id="clipPath28">
        <path d="M0 0 L104 0 L104 175 L0 175 L0 0 Z" />
      </clipPath>
      <clipPath clipPathUnits="userSpaceOnUse" id="clipPath29">
        <path d="M0 0 L321 0 L321 129 L0 129 L0 0 Z" />
      </clipPath>
      <clipPath clipPathUnits="userSpaceOnUse" id="clipPath30">
        <path d="M0 0 L129 0 L129 159 L0 159 L0 0 Z" />
      </clipPath>
      <clipPath clipPathUnits="userSpaceOnUse" id="clipPath31">
        <path d="M0 0 L424 0 L424 104 L0 104 L0 0 Z" />
      </clipPath>
      <clipPath clipPathUnits="userSpaceOnUse" id="clipPath32">
        <path d="M0 0 L104 0 L104 155 L0 155 L0 0 Z" />
      </clipPath>
      <clipPath clipPathUnits="userSpaceOnUse" id="clipPath33">
        <path d="M0 0 L315 0 L315 104 L0 104 L0 0 Z" />
      </clipPath>
      <clipPath clipPathUnits="userSpaceOnUse" id="clipPath34">
        <path d="M0 0 L104 0 L104 144 L0 144 L0 0 Z" />
      </clipPath>
      <clipPath clipPathUnits="userSpaceOnUse" id="clipPath35">
        <path d="M0 0 L354 0 L354 104 L0 104 L0 0 Z" />
      </clipPath>
      <clipPath clipPathUnits="userSpaceOnUse" id="clipPath36">
        <path d="M0 0 L104 0 L104 145 L0 145 L0 0 Z" />
      </clipPath>
      <clipPath clipPathUnits="userSpaceOnUse" id="clipPath37">
        <path d="M0 0 L264 0 L264 594 L0 594 L0 0 Z" />
      </clipPath>
    </defs>
    <g style="fill:white; text-rendering:geometricPrecision; stroke:white;">
      <rect x="0" y="0" width="916" style="stroke:none;" height="799" />
      <rect x="128" y="38" transform="translate(-128,-38)" width="915" style="fill:none; stroke:black;" height="798" />
      <text x="135" y="55" transform="translate(-128,-38)" style="fill:black; stroke:none;" xml:space="preserve">act Crafting</text>
      <line transform="translate(-128,-38)" x1="128" x2="197" y1="62" style="fill:none; stroke:black;" y2="62" />
      <line transform="translate(-128,-38)" x1="203" x2="203" y1="38" style="fill:none; stroke:black;" y2="52" />
      <line transform="translate(-128,-38)" x1="203" x2="197" y1="52" style="fill:none; stroke:black;" y2="62" />
    </g>
    <g transform="translate(12,34)" style="text-rendering:geometricPrecision; stroke-width:2; font-size:11; font-family:sans-serif;">
      <rect x="0" y="0" width="460" style="clip-path:url(#clipPath3); fill:none;" height="16" />
    </g>
    <g style="text-rendering:geometricPrecision; font-size:11; font-family:sans-serif;" transform="translate(12,34)">
      <text x="211" y="12" style="clip-path:url(#clipPath4); stroke:none;" xml:space="preserve">:Crafter</text>
    </g>
    <g transform="translate(12,51)" style="text-rendering:geometricPrecision; stroke-width:2; font-size:11; font-family:sans-serif;">
      <rect x="0" y="0" width="460" style="clip-path:url(#clipPath5); fill:none;" height="734" />
    </g>
    <g transform="translate(472,34)" style="text-rendering:geometricPrecision; stroke-width:2; font-size:11; font-family:sans-serif;">
      <rect x="0" y="0" width="430" style="clip-path:url(#clipPath6); fill:none;" height="16" />
    </g>
    <g style="text-rendering:geometricPrecision; font-size:11; font-family:sans-serif;" transform="translate(472,34)">
      <text x="188" y="12" style="clip-path:url(#clipPath7); stroke:none;" xml:space="preserve">:Workshop</text>
    </g>
    <g transform="translate(472,51)" style="text-rendering:geometricPrecision; stroke-width:2; font-size:11; font-family:sans-serif;">
      <rect x="0" y="0" width="430" style="clip-path:url(#clipPath8); fill:none;" height="733" />
    </g>
    <g transform="translate(632,284)" style="font-size:11; fill:rgb(122,207,245); text-rendering:geometricPrecision; font-family:sans-serif; stroke:rgb(122,207,245);">
      <rect x="0" y="0" width="80" style="clip-path:url(#clipPath9); stroke:none;" height="40" />
    </g>
    <g transform="translate(632,284)" style="font-size:11; stroke-linecap:butt; text-rendering:geometricPrecision; font-family:sans-serif; stroke-linejoin:round; stroke-miterlimit:0;">
      <rect x="0" y="0" width="80" style="clip-path:url(#clipPath9); fill:none;" height="40" />
    </g>
    <g style="text-rendering:geometricPrecision; font-size:11; font-family:sans-serif;" transform="translate(632,284)">
      <text x="15" y="24" style="clip-path:url(#clipPath10); stroke:none;" xml:space="preserve">Rack:rack</text>
    </g>
    <g transform="translate(632,454)" style="font-size:11; fill:rgb(122,207,245); text-rendering:geometricPrecision; font-family:sans-serif; stroke:rgb(122,207,245);">
      <rect x="0" y="0" width="80" style="clip-path:url(#clipPath9); stroke:none;" height="40" />
    </g>
    <g transform="translate(632,454)" style="font-size:11; stroke-linecap:butt; text-rendering:geometricPrecision; font-family:sans-serif; stroke-linejoin:round; stroke-miterlimit:0;">
      <rect x="0" y="0" width="80" style="clip-path:url(#clipPath9); fill:none;" height="40" />
    </g>
    <g style="text-rendering:geometricPrecision; font-size:11; font-family:sans-serif;" transform="translate(632,454)">
      <text x="15" y="24" style="clip-path:url(#clipPath10); stroke:none;" xml:space="preserve">Anvil:anvil</text>
    </g>
    <g style="text-rendering:geometricPrecision; font-size:11; font-family:sans-serif;" transform="translate(222,124)">
      <circle style="clip-path:url(#clipPath11); stroke:none;" r="10" cx="20" cy="10" />
    </g>
    <g transform="translate(172,214)" style="font-size:11; fill:rgb(122,207,245); text-rendering:geometricPrecision; font-family:sans-serif; stroke:rgb(122,207,245); font-weight:bold;">
      <rect x="1" y="1" width="138" style="clip-path:url(#clipPath12); stroke:none;" rx="15" ry="15" height="38" />
    </g>
    <g transform="translate(172,214)" style="font-size:11; stroke-linecap:butt; text-rendering:geometricPrecision; font-family:sans-serif; stroke-linejoin:round; font-weight:bold; stroke-miterlimit:0;">
      <rect x="1" y="1" width="138" style="clip-path:url(#clipPath12); fill:none;" rx="15" ry="15" height="38" />
    </g>
    <g transform="translate(172,214)" style="text-rendering:geometricPrecision; font-size:11; font-weight:bold; font-family:sans-serif;">
      <text x="10" y="18" style="clip-path:url(#clipPath13); stroke:none;" xml:space="preserve">ref : act BarmanWaiting</text>
    </g>
    <g transform="translate(102,374)" style="font-size:11; fill:rgb(122,207,245); text-rendering:geometricPrecision; font-family:sans-serif; stroke:rgb(122,207,245); font-weight:bold;">
      <rect x="1" y="1" width="278" style="clip-path:url(#clipPath14); stroke:none;" rx="15" ry="15" height="38" />
    </g>
    <g transform="translate(102,374)" style="font-size:11; stroke-linecap:butt; text-rendering:geometricPrecision; font-family:sans-serif; stroke-linejoin:round; font-weight:bold; stroke-miterlimit:0;">
      <rect x="1" y="1" width="278" style="clip-path:url(#clipPath14); fill:none;" rx="15" ry="15" height="38" />
    </g>
    <g transform="translate(102,374)" style="text-rendering:geometricPrecision; font-size:11; font-weight:bold; font-family:sans-serif;">
      <text x="10" y="18" style="clip-path:url(#clipPath15); stroke:none;" xml:space="preserve">Prendre une pioche endommagée dans le ratelier</text>
    </g>
    <g transform="translate(502,214)" style="font-size:11; fill:rgb(122,207,245); text-rendering:geometricPrecision; font-family:sans-serif; stroke:rgb(122,207,245); font-weight:bold;">
      <rect x="1" y="1" width="378" style="clip-path:url(#clipPath16); stroke:none;" rx="15" ry="15" height="38" />
    </g>
    <g transform="translate(502,214)" style="font-size:11; stroke-linecap:butt; text-rendering:geometricPrecision; font-family:sans-serif; stroke-linejoin:round; font-weight:bold; stroke-miterlimit:0;">
      <rect x="1" y="1" width="378" style="clip-path:url(#clipPath16); fill:none;" rx="15" ry="15" height="38" />
    </g>
    <g transform="translate(502,214)" style="text-rendering:geometricPrecision; font-size:11; font-weight:bold; font-family:sans-serif;">
      <text x="10" y="18" style="clip-path:url(#clipPath17); stroke:none;" xml:space="preserve">Trouver le plus proche ratelier contenant une pioche endommagée</text>
    </g>
    <g transform="translate(172,284)" style="font-size:11; fill:rgb(122,207,245); text-rendering:geometricPrecision; font-family:sans-serif; stroke:rgb(122,207,245); font-weight:bold;">
      <rect x="1" y="1" width="138" style="clip-path:url(#clipPath12); stroke:none;" rx="15" ry="15" height="38" />
    </g>
    <g transform="translate(172,284)" style="font-size:11; stroke-linecap:butt; text-rendering:geometricPrecision; font-family:sans-serif; stroke-linejoin:round; font-weight:bold; stroke-miterlimit:0;">
      <rect x="1" y="1" width="138" style="clip-path:url(#clipPath12); fill:none;" rx="15" ry="15" height="38" />
    </g>
    <g transform="translate(172,284)" style="text-rendering:geometricPrecision; font-size:11; font-weight:bold; font-family:sans-serif;">
      <text x="10" y="18" style="clip-path:url(#clipPath18); stroke:none;" xml:space="preserve">Aller jusqu'au ratelier</text>
    </g>
    <g transform="translate(592,374)" style="font-size:11; fill:rgb(122,207,245); text-rendering:geometricPrecision; font-family:sans-serif; stroke:rgb(122,207,245); font-weight:bold;">
      <rect x="1" y="1" width="188" style="clip-path:url(#clipPath19); stroke:none;" rx="15" ry="15" height="38" />
    </g>
    <g transform="translate(592,374)" style="font-size:11; stroke-linecap:butt; text-rendering:geometricPrecision; font-family:sans-serif; stroke-linejoin:round; font-weight:bold; stroke-miterlimit:0;">
      <rect x="1" y="1" width="188" style="clip-path:url(#clipPath19); fill:none;" rx="15" ry="15" height="38" />
    </g>
    <g transform="translate(592,374)" style="text-rendering:geometricPrecision; font-size:11; font-weight:bold; font-family:sans-serif;">
      <text x="10" y="18" style="clip-path:url(#clipPath20); stroke:none;" xml:space="preserve">Trouver l'enclume la plus proche</text>
    </g>
    <g transform="translate(242,454)" style="font-size:11; fill:rgb(122,207,245); text-rendering:geometricPrecision; font-family:sans-serif; stroke:rgb(122,207,245); font-weight:bold;">
      <rect x="1" y="1" width="138" style="clip-path:url(#clipPath12); stroke:none;" rx="15" ry="15" height="38" />
    </g>
    <g transform="translate(242,454)" style="font-size:11; stroke-linecap:butt; text-rendering:geometricPrecision; font-family:sans-serif; stroke-linejoin:round; font-weight:bold; stroke-miterlimit:0;">
      <rect x="1" y="1" width="138" style="clip-path:url(#clipPath12); fill:none;" rx="15" ry="15" height="38" />
    </g>
    <g transform="translate(242,454)" style="text-rendering:geometricPrecision; font-size:11; font-weight:bold; font-family:sans-serif;">
      <text x="10" y="18" style="clip-path:url(#clipPath21); stroke:none;" xml:space="preserve">Aller jusqu'à l'enclume</text>
    </g>
    <g transform="translate(202,544)" style="font-size:11; fill:rgb(122,207,245); text-rendering:geometricPrecision; font-family:sans-serif; stroke:rgb(122,207,245); font-weight:bold;">
      <rect x="1" y="1" width="228" style="clip-path:url(#clipPath22); stroke:none;" rx="15" ry="15" height="38" />
    </g>
    <g transform="translate(202,544)" style="font-size:11; stroke-linecap:butt; text-rendering:geometricPrecision; font-family:sans-serif; stroke-linejoin:round; font-weight:bold; stroke-miterlimit:0;">
      <rect x="1" y="1" width="228" style="clip-path:url(#clipPath22); fill:none;" rx="15" ry="15" height="38" />
    </g>
    <g transform="translate(202,544)" style="text-rendering:geometricPrecision; font-size:11; font-weight:bold; font-family:sans-serif;">
      <text x="10" y="18" style="clip-path:url(#clipPath23); stroke:none;" xml:space="preserve">Utiliser l'enclume pour réparer la pioche</text>
    </g>
    <g transform="translate(222,704)" style="font-size:11; fill:rgb(122,207,245); text-rendering:geometricPrecision; font-family:sans-serif; stroke:rgb(122,207,245); font-weight:bold;">
      <rect x="1" y="1" width="188" style="clip-path:url(#clipPath19); stroke:none;" rx="15" ry="15" height="38" />
    </g>
    <g transform="translate(222,704)" style="font-size:11; stroke-linecap:butt; text-rendering:geometricPrecision; font-family:sans-serif; stroke-linejoin:round; font-weight:bold; stroke-miterlimit:0;">
      <rect x="1" y="1" width="188" style="clip-path:url(#clipPath19); fill:none;" rx="15" ry="15" height="38" />
    </g>
    <g transform="translate(222,704)" style="text-rendering:geometricPrecision; font-size:11; font-weight:bold; font-family:sans-serif;">
      <text x="10" y="18" style="clip-path:url(#clipPath24); stroke:none;" xml:space="preserve">Mettre la pioche dans le ratelier</text>
    </g>
    <g transform="translate(252,624)" style="font-size:11; fill:rgb(122,207,245); text-rendering:geometricPrecision; font-family:sans-serif; stroke:rgb(122,207,245); font-weight:bold;">
      <rect x="1" y="1" width="128" style="clip-path:url(#clipPath25); stroke:none;" rx="15" ry="15" height="38" />
    </g>
    <g transform="translate(252,624)" style="font-size:11; stroke-linecap:butt; text-rendering:geometricPrecision; font-family:sans-serif; stroke-linejoin:round; font-weight:bold; stroke-miterlimit:0;">
      <rect x="1" y="1" width="128" style="clip-path:url(#clipPath25); fill:none;" rx="15" ry="15" height="38" />
    </g>
    <g transform="translate(252,624)" style="text-rendering:geometricPrecision; font-size:11; font-weight:bold; font-family:sans-serif;">
      <text x="10" y="18" style="clip-path:url(#clipPath18); stroke:none;" xml:space="preserve">Aller jusqu'au ratelier</text>
    </g>
    <g transform="translate(192,93)" style="font-size:11; stroke-linecap:butt; text-rendering:geometricPrecision; font-family:sans-serif; stroke-linejoin:round;">
      <line x1="50" x2="50" y1="50" style="clip-path:url(#clipPath28); fill:none;" y2="121" />
      <line x1="50" x2="56" y1="121" style="clip-path:url(#clipPath28); fill:none;" y2="109" />
      <line x1="50" x2="44" y1="121" style="clip-path:url(#clipPath28); fill:none;" y2="109" />
    </g>
    <g transform="translate(248,171)" style="font-size:11; stroke-linecap:butt; text-rendering:geometricPrecision; font-family:sans-serif; stroke-linejoin:round;">
      <line x1="62" x2="255" y1="63" style="clip-path:url(#clipPath29); fill:none;" y2="63" />
      <line x1="255" x2="243" y1="63" style="clip-path:url(#clipPath29); fill:none;" y2="57" />
      <line x1="255" x2="243" y1="63" style="clip-path:url(#clipPath29); fill:none;" y2="69" />
    </g>
    <g transform="translate(609,190)" style="font-size:11; stroke-linecap:butt; text-rendering:geometricPrecision; font-family:sans-serif; stroke-linejoin:round;">
      <line x1="63" x2="63" y1="62" style="clip-path:url(#clipPath30); fill:none;" y2="92" />
      <line x1="63" x2="69" y1="92" style="clip-path:url(#clipPath30); fill:none;" y2="80" />
      <line x1="63" x2="57" y1="92" style="clip-path:url(#clipPath30); fill:none;" y2="80" />
    </g>
    <g transform="translate(261,254)" style="font-size:11; stroke-linecap:butt; text-rendering:geometricPrecision; font-family:sans-serif; stroke-linejoin:round;">
      <line x1="370" x2="50" y1="50" style="clip-path:url(#clipPath31); fill:none;" y2="50" />
      <line x1="50" x2="62" y1="50" style="clip-path:url(#clipPath31); fill:none;" y2="56" />
      <line x1="50" x2="62" y1="50" style="clip-path:url(#clipPath31); fill:none;" y2="44" />
    </g>
    <g transform="translate(192,273)" style="font-size:11; stroke-linecap:butt; text-rendering:geometricPrecision; font-family:sans-serif; stroke-linejoin:round;">
      <line x1="50" x2="50" y1="50" style="clip-path:url(#clipPath32); fill:none;" y2="101" />
      <line x1="50" x2="56" y1="101" style="clip-path:url(#clipPath32); fill:none;" y2="89" />
      <line x1="50" x2="44" y1="101" style="clip-path:url(#clipPath32); fill:none;" y2="89" />
    </g>
    <g transform="translate(331,344)" style="font-size:11; stroke-linecap:butt; text-rendering:geometricPrecision; font-family:sans-serif; stroke-linejoin:round;">
      <line x1="50" x2="261" y1="50" style="clip-path:url(#clipPath33); fill:none;" y2="50" />
      <line x1="261" x2="249" y1="50" style="clip-path:url(#clipPath33); fill:none;" y2="44" />
      <line x1="261" x2="249" y1="50" style="clip-path:url(#clipPath33); fill:none;" y2="56" />
    </g>
    <g transform="translate(622,363)" style="font-size:11; stroke-linecap:butt; text-rendering:geometricPrecision; font-family:sans-serif; stroke-linejoin:round;">
      <line x1="50" x2="50" y1="50" style="clip-path:url(#clipPath34); fill:none;" y2="90" />
      <line x1="50" x2="56" y1="90" style="clip-path:url(#clipPath34); fill:none;" y2="78" />
      <line x1="50" x2="44" y1="90" style="clip-path:url(#clipPath34); fill:none;" y2="78" />
    </g>
    <g transform="translate(331,424)" style="font-size:11; stroke-linecap:butt; text-rendering:geometricPrecision; font-family:sans-serif; stroke-linejoin:round;">
      <line x1="300" x2="50" y1="50" style="clip-path:url(#clipPath35); fill:none;" y2="50" />
      <line x1="50" x2="62" y1="50" style="clip-path:url(#clipPath35); fill:none;" y2="56" />
      <line x1="50" x2="62" y1="50" style="clip-path:url(#clipPath35); fill:none;" y2="44" />
    </g>
    <g transform="translate(262,443)" style="font-size:11; stroke-linecap:butt; text-rendering:geometricPrecision; font-family:sans-serif; stroke-linejoin:round;">
      <line x1="50" x2="50" y1="50" style="clip-path:url(#clipPath32); fill:none;" y2="101" />
      <line x1="50" x2="56" y1="101" style="clip-path:url(#clipPath32); fill:none;" y2="89" />
      <line x1="50" x2="44" y1="101" style="clip-path:url(#clipPath32); fill:none;" y2="89" />
    </g>
    <g transform="translate(262,533)" style="font-size:11; stroke-linecap:butt; text-rendering:geometricPrecision; font-family:sans-serif; stroke-linejoin:round;">
      <line x1="50" x2="50" y1="50" style="clip-path:url(#clipPath36); fill:none;" y2="91" />
      <line x1="50" x2="56" y1="91" style="clip-path:url(#clipPath36); fill:none;" y2="79" />
      <line x1="50" x2="44" y1="91" style="clip-path:url(#clipPath36); fill:none;" y2="79" />
    </g>
    <g transform="translate(262,613)" style="font-size:11; stroke-linecap:butt; text-rendering:geometricPrecision; font-family:sans-serif; stroke-linejoin:round;">
      <line x1="50" x2="50" y1="50" style="clip-path:url(#clipPath36); fill:none;" y2="91" />
      <line x1="50" x2="56" y1="91" style="clip-path:url(#clipPath36); fill:none;" y2="79" />
      <line x1="50" x2="44" y1="91" style="clip-path:url(#clipPath36); fill:none;" y2="79" />
    </g>
    <g transform="translate(12,184)" style="font-size:11; stroke-linecap:butt; text-rendering:geometricPrecision; font-family:sans-serif; stroke-linejoin:round;">
      <line x1="210" x2="50" y1="540" style="clip-path:url(#clipPath37); fill:none;" y2="540" />
      <line x1="50" x2="50" y1="540" style="clip-path:url(#clipPath37); fill:none;" y2="50" />
      <line x1="50" x2="160" y1="50" style="clip-path:url(#clipPath37); fill:none;" y2="50" />
      <line x1="160" x2="148" y1="50" style="clip-path:url(#clipPath37); fill:none;" y2="44" />
      <line x1="160" x2="148" y1="50" style="clip-path:url(#clipPath37); fill:none;" y2="56" />
    </g>
  </g>
</svg>
