<?xml version="1.0" encoding="UTF-8"?>

<!DOCTYPE svg PUBLIC '-//W3C//DTD SVG 1.0//EN' 'http://www.w3.org/TR/2001/REC-SVG-20010904/DTD/svg10.dtd'>
<svg style="fill-opacity:1; color-rendering:auto; color-interpolation:auto; stroke:black; text-rendering:auto; stroke-linecap:square; stroke-miterlimit:10; stroke-opacity:1; shape-rendering:auto; fill:black; stroke-dasharray:none; font-weight:normal; stroke-width:1; font-family:&apos;Dialog&apos;; font-style:normal; stroke-linejoin:miter; font-size:12; stroke-dashoffset:0; image-rendering:auto;" xmlns="http://www.w3.org/2000/svg" width="456" xmlns:xlink="http://www.w3.org/1999/xlink" height="458">
  <!--Generated by the Batik Graphics2D SVG Generator-->
  <defs id="genericDefs" />
  <g>
    <defs id="defs1">
      <clipPath clipPathUnits="userSpaceOnUse" id="clipPath1">
        <path d="M-3 -3 L437 -3 L437 417 L-3 417 L-3 -3 Z" />
      </clipPath>
      <clipPath clipPathUnits="userSpaceOnUse" id="clipPath2">
        <path d="M0 0 L430 0 L430 15 L0 15 L0 0 Z" />
      </clipPath>
      <clipPath clipPathUnits="userSpaceOnUse" id="clipPath3">
        <path d="M-3 -3 L147 -3 L147 107 L-3 107 L-3 -3 Z" />
      </clipPath>
      <clipPath clipPathUnits="userSpaceOnUse" id="clipPath4">
        <path d="M0 0 L140 0 L140 15 L0 15 L0 0 Z" />
      </clipPath>
    </defs>
    <g style="fill:white; text-rendering:geometricPrecision; stroke:white;">
      <rect x="0" y="0" width="456" style="stroke:none;" height="458" />
      <rect x="158" y="58" transform="translate(-158,-58)" width="455" style="fill:none; stroke:black;" height="457" />
      <text x="165" y="75" transform="translate(-158,-58)" style="fill:black; stroke:none;" xml:space="preserve">Package Diagram1</text>
      <line transform="translate(-158,-58)" x1="158" x2="271" y1="82" style="fill:none; stroke:black;" y2="82" />
      <line transform="translate(-158,-58)" x1="277" x2="277" y1="58" style="fill:none; stroke:black;" y2="72" />
      <line transform="translate(-158,-58)" x1="277" x2="271" y1="72" style="fill:none; stroke:black;" y2="82" />
    </g>
    <g transform="translate(12,34)" style="font-size:11; fill:rgb(122,207,245); text-rendering:geometricPrecision; font-family:sans-serif; stroke:rgb(122,207,245);">
      <rect x="0" y="0" width="85" style="clip-path:url(#clipPath1); stroke:none;" height="20" />
      <rect x="0" y="20" width="429" style="clip-path:url(#clipPath1); stroke:none;" height="389" />
    </g>
    <g transform="translate(12,34)" style="font-size:11; stroke-linecap:butt; text-rendering:geometricPrecision; font-family:sans-serif; stroke-linejoin:round; stroke-miterlimit:0;">
      <rect x="0" y="0" width="85" style="clip-path:url(#clipPath1); fill:none;" height="20" />
      <rect x="0" y="20" width="429" style="clip-path:url(#clipPath1); fill:none;" height="389" />
    </g>
    <g style="text-rendering:geometricPrecision; font-size:11; font-family:sans-serif;" transform="translate(12,54)">
      <text x="197" y="12" style="clip-path:url(#clipPath2); stroke:none;" xml:space="preserve">models</text>
    </g>
    <g transform="translate(52,84)" style="font-size:11; fill:rgb(122,207,245); text-rendering:geometricPrecision; font-family:sans-serif; stroke:rgb(122,207,245);">
      <rect x="0" y="0" width="27" style="clip-path:url(#clipPath3); stroke:none;" height="20" />
      <rect x="0" y="20" width="139" style="clip-path:url(#clipPath3); stroke:none;" height="79" />
    </g>
    <g transform="translate(52,84)" style="font-size:11; stroke-linecap:butt; text-rendering:geometricPrecision; font-family:sans-serif; stroke-linejoin:round; stroke-miterlimit:0;">
      <rect x="0" y="0" width="27" style="clip-path:url(#clipPath3); fill:none;" height="20" />
      <rect x="0" y="20" width="139" style="clip-path:url(#clipPath3); fill:none;" height="79" />
    </g>
    <g style="text-rendering:geometricPrecision; font-size:11; font-family:sans-serif;" transform="translate(52,104)">
      <text x="43" y="12" style="clip-path:url(#clipPath4); stroke:none;" xml:space="preserve">Characters</text>
    </g>
    <g transform="translate(52,204)" style="font-size:11; fill:rgb(122,207,245); text-rendering:geometricPrecision; font-family:sans-serif; stroke:rgb(122,207,245);">
      <rect x="0" y="0" width="27" style="clip-path:url(#clipPath3); stroke:none;" height="20" />
      <rect x="0" y="20" width="139" style="clip-path:url(#clipPath3); stroke:none;" height="79" />
    </g>
    <g transform="translate(52,204)" style="font-size:11; stroke-linecap:butt; text-rendering:geometricPrecision; font-family:sans-serif; stroke-linejoin:round; stroke-miterlimit:0;">
      <rect x="0" y="0" width="27" style="clip-path:url(#clipPath3); fill:none;" height="20" />
      <rect x="0" y="20" width="139" style="clip-path:url(#clipPath3); fill:none;" height="79" />
    </g>
    <g style="text-rendering:geometricPrecision; font-size:11; font-family:sans-serif;" transform="translate(52,224)">
      <text x="51" y="12" style="clip-path:url(#clipPath4); stroke:none;" xml:space="preserve">Objects</text>
    </g>
    <g transform="translate(262,204)" style="font-size:11; fill:rgb(122,207,245); text-rendering:geometricPrecision; font-family:sans-serif; stroke:rgb(122,207,245);">
      <rect x="0" y="0" width="27" style="clip-path:url(#clipPath3); stroke:none;" height="20" />
      <rect x="0" y="20" width="139" style="clip-path:url(#clipPath3); stroke:none;" height="79" />
    </g>
    <g transform="translate(262,204)" style="font-size:11; stroke-linecap:butt; text-rendering:geometricPrecision; font-family:sans-serif; stroke-linejoin:round; stroke-miterlimit:0;">
      <rect x="0" y="0" width="27" style="clip-path:url(#clipPath3); fill:none;" height="20" />
      <rect x="0" y="20" width="139" style="clip-path:url(#clipPath3); fill:none;" height="79" />
    </g>
    <g style="text-rendering:geometricPrecision; font-size:11; font-family:sans-serif;" transform="translate(262,224)">
      <text x="53" y="12" style="clip-path:url(#clipPath4); stroke:none;" xml:space="preserve">Rooms</text>
    </g>
    <g transform="translate(262,84)" style="font-size:11; fill:rgb(122,207,245); text-rendering:geometricPrecision; font-family:sans-serif; stroke:rgb(122,207,245);">
      <rect x="0" y="0" width="27" style="clip-path:url(#clipPath3); stroke:none;" height="20" />
      <rect x="0" y="20" width="139" style="clip-path:url(#clipPath3); stroke:none;" height="79" />
    </g>
    <g transform="translate(262,84)" style="font-size:11; stroke-linecap:butt; text-rendering:geometricPrecision; font-family:sans-serif; stroke-linejoin:round; stroke-miterlimit:0;">
      <rect x="0" y="0" width="27" style="clip-path:url(#clipPath3); fill:none;" height="20" />
      <rect x="0" y="20" width="139" style="clip-path:url(#clipPath3); fill:none;" height="79" />
    </g>
    <g style="text-rendering:geometricPrecision; font-size:11; font-family:sans-serif;" transform="translate(262,104)">
      <text x="55" y="12" style="clip-path:url(#clipPath4); stroke:none;" xml:space="preserve">World</text>
    </g>
    <g transform="translate(52,324)" style="font-size:11; fill:rgb(122,207,245); text-rendering:geometricPrecision; font-family:sans-serif; stroke:rgb(122,207,245);">
      <rect x="0" y="0" width="27" style="clip-path:url(#clipPath3); stroke:none;" height="20" />
      <rect x="0" y="20" width="139" style="clip-path:url(#clipPath3); stroke:none;" height="79" />
    </g>
    <g transform="translate(52,324)" style="font-size:11; stroke-linecap:butt; text-rendering:geometricPrecision; font-family:sans-serif; stroke-linejoin:round; stroke-miterlimit:0;">
      <rect x="0" y="0" width="27" style="clip-path:url(#clipPath3); fill:none;" height="20" />
      <rect x="0" y="20" width="139" style="clip-path:url(#clipPath3); fill:none;" height="79" />
    </g>
    <g style="text-rendering:geometricPrecision; font-size:11; font-family:sans-serif;" transform="translate(52,344)">
      <text x="55" y="12" style="clip-path:url(#clipPath4); stroke:none;" xml:space="preserve">Tasks</text>
    </g>
    <g transform="translate(262,324)" style="font-size:11; fill:rgb(122,207,245); text-rendering:geometricPrecision; font-family:sans-serif; stroke:rgb(122,207,245);">
      <rect x="0" y="0" width="27" style="clip-path:url(#clipPath3); stroke:none;" height="20" />
      <rect x="0" y="20" width="139" style="clip-path:url(#clipPath3); stroke:none;" height="79" />
    </g>
    <g transform="translate(262,324)" style="font-size:11; stroke-linecap:butt; text-rendering:geometricPrecision; font-family:sans-serif; stroke-linejoin:round; stroke-miterlimit:0;">
      <rect x="0" y="0" width="27" style="clip-path:url(#clipPath3); fill:none;" height="20" />
      <rect x="0" y="20" width="139" style="clip-path:url(#clipPath3); fill:none;" height="79" />
    </g>
    <g style="text-rendering:geometricPrecision; font-size:11; font-family:sans-serif;" transform="translate(262,344)">
      <text x="57" y="12" style="clip-path:url(#clipPath4); stroke:none;" xml:space="preserve">Items</text>
    </g>
  </g>
</svg>
