<?xml version="1.0" encoding="UTF-8"?>

<!DOCTYPE svg PUBLIC '-//W3C//DTD SVG 1.0//EN' 'http://www.w3.org/TR/2001/REC-SVG-20010904/DTD/svg10.dtd'>
<svg style="fill-opacity:1; color-rendering:auto; color-interpolation:auto; stroke:black; text-rendering:auto; stroke-linecap:square; stroke-miterlimit:10; stroke-opacity:1; shape-rendering:auto; fill:black; stroke-dasharray:none; font-weight:normal; stroke-width:1; font-family:&apos;Dialog&apos;; font-style:normal; stroke-linejoin:miter; font-size:12; stroke-dashoffset:0; image-rendering:auto;" xmlns="http://www.w3.org/2000/svg" width="496" xmlns:xlink="http://www.w3.org/1999/xlink" height="152">
  <!--Generated by the Batik Graphics2D SVG Generator-->
  <defs id="genericDefs" />
  <g>
    <defs id="defs1">
      <clipPath clipPathUnits="userSpaceOnUse" id="clipPath1">
        <path d="M-3 -3 L157 -3 L157 107 L-3 107 L-3 -3 Z" />
      </clipPath>
      <clipPath clipPathUnits="userSpaceOnUse" id="clipPath2">
        <path d="M-150 -25 L300 -25 L300 50 L-150 50 L-150 -25 Z" />
      </clipPath>
      <clipPath clipPathUnits="userSpaceOnUse" id="clipPath3">
        <path d="M0 0 L244 0 L244 75 L0 75 L0 0 Z" />
      </clipPath>
      <clipPath clipPathUnits="userSpaceOnUse" id="clipPath4">
        <path d="M-84 -14 L168 -14 L168 28 L-84 28 L-84 -14 Z" />
      </clipPath>
      <clipPath clipPathUnits="userSpaceOnUse" id="clipPath5">
        <path d="M-129 -15 L258 -15 L258 30 L-129 30 L-129 -15 Z" />
      </clipPath>
    </defs>
    <g style="fill:white; text-rendering:geometricPrecision; stroke:white;">
      <rect x="0" y="0" width="496" style="stroke:none;" height="152" />
      <rect x="188" y="228" transform="translate(-188,-228)" width="495" style="fill:none; stroke:black;" height="151" />
      <text x="195" y="245" transform="translate(-188,-228)" style="fill:black; stroke:none;" xml:space="preserve">stm Dwarf</text>
      <line transform="translate(-188,-228)" x1="188" x2="251" y1="252" style="fill:none; stroke:black;" y2="252" />
      <line transform="translate(-188,-228)" x1="257" x2="257" y1="228" style="fill:none; stroke:black;" y2="242" />
      <line transform="translate(-188,-228)" x1="257" x2="251" y1="242" style="fill:none; stroke:black;" y2="252" />
    </g>
    <g transform="translate(12,34)" style="font-size:11; fill:rgb(122,207,245); text-rendering:geometricPrecision; font-family:sans-serif; stroke:rgb(122,207,245);">
      <rect x="0" y="0" width="150" style="clip-path:url(#clipPath1); stroke:none;" rx="10" ry="10" height="100" />
    </g>
    <g transform="translate(12,34)" style="font-size:11; stroke-linecap:butt; text-rendering:geometricPrecision; font-family:sans-serif; stroke-linejoin:round; stroke-miterlimit:0;">
      <rect x="0" y="0" width="150" style="clip-path:url(#clipPath1); fill:none;" rx="10" ry="10" height="100" />
      <rect x="125" y="85" width="10" style="clip-path:url(#clipPath1); fill:none;" rx="2.5" ry="2.5" height="5" />
      <rect x="110" y="85" width="10" style="clip-path:url(#clipPath1); fill:none;" rx="2.5" ry="2.5" height="5" />
      <line x1="125" x2="120" y1="88" style="clip-path:url(#clipPath1); fill:none;" y2="88" />
    </g>
    <g transform="translate(332,34)" style="font-size:11; fill:rgb(122,207,245); text-rendering:geometricPrecision; font-family:sans-serif; stroke:rgb(122,207,245);">
      <rect x="0" y="0" width="150" style="clip-path:url(#clipPath1); stroke:none;" rx="10" ry="10" height="100" />
    </g>
    <g transform="translate(332,34)" style="font-size:11; stroke-linecap:butt; text-rendering:geometricPrecision; font-family:sans-serif; stroke-linejoin:round; stroke-miterlimit:0;">
      <rect x="0" y="0" width="150" style="clip-path:url(#clipPath1); fill:none;" rx="10" ry="10" height="100" />
      <rect x="125" y="85" width="10" style="clip-path:url(#clipPath1); fill:none;" rx="2.5" ry="2.5" height="5" />
      <rect x="110" y="85" width="10" style="clip-path:url(#clipPath1); fill:none;" rx="2.5" ry="2.5" height="5" />
      <line x1="125" x2="120" y1="88" style="clip-path:url(#clipPath1); fill:none;" y2="88" />
    </g>
    <g style="text-rendering:geometricPrecision; font-size:11; font-family:sans-serif;" transform="translate(332,34)">
      <text x="55" y="22" style="clip-path:url(#clipPath2); stroke:none;" xml:space="preserve">Resting</text>
    </g>
    <g style="text-rendering:geometricPrecision; font-size:11; font-family:sans-serif;" transform="translate(12,34)">
      <text x="59" y="22" style="clip-path:url(#clipPath2); stroke:none;" xml:space="preserve">Ready</text>
    </g>
    <g transform="translate(126,19)" style="font-size:11; stroke-linecap:butt; text-rendering:geometricPrecision; font-family:sans-serif; stroke-linejoin:round;">
      <line x1="35" x2="205" y1="35" style="clip-path:url(#clipPath3); fill:none;" y2="35" />
      <line x1="205" x2="193" y1="35" style="clip-path:url(#clipPath3); fill:none;" y2="29" />
      <line x1="205" x2="193" y1="35" style="clip-path:url(#clipPath3); fill:none;" y2="41" />
    </g>
    <g transform="translate(126,78)" style="font-size:11; stroke-linecap:butt; text-rendering:geometricPrecision; font-family:sans-serif; stroke-linejoin:round;">
      <line x1="205" x2="35" y1="35" style="clip-path:url(#clipPath3); fill:none;" y2="35" />
      <line x1="35" x2="47" y1="35" style="clip-path:url(#clipPath3); fill:none;" y2="41" />
      <line x1="35" x2="47" y1="35" style="clip-path:url(#clipPath3); fill:none;" y2="29" />
    </g>
    <g style="text-rendering:geometricPrecision; font-size:11; font-family:sans-serif;" transform="translate(212,124)">
      <text x="10" y="12" style="clip-path:url(#clipPath4); stroke:none;" xml:space="preserve">[isSatisfied()]</text>
    </g>
    <g style="text-rendering:geometricPrecision; font-size:11; font-family:sans-serif;" transform="translate(182,34)">
      <text x="10" y="12" style="clip-path:url(#clipPath5); stroke:none;" xml:space="preserve">[isThirsty()||isSleepy()]</text>
    </g>
  </g>
</svg>
