<?xml version="1.0" encoding="UTF-8"?>

<!DOCTYPE svg PUBLIC '-//W3C//DTD SVG 1.0//EN' 'http://www.w3.org/TR/2001/REC-SVG-20010904/DTD/svg10.dtd'>
<svg style="fill-opacity:1; color-rendering:auto; color-interpolation:auto; stroke:black; text-rendering:auto; stroke-linecap:square; stroke-miterlimit:10; stroke-opacity:1; shape-rendering:auto; fill:black; stroke-dasharray:none; font-weight:normal; stroke-width:1; font-family:&apos;Dialog&apos;; font-style:normal; stroke-linejoin:miter; font-size:12; stroke-dashoffset:0; image-rendering:auto;" xmlns="http://www.w3.org/2000/svg" width="1166" xmlns:xlink="http://www.w3.org/1999/xlink" height="778">
  <!--Generated by the Batik Graphics2D SVG Generator-->
  <defs id="genericDefs" />
  <g>
    <defs id="defs1">
      <clipPath clipPathUnits="userSpaceOnUse" id="clipPath1">
        <path d="M-3 -3 L1147 -3 L1147 737 L-3 737 L-3 -3 Z" />
      </clipPath>
      <clipPath clipPathUnits="userSpaceOnUse" id="clipPath2">
        <path d="M0 0 L1140 0 L1140 15 L0 15 L0 0 Z" />
      </clipPath>
      <clipPath clipPathUnits="userSpaceOnUse" id="clipPath3">
        <path d="M-3 -3 L157 -3 L157 187 L-3 187 L-3 -3 Z" />
      </clipPath>
      <clipPath clipPathUnits="userSpaceOnUse" id="clipPath4">
        <path d="M0 0 L150 0 L150 15 L0 15 L0 0 Z" />
      </clipPath>
      <clipPath clipPathUnits="userSpaceOnUse" id="clipPath5">
        <path d="M-3 -3 L327 -3 L327 177 L-3 177 L-3 -3 Z" />
      </clipPath>
      <clipPath clipPathUnits="userSpaceOnUse" id="clipPath6">
        <path d="M0 0 L320 0 L320 15 L0 15 L0 0 Z" />
      </clipPath>
      <clipPath clipPathUnits="userSpaceOnUse" id="clipPath7">
        <path d="M-3 -3 L297 -3 L297 187 L-3 187 L-3 -3 Z" />
      </clipPath>
      <clipPath clipPathUnits="userSpaceOnUse" id="clipPath8">
        <path d="M0 0 L290 0 L290 15 L0 15 L0 0 Z" />
      </clipPath>
      <clipPath clipPathUnits="userSpaceOnUse" id="clipPath9">
        <path d="M-3 -3 L397 -3 L397 147 L-3 147 L-3 -3 Z" />
      </clipPath>
      <clipPath clipPathUnits="userSpaceOnUse" id="clipPath10">
        <path d="M0 0 L390 0 L390 15 L0 15 L0 0 Z" />
      </clipPath>
      <clipPath clipPathUnits="userSpaceOnUse" id="clipPath11">
        <path d="M-3 -3 L137 -3 L137 127 L-3 127 L-3 -3 Z" />
      </clipPath>
      <clipPath clipPathUnits="userSpaceOnUse" id="clipPath12">
        <path d="M0 0 L0 112 L130 112 L130 0 Z" />
      </clipPath>
      <clipPath clipPathUnits="userSpaceOnUse" id="clipPath13">
        <path d="M0 0 L130 0 L130 15 L0 15 L0 0 Z" />
      </clipPath>
      <clipPath clipPathUnits="userSpaceOnUse" id="clipPath14">
        <path d="M-3 -3 L207 -3 L207 67 L-3 67 L-3 -3 Z" />
      </clipPath>
      <clipPath clipPathUnits="userSpaceOnUse" id="clipPath15">
        <path d="M0 0 L0 52 L200 52 L200 0 Z" />
      </clipPath>
      <clipPath clipPathUnits="userSpaceOnUse" id="clipPath16">
        <path d="M0 0 L200 0 L200 15 L0 15 L0 0 Z" />
      </clipPath>
      <clipPath clipPathUnits="userSpaceOnUse" id="clipPath17">
        <path d="M-3 -3 L267 -3 L267 117 L-3 117 L-3 -3 Z" />
      </clipPath>
      <clipPath clipPathUnits="userSpaceOnUse" id="clipPath18">
        <path d="M0 0 L0 102 L260 102 L260 0 Z" />
      </clipPath>
      <clipPath clipPathUnits="userSpaceOnUse" id="clipPath19">
        <path d="M0 0 L260 0 L260 15 L0 15 L0 0 Z" />
      </clipPath>
      <clipPath clipPathUnits="userSpaceOnUse" id="clipPath20">
        <path d="M-3 -3 L97 -3 L97 47 L-3 47 L-3 -3 Z" />
      </clipPath>
      <clipPath clipPathUnits="userSpaceOnUse" id="clipPath21">
        <path d="M0 0 L0 32 L90 32 L90 0 Z" />
      </clipPath>
      <clipPath clipPathUnits="userSpaceOnUse" id="clipPath22">
        <path d="M0 0 L90 0 L90 15 L0 15 L0 0 Z" />
      </clipPath>
      <clipPath clipPathUnits="userSpaceOnUse" id="clipPath23">
        <path d="M-3 -3 L237 -3 L237 67 L-3 67 L-3 -3 Z" />
      </clipPath>
      <clipPath clipPathUnits="userSpaceOnUse" id="clipPath24">
        <path d="M0 0 L0 52 L230 52 L230 0 Z" />
      </clipPath>
      <clipPath clipPathUnits="userSpaceOnUse" id="clipPath25">
        <path d="M0 0 L230 0 L230 15 L0 15 L0 0 Z" />
      </clipPath>
      <clipPath clipPathUnits="userSpaceOnUse" id="clipPath26">
        <path d="M-3 -3 L137 -3 L137 97 L-3 97 L-3 -3 Z" />
      </clipPath>
      <clipPath clipPathUnits="userSpaceOnUse" id="clipPath27">
        <path d="M0 0 L0 82 L130 82 L130 0 Z" />
      </clipPath>
      <clipPath clipPathUnits="userSpaceOnUse" id="clipPath28">
        <path d="M-3 -3 L267 -3 L267 227 L-3 227 L-3 -3 Z" />
      </clipPath>
      <clipPath clipPathUnits="userSpaceOnUse" id="clipPath29">
        <path d="M-3 -3 L237 -3 L237 97 L-3 97 L-3 -3 Z" />
      </clipPath>
      <clipPath clipPathUnits="userSpaceOnUse" id="clipPath30">
        <path d="M0 0 L0 82 L230 82 L230 0 Z" />
      </clipPath>
      <clipPath clipPathUnits="userSpaceOnUse" id="clipPath31">
        <path d="M-3 -3 L107 -3 L107 47 L-3 47 L-3 -3 Z" />
      </clipPath>
      <clipPath clipPathUnits="userSpaceOnUse" id="clipPath32">
        <path d="M0 0 L0 32 L100 32 L100 0 Z" />
      </clipPath>
      <clipPath clipPathUnits="userSpaceOnUse" id="clipPath33">
        <path d="M0 0 L100 0 L100 15 L0 15 L0 0 Z" />
      </clipPath>
      <clipPath clipPathUnits="userSpaceOnUse" id="clipPath34">
        <path d="M-3 -3 L137 -3 L137 67 L-3 67 L-3 -3 Z" />
      </clipPath>
      <clipPath clipPathUnits="userSpaceOnUse" id="clipPath35">
        <path d="M0 0 L0 52 L130 52 L130 0 Z" />
      </clipPath>
      <clipPath clipPathUnits="userSpaceOnUse" id="clipPath36">
        <path d="M-3 -3 L97 -3 L97 57 L-3 57 L-3 -3 Z" />
      </clipPath>
      <clipPath clipPathUnits="userSpaceOnUse" id="clipPath37">
        <path d="M0 0 L0 42 L90 42 L90 0 Z" />
      </clipPath>
      <clipPath clipPathUnits="userSpaceOnUse" id="clipPath38">
        <path d="M-3 -3 L97 -3 L97 97 L-3 97 L-3 -3 Z" />
      </clipPath>
      <clipPath clipPathUnits="userSpaceOnUse" id="clipPath39">
        <path d="M0 0 L0 82 L90 82 L90 0 Z" />
      </clipPath>
      <clipPath clipPathUnits="userSpaceOnUse" id="clipPath40">
        <path d="M-3 -3 L147 -3 L147 97 L-3 97 L-3 -3 Z" />
      </clipPath>
      <clipPath clipPathUnits="userSpaceOnUse" id="clipPath41">
        <path d="M0 0 L0 82 L140 82 L140 0 Z" />
      </clipPath>
      <clipPath clipPathUnits="userSpaceOnUse" id="clipPath42">
        <path d="M0 0 L140 0 L140 15 L0 15 L0 0 Z" />
      </clipPath>
      <clipPath clipPathUnits="userSpaceOnUse" id="clipPath43">
        <path d="M-3 -3 L137 -3 L137 47 L-3 47 L-3 -3 Z" />
      </clipPath>
      <clipPath clipPathUnits="userSpaceOnUse" id="clipPath44">
        <path d="M0 0 L0 40 L130 40 L130 0 Z" />
      </clipPath>
      <clipPath clipPathUnits="userSpaceOnUse" id="clipPath45">
        <path d="M-3 -3 L157 -3 L157 47 L-3 47 L-3 -3 Z" />
      </clipPath>
      <clipPath clipPathUnits="userSpaceOnUse" id="clipPath46">
        <path d="M0 0 L0 40 L150 40 L150 0 Z" />
      </clipPath>
      <clipPath clipPathUnits="userSpaceOnUse" id="clipPath47">
        <path d="M-3 -3 L127 -3 L127 53 L-3 53 L-3 -3 Z" />
      </clipPath>
      <clipPath clipPathUnits="userSpaceOnUse" id="clipPath48">
        <path d="M0 0 L0 46 L120 46 L120 0 Z" />
      </clipPath>
      <clipPath clipPathUnits="userSpaceOnUse" id="clipPath49">
        <path d="M-3 -3 L77 -3 L77 20 L-3 20 L-3 -3 Z" />
      </clipPath>
      <clipPath clipPathUnits="userSpaceOnUse" id="clipPath50">
        <path d="M-3 -3 L42 -3 L42 20 L-3 20 L-3 -3 Z" />
      </clipPath>
      <clipPath clipPathUnits="userSpaceOnUse" id="clipPath51">
        <path d="M-3 -3 L60 -3 L60 20 L-3 20 L-3 -3 Z" />
      </clipPath>
      <clipPath clipPathUnits="userSpaceOnUse" id="clipPath52">
        <path d="M-3 -3 L41 -3 L41 20 L-3 20 L-3 -3 Z" />
      </clipPath>
      <clipPath clipPathUnits="userSpaceOnUse" id="clipPath53">
        <path d="M-3 -3 L54 -3 L54 20 L-3 20 L-3 -3 Z" />
      </clipPath>
      <clipPath clipPathUnits="userSpaceOnUse" id="clipPath54">
        <path d="M-3 -3 L57 -3 L57 20 L-3 20 L-3 -3 Z" />
      </clipPath>
      <clipPath clipPathUnits="userSpaceOnUse" id="clipPath55">
        <path d="M-3 -3 L32 -3 L32 20 L-3 20 L-3 -3 Z" />
      </clipPath>
      <clipPath clipPathUnits="userSpaceOnUse" id="clipPath56">
        <path d="M-3 -3 L51 -3 L51 21 L-3 21 L-3 -3 Z" />
      </clipPath>
      <clipPath clipPathUnits="userSpaceOnUse" id="clipPath57">
        <path d="M-3 -3 L44 -3 L44 21 L-3 21 L-3 -3 Z" />
      </clipPath>
      <clipPath clipPathUnits="userSpaceOnUse" id="clipPath58">
        <path d="M-3 -3 L51 -3 L51 20 L-3 20 L-3 -3 Z" />
      </clipPath>
      <clipPath clipPathUnits="userSpaceOnUse" id="clipPath59">
        <path d="M-3 -3 L44 -3 L44 20 L-3 20 L-3 -3 Z" />
      </clipPath>
      <clipPath clipPathUnits="userSpaceOnUse" id="clipPath60">
        <path d="M-3 -3 L52 -3 L52 19 L-3 19 L-3 -3 Z" />
      </clipPath>
      <clipPath clipPathUnits="userSpaceOnUse" id="clipPath61">
        <path d="M-3 -3 L47 -3 L47 20 L-3 20 L-3 -3 Z" />
      </clipPath>
      <clipPath clipPathUnits="userSpaceOnUse" id="clipPath62">
        <path d="M-3 -3 L54 -3 L54 21 L-3 21 L-3 -3 Z" />
      </clipPath>
      <clipPath clipPathUnits="userSpaceOnUse" id="clipPath63">
        <path d="M-3 -3 L78 -3 L78 21 L-3 21 L-3 -3 Z" />
      </clipPath>
      <clipPath clipPathUnits="userSpaceOnUse" id="clipPath64">
        <path d="M-3 -3 L57 -3 L57 21 L-3 21 L-3 -3 Z" />
      </clipPath>
      <clipPath clipPathUnits="userSpaceOnUse" id="clipPath65">
        <path d="M-3 -3 L41 -3 L41 21 L-3 21 L-3 -3 Z" />
      </clipPath>
      <clipPath clipPathUnits="userSpaceOnUse" id="clipPath66">
        <path d="M0 0 L87 0 L87 206 L0 206 L0 0 Z" />
      </clipPath>
      <clipPath clipPathUnits="userSpaceOnUse" id="clipPath67">
        <path d="M0 0 L335 0 L335 146 L0 146 L0 0 Z" />
      </clipPath>
      <clipPath clipPathUnits="userSpaceOnUse" id="clipPath68">
        <path d="M0 0 L87 0 L87 136 L0 136 L0 0 Z" />
      </clipPath>
      <clipPath clipPathUnits="userSpaceOnUse" id="clipPath69">
        <path d="M0 0 L295 0 L295 186 L0 186 L0 0 Z" />
      </clipPath>
      <clipPath clipPathUnits="userSpaceOnUse" id="clipPath70">
        <path d="M0 0 L146 0 L146 87 L0 87 L0 0 Z" />
      </clipPath>
      <clipPath clipPathUnits="userSpaceOnUse" id="clipPath71">
        <path d="M0 0 L254 0 L254 146 L0 146 L0 0 Z" />
      </clipPath>
      <clipPath clipPathUnits="userSpaceOnUse" id="clipPath72">
        <path d="M0 0 L255 0 L255 225 L0 225 L0 0 Z" />
      </clipPath>
      <clipPath clipPathUnits="userSpaceOnUse" id="clipPath73">
        <path d="M0 0 L465 0 L465 146 L0 146 L0 0 Z" />
      </clipPath>
      <clipPath clipPathUnits="userSpaceOnUse" id="clipPath74">
        <path d="M0 0 L296 0 L296 305 L0 305 L0 0 Z" />
      </clipPath>
      <clipPath clipPathUnits="userSpaceOnUse" id="clipPath75">
        <path d="M0 0 L234 0 L234 115 L0 115 L0 0 Z" />
      </clipPath>
      <clipPath clipPathUnits="userSpaceOnUse" id="clipPath76">
        <path d="M0 0 L166 0 L166 87 L0 87 L0 0 Z" />
      </clipPath>
      <clipPath clipPathUnits="userSpaceOnUse" id="clipPath77">
        <path d="M0 0 L635 0 L635 186 L0 186 L0 0 Z" />
      </clipPath>
      <clipPath clipPathUnits="userSpaceOnUse" id="clipPath78">
        <path d="M0 0 L115 0 L115 184 L0 184 L0 0 Z" />
      </clipPath>
      <clipPath clipPathUnits="userSpaceOnUse" id="clipPath79">
        <path d="M0 0 L146 0 L146 146 L0 146 L0 0 Z" />
      </clipPath>
      <clipPath clipPathUnits="userSpaceOnUse" id="clipPath80">
        <path d="M-25 -13 L50 -13 L50 26 L-25 26 L-25 -13 Z" />
      </clipPath>
      <clipPath clipPathUnits="userSpaceOnUse" id="clipPath81">
        <path d="M-53 -13 L106 -13 L106 26 L-53 26 L-53 -13 Z" />
      </clipPath>
      <clipPath clipPathUnits="userSpaceOnUse" id="clipPath82">
        <path d="M-47 -13 L94 -13 L94 26 L-47 26 L-47 -13 Z" />
      </clipPath>
      <clipPath clipPathUnits="userSpaceOnUse" id="clipPath83">
        <path d="M-34 -14 L68 -14 L68 28 L-34 28 L-34 -14 Z" />
      </clipPath>
      <clipPath clipPathUnits="userSpaceOnUse" id="clipPath84">
        <path d="M-50 -14 L100 -14 L100 28 L-50 28 L-50 -14 Z" />
      </clipPath>
      <clipPath clipPathUnits="userSpaceOnUse" id="clipPath85">
        <path d="M-71 -14 L142 -14 L142 28 L-71 28 L-71 -14 Z" />
      </clipPath>
      <clipPath clipPathUnits="userSpaceOnUse" id="clipPath86">
        <path d="M-47 -14 L94 -14 L94 28 L-47 28 L-47 -14 Z" />
      </clipPath>
      <clipPath clipPathUnits="userSpaceOnUse" id="clipPath87">
        <path d="M-40 -13 L80 -13 L80 26 L-40 26 L-40 -13 Z" />
      </clipPath>
      <clipPath clipPathUnits="userSpaceOnUse" id="clipPath88">
        <path d="M-45 -12 L90 -12 L90 24 L-45 24 L-45 -12 Z" />
      </clipPath>
      <clipPath clipPathUnits="userSpaceOnUse" id="clipPath89">
        <path d="M-37 -13 L74 -13 L74 26 L-37 26 L-37 -13 Z" />
      </clipPath>
      <clipPath clipPathUnits="userSpaceOnUse" id="clipPath90">
        <path d="M-44 -13 L88 -13 L88 26 L-44 26 L-44 -13 Z" />
      </clipPath>
      <clipPath clipPathUnits="userSpaceOnUse" id="clipPath91">
        <path d="M-37 -14 L74 -14 L74 28 L-37 28 L-37 -14 Z" />
      </clipPath>
      <clipPath clipPathUnits="userSpaceOnUse" id="clipPath92">
        <path d="M-44 -14 L88 -14 L88 28 L-44 28 L-44 -14 Z" />
      </clipPath>
      <clipPath clipPathUnits="userSpaceOnUse" id="clipPath93">
        <path d="M-34 -13 L68 -13 L68 26 L-34 26 L-34 -13 Z" />
      </clipPath>
      <clipPath clipPathUnits="userSpaceOnUse" id="clipPath94">
        <path d="M-50 -13 L100 -13 L100 26 L-50 26 L-50 -13 Z" />
      </clipPath>
      <clipPath clipPathUnits="userSpaceOnUse" id="clipPath95">
        <path d="M-35 -13 L70 -13 L70 26 L-35 26 L-35 -13 Z" />
      </clipPath>
      <clipPath clipPathUnits="userSpaceOnUse" id="clipPath96">
        <path d="M-70 -13 L140 -13 L140 26 L-70 26 L-70 -13 Z" />
      </clipPath>
    </defs>
    <g style="fill:white; text-rendering:geometricPrecision; stroke:white;">
      <rect x="0" y="0" width="1166" style="stroke:none;" height="778" />
      <rect x="298" y="38" transform="translate(-298,-38)" width="1165" style="fill:none; stroke:black;" height="777" />
      <text x="305" y="55" transform="translate(-298,-38)" style="fill:black; stroke:none;" xml:space="preserve">class GameModels</text>
      <line transform="translate(-298,-38)" x1="298" x2="412" y1="62" style="fill:none; stroke:black;" y2="62" />
      <line transform="translate(-298,-38)" x1="418" x2="418" y1="38" style="fill:none; stroke:black;" y2="52" />
      <line transform="translate(-298,-38)" x1="418" x2="412" y1="52" style="fill:none; stroke:black;" y2="62" />
    </g>
    <g transform="translate(12,34)" style="font-size:11; fill:rgb(122,207,245); text-rendering:geometricPrecision; font-family:sans-serif; stroke:rgb(122,207,245);">
      <rect x="0" y="0" width="227" style="clip-path:url(#clipPath1); stroke:none;" height="20" />
      <rect x="0" y="20" width="1139" style="clip-path:url(#clipPath1); stroke:none;" height="709" />
    </g>
    <g transform="translate(12,34)" style="font-size:11; stroke-linecap:butt; text-rendering:geometricPrecision; font-family:sans-serif; stroke-linejoin:round; stroke-miterlimit:0;">
      <rect x="0" y="0" width="227" style="clip-path:url(#clipPath1); fill:none;" height="20" />
      <rect x="0" y="20" width="1139" style="clip-path:url(#clipPath1); fill:none;" height="709" />
    </g>
    <g style="text-rendering:geometricPrecision; font-size:11; font-family:sans-serif;" transform="translate(12,54)">
      <text x="552" y="12" style="clip-path:url(#clipPath2); stroke:none;" xml:space="preserve">models</text>
    </g>
    <g transform="translate(862,64)" style="font-size:11; fill:rgb(122,207,245); text-rendering:geometricPrecision; font-family:sans-serif; stroke:rgb(122,207,245);">
      <rect x="0" y="0" width="29" style="clip-path:url(#clipPath3); stroke:none;" height="20" />
      <rect x="0" y="20" width="149" style="clip-path:url(#clipPath3); stroke:none;" height="159" />
    </g>
    <g transform="translate(862,64)" style="font-size:11; stroke-linecap:butt; text-rendering:geometricPrecision; font-family:sans-serif; stroke-linejoin:round; stroke-miterlimit:0;">
      <rect x="0" y="0" width="29" style="clip-path:url(#clipPath3); fill:none;" height="20" />
      <rect x="0" y="20" width="149" style="clip-path:url(#clipPath3); fill:none;" height="159" />
    </g>
    <g style="text-rendering:geometricPrecision; font-size:11; font-family:sans-serif;" transform="translate(862,84)">
      <text x="60" y="12" style="clip-path:url(#clipPath4); stroke:none;" xml:space="preserve">World</text>
    </g>
    <g transform="translate(22,504)" style="font-size:11; fill:rgb(122,207,245); text-rendering:geometricPrecision; font-family:sans-serif; stroke:rgb(122,207,245);">
      <rect x="0" y="0" width="63" style="clip-path:url(#clipPath5); stroke:none;" height="20" />
      <rect x="0" y="20" width="319" style="clip-path:url(#clipPath5); stroke:none;" height="149" />
    </g>
    <g transform="translate(22,504)" style="font-size:11; stroke-linecap:butt; text-rendering:geometricPrecision; font-family:sans-serif; stroke-linejoin:round; stroke-miterlimit:0;">
      <rect x="0" y="0" width="63" style="clip-path:url(#clipPath5); fill:none;" height="20" />
      <rect x="0" y="20" width="319" style="clip-path:url(#clipPath5); fill:none;" height="149" />
    </g>
    <g style="text-rendering:geometricPrecision; font-size:11; font-family:sans-serif;" transform="translate(22,524)">
      <text x="133" y="12" style="clip-path:url(#clipPath6); stroke:none;" xml:space="preserve">Characters</text>
    </g>
    <g transform="translate(22,314)" style="font-size:11; fill:rgb(122,207,245); text-rendering:geometricPrecision; font-family:sans-serif; stroke:rgb(122,207,245);">
      <rect x="0" y="0" width="57" style="clip-path:url(#clipPath7); stroke:none;" height="20" />
      <rect x="0" y="20" width="289" style="clip-path:url(#clipPath7); stroke:none;" height="159" />
    </g>
    <g transform="translate(22,314)" style="font-size:11; stroke-linecap:butt; text-rendering:geometricPrecision; font-family:sans-serif; stroke-linejoin:round; stroke-miterlimit:0;">
      <rect x="0" y="0" width="57" style="clip-path:url(#clipPath7); fill:none;" height="20" />
      <rect x="0" y="20" width="289" style="clip-path:url(#clipPath7); fill:none;" height="159" />
    </g>
    <g style="text-rendering:geometricPrecision; font-size:11; font-family:sans-serif;" transform="translate(22,334)">
      <text x="126" y="12" style="clip-path:url(#clipPath8); stroke:none;" xml:space="preserve">Objects</text>
    </g>
    <g transform="translate(72,134)" style="font-size:11; fill:rgb(122,207,245); text-rendering:geometricPrecision; font-family:sans-serif; stroke:rgb(122,207,245);">
      <rect x="0" y="0" width="77" style="clip-path:url(#clipPath9); stroke:none;" height="20" />
      <rect x="0" y="20" width="389" style="clip-path:url(#clipPath9); stroke:none;" height="119" />
    </g>
    <g transform="translate(72,134)" style="font-size:11; stroke-linecap:butt; text-rendering:geometricPrecision; font-family:sans-serif; stroke-linejoin:round; stroke-miterlimit:0;">
      <rect x="0" y="0" width="77" style="clip-path:url(#clipPath9); fill:none;" height="20" />
      <rect x="0" y="20" width="389" style="clip-path:url(#clipPath9); fill:none;" height="119" />
    </g>
    <g style="text-rendering:geometricPrecision; font-size:11; font-family:sans-serif;" transform="translate(72,154)">
      <text x="178" y="12" style="clip-path:url(#clipPath10); stroke:none;" xml:space="preserve">Rooms</text>
    </g>
    <g transform="translate(642,364)" style="font-size:11; fill:rgb(122,207,245); text-rendering:geometricPrecision; font-family:sans-serif; stroke:rgb(122,207,245); font-weight:bold;">
      <rect x="0" y="0" width="130" style="clip-path:url(#clipPath11); stroke:none;" height="120" />
    </g>
    <g transform="translate(642,364)" style="font-size:11; stroke-linecap:butt; text-rendering:geometricPrecision; font-family:sans-serif; stroke-linejoin:round; font-weight:bold; stroke-miterlimit:0;">
      <rect x="0" y="0" width="130" style="clip-path:url(#clipPath11); fill:none;" height="120" />
      <line x1="0" x2="130" y1="15" style="clip-path:url(#clipPath11); fill:none;" y2="15" />
    </g>
    <g style="text-rendering:geometricPrecision; font-size:11; font-family:sans-serif;" transform="translate(642,379)">
      <text x="2" y="14" style="clip-path:url(#clipPath12); stroke:none;" xml:space="preserve">+money : int</text>
      <text x="2" y="29" style="clip-path:url(#clipPath12); stroke:none;" xml:space="preserve">+diamonds : int</text>
      <line x1="0" x2="130" y1="34" style="stroke-linecap:butt; clip-path:url(#clipPath12); fill:none; stroke-linejoin:bevel; stroke-miterlimit:0;" y2="34" />
      <text x="2" y="48" style="clip-path:url(#clipPath12); stroke:none;" xml:space="preserve">+win() : void</text>
      <text x="2" y="63" style="clip-path:url(#clipPath12); stroke:none;" xml:space="preserve">+lose() : void</text>
      <text x="2" y="78" style="clip-path:url(#clipPath12); stroke:none;" xml:space="preserve">+save(filename : String)</text>
      <text x="2" y="93" style="clip-path:url(#clipPath12); stroke:none;" xml:space="preserve">+operation()</text>
    </g>
    <g transform="translate(642,364)" style="text-rendering:geometricPrecision; font-size:11; font-weight:bold; font-family:sans-serif;">
      <text x="49" y="12" style="clip-path:url(#clipPath13); stroke:none;" xml:space="preserve">Game</text>
    </g>
    <g transform="translate(602,184)" style="font-size:11; fill:rgb(122,207,245); text-rendering:geometricPrecision; font-family:sans-serif; stroke:rgb(122,207,245); font-weight:bold;">
      <rect x="0" y="0" width="200" style="clip-path:url(#clipPath14); stroke:none;" height="60" />
    </g>
    <g transform="translate(602,184)" style="font-size:11; stroke-linecap:butt; text-rendering:geometricPrecision; font-family:sans-serif; stroke-linejoin:round; font-weight:bold; stroke-miterlimit:0;">
      <rect x="0" y="0" width="200" style="clip-path:url(#clipPath14); fill:none;" height="60" />
      <line x1="0" x2="200" y1="15" style="clip-path:url(#clipPath14); fill:none;" y2="15" />
    </g>
    <g style="text-rendering:geometricPrecision; font-size:11; font-family:sans-serif;" transform="translate(602,199)">
      <text x="2" y="14" style="clip-path:url(#clipPath15); stroke:none;" xml:space="preserve">+addRoom(room : Room) : void</text>
      <text x="2" y="29" style="clip-path:url(#clipPath15); stroke:none;" xml:space="preserve">+removeRoom(room : Room) : void</text>
    </g>
    <g transform="translate(602,184)" style="text-rendering:geometricPrecision; font-size:11; font-weight:bold; font-family:sans-serif;">
      <text x="80" y="12" style="clip-path:url(#clipPath16); stroke:none;" xml:space="preserve">Rooms</text>
    </g>
    <g transform="translate(572,534)" style="font-size:11; fill:rgb(122,207,245); text-rendering:geometricPrecision; font-family:sans-serif; stroke:rgb(122,207,245); font-weight:bold;">
      <rect x="0" y="0" width="260" style="clip-path:url(#clipPath17); stroke:none;" height="110" />
    </g>
    <g transform="translate(572,534)" style="font-size:11; stroke-linecap:butt; text-rendering:geometricPrecision; font-family:sans-serif; stroke-linejoin:round; font-weight:bold; stroke-miterlimit:0;">
      <rect x="0" y="0" width="260" style="clip-path:url(#clipPath17); fill:none;" height="110" />
      <line x1="0" x2="260" y1="15" style="clip-path:url(#clipPath17); fill:none;" y2="15" />
    </g>
    <g style="text-rendering:geometricPrecision; font-size:11; font-family:sans-serif;" transform="translate(572,549)">
      <text x="2" y="14" style="clip-path:url(#clipPath18); stroke:none;" xml:space="preserve">+addCharacter(character : MCharacter) : void</text>
      <text x="2" y="29" style="clip-path:url(#clipPath18); stroke:none;" xml:space="preserve">+removeCharacter(character : MCharacter) : void</text>
      <text x="2" y="44" style="clip-path:url(#clipPath18); stroke:none;" xml:space="preserve">+getMiner() : Miners [0..*]</text>
      <text x="2" y="59" style="clip-path:url(#clipPath18); stroke:none;" xml:space="preserve">+getBarmen() : Barman [0..*]</text>
      <text x="2" y="74" style="clip-path:url(#clipPath18); stroke:none;" xml:space="preserve">+getCrafter() : Crafter [0..*]</text>
    </g>
    <g transform="translate(572,534)" style="text-rendering:geometricPrecision; font-size:11; font-weight:bold; font-family:sans-serif;">
      <text x="100" y="12" style="clip-path:url(#clipPath19); stroke:none;" xml:space="preserve">Characters</text>
    </g>
    <g transform="translate(352,454)" style="font-size:11; fill:rgb(122,207,245); text-rendering:geometricPrecision; font-family:sans-serif; stroke:rgb(122,207,245); font-weight:bold;">
      <rect x="0" y="0" width="90" style="clip-path:url(#clipPath20); stroke:none;" height="40" />
    </g>
    <g transform="translate(352,454)" style="font-size:11; stroke-linecap:butt; text-rendering:geometricPrecision; font-family:sans-serif; stroke-linejoin:round; font-weight:bold; stroke-miterlimit:0;">
      <rect x="0" y="0" width="90" style="clip-path:url(#clipPath20); fill:none;" height="40" />
      <line x1="0" x2="90" y1="15" style="clip-path:url(#clipPath20); fill:none;" y2="15" />
    </g>
    <g style="text-rendering:geometricPrecision; font-size:11; font-family:sans-serif;" transform="translate(352,469)">
      <text x="2" y="14" style="clip-path:url(#clipPath21); stroke:none;" xml:space="preserve">-position : float[2]</text>
    </g>
    <g transform="translate(352,454)" style="font-size:11; text-rendering:geometricPrecision; font-family:sans-serif; font-style:italic; font-weight:bold;">
      <text x="29" y="12" style="clip-path:url(#clipPath22); stroke:none;" xml:space="preserve">Entity</text>
    </g>
    <g transform="translate(352,384)" style="font-size:11; fill:rgb(122,207,245); text-rendering:geometricPrecision; font-family:sans-serif; stroke:rgb(122,207,245); font-weight:bold;">
      <rect x="0" y="0" width="230" style="clip-path:url(#clipPath23); stroke:none;" height="60" />
    </g>
    <g transform="translate(352,384)" style="font-size:11; stroke-linecap:butt; text-rendering:geometricPrecision; font-family:sans-serif; stroke-linejoin:round; font-weight:bold; stroke-miterlimit:0;">
      <rect x="0" y="0" width="230" style="clip-path:url(#clipPath23); fill:none;" height="60" />
      <line x1="0" x2="230" y1="15" style="clip-path:url(#clipPath23); fill:none;" y2="15" />
    </g>
    <g style="text-rendering:geometricPrecision; font-size:11; font-family:sans-serif;" transform="translate(352,399)">
      <text x="2" y="14" style="clip-path:url(#clipPath24); stroke:none;" xml:space="preserve">+addObject(object : GameObject) : void</text>
      <text x="2" y="29" style="clip-path:url(#clipPath24); stroke:none;" xml:space="preserve">+removeObject(object : GameObject) : void</text>
    </g>
    <g transform="translate(352,384)" style="text-rendering:geometricPrecision; font-size:11; font-weight:bold; font-family:sans-serif;">
      <text x="94" y="12" style="clip-path:url(#clipPath25); stroke:none;" xml:space="preserve">Objects</text>
    </g>
    <g transform="translate(892,314)" style="font-size:11; fill:rgb(122,207,245); text-rendering:geometricPrecision; font-family:sans-serif; stroke:rgb(122,207,245); font-weight:bold;">
      <rect x="0" y="0" width="130" style="clip-path:url(#clipPath26); stroke:none;" height="90" />
    </g>
    <g transform="translate(892,314)" style="font-size:11; stroke-linecap:butt; text-rendering:geometricPrecision; font-family:sans-serif; stroke-linejoin:round; font-weight:bold; stroke-miterlimit:0;">
      <rect x="0" y="0" width="130" style="clip-path:url(#clipPath26); fill:none;" height="90" />
      <line x1="0" x2="130" y1="15" style="clip-path:url(#clipPath26); fill:none;" y2="15" />
    </g>
    <g style="text-rendering:geometricPrecision; font-size:11; font-family:sans-serif;" transform="translate(892,329)">
      <text x="2" y="14" style="clip-path:url(#clipPath27); stroke:none;" xml:space="preserve">+name : String</text>
      <text x="2" y="29" style="clip-path:url(#clipPath27); stroke:none;" xml:space="preserve">-filename : String</text>
      <line x1="0" x2="130" y1="34" style="stroke-linecap:butt; clip-path:url(#clipPath27); fill:none; stroke-linejoin:bevel; stroke-miterlimit:0;" y2="34" />
      <text x="2" y="48" style="clip-path:url(#clipPath27); stroke:none;" xml:space="preserve">-load() : boolean</text>
      <text x="2" y="63" style="clip-path:url(#clipPath27); stroke:none;" xml:space="preserve">+getTileMap() : TileMap</text>
    </g>
    <g transform="translate(892,314)" style="text-rendering:geometricPrecision; font-size:11; font-weight:bold; font-family:sans-serif;">
      <text x="50" y="12" style="clip-path:url(#clipPath13); stroke:none;" xml:space="preserve">Level</text>
    </g>
    <g transform="translate(852,524)" style="font-size:11; fill:rgb(122,207,245); text-rendering:geometricPrecision; font-family:sans-serif; stroke:rgb(122,207,245);">
      <rect x="0" y="0" width="51" style="clip-path:url(#clipPath28); stroke:none;" height="20" />
      <rect x="0" y="20" width="259" style="clip-path:url(#clipPath28); stroke:none;" height="199" />
    </g>
    <g transform="translate(852,524)" style="font-size:11; stroke-linecap:butt; text-rendering:geometricPrecision; font-family:sans-serif; stroke-linejoin:round; stroke-miterlimit:0;">
      <rect x="0" y="0" width="51" style="clip-path:url(#clipPath28); fill:none;" height="20" />
      <rect x="0" y="20" width="259" style="clip-path:url(#clipPath28); fill:none;" height="199" />
    </g>
    <g style="text-rendering:geometricPrecision; font-size:11; font-family:sans-serif;" transform="translate(852,544)">
      <text x="115" y="12" style="clip-path:url(#clipPath19); stroke:none;" xml:space="preserve">Tasks</text>
    </g>
    <g transform="translate(852,414)" style="font-size:11; fill:rgb(122,207,245); text-rendering:geometricPrecision; font-family:sans-serif; stroke:rgb(122,207,245); font-weight:bold;">
      <rect x="0" y="0" width="230" style="clip-path:url(#clipPath29); stroke:none;" height="90" />
    </g>
    <g transform="translate(852,414)" style="font-size:11; stroke-linecap:butt; text-rendering:geometricPrecision; font-family:sans-serif; stroke-linejoin:round; font-weight:bold; stroke-miterlimit:0;">
      <rect x="0" y="0" width="230" style="clip-path:url(#clipPath29); fill:none;" height="90" />
      <line x1="0" x2="230" y1="15" style="clip-path:url(#clipPath29); fill:none;" y2="15" />
    </g>
    <g style="text-rendering:geometricPrecision; font-size:11; font-family:sans-serif;" transform="translate(852,429)">
      <text x="2" y="14" style="clip-path:url(#clipPath30); stroke:none;" xml:space="preserve">+addTask(task : Task) : void</text>
      <text x="2" y="29" style="clip-path:url(#clipPath30); stroke:none;" xml:space="preserve">+removeTask(task : Task) : void</text>
      <text x="2" y="44" style="clip-path:url(#clipPath30); stroke:none;" xml:space="preserve">+manageTask() : void</text>
      <text x="2" y="59" style="clip-path:url(#clipPath30); stroke:none;" xml:space="preserve">+assignTask(task : Task, dwarf : MCharacter)</text>
    </g>
    <g transform="translate(852,414)" style="text-rendering:geometricPrecision; font-size:11; font-weight:bold; font-family:sans-serif;">
      <text x="79" y="12" style="clip-path:url(#clipPath25); stroke:none;" xml:space="preserve">TaskManager</text>
    </g>
    <g transform="translate(312,184)" style="font-size:11; fill:rgb(122,207,245); text-rendering:geometricPrecision; font-family:sans-serif; stroke:rgb(122,207,245); font-weight:bold;">
      <rect x="0" y="0" width="100" style="clip-path:url(#clipPath31); stroke:none;" height="40" />
    </g>
    <g transform="translate(312,184)" style="font-size:11; stroke-linecap:butt; text-rendering:geometricPrecision; font-family:sans-serif; stroke-linejoin:round; font-weight:bold; stroke-miterlimit:0;">
      <rect x="0" y="0" width="100" style="clip-path:url(#clipPath31); fill:none;" height="40" />
      <line x1="0" x2="100" y1="15" style="clip-path:url(#clipPath31); fill:none;" y2="15" />
    </g>
    <g transform="translate(312,184)" style="font-size:11; text-rendering:geometricPrecision; font-family:sans-serif; font-style:italic; font-weight:bold;">
      <text x="33" y="12" style="clip-path:url(#clipPath33); stroke:none;" xml:space="preserve">Room</text>
    </g>
    <g transform="translate(122,554)" style="font-size:11; fill:rgb(122,207,245); text-rendering:geometricPrecision; font-family:sans-serif; stroke:rgb(122,207,245); font-weight:bold;">
      <rect x="0" y="0" width="130" style="clip-path:url(#clipPath34); stroke:none;" height="60" />
    </g>
    <g transform="translate(122,554)" style="font-size:11; stroke-linecap:butt; text-rendering:geometricPrecision; font-family:sans-serif; stroke-linejoin:round; font-weight:bold; stroke-miterlimit:0;">
      <rect x="0" y="0" width="130" style="clip-path:url(#clipPath34); fill:none;" height="60" />
      <line x1="0" x2="130" y1="15" style="clip-path:url(#clipPath34); fill:none;" y2="15" />
    </g>
    <g style="text-rendering:geometricPrecision; font-size:11; font-family:sans-serif;" transform="translate(122,569)">
      <text x="2" y="14" style="clip-path:url(#clipPath35); stroke:none;" xml:space="preserve">+name : String</text>
      <text x="2" y="29" style="clip-path:url(#clipPath35); stroke:none;" xml:space="preserve">+firstName : String</text>
    </g>
    <g transform="translate(122,554)" style="font-size:11; text-rendering:geometricPrecision; font-family:sans-serif; font-style:italic; font-weight:bold;">
      <text x="34" y="12" style="clip-path:url(#clipPath13); stroke:none;" xml:space="preserve">MCharacter</text>
    </g>
    <g transform="translate(152,384)" style="font-size:11; fill:rgb(122,207,245); text-rendering:geometricPrecision; font-family:sans-serif; stroke:rgb(122,207,245); font-weight:bold;">
      <rect x="0" y="0" width="90" style="clip-path:url(#clipPath36); stroke:none;" height="50" />
    </g>
    <g transform="translate(152,384)" style="font-size:11; stroke-linecap:butt; text-rendering:geometricPrecision; font-family:sans-serif; stroke-linejoin:round; font-weight:bold; stroke-miterlimit:0;">
      <rect x="0" y="0" width="90" style="clip-path:url(#clipPath36); fill:none;" height="50" />
      <line x1="0" x2="90" y1="15" style="clip-path:url(#clipPath36); fill:none;" y2="15" />
    </g>
    <g transform="translate(152,384)" style="font-size:11; text-rendering:geometricPrecision; font-family:sans-serif; font-style:italic; font-weight:bold;">
      <text x="12" y="12" style="clip-path:url(#clipPath22); stroke:none;" xml:space="preserve">GameObject</text>
    </g>
    <g transform="translate(902,124)" style="font-size:11; fill:rgb(122,207,245); text-rendering:geometricPrecision; font-family:sans-serif; stroke:rgb(122,207,245); font-weight:bold;">
      <rect x="0" y="0" width="90" style="clip-path:url(#clipPath38); stroke:none;" height="90" />
    </g>
    <g transform="translate(902,124)" style="font-size:11; stroke-linecap:butt; text-rendering:geometricPrecision; font-family:sans-serif; stroke-linejoin:round; font-weight:bold; stroke-miterlimit:0;">
      <rect x="0" y="0" width="90" style="clip-path:url(#clipPath38); fill:none;" height="90" />
      <line x1="0" x2="90" y1="15" style="clip-path:url(#clipPath38); fill:none;" y2="15" />
    </g>
    <g style="text-rendering:geometricPrecision; font-size:11; font-family:sans-serif;" transform="translate(902,139)">
      <text x="2" y="14" style="clip-path:url(#clipPath39); stroke:none;" xml:space="preserve">-i : int</text>
      <text x="2" y="29" style="clip-path:url(#clipPath39); stroke:none;" xml:space="preserve">-j : int</text>
      <text x="2" y="44" style="clip-path:url(#clipPath39); stroke:none;" xml:space="preserve">-w : int</text>
      <text x="2" y="59" style="clip-path:url(#clipPath39); stroke:none;" xml:space="preserve">-h : int</text>
    </g>
    <g transform="translate(902,124)" style="text-rendering:geometricPrecision; font-size:11; font-weight:bold; font-family:sans-serif;">
      <text x="21" y="12" style="clip-path:url(#clipPath22); stroke:none;" xml:space="preserve">MapArea</text>
    </g>
    <g transform="translate(942,574)" style="font-size:11; fill:rgb(122,207,245); text-rendering:geometricPrecision; font-family:sans-serif; stroke:rgb(122,207,245); font-weight:bold;">
      <rect x="0" y="0" width="140" style="clip-path:url(#clipPath40); stroke:none;" height="90" />
    </g>
    <g transform="translate(942,574)" style="font-size:11; stroke-linecap:butt; text-rendering:geometricPrecision; font-family:sans-serif; stroke-linejoin:round; font-weight:bold; stroke-miterlimit:0;">
      <rect x="0" y="0" width="140" style="clip-path:url(#clipPath40); fill:none;" height="90" />
      <line x1="0" x2="140" y1="15" style="clip-path:url(#clipPath40); fill:none;" y2="15" />
    </g>
    <g style="text-rendering:geometricPrecision; font-size:11; font-family:sans-serif;" transform="translate(942,589)">
      <text x="2" y="14" style="clip-path:url(#clipPath41); stroke:none;" xml:space="preserve">+name : String</text>
      <text x="2" y="29" style="clip-path:url(#clipPath41); stroke:none;" xml:space="preserve">+priority : int</text>
      <line x1="0" x2="140" y1="34" style="stroke-linecap:butt; clip-path:url(#clipPath41); fill:none; stroke-linejoin:bevel; stroke-miterlimit:0;" y2="34" />
      <text x="2" y="48" style="clip-path:url(#clipPath41); stroke:none;" xml:space="preserve">+isHandled() : boolean</text>
      <text x="2" y="63" style="clip-path:url(#clipPath41); stroke:none;" xml:space="preserve">+getResponsible() : Dwarf</text>
    </g>
    <g transform="translate(942,574)" style="text-rendering:geometricPrecision; font-size:11; font-weight:bold; font-family:sans-serif;">
      <text x="56" y="12" style="clip-path:url(#clipPath42); stroke:none;" xml:space="preserve">Task</text>
    </g>
    <g transform="translate(122,204)" style="font-size:11; fill:rgb(122,207,245); text-rendering:geometricPrecision; font-family:sans-serif; stroke:rgb(122,207,245);">
      <polygon style="clip-path:url(#clipPath43); stroke:none;" points=" 0 0 114 0 129 15 114 15 114 0 129 15 129 39 0 39" />
    </g>
    <g transform="translate(122,204)" style="font-size:11; stroke-linecap:butt; text-rendering:geometricPrecision; font-family:sans-serif; stroke-linejoin:round; stroke-miterlimit:0;">
      <polygon style="fill:none; clip-path:url(#clipPath43);" points=" 0 0 114 0 129 15 114 15 114 0 129 15 129 39 0 39" />
    </g>
    <g style="text-rendering:geometricPrecision; font-size:11; font-family:&apos;Tahoma&apos;;" transform="translate(122,204)">
      <path d="M6.375 14.9704 L3.0469 6.3767 L4.2812 6.3767 L6.5156 12.6267 Q6.7812 13.3767 6.9688 14.0329 Q7.1719 13.3298 7.4375 12.6267 L9.75 6.3767 L10.9062 6.3767 L7.5469 14.9704 L6.375 14.9704 ZM10.4062 11.8611 Q10.4062 10.1267 11.3594 9.2986 Q12.1562 8.6111 13.3125 8.6111 Q14.5938 8.6111 15.4141 9.447 Q16.2344 10.2829 16.2344 11.7673 Q16.2344 12.9704 15.875 13.6579 Q15.5156 14.3454 14.8203 14.7282 Q14.125 15.1111 13.3125 15.1111 Q12.0156 15.1111 11.2109 14.2751 Q10.4062 13.4392 10.4062 11.8611 ZM11.4844 11.8611 Q11.4844 13.0486 12.0078 13.6423 Q12.5312 14.2361 13.3125 14.2361 Q14.1094 14.2361 14.625 13.6423 Q15.1406 13.0486 15.1406 11.8298 Q15.1406 10.6736 14.6172 10.0798 Q14.0938 9.4861 13.3125 9.4861 Q12.5312 9.4861 12.0078 10.072 Q11.4844 10.6579 11.4844 11.8611 ZM17.7969 7.5954 L17.7969 6.3767 L18.8594 6.3767 L18.8594 7.5954 L17.7969 7.5954 ZM17.7969 14.9704 L17.7969 8.7517 L18.8594 8.7517 L18.8594 14.9704 L17.7969 14.9704 ZM20.7812 14.9704 L20.7812 8.7517 L21.7344 8.7517 L21.7344 9.6892 Q22.0938 9.0329 22.3984 8.822 Q22.7031 8.6111 23.0781 8.6111 Q23.6094 8.6111 24.1562 8.9392 L23.7969 9.9236 Q23.4062 9.6892 23.0312 9.6892 Q22.6719 9.6892 22.3984 9.9001 Q22.125 10.1111 22.0156 10.4861 Q21.8281 11.0486 21.8281 11.7048 L21.8281 14.9704 L20.7812 14.9704 ZM27.8438 9.4236 L27.5469 7.7829 L27.5469 6.3767 L28.75 6.3767 L28.75 7.7829 L28.4844 9.4236 L27.8438 9.4236 ZM29.7812 9.4236 L29.5 7.7829 L29.5 6.3767 L30.7031 6.3767 L30.7031 7.7829 L30.4219 9.4236 L29.7812 9.4236 ZM35.8594 12.6892 L36.8906 12.8298 Q36.7188 13.8923 36.0156 14.5017 Q35.3125 15.1111 34.2969 15.1111 Q33.0156 15.1111 32.2422 14.2751 Q31.4688 13.4392 31.4688 11.8767 Q31.4688 10.8767 31.8047 10.1189 Q32.1406 9.3611 32.8203 8.9861 Q33.5 8.6111 34.3125 8.6111 Q35.3125 8.6111 35.9609 9.1189 Q36.6094 9.6267 36.7969 10.5798 L35.7656 10.7361 Q35.625 10.1111 35.25 9.7907 Q34.875 9.4704 34.3438 9.4704 Q33.5469 9.4704 33.0469 10.0407 Q32.5469 10.6111 32.5469 11.8454 Q32.5469 13.1111 33.0312 13.6736 Q33.5156 14.2361 34.2812 14.2361 Q34.9062 14.2361 35.3203 13.8611 Q35.7344 13.4861 35.8594 12.6892 ZM37.7656 14.9704 L37.7656 6.3767 L38.8281 6.3767 L38.8281 14.9704 L37.7656 14.9704 ZM44.8594 14.2048 Q44.2656 14.7048 43.7266 14.9079 Q43.1875 15.1111 42.5625 15.1111 Q41.5312 15.1111 40.9844 14.6111 Q40.4375 14.1111 40.4375 13.3298 Q40.4375 12.8767 40.6406 12.4939 Q40.8438 12.1111 41.1875 11.8845 Q41.5312 11.6579 41.9531 11.5486 Q42.25 11.4548 42.8906 11.3767 Q44.1562 11.2361 44.7656 11.0173 Q44.7656 10.7986 44.7656 10.7517 Q44.7656 10.0954 44.4688 9.8298 Q44.0625 9.4861 43.2656 9.4861 Q42.5312 9.4861 42.1719 9.7439 Q41.8125 10.0017 41.6406 10.6579 L40.6094 10.5173 Q40.75 9.8611 41.0781 9.4548 Q41.4062 9.0486 42.0156 8.8298 Q42.625 8.6111 43.4219 8.6111 Q44.2188 8.6111 44.7188 8.7986 Q45.2188 8.9861 45.4531 9.2673 Q45.6875 9.5486 45.7812 9.9861 Q45.8281 10.2517 45.8281 10.9548 L45.8281 12.3611 Q45.8281 13.8298 45.8984 14.2204 Q45.9688 14.6111 46.1719 14.9704 L45.0625 14.9704 Q44.9062 14.6423 44.8594 14.2048 ZM44.7656 11.8454 Q44.1875 12.0798 43.0469 12.2517 Q42.3906 12.3454 42.125 12.4626 Q41.8594 12.5798 41.7109 12.7986 Q41.5625 13.0173 41.5625 13.2986 Q41.5625 13.7204 41.8828 14.0017 Q42.2031 14.2829 42.8125 14.2829 Q43.4219 14.2829 43.8984 14.0173 Q44.375 13.7517 44.5938 13.2829 Q44.7656 12.9236 44.7656 12.2361 L44.7656 11.8454 ZM47.375 13.1111 L48.4062 12.9548 Q48.5 13.5798 48.8984 13.9079 Q49.2969 14.2361 50.0312 14.2361 Q50.75 14.2361 51.1016 13.947 Q51.4531 13.6579 51.4531 13.2517 Q51.4531 12.8923 51.1406 12.6892 Q50.9219 12.5486 50.0625 12.3298 Q48.9062 12.0329 48.4609 11.822 Q48.0156 11.6111 47.7812 11.2361 Q47.5469 10.8611 47.5469 10.3923 Q47.5469 9.9861 47.7344 9.6267 Q47.9219 9.2673 48.25 9.0329 Q48.5 8.8611 48.9219 8.7361 Q49.3438 8.6111 49.8438 8.6111 Q50.5625 8.6111 51.1172 8.822 Q51.6719 9.0329 51.9375 9.3923 Q52.2031 9.7517 52.2969 10.3454 L51.2656 10.4861 Q51.2031 10.0173 50.8672 9.7439 Q50.5312 9.4704 49.9062 9.4704 Q49.1875 9.4704 48.875 9.7126 Q48.5625 9.9548 48.5625 10.2829 Q48.5625 10.4861 48.6875 10.6423 Q48.8281 10.8142 49.0938 10.9236 Q49.25 10.9861 50.0312 11.1892 Q51.1562 11.5017 51.5938 11.6892 Q52.0312 11.8767 52.2812 12.2361 Q52.5312 12.5954 52.5312 13.1423 Q52.5312 13.6736 52.2266 14.1345 Q51.9219 14.5954 51.3438 14.8532 Q50.7656 15.1111 50.0312 15.1111 Q48.8125 15.1111 48.1797 14.6032 Q47.5469 14.0954 47.375 13.1111 ZM54.375 13.1111 L55.4062 12.9548 Q55.5 13.5798 55.8984 13.9079 Q56.2969 14.2361 57.0312 14.2361 Q57.75 14.2361 58.1016 13.947 Q58.4531 13.6579 58.4531 13.2517 Q58.4531 12.8923 58.1406 12.6892 Q57.9219 12.5486 57.0625 12.3298 Q55.9062 12.0329 55.4609 11.822 Q55.0156 11.6111 54.7812 11.2361 Q54.5469 10.8611 54.5469 10.3923 Q54.5469 9.9861 54.7344 9.6267 Q54.9219 9.2673 55.25 9.0329 Q55.5 8.8611 55.9219 8.7361 Q56.3438 8.6111 56.8438 8.6111 Q57.5625 8.6111 58.1172 8.822 Q58.6719 9.0329 58.9375 9.3923 Q59.2031 9.7517 59.2969 10.3454 L58.2656 10.4861 Q58.2031 10.0173 57.8672 9.7439 Q57.5312 9.4704 56.9062 9.4704 Q56.1875 9.4704 55.875 9.7126 Q55.5625 9.9548 55.5625 10.2829 Q55.5625 10.4861 55.6875 10.6423 Q55.8281 10.8142 56.0938 10.9236 Q56.25 10.9861 57.0312 11.1892 Q58.1562 11.5017 58.5938 11.6892 Q59.0312 11.8767 59.2812 12.2361 Q59.5312 12.5954 59.5312 13.1423 Q59.5312 13.6736 59.2266 14.1345 Q58.9219 14.5954 58.3438 14.8532 Q57.7656 15.1111 57.0312 15.1111 Q55.8125 15.1111 55.1797 14.6032 Q54.5469 14.0954 54.375 13.1111 ZM64.9375 14.9704 L64.9375 6.3767 L68.75 6.3767 Q69.9062 6.3767 70.5 6.6111 Q71.0938 6.8454 71.4531 7.4314 Q71.8125 8.0173 71.8125 8.7204 Q71.8125 9.6423 71.2188 10.2673 Q70.625 10.8923 69.3906 11.0642 Q69.8438 11.2829 70.0781 11.4861 Q70.5781 11.9392 71.0156 12.6267 L72.5156 14.9704 L71.0781 14.9704 L69.9531 13.1892 Q69.4531 12.4079 69.1328 12.0017 Q68.8125 11.5954 68.5547 11.4314 Q68.2969 11.2673 68.0312 11.1892 Q67.8438 11.1579 67.4062 11.1579 L66.0781 11.1579 L66.0781 14.9704 L64.9375 14.9704 ZM66.0781 10.1736 L68.5312 10.1736 Q69.2969 10.1736 69.7422 10.0095 Q70.1875 9.8454 70.4141 9.4939 Q70.6406 9.1423 70.6406 8.7204 Q70.6406 8.1111 70.1953 7.7204 Q69.75 7.3298 68.7969 7.3298 L66.0781 7.3298 L66.0781 10.1736 ZM73.4062 11.8611 Q73.4062 10.1267 74.3594 9.2986 Q75.1562 8.6111 76.3125 8.6111 Q77.5938 8.6111 78.4141 9.447 Q79.2344 10.2829 79.2344 11.7673 Q79.2344 12.9704 78.875 13.6579 Q78.5156 14.3454 77.8203 14.7282 Q77.125 15.1111 76.3125 15.1111 Q75.0156 15.1111 74.2109 14.2751 Q73.4062 13.4392 73.4062 11.8611 ZM74.4844 11.8611 Q74.4844 13.0486 75.0078 13.6423 Q75.5312 14.2361 76.3125 14.2361 Q77.1094 14.2361 77.625 13.6423 Q78.1406 13.0486 78.1406 11.8298 Q78.1406 10.6736 77.6172 10.0798 Q77.0938 9.4861 76.3125 9.4861 Q75.5312 9.4861 75.0078 10.072 Q74.4844 10.6579 74.4844 11.8611 ZM80.4062 11.8611 Q80.4062 10.1267 81.3594 9.2986 Q82.1562 8.6111 83.3125 8.6111 Q84.5938 8.6111 85.4141 9.447 Q86.2344 10.2829 86.2344 11.7673 Q86.2344 12.9704 85.875 13.6579 Q85.5156 14.3454 84.8203 14.7282 Q84.125 15.1111 83.3125 15.1111 Q82.0156 15.1111 81.2109 14.2751 Q80.4062 13.4392 80.4062 11.8611 ZM81.4844 11.8611 Q81.4844 13.0486 82.0078 13.6423 Q82.5312 14.2361 83.3125 14.2361 Q84.1094 14.2361 84.625 13.6423 Q85.1406 13.0486 85.1406 11.8298 Q85.1406 10.6736 84.6172 10.0798 Q84.0938 9.4861 83.3125 9.4861 Q82.5312 9.4861 82.0078 10.072 Q81.4844 10.6579 81.4844 11.8611 ZM87.7969 14.9704 L87.7969 8.7517 L88.7344 8.7517 L88.7344 9.6267 Q89.0312 9.1579 89.5156 8.8845 Q90 8.6111 90.625 8.6111 Q91.3125 8.6111 91.7578 8.8923 Q92.2031 9.1736 92.375 9.6892 Q93.125 8.6111 94.2969 8.6111 Q95.2344 8.6111 95.7266 9.1189 Q96.2188 9.6267 96.2188 10.7048 L96.2188 14.9704 L95.1719 14.9704 L95.1719 11.0486 Q95.1719 10.4236 95.0703 10.1423 Q94.9688 9.8611 94.7031 9.6892 Q94.4375 9.5173 94.0625 9.5173 Q93.4062 9.5173 92.9766 9.9548 Q92.5469 10.3923 92.5469 11.3611 L92.5469 14.9704 L91.4844 14.9704 L91.4844 10.9236 Q91.4844 10.2204 91.2266 9.8689 Q90.9688 9.5173 90.3906 9.5173 Q89.9375 9.5173 89.5625 9.7517 Q89.1875 9.9861 89.0156 10.4392 Q88.8438 10.8923 88.8438 11.7361 L88.8438 14.9704 L87.7969 14.9704 ZM98.8438 9.4236 L98.5469 7.7829 L98.5469 6.3767 L99.75 6.3767 L99.75 7.7829 L99.4844 9.4236 L98.8438 9.4236 ZM100.7812 9.4236 L100.5 7.7829 L100.5 6.3767 L101.7031 6.3767 L101.7031 7.7829 L101.4219 9.4236 L100.7812 9.4236 Z" style="clip-path:url(#clipPath44); stroke:none;" />
    </g>
    <g transform="translate(122,624)" style="font-size:11; fill:rgb(122,207,245); text-rendering:geometricPrecision; font-family:sans-serif; stroke:rgb(122,207,245);">
      <polygon style="clip-path:url(#clipPath45); stroke:none;" points=" 0 0 134 0 149 15 134 15 134 0 149 15 149 39 0 39" />
    </g>
    <g transform="translate(122,624)" style="font-size:11; stroke-linecap:butt; text-rendering:geometricPrecision; font-family:sans-serif; stroke-linejoin:round; stroke-miterlimit:0;">
      <polygon style="fill:none; clip-path:url(#clipPath45);" points=" 0 0 134 0 149 15 134 15 134 0 149 15 149 39 0 39" />
    </g>
    <g style="text-rendering:geometricPrecision; font-size:11; font-family:&apos;Tahoma&apos;;" transform="translate(122,624)">
      <path d="M6.375 14.9704 L3.0469 6.3767 L4.2812 6.3767 L6.5156 12.6267 Q6.7812 13.3767 6.9688 14.0329 Q7.1719 13.3298 7.4375 12.6267 L9.75 6.3767 L10.9062 6.3767 L7.5469 14.9704 L6.375 14.9704 ZM10.4062 11.8611 Q10.4062 10.1267 11.3594 9.2986 Q12.1562 8.6111 13.3125 8.6111 Q14.5938 8.6111 15.4141 9.447 Q16.2344 10.2829 16.2344 11.7673 Q16.2344 12.9704 15.875 13.6579 Q15.5156 14.3454 14.8203 14.7282 Q14.125 15.1111 13.3125 15.1111 Q12.0156 15.1111 11.2109 14.2751 Q10.4062 13.4392 10.4062 11.8611 ZM11.4844 11.8611 Q11.4844 13.0486 12.0078 13.6423 Q12.5312 14.2361 13.3125 14.2361 Q14.1094 14.2361 14.625 13.6423 Q15.1406 13.0486 15.1406 11.8298 Q15.1406 10.6736 14.6172 10.0798 Q14.0938 9.4861 13.3125 9.4861 Q12.5312 9.4861 12.0078 10.072 Q11.4844 10.6579 11.4844 11.8611 ZM17.7969 7.5954 L17.7969 6.3767 L18.8594 6.3767 L18.8594 7.5954 L17.7969 7.5954 ZM17.7969 14.9704 L17.7969 8.7517 L18.8594 8.7517 L18.8594 14.9704 L17.7969 14.9704 ZM20.7812 14.9704 L20.7812 8.7517 L21.7344 8.7517 L21.7344 9.6892 Q22.0938 9.0329 22.3984 8.822 Q22.7031 8.6111 23.0781 8.6111 Q23.6094 8.6111 24.1562 8.9392 L23.7969 9.9236 Q23.4062 9.6892 23.0312 9.6892 Q22.6719 9.6892 22.3984 9.9001 Q22.125 10.1111 22.0156 10.4861 Q21.8281 11.0486 21.8281 11.7048 L21.8281 14.9704 L20.7812 14.9704 ZM27.8438 9.4236 L27.5469 7.7829 L27.5469 6.3767 L28.75 6.3767 L28.75 7.7829 L28.4844 9.4236 L27.8438 9.4236 ZM29.7812 9.4236 L29.5 7.7829 L29.5 6.3767 L30.7031 6.3767 L30.7031 7.7829 L30.4219 9.4236 L29.7812 9.4236 ZM35.8594 12.6892 L36.8906 12.8298 Q36.7188 13.8923 36.0156 14.5017 Q35.3125 15.1111 34.2969 15.1111 Q33.0156 15.1111 32.2422 14.2751 Q31.4688 13.4392 31.4688 11.8767 Q31.4688 10.8767 31.8047 10.1189 Q32.1406 9.3611 32.8203 8.9861 Q33.5 8.6111 34.3125 8.6111 Q35.3125 8.6111 35.9609 9.1189 Q36.6094 9.6267 36.7969 10.5798 L35.7656 10.7361 Q35.625 10.1111 35.25 9.7907 Q34.875 9.4704 34.3438 9.4704 Q33.5469 9.4704 33.0469 10.0407 Q32.5469 10.6111 32.5469 11.8454 Q32.5469 13.1111 33.0312 13.6736 Q33.5156 14.2361 34.2812 14.2361 Q34.9062 14.2361 35.3203 13.8611 Q35.7344 13.4861 35.8594 12.6892 ZM37.7656 14.9704 L37.7656 6.3767 L38.8281 6.3767 L38.8281 14.9704 L37.7656 14.9704 ZM44.8594 14.2048 Q44.2656 14.7048 43.7266 14.9079 Q43.1875 15.1111 42.5625 15.1111 Q41.5312 15.1111 40.9844 14.6111 Q40.4375 14.1111 40.4375 13.3298 Q40.4375 12.8767 40.6406 12.4939 Q40.8438 12.1111 41.1875 11.8845 Q41.5312 11.6579 41.9531 11.5486 Q42.25 11.4548 42.8906 11.3767 Q44.1562 11.2361 44.7656 11.0173 Q44.7656 10.7986 44.7656 10.7517 Q44.7656 10.0954 44.4688 9.8298 Q44.0625 9.4861 43.2656 9.4861 Q42.5312 9.4861 42.1719 9.7439 Q41.8125 10.0017 41.6406 10.6579 L40.6094 10.5173 Q40.75 9.8611 41.0781 9.4548 Q41.4062 9.0486 42.0156 8.8298 Q42.625 8.6111 43.4219 8.6111 Q44.2188 8.6111 44.7188 8.7986 Q45.2188 8.9861 45.4531 9.2673 Q45.6875 9.5486 45.7812 9.9861 Q45.8281 10.2517 45.8281 10.9548 L45.8281 12.3611 Q45.8281 13.8298 45.8984 14.2204 Q45.9688 14.6111 46.1719 14.9704 L45.0625 14.9704 Q44.9062 14.6423 44.8594 14.2048 ZM44.7656 11.8454 Q44.1875 12.0798 43.0469 12.2517 Q42.3906 12.3454 42.125 12.4626 Q41.8594 12.5798 41.7109 12.7986 Q41.5625 13.0173 41.5625 13.2986 Q41.5625 13.7204 41.8828 14.0017 Q42.2031 14.2829 42.8125 14.2829 Q43.4219 14.2829 43.8984 14.0173 Q44.375 13.7517 44.5938 13.2829 Q44.7656 12.9236 44.7656 12.2361 L44.7656 11.8454 ZM47.375 13.1111 L48.4062 12.9548 Q48.5 13.5798 48.8984 13.9079 Q49.2969 14.2361 50.0312 14.2361 Q50.75 14.2361 51.1016 13.947 Q51.4531 13.6579 51.4531 13.2517 Q51.4531 12.8923 51.1406 12.6892 Q50.9219 12.5486 50.0625 12.3298 Q48.9062 12.0329 48.4609 11.822 Q48.0156 11.6111 47.7812 11.2361 Q47.5469 10.8611 47.5469 10.3923 Q47.5469 9.9861 47.7344 9.6267 Q47.9219 9.2673 48.25 9.0329 Q48.5 8.8611 48.9219 8.7361 Q49.3438 8.6111 49.8438 8.6111 Q50.5625 8.6111 51.1172 8.822 Q51.6719 9.0329 51.9375 9.3923 Q52.2031 9.7517 52.2969 10.3454 L51.2656 10.4861 Q51.2031 10.0173 50.8672 9.7439 Q50.5312 9.4704 49.9062 9.4704 Q49.1875 9.4704 48.875 9.7126 Q48.5625 9.9548 48.5625 10.2829 Q48.5625 10.4861 48.6875 10.6423 Q48.8281 10.8142 49.0938 10.9236 Q49.25 10.9861 50.0312 11.1892 Q51.1562 11.5017 51.5938 11.6892 Q52.0312 11.8767 52.2812 12.2361 Q52.5312 12.5954 52.5312 13.1423 Q52.5312 13.6736 52.2266 14.1345 Q51.9219 14.5954 51.3438 14.8532 Q50.7656 15.1111 50.0312 15.1111 Q48.8125 15.1111 48.1797 14.6032 Q47.5469 14.0954 47.375 13.1111 ZM54.375 13.1111 L55.4062 12.9548 Q55.5 13.5798 55.8984 13.9079 Q56.2969 14.2361 57.0312 14.2361 Q57.75 14.2361 58.1016 13.947 Q58.4531 13.6579 58.4531 13.2517 Q58.4531 12.8923 58.1406 12.6892 Q57.9219 12.5486 57.0625 12.3298 Q55.9062 12.0329 55.4609 11.822 Q55.0156 11.6111 54.7812 11.2361 Q54.5469 10.8611 54.5469 10.3923 Q54.5469 9.9861 54.7344 9.6267 Q54.9219 9.2673 55.25 9.0329 Q55.5 8.8611 55.9219 8.7361 Q56.3438 8.6111 56.8438 8.6111 Q57.5625 8.6111 58.1172 8.822 Q58.6719 9.0329 58.9375 9.3923 Q59.2031 9.7517 59.2969 10.3454 L58.2656 10.4861 Q58.2031 10.0173 57.8672 9.7439 Q57.5312 9.4704 56.9062 9.4704 Q56.1875 9.4704 55.875 9.7126 Q55.5625 9.9548 55.5625 10.2829 Q55.5625 10.4861 55.6875 10.6423 Q55.8281 10.8142 56.0938 10.9236 Q56.25 10.9861 57.0312 11.1892 Q58.1562 11.5017 58.5938 11.6892 Q59.0312 11.8767 59.2812 12.2361 Q59.5312 12.5954 59.5312 13.1423 Q59.5312 13.6736 59.2266 14.1345 Q58.9219 14.5954 58.3438 14.8532 Q57.7656 15.1111 57.0312 15.1111 Q55.8125 15.1111 55.1797 14.6032 Q54.5469 14.0954 54.375 13.1111 ZM71.0625 11.9548 L72.1875 12.2517 Q71.8281 13.6423 70.9062 14.3767 Q69.9844 15.1111 68.6406 15.1111 Q67.25 15.1111 66.375 14.5486 Q65.5 13.9861 65.0469 12.9157 Q64.5938 11.8454 64.5938 10.6111 Q64.5938 9.2673 65.1094 8.2673 Q65.625 7.2673 66.5703 6.7517 Q67.5156 6.2361 68.6562 6.2361 Q69.9375 6.2361 70.8203 6.8923 Q71.7031 7.5486 72.0469 8.7361 L70.9219 9.0017 Q70.625 8.0642 70.0547 7.6345 Q69.4844 7.2048 68.625 7.2048 Q67.6406 7.2048 66.9766 7.6814 Q66.3125 8.1579 66.0391 8.9548 Q65.7656 9.7517 65.7656 10.6111 Q65.7656 11.7048 66.0859 12.5173 Q66.4062 13.3298 67.0781 13.7361 Q67.75 14.1423 68.5469 14.1423 Q69.5 14.1423 70.1641 13.5954 Q70.8281 13.0486 71.0625 11.9548 ZM73.7969 14.9704 L73.7969 6.3767 L74.8438 6.3767 L74.8438 9.4548 Q75.5781 8.6111 76.7031 8.6111 Q77.4062 8.6111 77.9141 8.8845 Q78.4219 9.1579 78.6406 9.6345 Q78.8594 10.1111 78.8594 11.0329 L78.8594 14.9704 L77.8125 14.9704 L77.8125 11.0329 Q77.8125 10.2361 77.4688 9.8767 Q77.125 9.5173 76.5 9.5173 Q76.0312 9.5173 75.6172 9.7595 Q75.2031 10.0017 75.0234 10.4157 Q74.8438 10.8298 74.8438 11.5642 L74.8438 14.9704 L73.7969 14.9704 ZM84.8594 14.2048 Q84.2656 14.7048 83.7266 14.9079 Q83.1875 15.1111 82.5625 15.1111 Q81.5312 15.1111 80.9844 14.6111 Q80.4375 14.1111 80.4375 13.3298 Q80.4375 12.8767 80.6406 12.4939 Q80.8438 12.1111 81.1875 11.8845 Q81.5312 11.6579 81.9531 11.5486 Q82.25 11.4548 82.8906 11.3767 Q84.1562 11.2361 84.7656 11.0173 Q84.7656 10.7986 84.7656 10.7517 Q84.7656 10.0954 84.4688 9.8298 Q84.0625 9.4861 83.2656 9.4861 Q82.5312 9.4861 82.1719 9.7439 Q81.8125 10.0017 81.6406 10.6579 L80.6094 10.5173 Q80.75 9.8611 81.0781 9.4548 Q81.4062 9.0486 82.0156 8.8298 Q82.625 8.6111 83.4219 8.6111 Q84.2188 8.6111 84.7188 8.7986 Q85.2188 8.9861 85.4531 9.2673 Q85.6875 9.5486 85.7812 9.9861 Q85.8281 10.2517 85.8281 10.9548 L85.8281 12.3611 Q85.8281 13.8298 85.8984 14.2204 Q85.9688 14.6111 86.1719 14.9704 L85.0625 14.9704 Q84.9062 14.6423 84.8594 14.2048 ZM84.7656 11.8454 Q84.1875 12.0798 83.0469 12.2517 Q82.3906 12.3454 82.125 12.4626 Q81.8594 12.5798 81.7109 12.7986 Q81.5625 13.0173 81.5625 13.2986 Q81.5625 13.7204 81.8828 14.0017 Q82.2031 14.2829 82.8125 14.2829 Q83.4219 14.2829 83.8984 14.0173 Q84.375 13.7517 84.5938 13.2829 Q84.7656 12.9236 84.7656 12.2361 L84.7656 11.8454 ZM87.7812 14.9704 L87.7812 8.7517 L88.7344 8.7517 L88.7344 9.6892 Q89.0938 9.0329 89.3984 8.822 Q89.7031 8.6111 90.0781 8.6111 Q90.6094 8.6111 91.1562 8.9392 L90.7969 9.9236 Q90.4062 9.6892 90.0312 9.6892 Q89.6719 9.6892 89.3984 9.9001 Q89.125 10.1111 89.0156 10.4861 Q88.8281 11.0486 88.8281 11.7048 L88.8281 14.9704 L87.7812 14.9704 ZM95.8594 14.2048 Q95.2656 14.7048 94.7266 14.9079 Q94.1875 15.1111 93.5625 15.1111 Q92.5312 15.1111 91.9844 14.6111 Q91.4375 14.1111 91.4375 13.3298 Q91.4375 12.8767 91.6406 12.4939 Q91.8438 12.1111 92.1875 11.8845 Q92.5312 11.6579 92.9531 11.5486 Q93.25 11.4548 93.8906 11.3767 Q95.1562 11.2361 95.7656 11.0173 Q95.7656 10.7986 95.7656 10.7517 Q95.7656 10.0954 95.4688 9.8298 Q95.0625 9.4861 94.2656 9.4861 Q93.5312 9.4861 93.1719 9.7439 Q92.8125 10.0017 92.6406 10.6579 L91.6094 10.5173 Q91.75 9.8611 92.0781 9.4548 Q92.4062 9.0486 93.0156 8.8298 Q93.625 8.6111 94.4219 8.6111 Q95.2188 8.6111 95.7188 8.7986 Q96.2188 8.9861 96.4531 9.2673 Q96.6875 9.5486 96.7812 9.9861 Q96.8281 10.2517 96.8281 10.9548 L96.8281 12.3611 Q96.8281 13.8298 96.8984 14.2204 Q96.9688 14.6111 97.1719 14.9704 L96.0625 14.9704 Q95.9062 14.6423 95.8594 14.2048 ZM95.7656 11.8454 Q95.1875 12.0798 94.0469 12.2517 Q93.3906 12.3454 93.125 12.4626 Q92.8594 12.5798 92.7109 12.7986 Q92.5625 13.0173 92.5625 13.2986 Q92.5625 13.7204 92.8828 14.0017 Q93.2031 14.2829 93.8125 14.2829 Q94.4219 14.2829 94.8984 14.0173 Q95.375 13.7517 95.5938 13.2829 Q95.7656 12.9236 95.7656 12.2361 L95.7656 11.8454 ZM102.8594 12.6892 L103.8906 12.8298 Q103.7188 13.8923 103.0156 14.5017 Q102.3125 15.1111 101.2969 15.1111 Q100.0156 15.1111 99.2422 14.2751 Q98.4688 13.4392 98.4688 11.8767 Q98.4688 10.8767 98.8047 10.1189 Q99.1406 9.3611 99.8203 8.9861 Q100.5 8.6111 101.3125 8.6111 Q102.3125 8.6111 102.9609 9.1189 Q103.6094 9.6267 103.7969 10.5798 L102.7656 10.7361 Q102.625 10.1111 102.25 9.7907 Q101.875 9.4704 101.3438 9.4704 Q100.5469 9.4704 100.0469 10.0407 Q99.5469 10.6111 99.5469 11.8454 Q99.5469 13.1111 100.0312 13.6736 Q100.5156 14.2361 101.2812 14.2361 Q101.9062 14.2361 102.3203 13.8611 Q102.7344 13.4861 102.8594 12.6892 ZM107.0938 14.0329 L107.25 14.9548 Q106.7969 15.0486 106.4531 15.0486 Q105.875 15.0486 105.5625 14.8689 Q105.25 14.6892 105.1172 14.3923 Q104.9844 14.0954 104.9844 13.1423 L104.9844 9.5642 L104.2188 9.5642 L104.2188 8.7517 L104.9844 8.7517 L104.9844 7.2048 L106.0312 6.5798 L106.0312 8.7517 L107.0938 8.7517 L107.0938 9.5642 L106.0312 9.5642 L106.0312 13.2048 Q106.0312 13.6579 106.0859 13.7829 Q106.1406 13.9079 106.2656 13.9861 Q106.3906 14.0642 106.625 14.0642 Q106.8125 14.0642 107.0938 14.0329 ZM112.0469 12.9704 L113.1406 13.0954 Q112.8906 14.0486 112.1875 14.5798 Q111.4844 15.1111 110.4062 15.1111 Q109.0469 15.1111 108.2422 14.2673 Q107.4375 13.4236 107.4375 11.9079 Q107.4375 10.3454 108.25 9.4782 Q109.0625 8.6111 110.3438 8.6111 Q111.5938 8.6111 112.3828 9.4548 Q113.1719 10.2986 113.1719 11.8454 Q113.1719 11.9392 113.1719 12.1267 L108.5312 12.1267 Q108.5938 13.1579 109.1094 13.697 Q109.625 14.2361 110.4062 14.2361 Q110.9844 14.2361 111.3984 13.9314 Q111.8125 13.6267 112.0469 12.9704 ZM108.5938 11.2673 L112.0625 11.2673 Q112 10.4704 111.6719 10.0798 Q111.1562 9.4704 110.3594 9.4704 Q109.625 9.4704 109.1328 9.9548 Q108.6406 10.4392 108.5938 11.2673 ZM114.7812 14.9704 L114.7812 8.7517 L115.7344 8.7517 L115.7344 9.6892 Q116.0938 9.0329 116.3984 8.822 Q116.7031 8.6111 117.0781 8.6111 Q117.6094 8.6111 118.1562 8.9392 L117.7969 9.9236 Q117.4062 9.6892 117.0312 9.6892 Q116.6719 9.6892 116.3984 9.9001 Q116.125 10.1111 116.0156 10.4861 Q115.8281 11.0486 115.8281 11.7048 L115.8281 14.9704 L114.7812 14.9704 ZM118.375 13.1111 L119.4062 12.9548 Q119.5 13.5798 119.8984 13.9079 Q120.2969 14.2361 121.0312 14.2361 Q121.75 14.2361 122.1016 13.947 Q122.4531 13.6579 122.4531 13.2517 Q122.4531 12.8923 122.1406 12.6892 Q121.9219 12.5486 121.0625 12.3298 Q119.9062 12.0329 119.4609 11.822 Q119.0156 11.6111 118.7812 11.2361 Q118.5469 10.8611 118.5469 10.3923 Q118.5469 9.9861 118.7344 9.6267 Q118.9219 9.2673 119.25 9.0329 Q119.5 8.8611 119.9219 8.7361 Q120.3438 8.6111 120.8438 8.6111 Q121.5625 8.6111 122.1172 8.822 Q122.6719 9.0329 122.9375 9.3923 Q123.2031 9.7517 123.2969 10.3454 L122.2656 10.4861 Q122.2031 10.0173 121.8672 9.7439 Q121.5312 9.4704 120.9062 9.4704 Q120.1875 9.4704 119.875 9.7126 Q119.5625 9.9548 119.5625 10.2829 Q119.5625 10.4861 119.6875 10.6423 Q119.8281 10.8142 120.0938 10.9236 Q120.25 10.9861 121.0312 11.1892 Q122.1562 11.5017 122.5938 11.6892 Q123.0312 11.8767 123.2812 12.2361 Q123.5312 12.5954 123.5312 13.1423 Q123.5312 13.6736 123.2266 14.1345 Q122.9219 14.5954 122.3438 14.8532 Q121.7656 15.1111 121.0312 15.1111 Q119.8125 15.1111 119.1797 14.6032 Q118.5469 14.0954 118.375 13.1111 ZM125.8438 9.4236 L125.5469 7.7829 L125.5469 6.3767 L126.75 6.3767 L126.75 7.7829 L126.4844 9.4236 L125.8438 9.4236 ZM127.7812 9.4236 L127.5 7.7829 L127.5 6.3767 L128.7031 6.3767 L128.7031 7.7829 L128.4219 9.4236 L127.7812 9.4236 Z" style="clip-path:url(#clipPath46); stroke:none;" />
    </g>
    <g transform="translate(32,434)" style="font-size:11; fill:rgb(122,207,245); text-rendering:geometricPrecision; font-family:sans-serif; stroke:rgb(122,207,245);">
      <polygon style="clip-path:url(#clipPath43); stroke:none;" points=" 0 0 114 0 129 15 114 15 114 0 129 15 129 39 0 39" />
    </g>
    <g transform="translate(32,434)" style="font-size:11; stroke-linecap:butt; text-rendering:geometricPrecision; font-family:sans-serif; stroke-linejoin:round; stroke-miterlimit:0;">
      <polygon style="fill:none; clip-path:url(#clipPath43);" points=" 0 0 114 0 129 15 114 15 114 0 129 15 129 39 0 39" />
    </g>
    <g style="text-rendering:geometricPrecision; font-size:11; font-family:&apos;Tahoma&apos;;" transform="translate(32,434)">
      <path d="M6.375 14.9704 L3.0469 6.3767 L4.2812 6.3767 L6.5156 12.6267 Q6.7812 13.3767 6.9688 14.0329 Q7.1719 13.3298 7.4375 12.6267 L9.75 6.3767 L10.9062 6.3767 L7.5469 14.9704 L6.375 14.9704 ZM10.4062 11.8611 Q10.4062 10.1267 11.3594 9.2986 Q12.1562 8.6111 13.3125 8.6111 Q14.5938 8.6111 15.4141 9.447 Q16.2344 10.2829 16.2344 11.7673 Q16.2344 12.9704 15.875 13.6579 Q15.5156 14.3454 14.8203 14.7282 Q14.125 15.1111 13.3125 15.1111 Q12.0156 15.1111 11.2109 14.2751 Q10.4062 13.4392 10.4062 11.8611 ZM11.4844 11.8611 Q11.4844 13.0486 12.0078 13.6423 Q12.5312 14.2361 13.3125 14.2361 Q14.1094 14.2361 14.625 13.6423 Q15.1406 13.0486 15.1406 11.8298 Q15.1406 10.6736 14.6172 10.0798 Q14.0938 9.4861 13.3125 9.4861 Q12.5312 9.4861 12.0078 10.072 Q11.4844 10.6579 11.4844 11.8611 ZM17.7969 7.5954 L17.7969 6.3767 L18.8594 6.3767 L18.8594 7.5954 L17.7969 7.5954 ZM17.7969 14.9704 L17.7969 8.7517 L18.8594 8.7517 L18.8594 14.9704 L17.7969 14.9704 ZM20.7812 14.9704 L20.7812 8.7517 L21.7344 8.7517 L21.7344 9.6892 Q22.0938 9.0329 22.3984 8.822 Q22.7031 8.6111 23.0781 8.6111 Q23.6094 8.6111 24.1562 8.9392 L23.7969 9.9236 Q23.4062 9.6892 23.0312 9.6892 Q22.6719 9.6892 22.3984 9.9001 Q22.125 10.1111 22.0156 10.4861 Q21.8281 11.0486 21.8281 11.7048 L21.8281 14.9704 L20.7812 14.9704 ZM27.8438 9.4236 L27.5469 7.7829 L27.5469 6.3767 L28.75 6.3767 L28.75 7.7829 L28.4844 9.4236 L27.8438 9.4236 ZM29.7812 9.4236 L29.5 7.7829 L29.5 6.3767 L30.7031 6.3767 L30.7031 7.7829 L30.4219 9.4236 L29.7812 9.4236 ZM35.8594 12.6892 L36.8906 12.8298 Q36.7188 13.8923 36.0156 14.5017 Q35.3125 15.1111 34.2969 15.1111 Q33.0156 15.1111 32.2422 14.2751 Q31.4688 13.4392 31.4688 11.8767 Q31.4688 10.8767 31.8047 10.1189 Q32.1406 9.3611 32.8203 8.9861 Q33.5 8.6111 34.3125 8.6111 Q35.3125 8.6111 35.9609 9.1189 Q36.6094 9.6267 36.7969 10.5798 L35.7656 10.7361 Q35.625 10.1111 35.25 9.7907 Q34.875 9.4704 34.3438 9.4704 Q33.5469 9.4704 33.0469 10.0407 Q32.5469 10.6111 32.5469 11.8454 Q32.5469 13.1111 33.0312 13.6736 Q33.5156 14.2361 34.2812 14.2361 Q34.9062 14.2361 35.3203 13.8611 Q35.7344 13.4861 35.8594 12.6892 ZM37.7656 14.9704 L37.7656 6.3767 L38.8281 6.3767 L38.8281 14.9704 L37.7656 14.9704 ZM44.8594 14.2048 Q44.2656 14.7048 43.7266 14.9079 Q43.1875 15.1111 42.5625 15.1111 Q41.5312 15.1111 40.9844 14.6111 Q40.4375 14.1111 40.4375 13.3298 Q40.4375 12.8767 40.6406 12.4939 Q40.8438 12.1111 41.1875 11.8845 Q41.5312 11.6579 41.9531 11.5486 Q42.25 11.4548 42.8906 11.3767 Q44.1562 11.2361 44.7656 11.0173 Q44.7656 10.7986 44.7656 10.7517 Q44.7656 10.0954 44.4688 9.8298 Q44.0625 9.4861 43.2656 9.4861 Q42.5312 9.4861 42.1719 9.7439 Q41.8125 10.0017 41.6406 10.6579 L40.6094 10.5173 Q40.75 9.8611 41.0781 9.4548 Q41.4062 9.0486 42.0156 8.8298 Q42.625 8.6111 43.4219 8.6111 Q44.2188 8.6111 44.7188 8.7986 Q45.2188 8.9861 45.4531 9.2673 Q45.6875 9.5486 45.7812 9.9861 Q45.8281 10.2517 45.8281 10.9548 L45.8281 12.3611 Q45.8281 13.8298 45.8984 14.2204 Q45.9688 14.6111 46.1719 14.9704 L45.0625 14.9704 Q44.9062 14.6423 44.8594 14.2048 ZM44.7656 11.8454 Q44.1875 12.0798 43.0469 12.2517 Q42.3906 12.3454 42.125 12.4626 Q41.8594 12.5798 41.7109 12.7986 Q41.5625 13.0173 41.5625 13.2986 Q41.5625 13.7204 41.8828 14.0017 Q42.2031 14.2829 42.8125 14.2829 Q43.4219 14.2829 43.8984 14.0173 Q44.375 13.7517 44.5938 13.2829 Q44.7656 12.9236 44.7656 12.2361 L44.7656 11.8454 ZM47.375 13.1111 L48.4062 12.9548 Q48.5 13.5798 48.8984 13.9079 Q49.2969 14.2361 50.0312 14.2361 Q50.75 14.2361 51.1016 13.947 Q51.4531 13.6579 51.4531 13.2517 Q51.4531 12.8923 51.1406 12.6892 Q50.9219 12.5486 50.0625 12.3298 Q48.9062 12.0329 48.4609 11.822 Q48.0156 11.6111 47.7812 11.2361 Q47.5469 10.8611 47.5469 10.3923 Q47.5469 9.9861 47.7344 9.6267 Q47.9219 9.2673 48.25 9.0329 Q48.5 8.8611 48.9219 8.7361 Q49.3438 8.6111 49.8438 8.6111 Q50.5625 8.6111 51.1172 8.822 Q51.6719 9.0329 51.9375 9.3923 Q52.2031 9.7517 52.2969 10.3454 L51.2656 10.4861 Q51.2031 10.0173 50.8672 9.7439 Q50.5312 9.4704 49.9062 9.4704 Q49.1875 9.4704 48.875 9.7126 Q48.5625 9.9548 48.5625 10.2829 Q48.5625 10.4861 48.6875 10.6423 Q48.8281 10.8142 49.0938 10.9236 Q49.25 10.9861 50.0312 11.1892 Q51.1562 11.5017 51.5938 11.6892 Q52.0312 11.8767 52.2812 12.2361 Q52.5312 12.5954 52.5312 13.1423 Q52.5312 13.6736 52.2266 14.1345 Q51.9219 14.5954 51.3438 14.8532 Q50.7656 15.1111 50.0312 15.1111 Q48.8125 15.1111 48.1797 14.6032 Q47.5469 14.0954 47.375 13.1111 ZM54.375 13.1111 L55.4062 12.9548 Q55.5 13.5798 55.8984 13.9079 Q56.2969 14.2361 57.0312 14.2361 Q57.75 14.2361 58.1016 13.947 Q58.4531 13.6579 58.4531 13.2517 Q58.4531 12.8923 58.1406 12.6892 Q57.9219 12.5486 57.0625 12.3298 Q55.9062 12.0329 55.4609 11.822 Q55.0156 11.6111 54.7812 11.2361 Q54.5469 10.8611 54.5469 10.3923 Q54.5469 9.9861 54.7344 9.6267 Q54.9219 9.2673 55.25 9.0329 Q55.5 8.8611 55.9219 8.7361 Q56.3438 8.6111 56.8438 8.6111 Q57.5625 8.6111 58.1172 8.822 Q58.6719 9.0329 58.9375 9.3923 Q59.2031 9.7517 59.2969 10.3454 L58.2656 10.4861 Q58.2031 10.0173 57.8672 9.7439 Q57.5312 9.4704 56.9062 9.4704 Q56.1875 9.4704 55.875 9.7126 Q55.5625 9.9548 55.5625 10.2829 Q55.5625 10.4861 55.6875 10.6423 Q55.8281 10.8142 56.0938 10.9236 Q56.25 10.9861 57.0312 11.1892 Q58.1562 11.5017 58.5938 11.6892 Q59.0312 11.8767 59.2812 12.2361 Q59.5312 12.5954 59.5312 13.1423 Q59.5312 13.6736 59.2266 14.1345 Q58.9219 14.5954 58.3438 14.8532 Q57.7656 15.1111 57.0312 15.1111 Q55.8125 15.1111 55.1797 14.6032 Q54.5469 14.0954 54.375 13.1111 ZM64.5781 10.7829 Q64.5781 8.6423 65.7266 7.4314 Q66.875 6.2204 68.6875 6.2204 Q69.8906 6.2204 70.8438 6.7907 Q71.7969 7.3611 72.2969 8.3767 Q72.7969 9.3923 72.7969 10.6892 Q72.7969 11.9861 72.2656 13.0173 Q71.7344 14.0486 70.7734 14.5798 Q69.8125 15.1111 68.6875 15.1111 Q67.4688 15.1111 66.5156 14.5251 Q65.5625 13.9392 65.0703 12.9314 Q64.5781 11.9236 64.5781 10.7829 ZM65.75 10.7986 Q65.75 12.3611 66.5859 13.2517 Q67.4219 14.1423 68.6875 14.1423 Q69.9688 14.1423 70.7969 13.2439 Q71.625 12.3454 71.625 10.6736 Q71.625 9.6267 71.2734 8.8454 Q70.9219 8.0642 70.2344 7.6345 Q69.5469 7.2048 68.7031 7.2048 Q67.5 7.2048 66.625 8.0329 Q65.75 8.8611 65.75 10.7986 ZM74.7656 14.9704 L73.7812 14.9704 L73.7812 6.3767 L74.8438 6.3767 L74.8438 9.4392 Q75.5156 8.6111 76.5469 8.6111 Q77.125 8.6111 77.6328 8.8376 Q78.1406 9.0642 78.4766 9.4861 Q78.8125 9.9079 79 10.5017 Q79.1875 11.0954 79.1875 11.7673 Q79.1875 13.3611 78.3906 14.2361 Q77.5938 15.1111 76.5 15.1111 Q75.3906 15.1111 74.7656 14.1892 L74.7656 14.9704 ZM74.75 11.8142 Q74.75 12.9236 75.0625 13.4236 Q75.5625 14.2361 76.4062 14.2361 Q77.0938 14.2361 77.6016 13.6423 Q78.1094 13.0486 78.1094 11.8454 Q78.1094 10.6267 77.625 10.0486 Q77.1406 9.4704 76.4531 9.4704 Q75.7656 9.4704 75.2578 10.072 Q74.75 10.6736 74.75 11.8142 ZM80.7812 7.6111 L80.7812 6.3767 L81.8438 6.3767 L81.8438 7.6111 L80.7812 7.6111 ZM79.4531 17.3923 L79.6406 16.4861 Q79.9688 16.5642 80.1406 16.5642 Q80.4688 16.5642 80.625 16.3532 Q80.7812 16.1423 80.7812 15.2829 L80.7812 8.7517 L81.8438 8.7517 L81.8438 15.3142 Q81.8438 16.4548 81.5469 16.9079 Q81.1562 17.5017 80.2812 17.5017 Q79.8438 17.5017 79.4531 17.3923 ZM88.0469 12.9704 L89.1406 13.0954 Q88.8906 14.0486 88.1875 14.5798 Q87.4844 15.1111 86.4062 15.1111 Q85.0469 15.1111 84.2422 14.2673 Q83.4375 13.4236 83.4375 11.9079 Q83.4375 10.3454 84.25 9.4782 Q85.0625 8.6111 86.3438 8.6111 Q87.5938 8.6111 88.3828 9.4548 Q89.1719 10.2986 89.1719 11.8454 Q89.1719 11.9392 89.1719 12.1267 L84.5312 12.1267 Q84.5938 13.1579 85.1094 13.697 Q85.625 14.2361 86.4062 14.2361 Q86.9844 14.2361 87.3984 13.9314 Q87.8125 13.6267 88.0469 12.9704 ZM84.5938 11.2673 L88.0625 11.2673 Q88 10.4704 87.6719 10.0798 Q87.1562 9.4704 86.3594 9.4704 Q85.625 9.4704 85.1328 9.9548 Q84.6406 10.4392 84.5938 11.2673 ZM94.8594 12.6892 L95.8906 12.8298 Q95.7188 13.8923 95.0156 14.5017 Q94.3125 15.1111 93.2969 15.1111 Q92.0156 15.1111 91.2422 14.2751 Q90.4688 13.4392 90.4688 11.8767 Q90.4688 10.8767 90.8047 10.1189 Q91.1406 9.3611 91.8203 8.9861 Q92.5 8.6111 93.3125 8.6111 Q94.3125 8.6111 94.9609 9.1189 Q95.6094 9.6267 95.7969 10.5798 L94.7656 10.7361 Q94.625 10.1111 94.25 9.7907 Q93.875 9.4704 93.3438 9.4704 Q92.5469 9.4704 92.0469 10.0407 Q91.5469 10.6111 91.5469 11.8454 Q91.5469 13.1111 92.0312 13.6736 Q92.5156 14.2361 93.2812 14.2361 Q93.9062 14.2361 94.3203 13.8611 Q94.7344 13.4861 94.8594 12.6892 ZM99.0938 14.0329 L99.25 14.9548 Q98.7969 15.0486 98.4531 15.0486 Q97.875 15.0486 97.5625 14.8689 Q97.25 14.6892 97.1172 14.3923 Q96.9844 14.0954 96.9844 13.1423 L96.9844 9.5642 L96.2188 9.5642 L96.2188 8.7517 L96.9844 8.7517 L96.9844 7.2048 L98.0312 6.5798 L98.0312 8.7517 L99.0938 8.7517 L99.0938 9.5642 L98.0312 9.5642 L98.0312 13.2048 Q98.0312 13.6579 98.0859 13.7829 Q98.1406 13.9079 98.2656 13.9861 Q98.3906 14.0642 98.625 14.0642 Q98.8125 14.0642 99.0938 14.0329 ZM99.375 13.1111 L100.4062 12.9548 Q100.5 13.5798 100.8984 13.9079 Q101.2969 14.2361 102.0312 14.2361 Q102.75 14.2361 103.1016 13.947 Q103.4531 13.6579 103.4531 13.2517 Q103.4531 12.8923 103.1406 12.6892 Q102.9219 12.5486 102.0625 12.3298 Q100.9062 12.0329 100.4609 11.822 Q100.0156 11.6111 99.7812 11.2361 Q99.5469 10.8611 99.5469 10.3923 Q99.5469 9.9861 99.7344 9.6267 Q99.9219 9.2673 100.25 9.0329 Q100.5 8.8611 100.9219 8.7361 Q101.3438 8.6111 101.8438 8.6111 Q102.5625 8.6111 103.1172 8.822 Q103.6719 9.0329 103.9375 9.3923 Q104.2031 9.7517 104.2969 10.3454 L103.2656 10.4861 Q103.2031 10.0173 102.8672 9.7439 Q102.5312 9.4704 101.9062 9.4704 Q101.1875 9.4704 100.875 9.7126 Q100.5625 9.9548 100.5625 10.2829 Q100.5625 10.4861 100.6875 10.6423 Q100.8281 10.8142 101.0938 10.9236 Q101.25 10.9861 102.0312 11.1892 Q103.1562 11.5017 103.5938 11.6892 Q104.0312 11.8767 104.2812 12.2361 Q104.5312 12.5954 104.5312 13.1423 Q104.5312 13.6736 104.2266 14.1345 Q103.9219 14.5954 103.3438 14.8532 Q102.7656 15.1111 102.0312 15.1111 Q100.8125 15.1111 100.1797 14.6032 Q99.5469 14.0954 99.375 13.1111 ZM106.8438 9.4236 L106.5469 7.7829 L106.5469 6.3767 L107.75 6.3767 L107.75 7.7829 L107.4844 9.4236 L106.8438 9.4236 ZM108.7812 9.4236 L108.5 7.7829 L108.5 6.3767 L109.7031 6.3767 L109.7031 7.7829 L109.4219 9.4236 L108.7812 9.4236 Z" style="clip-path:url(#clipPath44); stroke:none;" />
    </g>
    <g transform="translate(942,684)" style="font-size:11; fill:rgb(122,207,245); text-rendering:geometricPrecision; font-family:sans-serif; stroke:rgb(122,207,245);">
      <polygon style="clip-path:url(#clipPath47); stroke:none;" points=" 0 0 104 0 119 15 104 15 104 0 119 15 119 45 0 45" />
    </g>
    <g transform="translate(942,684)" style="font-size:11; stroke-linecap:butt; text-rendering:geometricPrecision; font-family:sans-serif; stroke-linejoin:round; stroke-miterlimit:0;">
      <polygon style="fill:none; clip-path:url(#clipPath47);" points=" 0 0 104 0 119 15 104 15 104 0 119 15 119 45 0 45" />
    </g>
    <g style="text-rendering:geometricPrecision; font-size:11; font-family:&apos;Tahoma&apos;;" transform="translate(942,684)">
      <path d="M6.375 14.9704 L3.0469 6.3767 L4.2812 6.3767 L6.5156 12.6267 Q6.7812 13.3767 6.9688 14.0329 Q7.1719 13.3298 7.4375 12.6267 L9.75 6.3767 L10.9062 6.3767 L7.5469 14.9704 L6.375 14.9704 ZM10.4062 11.8611 Q10.4062 10.1267 11.3594 9.2986 Q12.1562 8.6111 13.3125 8.6111 Q14.5938 8.6111 15.4141 9.447 Q16.2344 10.2829 16.2344 11.7673 Q16.2344 12.9704 15.875 13.6579 Q15.5156 14.3454 14.8203 14.7282 Q14.125 15.1111 13.3125 15.1111 Q12.0156 15.1111 11.2109 14.2751 Q10.4062 13.4392 10.4062 11.8611 ZM11.4844 11.8611 Q11.4844 13.0486 12.0078 13.6423 Q12.5312 14.2361 13.3125 14.2361 Q14.1094 14.2361 14.625 13.6423 Q15.1406 13.0486 15.1406 11.8298 Q15.1406 10.6736 14.6172 10.0798 Q14.0938 9.4861 13.3125 9.4861 Q12.5312 9.4861 12.0078 10.072 Q11.4844 10.6579 11.4844 11.8611 ZM17.7969 7.5954 L17.7969 6.3767 L18.8594 6.3767 L18.8594 7.5954 L17.7969 7.5954 ZM17.7969 14.9704 L17.7969 8.7517 L18.8594 8.7517 L18.8594 14.9704 L17.7969 14.9704 ZM20.7812 14.9704 L20.7812 8.7517 L21.7344 8.7517 L21.7344 9.6892 Q22.0938 9.0329 22.3984 8.822 Q22.7031 8.6111 23.0781 8.6111 Q23.6094 8.6111 24.1562 8.9392 L23.7969 9.9236 Q23.4062 9.6892 23.0312 9.6892 Q22.6719 9.6892 22.3984 9.9001 Q22.125 10.1111 22.0156 10.4861 Q21.8281 11.0486 21.8281 11.7048 L21.8281 14.9704 L20.7812 14.9704 ZM27.8438 9.4236 L27.5469 7.7829 L27.5469 6.3767 L28.75 6.3767 L28.75 7.7829 L28.4844 9.4236 L27.8438 9.4236 ZM29.7812 9.4236 L29.5 7.7829 L29.5 6.3767 L30.7031 6.3767 L30.7031 7.7829 L30.4219 9.4236 L29.7812 9.4236 ZM35.8594 12.6892 L36.8906 12.8298 Q36.7188 13.8923 36.0156 14.5017 Q35.3125 15.1111 34.2969 15.1111 Q33.0156 15.1111 32.2422 14.2751 Q31.4688 13.4392 31.4688 11.8767 Q31.4688 10.8767 31.8047 10.1189 Q32.1406 9.3611 32.8203 8.9861 Q33.5 8.6111 34.3125 8.6111 Q35.3125 8.6111 35.9609 9.1189 Q36.6094 9.6267 36.7969 10.5798 L35.7656 10.7361 Q35.625 10.1111 35.25 9.7907 Q34.875 9.4704 34.3438 9.4704 Q33.5469 9.4704 33.0469 10.0407 Q32.5469 10.6111 32.5469 11.8454 Q32.5469 13.1111 33.0312 13.6736 Q33.5156 14.2361 34.2812 14.2361 Q34.9062 14.2361 35.3203 13.8611 Q35.7344 13.4861 35.8594 12.6892 ZM37.7656 14.9704 L37.7656 6.3767 L38.8281 6.3767 L38.8281 14.9704 L37.7656 14.9704 ZM44.8594 14.2048 Q44.2656 14.7048 43.7266 14.9079 Q43.1875 15.1111 42.5625 15.1111 Q41.5312 15.1111 40.9844 14.6111 Q40.4375 14.1111 40.4375 13.3298 Q40.4375 12.8767 40.6406 12.4939 Q40.8438 12.1111 41.1875 11.8845 Q41.5312 11.6579 41.9531 11.5486 Q42.25 11.4548 42.8906 11.3767 Q44.1562 11.2361 44.7656 11.0173 Q44.7656 10.7986 44.7656 10.7517 Q44.7656 10.0954 44.4688 9.8298 Q44.0625 9.4861 43.2656 9.4861 Q42.5312 9.4861 42.1719 9.7439 Q41.8125 10.0017 41.6406 10.6579 L40.6094 10.5173 Q40.75 9.8611 41.0781 9.4548 Q41.4062 9.0486 42.0156 8.8298 Q42.625 8.6111 43.4219 8.6111 Q44.2188 8.6111 44.7188 8.7986 Q45.2188 8.9861 45.4531 9.2673 Q45.6875 9.5486 45.7812 9.9861 Q45.8281 10.2517 45.8281 10.9548 L45.8281 12.3611 Q45.8281 13.8298 45.8984 14.2204 Q45.9688 14.6111 46.1719 14.9704 L45.0625 14.9704 Q44.9062 14.6423 44.8594 14.2048 ZM44.7656 11.8454 Q44.1875 12.0798 43.0469 12.2517 Q42.3906 12.3454 42.125 12.4626 Q41.8594 12.5798 41.7109 12.7986 Q41.5625 13.0173 41.5625 13.2986 Q41.5625 13.7204 41.8828 14.0017 Q42.2031 14.2829 42.8125 14.2829 Q43.4219 14.2829 43.8984 14.0173 Q44.375 13.7517 44.5938 13.2829 Q44.7656 12.9236 44.7656 12.2361 L44.7656 11.8454 ZM47.375 13.1111 L48.4062 12.9548 Q48.5 13.5798 48.8984 13.9079 Q49.2969 14.2361 50.0312 14.2361 Q50.75 14.2361 51.1016 13.947 Q51.4531 13.6579 51.4531 13.2517 Q51.4531 12.8923 51.1406 12.6892 Q50.9219 12.5486 50.0625 12.3298 Q48.9062 12.0329 48.4609 11.822 Q48.0156 11.6111 47.7812 11.2361 Q47.5469 10.8611 47.5469 10.3923 Q47.5469 9.9861 47.7344 9.6267 Q47.9219 9.2673 48.25 9.0329 Q48.5 8.8611 48.9219 8.7361 Q49.3438 8.6111 49.8438 8.6111 Q50.5625 8.6111 51.1172 8.822 Q51.6719 9.0329 51.9375 9.3923 Q52.2031 9.7517 52.2969 10.3454 L51.2656 10.4861 Q51.2031 10.0173 50.8672 9.7439 Q50.5312 9.4704 49.9062 9.4704 Q49.1875 9.4704 48.875 9.7126 Q48.5625 9.9548 48.5625 10.2829 Q48.5625 10.4861 48.6875 10.6423 Q48.8281 10.8142 49.0938 10.9236 Q49.25 10.9861 50.0312 11.1892 Q51.1562 11.5017 51.5938 11.6892 Q52.0312 11.8767 52.2812 12.2361 Q52.5312 12.5954 52.5312 13.1423 Q52.5312 13.6736 52.2266 14.1345 Q51.9219 14.5954 51.3438 14.8532 Q50.7656 15.1111 50.0312 15.1111 Q48.8125 15.1111 48.1797 14.6032 Q47.5469 14.0954 47.375 13.1111 ZM54.375 13.1111 L55.4062 12.9548 Q55.5 13.5798 55.8984 13.9079 Q56.2969 14.2361 57.0312 14.2361 Q57.75 14.2361 58.1016 13.947 Q58.4531 13.6579 58.4531 13.2517 Q58.4531 12.8923 58.1406 12.6892 Q57.9219 12.5486 57.0625 12.3298 Q55.9062 12.0329 55.4609 11.822 Q55.0156 11.6111 54.7812 11.2361 Q54.5469 10.8611 54.5469 10.3923 Q54.5469 9.9861 54.7344 9.6267 Q54.9219 9.2673 55.25 9.0329 Q55.5 8.8611 55.9219 8.7361 Q56.3438 8.6111 56.8438 8.6111 Q57.5625 8.6111 58.1172 8.822 Q58.6719 9.0329 58.9375 9.3923 Q59.2031 9.7517 59.2969 10.3454 L58.2656 10.4861 Q58.2031 10.0173 57.8672 9.7439 Q57.5312 9.4704 56.9062 9.4704 Q56.1875 9.4704 55.875 9.7126 Q55.5625 9.9548 55.5625 10.2829 Q55.5625 10.4861 55.6875 10.6423 Q55.8281 10.8142 56.0938 10.9236 Q56.25 10.9861 57.0312 11.1892 Q58.1562 11.5017 58.5938 11.6892 Q59.0312 11.8767 59.2812 12.2361 Q59.5312 12.5954 59.5312 13.1423 Q59.5312 13.6736 59.2266 14.1345 Q58.9219 14.5954 58.3438 14.8532 Q57.7656 15.1111 57.0312 15.1111 Q55.8125 15.1111 55.1797 14.6032 Q54.5469 14.0954 54.375 13.1111 ZM67.1094 14.9704 L67.1094 7.3923 L64.2812 7.3923 L64.2812 6.3767 L71.0938 6.3767 L71.0938 7.3923 L68.25 7.3923 L68.25 14.9704 L67.1094 14.9704 ZM75.8594 14.2048 Q75.2656 14.7048 74.7266 14.9079 Q74.1875 15.1111 73.5625 15.1111 Q72.5312 15.1111 71.9844 14.6111 Q71.4375 14.1111 71.4375 13.3298 Q71.4375 12.8767 71.6406 12.4939 Q71.8438 12.1111 72.1875 11.8845 Q72.5312 11.6579 72.9531 11.5486 Q73.25 11.4548 73.8906 11.3767 Q75.1562 11.2361 75.7656 11.0173 Q75.7656 10.7986 75.7656 10.7517 Q75.7656 10.0954 75.4688 9.8298 Q75.0625 9.4861 74.2656 9.4861 Q73.5312 9.4861 73.1719 9.7439 Q72.8125 10.0017 72.6406 10.6579 L71.6094 10.5173 Q71.75 9.8611 72.0781 9.4548 Q72.4062 9.0486 73.0156 8.8298 Q73.625 8.6111 74.4219 8.6111 Q75.2188 8.6111 75.7188 8.7986 Q76.2188 8.9861 76.4531 9.2673 Q76.6875 9.5486 76.7812 9.9861 Q76.8281 10.2517 76.8281 10.9548 L76.8281 12.3611 Q76.8281 13.8298 76.8984 14.2204 Q76.9688 14.6111 77.1719 14.9704 L76.0625 14.9704 Q75.9062 14.6423 75.8594 14.2048 ZM75.7656 11.8454 Q75.1875 12.0798 74.0469 12.2517 Q73.3906 12.3454 73.125 12.4626 Q72.8594 12.5798 72.7109 12.7986 Q72.5625 13.0173 72.5625 13.2986 Q72.5625 13.7204 72.8828 14.0017 Q73.2031 14.2829 73.8125 14.2829 Q74.4219 14.2829 74.8984 14.0173 Q75.375 13.7517 75.5938 13.2829 Q75.7656 12.9236 75.7656 12.2361 L75.7656 11.8454 ZM78.375 13.1111 L79.4062 12.9548 Q79.5 13.5798 79.8984 13.9079 Q80.2969 14.2361 81.0312 14.2361 Q81.75 14.2361 82.1016 13.947 Q82.4531 13.6579 82.4531 13.2517 Q82.4531 12.8923 82.1406 12.6892 Q81.9219 12.5486 81.0625 12.3298 Q79.9062 12.0329 79.4609 11.822 Q79.0156 11.6111 78.7812 11.2361 Q78.5469 10.8611 78.5469 10.3923 Q78.5469 9.9861 78.7344 9.6267 Q78.9219 9.2673 79.25 9.0329 Q79.5 8.8611 79.9219 8.7361 Q80.3438 8.6111 80.8438 8.6111 Q81.5625 8.6111 82.1172 8.822 Q82.6719 9.0329 82.9375 9.3923 Q83.2031 9.7517 83.2969 10.3454 L82.2656 10.4861 Q82.2031 10.0173 81.8672 9.7439 Q81.5312 9.4704 80.9062 9.4704 Q80.1875 9.4704 79.875 9.7126 Q79.5625 9.9548 79.5625 10.2829 Q79.5625 10.4861 79.6875 10.6423 Q79.8281 10.8142 80.0938 10.9236 Q80.25 10.9861 81.0312 11.1892 Q82.1562 11.5017 82.5938 11.6892 Q83.0312 11.8767 83.2812 12.2361 Q83.5312 12.5954 83.5312 13.1423 Q83.5312 13.6736 83.2266 14.1345 Q82.9219 14.5954 82.3438 14.8532 Q81.7656 15.1111 81.0312 15.1111 Q79.8125 15.1111 79.1797 14.6032 Q78.5469 14.0954 78.375 13.1111 ZM85.7969 14.9704 L85.7969 6.3767 L86.8594 6.3767 L86.8594 11.2829 L89.3438 8.7517 L90.7188 8.7517 L88.3281 11.0486 L90.9531 14.9704 L89.6562 14.9704 L87.5938 11.7829 L86.8594 12.5017 L86.8594 14.9704 L85.7969 14.9704 ZM91.8438 9.4236 L91.5469 7.7829 L91.5469 6.3767 L92.75 6.3767 L92.75 7.7829 L92.4844 9.4236 L91.8438 9.4236 ZM93.7812 9.4236 L93.5 7.7829 L93.5 6.3767 L94.7031 6.3767 L94.7031 7.7829 L94.4219 9.4236 L93.7812 9.4236 Z" style="clip-path:url(#clipPath48); stroke:none;" />
    </g>
    <g transform="translate(660,202)" style="font-size:11; stroke-linecap:butt; text-rendering:geometricPrecision; font-family:sans-serif; stroke-linejoin:round;">
      <line x1="41" x2="41" y1="137" style="clip-path:url(#clipPath66); fill:none;" y2="41" />
      <polygon style="clip-path:url(#clipPath66); stroke:none;" points=" 41 161 47 149 41 137 35 149" />
      <polygon style="fill:none; clip-path:url(#clipPath66);" points=" 41 161 47 149 41 137 35 149" />
    </g>
    <g transform="translate(340,142)" style="font-size:11; stroke-linecap:butt; text-rendering:geometricPrecision; font-family:sans-serif; stroke-linejoin:round;">
      <line x1="236" x2="71" y1="72" style="clip-path:url(#clipPath67); fill:none;" y2="72" />
      <polygon style="fill:none; clip-path:url(#clipPath67);" points=" 260 72 248 66 236 72 248 78" />
    </g>
    <g transform="translate(660,442)" style="font-size:11; stroke-linecap:butt; text-rendering:geometricPrecision; font-family:sans-serif; stroke-linejoin:round;">
      <line x1="41" x2="41" y1="66" style="clip-path:url(#clipPath68); fill:none;" y2="91" />
      <polygon style="clip-path:url(#clipPath68); stroke:none;" points=" 41 42 35 54 41 66 47 54" />
      <polygon style="fill:none; clip-path:url(#clipPath68);" points=" 41 42 35 54 41 66 47 54" />
    </g>
    <g transform="translate(130,362)" style="font-size:11; stroke-linecap:butt; text-rendering:geometricPrecision; font-family:sans-serif; stroke-linejoin:round;">
      <line x1="220" x2="72" y1="112" style="clip-path:url(#clipPath69); fill:none;" y2="112" />
      <line x1="72" x2="72" y1="112" style="clip-path:url(#clipPath69); fill:none;" y2="72" />
      <polygon style="fill:white; clip-path:url(#clipPath69); stroke:none;" points=" 220 112 208 106 208 118" />
      <polygon style="fill:none; clip-path:url(#clipPath69);" points=" 220 112 208 106 208 118" />
    </g>
    <g transform="translate(540,362)" style="font-size:11; stroke-linecap:butt; text-rendering:geometricPrecision; font-family:sans-serif; stroke-linejoin:round;">
      <line x1="77" x2="41" y1="42" style="clip-path:url(#clipPath70); fill:none;" y2="42" />
      <polygon style="clip-path:url(#clipPath70); stroke:none;" points=" 101 42 89 36 77 42 89 48" />
      <polygon style="fill:none; clip-path:url(#clipPath70);" points=" 101 42 89 36 77 42 89 48" />
    </g>
    <g transform="translate(172,332)" style="font-size:11; stroke-linecap:butt; text-rendering:geometricPrecision; font-family:sans-serif; stroke-linejoin:round;">
      <line x1="154" x2="71" y1="72" style="clip-path:url(#clipPath71); fill:none;" y2="72" />
      <polygon style="fill:none; clip-path:url(#clipPath71);" points=" 178 72 166 66 154 72 166 78" />
    </g>
    <g transform="translate(170,402)" style="font-size:11; stroke-linecap:butt; text-rendering:geometricPrecision; font-family:sans-serif; stroke-linejoin:round;">
      <line x1="180" x2="72" y1="72" style="clip-path:url(#clipPath72); fill:none;" y2="72" />
      <line x1="72" x2="72" y1="72" style="clip-path:url(#clipPath72); fill:none;" y2="150" />
      <polygon style="fill:white; clip-path:url(#clipPath72); stroke:none;" points=" 180 72 168 66 168 78" />
      <polygon style="fill:none; clip-path:url(#clipPath72);" points=" 180 72 168 66 168 78" />
    </g>
    <g transform="translate(180,512)" style="font-size:11; stroke-linecap:butt; text-rendering:geometricPrecision; font-family:sans-serif; stroke-linejoin:round;">
      <line x1="366" x2="72" y1="71" style="clip-path:url(#clipPath73); fill:none;" y2="71" />
      <polygon style="fill:none; clip-path:url(#clipPath73);" points=" 390 71 378 65 366 71 378 77" />
    </g>
    <g transform="translate(130,152)" style="font-size:11; stroke-linecap:butt; text-rendering:geometricPrecision; font-family:sans-serif; stroke-linejoin:round;">
      <line x1="72" x2="72" y1="230" style="clip-path:url(#clipPath74); fill:none;" y2="152" />
      <line x1="72" x2="222" y1="152" style="clip-path:url(#clipPath74); fill:none;" y2="152" />
      <line x1="222" x2="222" y1="152" style="clip-path:url(#clipPath74); fill:none;" y2="72" />
    </g>
    <g transform="translate(716,328)" style="font-size:11; stroke-linecap:butt; text-rendering:geometricPrecision; font-family:sans-serif; stroke-linejoin:round;">
      <line x1="80" x2="174" y1="56" style="clip-path:url(#clipPath75); fill:none;" y2="56" />
      <polygon style="clip-path:url(#clipPath75); stroke:none;" points=" 56 56 68 62 80 56 68 50" />
      <polygon style="fill:none; clip-path:url(#clipPath75);" points=" 56 56 68 62 80 56 68 50" />
    </g>
    <g transform="translate(730,402)" style="font-size:11; stroke-linecap:butt; text-rendering:geometricPrecision; font-family:sans-serif; stroke-linejoin:round;">
      <line x1="65" x2="121" y1="42" style="clip-path:url(#clipPath76); fill:none;" y2="42" />
      <polygon style="clip-path:url(#clipPath76); stroke:none;" points=" 41 42 53 48 65 42 53 36" />
      <polygon style="fill:none; clip-path:url(#clipPath76);" points=" 41 42 53 48 65 42 53 36" />
    </g>
    <g transform="translate(340,72)" style="font-size:11; stroke-linecap:butt; text-rendering:geometricPrecision; font-family:sans-serif; stroke-linejoin:round;">
      <line x1="88" x2="111" y1="95" style="clip-path:url(#clipPath77); fill:none;" y2="72" />
      <line x1="111" x2="560" y1="72" style="clip-path:url(#clipPath77); fill:none;" y2="72" />
      <polygon style="clip-path:url(#clipPath77); stroke:none;" points=" 71 112 83 108 88 95 74 99" />
      <polygon style="fill:none; clip-path:url(#clipPath77);" points=" 71 112 83 108 88 95 74 99" />
    </g>
    <g transform="translate(996,448)" style="font-size:11; stroke-linecap:butt; text-rendering:geometricPrecision; font-family:sans-serif; stroke-linejoin:round;">
      <line x1="56" x2="56" y1="80" style="clip-path:url(#clipPath78); fill:none;" y2="124" />
      <polygon style="clip-path:url(#clipPath78); stroke:none;" points=" 56 56 50 68 56 80 62 68" />
      <polygon style="fill:none; clip-path:url(#clipPath78);" points=" 56 56 50 68 56 80 62 68" />
    </g>
    <g style="text-rendering:geometricPrecision; font-size:11; font-family:sans-serif;" transform="translate(592,404)">
      <text x="9" y="11" style="clip-path:url(#clipPath80); stroke:none;" xml:space="preserve">1</text>
    </g>
    <g style="text-rendering:geometricPrecision; font-size:11; font-family:sans-serif;" transform="translate(612,384)">
      <text x="9" y="11" style="clip-path:url(#clipPath80); stroke:none;" xml:space="preserve">1</text>
    </g>
    <g style="text-rendering:geometricPrecision; font-size:11; font-family:sans-serif;" transform="translate(582,384)">
      <text x="9" y="11" style="clip-path:url(#clipPath81); stroke:none;" xml:space="preserve">objects</text>
    </g>
    <g style="text-rendering:geometricPrecision; font-size:11; font-family:sans-serif;" transform="translate(602,414)">
      <text x="10" y="11" style="clip-path:url(#clipPath82); stroke:none;" xml:space="preserve">game</text>
    </g>
    <g style="text-rendering:geometricPrecision; font-size:11; font-family:sans-serif;" transform="translate(412,214)">
      <text x="8" y="12" style="clip-path:url(#clipPath83); stroke:none;" xml:space="preserve">0..*</text>
    </g>
    <g style="text-rendering:geometricPrecision; font-size:11; font-family:sans-serif;" transform="translate(412,194)">
      <text x="9" y="12" style="clip-path:url(#clipPath84); stroke:none;" xml:space="preserve">rooms</text>
    </g>
    <g style="text-rendering:geometricPrecision; font-size:11; font-family:sans-serif;" transform="translate(672,514)">
      <text x="9" y="11" style="clip-path:url(#clipPath80); stroke:none;" xml:space="preserve">1</text>
    </g>
    <g style="text-rendering:geometricPrecision; font-size:11; font-family:sans-serif;" transform="translate(712,484)">
      <text x="9" y="11" style="clip-path:url(#clipPath80); stroke:none;" xml:space="preserve">1</text>
    </g>
    <g style="text-rendering:geometricPrecision; font-size:11; font-family:sans-serif;" transform="translate(702,514)">
      <text x="9" y="12" style="clip-path:url(#clipPath85); stroke:none;" xml:space="preserve">characters</text>
    </g>
    <g style="text-rendering:geometricPrecision; font-size:11; font-family:sans-serif;" transform="translate(652,484)">
      <text x="10" y="12" style="clip-path:url(#clipPath86); stroke:none;" xml:space="preserve">game</text>
    </g>
    <g style="text-rendering:geometricPrecision; font-size:11; font-family:sans-serif;" transform="translate(862,384)">
      <text x="9" y="11" style="clip-path:url(#clipPath80); stroke:none;" xml:space="preserve">1</text>
    </g>
    <g style="text-rendering:geometricPrecision; font-size:11; font-family:sans-serif;" transform="translate(782,364)">
      <text x="9" y="11" style="clip-path:url(#clipPath80); stroke:none;" xml:space="preserve">1</text>
    </g>
    <g style="text-rendering:geometricPrecision; font-size:11; font-family:sans-serif;" transform="translate(852,364)">
      <text x="8" y="11" style="clip-path:url(#clipPath87); stroke:none;" xml:space="preserve">level</text>
    </g>
    <g style="text-rendering:geometricPrecision; font-size:11; font-family:sans-serif;" transform="translate(772,394)">
      <text x="9" y="11" style="clip-path:url(#clipPath88); stroke:none;" xml:space="preserve">game</text>
    </g>
    <g style="text-rendering:geometricPrecision; font-size:11; font-family:sans-serif;" transform="translate(862,144)">
      <text x="10" y="11" style="clip-path:url(#clipPath89); stroke:none;" xml:space="preserve">1..*</text>
    </g>
    <g style="text-rendering:geometricPrecision; font-size:11; font-family:sans-serif;" transform="translate(862,124)">
      <text x="9" y="11" style="clip-path:url(#clipPath82); stroke:none;" xml:space="preserve">areas</text>
    </g>
    <g style="text-rendering:geometricPrecision; font-size:11; font-family:sans-serif;" transform="translate(822,444)">
      <text x="9" y="11" style="clip-path:url(#clipPath80); stroke:none;" xml:space="preserve">1</text>
    </g>
    <g style="text-rendering:geometricPrecision; font-size:11; font-family:sans-serif;" transform="translate(782,424)">
      <text x="9" y="11" style="clip-path:url(#clipPath80); stroke:none;" xml:space="preserve">1</text>
    </g>
    <g style="text-rendering:geometricPrecision; font-size:11; font-family:sans-serif;" transform="translate(812,424)">
      <text x="9" y="11" style="clip-path:url(#clipPath90); stroke:none;" xml:space="preserve">tasks</text>
    </g>
    <g style="text-rendering:geometricPrecision; font-size:11; font-family:sans-serif;" transform="translate(772,454)">
      <text x="9" y="11" style="clip-path:url(#clipPath90); stroke:none;" xml:space="preserve">game</text>
    </g>
    <g style="text-rendering:geometricPrecision; font-size:11; font-family:sans-serif;" transform="translate(1012,554)">
      <text x="10" y="12" style="clip-path:url(#clipPath91); stroke:none;" xml:space="preserve">0..*</text>
    </g>
    <g style="text-rendering:geometricPrecision; font-size:11; font-family:sans-serif;" transform="translate(1052,554)">
      <text x="9" y="12" style="clip-path:url(#clipPath92); stroke:none;" xml:space="preserve">tasks</text>
    </g>
    <g style="text-rendering:geometricPrecision; font-size:11; font-family:sans-serif;" transform="translate(352,224)">
      <text x="9" y="12" style="clip-path:url(#clipPath91); stroke:none;" xml:space="preserve">0..1</text>
    </g>
    <g style="text-rendering:geometricPrecision; font-size:11; font-family:sans-serif;" transform="translate(162,364)">
      <text x="8" y="11" style="clip-path:url(#clipPath93); stroke:none;" xml:space="preserve">0..*</text>
    </g>
    <g style="text-rendering:geometricPrecision; font-size:11; font-family:sans-serif;" transform="translate(312,224)">
      <text x="9" y="12" style="clip-path:url(#clipPath92); stroke:none;" xml:space="preserve">room</text>
    </g>
    <g style="text-rendering:geometricPrecision; font-size:11; font-family:sans-serif;" transform="translate(202,364)">
      <text x="9" y="11" style="clip-path:url(#clipPath81); stroke:none;" xml:space="preserve">objects</text>
    </g>
    <g style="text-rendering:geometricPrecision; font-size:11; font-family:sans-serif;" transform="translate(712,244)">
      <text x="9" y="11" style="clip-path:url(#clipPath80); stroke:none;" xml:space="preserve">1</text>
    </g>
    <g style="text-rendering:geometricPrecision; font-size:11; font-family:sans-serif;" transform="translate(672,344)">
      <text x="9" y="11" style="clip-path:url(#clipPath80); stroke:none;" xml:space="preserve">1</text>
    </g>
    <g style="text-rendering:geometricPrecision; font-size:11; font-family:sans-serif;" transform="translate(652,244)">
      <text x="9" y="11" style="clip-path:url(#clipPath94); stroke:none;" xml:space="preserve">rooms</text>
    </g>
    <g style="text-rendering:geometricPrecision; font-size:11; font-family:sans-serif;" transform="translate(712,334)">
      <text x="10" y="11" style="clip-path:url(#clipPath82); stroke:none;" xml:space="preserve">game</text>
    </g>
    <g style="text-rendering:geometricPrecision; font-size:11; font-family:sans-serif;" transform="translate(242,404)">
      <text x="8" y="11" style="clip-path:url(#clipPath93); stroke:none;" xml:space="preserve">0..*</text>
    </g>
    <g style="text-rendering:geometricPrecision; font-size:11; font-family:sans-serif;" transform="translate(242,384)">
      <text x="9" y="11" style="clip-path:url(#clipPath81); stroke:none;" xml:space="preserve">objects</text>
    </g>
    <g style="text-rendering:geometricPrecision; font-size:11; font-family:sans-serif;" transform="translate(252,584)">
      <text x="9" y="11" style="clip-path:url(#clipPath95); stroke:none;" xml:space="preserve">0..*</text>
    </g>
    <g style="text-rendering:geometricPrecision; font-size:11; font-family:sans-serif;" transform="translate(252,564)">
      <text x="8" y="11" style="clip-path:url(#clipPath96); stroke:none;" xml:space="preserve">characters</text>
    </g>
  </g>
</svg>
