<?xml version="1.0" encoding="UTF-8"?>

<!DOCTYPE svg PUBLIC '-//W3C//DTD SVG 1.0//EN' 'http://www.w3.org/TR/2001/REC-SVG-20010904/DTD/svg10.dtd'>
<svg style="fill-opacity:1; color-rendering:auto; color-interpolation:auto; stroke:black; text-rendering:auto; stroke-linecap:square; stroke-miterlimit:10; stroke-opacity:1; shape-rendering:auto; fill:black; stroke-dasharray:none; font-weight:normal; stroke-width:1; font-family:&apos;Dialog&apos;; font-style:normal; stroke-linejoin:miter; font-size:12; stroke-dashoffset:0; image-rendering:auto;" xmlns="http://www.w3.org/2000/svg" width="616" xmlns:xlink="http://www.w3.org/1999/xlink" height="738">
  <!--Generated by the Batik Graphics2D SVG Generator-->
  <defs id="genericDefs" />
  <g>
    <defs id="defs1">
      <clipPath clipPathUnits="userSpaceOnUse" id="clipPath1">
        <path d="M-3 -3 L597 -3 L597 697 L-3 697 L-3 -3 Z" />
      </clipPath>
      <clipPath clipPathUnits="userSpaceOnUse" id="clipPath2">
        <path d="M0 0 L0 682 L7 682 L7 0 Z" />
      </clipPath>
      <clipPath clipPathUnits="userSpaceOnUse" id="clipPath3">
        <path d="M-3 -3 L207 -3 L207 22 L-3 22 L-3 -3 Z" />
      </clipPath>
      <clipPath clipPathUnits="userSpaceOnUse" id="clipPath4">
        <path d="M0 0 L200 0 L200 15 L0 15 L0 0 Z" />
      </clipPath>
      <clipPath clipPathUnits="userSpaceOnUse" id="clipPath5">
        <path d="M-3 -3 L207 -3 L207 682 L-3 682 L-3 -3 Z" />
      </clipPath>
      <clipPath clipPathUnits="userSpaceOnUse" id="clipPath6">
        <path d="M-3 -3 L197 -3 L197 22 L-3 22 L-3 -3 Z" />
      </clipPath>
      <clipPath clipPathUnits="userSpaceOnUse" id="clipPath7">
        <path d="M0 0 L190 0 L190 15 L0 15 L0 0 Z" />
      </clipPath>
      <clipPath clipPathUnits="userSpaceOnUse" id="clipPath8">
        <path d="M-3 -3 L197 -3 L197 682 L-3 682 L-3 -3 Z" />
      </clipPath>
      <clipPath clipPathUnits="userSpaceOnUse" id="clipPath9">
        <path d="M-3 -3 L87 -3 L87 47 L-3 47 L-3 -3 Z" />
      </clipPath>
      <clipPath clipPathUnits="userSpaceOnUse" id="clipPath10">
        <path d="M0 0 L80 0 L80 40 L0 40 L0 0 Z" />
      </clipPath>
      <clipPath clipPathUnits="userSpaceOnUse" id="clipPath11">
        <path d="M-3 -3 L47 -3 L47 27 L-3 27 L-3 -3 Z" />
      </clipPath>
      <clipPath clipPathUnits="userSpaceOnUse" id="clipPath12">
        <path d="M-3 -3 L127 -3 L127 47 L-3 47 L-3 -3 Z" />
      </clipPath>
      <clipPath clipPathUnits="userSpaceOnUse" id="clipPath13">
        <path d="M0 0 L120 0 L120 40 L0 40 L0 0 Z" />
      </clipPath>
      <clipPath clipPathUnits="userSpaceOnUse" id="clipPath14">
        <path d="M-3 -3 L27 -3 L27 47 L-3 47 L-3 -3 Z" />
      </clipPath>
      <clipPath clipPathUnits="userSpaceOnUse" id="clipPath15">
        <path d="M-3 -3 L107 -3 L107 47 L-3 47 L-3 -3 Z" />
      </clipPath>
      <clipPath clipPathUnits="userSpaceOnUse" id="clipPath16">
        <path d="M0 0 L100 0 L100 40 L0 40 L0 0 Z" />
      </clipPath>
      <clipPath clipPathUnits="userSpaceOnUse" id="clipPath17">
        <path d="M-3 -3 L47 -3 L47 47 L-3 47 L-3 -3 Z" />
      </clipPath>
      <clipPath clipPathUnits="userSpaceOnUse" id="clipPath18">
        <path d="M-3 -3 L137 -3 L137 47 L-3 47 L-3 -3 Z" />
      </clipPath>
      <clipPath clipPathUnits="userSpaceOnUse" id="clipPath19">
        <path d="M0 0 L130 0 L130 40 L0 40 L0 0 Z" />
      </clipPath>
      <clipPath clipPathUnits="userSpaceOnUse" id="clipPath20">
        <path d="M-3 -3 L67 -3 L67 47 L-3 47 L-3 -3 Z" />
      </clipPath>
      <clipPath clipPathUnits="userSpaceOnUse" id="clipPath21">
        <path d="M0 0 L60 0 L60 40 L0 40 L0 0 Z" />
      </clipPath>
      <clipPath clipPathUnits="userSpaceOnUse" id="clipPath22">
        <path d="M-3 -3 L27 -3 L27 27 L-3 27 L-3 -3 Z" />
      </clipPath>
      <clipPath clipPathUnits="userSpaceOnUse" id="clipPath23">
        <path d="M-27 -15 L54 -15 L54 30 L-27 30 L-27 -15 Z" />
      </clipPath>
      <clipPath clipPathUnits="userSpaceOnUse" id="clipPath24">
        <path d="M-33 -15 L66 -15 L66 30 L-33 30 L-33 -15 Z" />
      </clipPath>
      <clipPath clipPathUnits="userSpaceOnUse" id="clipPath25">
        <path d="M-190 -675 L380 -675 L380 1350 L-190 1350 L-190 -675 Z" />
      </clipPath>
      <clipPath clipPathUnits="userSpaceOnUse" id="clipPath26">
        <path d="M-200 -675 L400 -675 L400 1350 L-200 1350 L-200 -675 Z" />
      </clipPath>
      <clipPath clipPathUnits="userSpaceOnUse" id="clipPath27">
        <path d="M0 0 L129 0 L129 171 L0 171 L0 0 Z" />
      </clipPath>
      <clipPath clipPathUnits="userSpaceOnUse" id="clipPath28">
        <path d="M0 0 L421 0 L421 129 L0 129 L0 0 Z" />
      </clipPath>
      <clipPath clipPathUnits="userSpaceOnUse" id="clipPath29">
        <path d="M0 0 L129 0 L129 149 L0 149 L0 0 Z" />
      </clipPath>
      <clipPath clipPathUnits="userSpaceOnUse" id="clipPath30">
        <path d="M0 0 L129 0 L129 169 L0 169 L0 0 Z" />
      </clipPath>
      <clipPath clipPathUnits="userSpaceOnUse" id="clipPath31">
        <path d="M0 0 L490 0 L490 200 L0 200 L0 0 Z" />
      </clipPath>
      <clipPath clipPathUnits="userSpaceOnUse" id="clipPath32">
        <path d="M0 0 L512 0 L512 129 L0 129 L0 0 Z" />
      </clipPath>
      <clipPath clipPathUnits="userSpaceOnUse" id="clipPath33">
        <path d="M0 0 L129 0 L129 181 L0 181 L0 0 Z" />
      </clipPath>
      <clipPath clipPathUnits="userSpaceOnUse" id="clipPath34">
        <path d="M0 0 L211 0 L211 129 L0 129 L0 0 Z" />
      </clipPath>
      <clipPath clipPathUnits="userSpaceOnUse" id="clipPath35">
        <path d="M0 0 L129 0 L129 227 L0 227 L0 0 Z" />
      </clipPath>
      <clipPath clipPathUnits="userSpaceOnUse" id="clipPath36">
        <path d="M0 0 L129 0 L129 159 L0 159 L0 0 Z" />
      </clipPath>
      <clipPath clipPathUnits="userSpaceOnUse" id="clipPath37">
        <path d="M0 0 L129 0 L129 217 L0 217 L0 0 Z" />
      </clipPath>
      <clipPath clipPathUnits="userSpaceOnUse" id="clipPath38">
        <path d="M0 0 L312 0 L312 129 L0 129 L0 0 Z" />
      </clipPath>
      <clipPath clipPathUnits="userSpaceOnUse" id="clipPath39">
        <path d="M0 0 L310 0 L310 180 L0 180 L0 0 Z" />
      </clipPath>
      <clipPath clipPathUnits="userSpaceOnUse" id="clipPath40">
        <path d="M-91 -15 L182 -15 L182 30 L-91 30 L-91 -15 Z" />
      </clipPath>
      <clipPath clipPathUnits="userSpaceOnUse" id="clipPath41">
        <path d="M-52 -15 L104 -15 L104 30 L-52 30 L-52 -15 Z" />
      </clipPath>
      <clipPath clipPathUnits="userSpaceOnUse" id="clipPath42">
        <path d="M-95 -15 L190 -15 L190 30 L-95 30 L-95 -15 Z" />
      </clipPath>
    </defs>
    <g style="fill:white; text-rendering:geometricPrecision; stroke:white;">
      <rect x="0" y="0" width="616" style="stroke:none;" height="738" />
      <rect x="38" y="128" transform="translate(-38,-128)" width="615" style="fill:none; stroke:black;" height="737" />
      <text x="45" y="145" transform="translate(-38,-128)" style="fill:black; stroke:none;" xml:space="preserve">act goDrinking</text>
      <line transform="translate(-38,-128)" x1="38" x2="124" y1="152" style="fill:none; stroke:black;" y2="152" />
      <line transform="translate(-38,-128)" x1="130" x2="130" y1="128" style="fill:none; stroke:black;" y2="142" />
      <line transform="translate(-38,-128)" x1="130" x2="124" y1="142" style="fill:none; stroke:black;" y2="152" />
    </g>
    <g transform="translate(12,34)" style="text-rendering:geometricPrecision; stroke-width:2; font-size:11; font-family:sans-serif;">
      <rect x="0" y="0" width="200" style="clip-path:url(#clipPath3); fill:none;" height="15" />
    </g>
    <g style="text-rendering:geometricPrecision; font-size:11; font-family:sans-serif;" transform="translate(12,34)">
      <text x="83" y="12" style="clip-path:url(#clipPath4); stroke:none;" xml:space="preserve">:Dwarf</text>
    </g>
    <g transform="translate(12,49)" style="text-rendering:geometricPrecision; stroke-width:2; font-size:11; font-family:sans-serif;">
      <rect x="0" y="0" width="200" style="clip-path:url(#clipPath5); fill:none;" height="675" />
    </g>
    <g transform="translate(212,34)" style="text-rendering:geometricPrecision; stroke-width:2; font-size:11; font-family:sans-serif;">
      <rect x="0" y="0" width="200" style="clip-path:url(#clipPath3); fill:none;" height="15" />
    </g>
    <g style="text-rendering:geometricPrecision; font-size:11; font-family:sans-serif;" transform="translate(212,34)">
      <text x="81" y="12" style="clip-path:url(#clipPath4); stroke:none;" xml:space="preserve">:Tavern</text>
    </g>
    <g transform="translate(212,49)" style="text-rendering:geometricPrecision; stroke-width:2; font-size:11; font-family:sans-serif;">
      <rect x="0" y="0" width="200" style="clip-path:url(#clipPath5); fill:none;" height="675" />
    </g>
    <g transform="translate(412,34)" style="text-rendering:geometricPrecision; stroke-width:2; font-size:11; font-family:sans-serif;">
      <rect x="0" y="0" width="190" style="clip-path:url(#clipPath6); fill:none;" height="15" />
    </g>
    <g style="text-rendering:geometricPrecision; font-size:11; font-family:sans-serif;" transform="translate(412,34)">
      <text x="68" y="12" style="clip-path:url(#clipPath7); stroke:none;" xml:space="preserve">:Pathfinder</text>
    </g>
    <g transform="translate(412,49)" style="text-rendering:geometricPrecision; stroke-width:2; font-size:11; font-family:sans-serif;">
      <rect x="0" y="0" width="190" style="clip-path:url(#clipPath8); fill:none;" height="675" />
    </g>
    <g transform="translate(472,184)" style="font-size:11; fill:rgb(122,207,245); text-rendering:geometricPrecision; font-family:sans-serif; stroke:rgb(122,207,245);">
      <rect x="0" y="0" width="80" style="clip-path:url(#clipPath9); stroke:none;" height="40" />
    </g>
    <g transform="translate(472,184)" style="font-size:11; stroke-linecap:butt; text-rendering:geometricPrecision; font-family:sans-serif; stroke-linejoin:round; stroke-miterlimit:0;">
      <rect x="0" y="0" width="80" style="clip-path:url(#clipPath9); fill:none;" height="40" />
    </g>
    <g style="text-rendering:geometricPrecision; font-size:11; font-family:sans-serif;" transform="translate(472,184)">
      <text x="10" y="24" style="clip-path:url(#clipPath10); stroke:none;" xml:space="preserve">pah : Node[]</text>
    </g>
    <g transform="translate(272,484)" style="font-size:11; fill:rgb(122,207,245); text-rendering:geometricPrecision; font-family:sans-serif; stroke:rgb(122,207,245);">
      <rect x="0" y="0" width="80" style="clip-path:url(#clipPath9); stroke:none;" height="40" />
    </g>
    <g transform="translate(272,484)" style="font-size:11; stroke-linecap:butt; text-rendering:geometricPrecision; font-family:sans-serif; stroke-linejoin:round; stroke-miterlimit:0;">
      <rect x="0" y="0" width="80" style="clip-path:url(#clipPath9); fill:none;" height="40" />
    </g>
    <g style="text-rendering:geometricPrecision; font-size:11; font-family:sans-serif;" transform="translate(272,484)">
      <text x="8" y="24" style="clip-path:url(#clipPath10); stroke:none;" xml:space="preserve">path : Node[]</text>
    </g>
    <g style="text-rendering:geometricPrecision; font-size:11; font-family:sans-serif;" transform="translate(82,64)">
      <circle style="clip-path:url(#clipPath11); stroke:none;" r="10" cx="20" cy="10" />
    </g>
    <g transform="translate(42,124)" style="font-size:11; fill:rgb(122,207,245); text-rendering:geometricPrecision; font-family:sans-serif; stroke:rgb(122,207,245);">
      <rect x="1" y="1" width="118" style="clip-path:url(#clipPath12); stroke:none;" rx="15" ry="15" height="38" />
    </g>
    <g transform="translate(42,124)" style="font-size:11; stroke-linecap:butt; text-rendering:geometricPrecision; font-family:sans-serif; stroke-linejoin:round; stroke-miterlimit:0;">
      <rect x="1" y="1" width="118" style="clip-path:url(#clipPath12); fill:none;" rx="15" ry="15" height="38" />
    </g>
    <g style="text-rendering:geometricPrecision; font-size:11; font-family:sans-serif;" transform="translate(42,124)">
      <text x="5" y="24" style="clip-path:url(#clipPath13); stroke:none;" xml:space="preserve">demander son chemin</text>
    </g>
    <g transform="translate(452,124)" style="font-size:11; fill:rgb(122,207,245); text-rendering:geometricPrecision; font-family:sans-serif; stroke:rgb(122,207,245);">
      <rect x="1" y="1" width="118" style="clip-path:url(#clipPath12); stroke:none;" rx="15" ry="15" height="38" />
    </g>
    <g transform="translate(452,124)" style="font-size:11; stroke-linecap:butt; text-rendering:geometricPrecision; font-family:sans-serif; stroke-linejoin:round; stroke-miterlimit:0;">
      <rect x="1" y="1" width="118" style="clip-path:url(#clipPath12); fill:none;" rx="15" ry="15" height="38" />
    </g>
    <g style="text-rendering:geometricPrecision; font-size:11; font-family:sans-serif;" transform="translate(452,124)">
      <text x="10" y="17" style="clip-path:url(#clipPath13); stroke:none;" xml:space="preserve">trouver la taverne la</text>
      <text x="31" y="32" style="clip-path:url(#clipPath13); stroke:none;" xml:space="preserve">plus proche</text>
    </g>
    <g transform="translate(502,254)" style="font-size:11; fill:rgb(122,207,245); text-rendering:geometricPrecision; font-family:sans-serif; stroke:rgb(122,207,245);">
      <polygon style="clip-path:url(#clipPath14); stroke:none;" points=" 10 7 17 20 10 32 3 20" />
    </g>
    <g transform="translate(502,254)" style="font-size:11; stroke-linecap:butt; text-rendering:geometricPrecision; font-family:sans-serif; stroke-linejoin:round; stroke-miterlimit:0;">
      <polygon style="fill:none; clip-path:url(#clipPath14);" points=" 10 7 17 20 10 32 3 20" />
    </g>
    <g transform="translate(52,334)" style="font-size:11; fill:rgb(122,207,245); text-rendering:geometricPrecision; font-family:sans-serif; stroke:rgb(122,207,245);">
      <rect x="1" y="1" width="98" style="clip-path:url(#clipPath15); stroke:none;" rx="15" ry="15" height="38" />
    </g>
    <g transform="translate(52,334)" style="font-size:11; stroke-linecap:butt; text-rendering:geometricPrecision; font-family:sans-serif; stroke-linejoin:round; stroke-miterlimit:0;">
      <rect x="1" y="1" width="98" style="clip-path:url(#clipPath15); fill:none;" rx="15" ry="15" height="38" />
    </g>
    <g style="text-rendering:geometricPrecision; font-size:11; font-family:sans-serif;" transform="translate(52,334)">
      <text x="9" y="24" style="clip-path:url(#clipPath16); stroke:none;" xml:space="preserve">prendre sa bière</text>
    </g>
    <g transform="translate(82,254)" style="font-size:11; fill:rgb(122,207,245); text-rendering:geometricPrecision; font-family:sans-serif; stroke:rgb(122,207,245);">
      <path d="M8 8 L32 8 L8 32 L32 32 Z" style="clip-path:url(#clipPath17); stroke:none;" />
    </g>
    <g transform="translate(82,254)" style="font-size:11; stroke-linecap:butt; text-rendering:geometricPrecision; font-family:sans-serif; stroke-linejoin:round; stroke-miterlimit:0;">
      <path d="M8 8 L32 8 L8 32 L32 32 Z" style="fill:none; clip-path:url(#clipPath17);" />
    </g>
    <g transform="translate(42,424)" style="font-size:11; fill:rgb(122,207,245); text-rendering:geometricPrecision; font-family:sans-serif; stroke:rgb(122,207,245);">
      <rect x="1" y="1" width="128" style="clip-path:url(#clipPath18); stroke:none;" rx="15" ry="15" height="38" />
    </g>
    <g transform="translate(42,424)" style="font-size:11; stroke-linecap:butt; text-rendering:geometricPrecision; font-family:sans-serif; stroke-linejoin:round; stroke-miterlimit:0;">
      <rect x="1" y="1" width="128" style="clip-path:url(#clipPath18); fill:none;" rx="15" ry="15" height="38" />
    </g>
    <g style="text-rendering:geometricPrecision; font-size:11; font-family:sans-serif;" transform="translate(42,424)">
      <text x="18" y="24" style="clip-path:url(#clipPath19); stroke:none;" xml:space="preserve">chercher une table</text>
    </g>
    <g transform="translate(252,424)" style="font-size:11; fill:rgb(122,207,245); text-rendering:geometricPrecision; font-family:sans-serif; stroke:rgb(122,207,245);">
      <rect x="1" y="1" width="118" style="clip-path:url(#clipPath12); stroke:none;" rx="15" ry="15" height="38" />
    </g>
    <g transform="translate(252,424)" style="font-size:11; stroke-linecap:butt; text-rendering:geometricPrecision; font-family:sans-serif; stroke-linejoin:round; stroke-miterlimit:0;">
      <rect x="1" y="1" width="118" style="clip-path:url(#clipPath12); fill:none;" rx="15" ry="15" height="38" />
    </g>
    <g style="text-rendering:geometricPrecision; font-size:11; font-family:sans-serif;" transform="translate(252,424)">
      <text x="6" y="24" style="clip-path:url(#clipPath13); stroke:none;" xml:space="preserve">trouver une table libre</text>
    </g>
    <g transform="translate(302,544)" style="font-size:11; fill:rgb(122,207,245); text-rendering:geometricPrecision; font-family:sans-serif; stroke:rgb(122,207,245);">
      <polygon style="clip-path:url(#clipPath14); stroke:none;" points=" 10 7 17 20 10 32 3 20" />
    </g>
    <g transform="translate(302,544)" style="font-size:11; stroke-linecap:butt; text-rendering:geometricPrecision; font-family:sans-serif; stroke-linejoin:round; stroke-miterlimit:0;">
      <polygon style="fill:none; clip-path:url(#clipPath14);" points=" 10 7 17 20 10 32 3 20" />
    </g>
    <g transform="translate(82,544)" style="font-size:11; fill:rgb(122,207,245); text-rendering:geometricPrecision; font-family:sans-serif; stroke:rgb(122,207,245);">
      <path d="M8 8 L32 8 L8 32 L32 32 Z" style="clip-path:url(#clipPath17); stroke:none;" />
    </g>
    <g transform="translate(82,544)" style="font-size:11; stroke-linecap:butt; text-rendering:geometricPrecision; font-family:sans-serif; stroke-linejoin:round; stroke-miterlimit:0;">
      <path d="M8 8 L32 8 L8 32 L32 32 Z" style="fill:none; clip-path:url(#clipPath17);" />
    </g>
    <g transform="translate(72,604)" style="font-size:11; fill:rgb(122,207,245); text-rendering:geometricPrecision; font-family:sans-serif; stroke:rgb(122,207,245);">
      <rect x="1" y="1" width="58" style="clip-path:url(#clipPath20); stroke:none;" rx="15" ry="15" height="38" />
    </g>
    <g transform="translate(72,604)" style="font-size:11; stroke-linecap:butt; text-rendering:geometricPrecision; font-family:sans-serif; stroke-linejoin:round; stroke-miterlimit:0;">
      <rect x="1" y="1" width="58" style="clip-path:url(#clipPath20); fill:none;" rx="15" ry="15" height="38" />
    </g>
    <g style="text-rendering:geometricPrecision; font-size:11; font-family:sans-serif;" transform="translate(72,604)">
      <text x="9" y="17" style="clip-path:url(#clipPath21); stroke:none;" xml:space="preserve">boire sa</text>
      <text x="17" y="32" style="clip-path:url(#clipPath21); stroke:none;" xml:space="preserve">bière</text>
    </g>
    <g style="text-rendering:geometricPrecision; font-size:11; font-family:sans-serif;" transform="translate(92,684)">
      <circle style="clip-path:url(#clipPath22); stroke:none;" r="6.6667" cx="10" cy="10" />
      <circle style="stroke-linecap:butt; clip-path:url(#clipPath22); fill:none; stroke-linejoin:round; stroke-miterlimit:0;" r="10" cx="10" cy="10" />
    </g>
    <g style="text-rendering:geometricPrecision; font-size:11; font-family:sans-serif;" transform="translate(88,584)">
      <text x="6" y="12" style="clip-path:url(#clipPath23); stroke:none;" xml:space="preserve">3s</text>
    </g>
    <g style="text-rendering:geometricPrecision; font-size:11; font-family:sans-serif;" transform="translate(85,294)">
      <text x="6" y="12" style="clip-path:url(#clipPath24); stroke:none;" xml:space="preserve">10s</text>
    </g>
    <g transform="translate(39,20)" style="font-size:11; stroke-linecap:butt; text-rendering:geometricPrecision; font-family:sans-serif; stroke-linejoin:round;">
      <line x1="63" x2="63" y1="62" style="clip-path:url(#clipPath27); fill:none;" y2="105" />
      <line x1="63" x2="69" y1="105" style="clip-path:url(#clipPath27); fill:none;" y2="93" />
      <line x1="63" x2="57" y1="105" style="clip-path:url(#clipPath27); fill:none;" y2="93" />
    </g>
    <g transform="translate(98,81)" style="font-size:11; stroke-linecap:butt; text-rendering:geometricPrecision; font-family:sans-serif; stroke-linejoin:round;">
      <line x1="62" x2="355" y1="63" style="clip-path:url(#clipPath28); fill:none;" y2="63" />
      <line x1="355" x2="343" y1="63" style="clip-path:url(#clipPath28); fill:none;" y2="57" />
      <line x1="355" x2="343" y1="63" style="clip-path:url(#clipPath28); fill:none;" y2="69" />
    </g>
    <g transform="translate(449,100)" style="font-size:11; stroke-linecap:butt; text-rendering:geometricPrecision; font-family:sans-serif; stroke-linejoin:round;">
      <line x1="63" x2="63" y1="62" style="clip-path:url(#clipPath29); fill:none;" y2="82" />
      <line x1="63" x2="69" y1="82" style="clip-path:url(#clipPath29); fill:none;" y2="70" />
      <line x1="63" x2="57" y1="82" style="clip-path:url(#clipPath29); fill:none;" y2="70" />
    </g>
    <g transform="translate(449,161)" style="font-size:11; stroke-linecap:butt; text-rendering:geometricPrecision; font-family:sans-serif; stroke-linejoin:round;">
      <line x1="63" x2="63" y1="63" style="clip-path:url(#clipPath30); fill:none;" y2="103" />
      <line x1="63" x2="69" y1="103" style="clip-path:url(#clipPath30); fill:none;" y2="91" />
      <line x1="63" x2="57" y1="103" style="clip-path:url(#clipPath30); fill:none;" y2="91" />
    </g>
    <g transform="translate(88,220)" style="font-size:11; stroke-linecap:butt; text-rendering:geometricPrecision; font-family:sans-serif; stroke-linejoin:round;">
      <line x1="424" x2="424" y1="62" style="clip-path:url(#clipPath31); fill:none;" y2="134" />
      <line x1="424" x2="62" y1="134" style="clip-path:url(#clipPath31); fill:none;" y2="134" />
      <line x1="62" x2="74" y1="134" style="clip-path:url(#clipPath31); fill:none;" y2="140" />
      <line x1="62" x2="74" y1="134" style="clip-path:url(#clipPath31); fill:none;" y2="128" />
    </g>
    <g transform="translate(59,211)" style="font-size:11; stroke-linecap:butt; text-rendering:geometricPrecision; font-family:sans-serif; stroke-linejoin:round;">
      <line x1="446" x2="63" y1="63" style="clip-path:url(#clipPath32); fill:none;" y2="63" />
      <line x1="63" x2="75" y1="63" style="clip-path:url(#clipPath32); fill:none;" y2="69" />
      <line x1="63" x2="75" y1="63" style="clip-path:url(#clipPath32); fill:none;" y2="57" />
    </g>
    <g transform="translate(39,310)" style="font-size:11; stroke-linecap:butt; text-rendering:geometricPrecision; font-family:sans-serif; stroke-linejoin:round;">
      <line x1="63" x2="63" y1="62" style="clip-path:url(#clipPath33); fill:none;" y2="115" />
      <line x1="63" x2="69" y1="115" style="clip-path:url(#clipPath33); fill:none;" y2="103" />
      <line x1="63" x2="57" y1="115" style="clip-path:url(#clipPath33); fill:none;" y2="103" />
    </g>
    <g transform="translate(108,381)" style="font-size:11; stroke-linecap:butt; text-rendering:geometricPrecision; font-family:sans-serif; stroke-linejoin:round;">
      <line x1="62" x2="145" y1="63" style="clip-path:url(#clipPath34); fill:none;" y2="63" />
      <line x1="145" x2="133" y1="63" style="clip-path:url(#clipPath34); fill:none;" y2="57" />
      <line x1="145" x2="133" y1="63" style="clip-path:url(#clipPath34); fill:none;" y2="69" />
    </g>
    <g transform="translate(249,400)" style="font-size:11; stroke-linecap:butt; text-rendering:geometricPrecision; font-family:sans-serif; stroke-linejoin:round;">
      <line x1="63" x2="63" y1="62" style="clip-path:url(#clipPath29); fill:none;" y2="82" />
      <line x1="63" x2="69" y1="82" style="clip-path:url(#clipPath29); fill:none;" y2="70" />
      <line x1="63" x2="57" y1="82" style="clip-path:url(#clipPath29); fill:none;" y2="70" />
    </g>
    <g transform="translate(39,100)" style="font-size:11; stroke-linecap:butt; text-rendering:geometricPrecision; font-family:sans-serif; stroke-linejoin:round;">
      <line x1="63" x2="63" y1="161" style="clip-path:url(#clipPath35); fill:none;" y2="62" />
      <line x1="63" x2="57" y1="62" style="clip-path:url(#clipPath35); fill:none;" y2="74" />
      <line x1="63" x2="69" y1="62" style="clip-path:url(#clipPath35); fill:none;" y2="74" />
    </g>
    <g transform="translate(249,461)" style="font-size:11; stroke-linecap:butt; text-rendering:geometricPrecision; font-family:sans-serif; stroke-linejoin:round;">
      <line x1="63" x2="63" y1="63" style="clip-path:url(#clipPath36); fill:none;" y2="93" />
      <line x1="63" x2="69" y1="93" style="clip-path:url(#clipPath36); fill:none;" y2="81" />
      <line x1="63" x2="57" y1="93" style="clip-path:url(#clipPath36); fill:none;" y2="81" />
    </g>
    <g transform="translate(39,400)" style="font-size:11; stroke-linecap:butt; text-rendering:geometricPrecision; font-family:sans-serif; stroke-linejoin:round;">
      <line x1="63" x2="63" y1="151" style="clip-path:url(#clipPath37); fill:none;" y2="62" />
      <line x1="63" x2="57" y1="62" style="clip-path:url(#clipPath37); fill:none;" y2="74" />
      <line x1="63" x2="69" y1="62" style="clip-path:url(#clipPath37); fill:none;" y2="74" />
    </g>
    <g transform="translate(59,501)" style="font-size:11; stroke-linecap:butt; text-rendering:geometricPrecision; font-family:sans-serif; stroke-linejoin:round;">
      <line x1="246" x2="63" y1="63" style="clip-path:url(#clipPath38); fill:none;" y2="63" />
      <line x1="63" x2="75" y1="63" style="clip-path:url(#clipPath38); fill:none;" y2="69" />
      <line x1="63" x2="75" y1="63" style="clip-path:url(#clipPath38); fill:none;" y2="57" />
    </g>
    <g transform="translate(68,510)" style="font-size:11; stroke-linecap:butt; text-rendering:geometricPrecision; font-family:sans-serif; stroke-linejoin:round;">
      <line x1="244" x2="244" y1="62" style="clip-path:url(#clipPath39); fill:none;" y2="114" />
      <line x1="244" x2="62" y1="114" style="clip-path:url(#clipPath39); fill:none;" y2="114" />
      <line x1="62" x2="74" y1="114" style="clip-path:url(#clipPath39); fill:none;" y2="120" />
      <line x1="62" x2="74" y1="114" style="clip-path:url(#clipPath39); fill:none;" y2="108" />
    </g>
    <g transform="translate(39,580)" style="font-size:11; stroke-linecap:butt; text-rendering:geometricPrecision; font-family:sans-serif; stroke-linejoin:round;">
      <line x1="63" x2="63" y1="62" style="clip-path:url(#clipPath27); fill:none;" y2="105" />
      <line x1="63" x2="69" y1="105" style="clip-path:url(#clipPath27); fill:none;" y2="93" />
      <line x1="63" x2="57" y1="105" style="clip-path:url(#clipPath27); fill:none;" y2="93" />
    </g>
    <g style="text-rendering:geometricPrecision; font-size:11; font-family:sans-serif;" transform="translate(312,582)">
      <text x="10" y="12" style="clip-path:url(#clipPath40); stroke:none;" xml:space="preserve">[chemin valide]</text>
    </g>
    <g style="text-rendering:geometricPrecision; font-size:11; font-family:sans-serif;" transform="translate(243,544)">
      <text x="10" y="12" style="clip-path:url(#clipPath41); stroke:none;" xml:space="preserve">[sinon]</text>
    </g>
    <g style="text-rendering:geometricPrecision; font-size:11; font-family:sans-serif;" transform="translate(448,254)">
      <text x="10" y="12" style="clip-path:url(#clipPath41); stroke:none;" xml:space="preserve">[sinon]</text>
    </g>
    <g style="text-rendering:geometricPrecision; font-size:11; font-family:sans-serif;" transform="translate(503,277)">
      <text x="10" y="12" style="clip-path:url(#clipPath40); stroke:none;" xml:space="preserve">[chemin valide]</text>
    </g>
    <g style="text-rendering:geometricPrecision; font-size:11; font-family:sans-serif;" transform="translate(112,94)">
      <text x="10" y="12" style="clip-path:url(#clipPath42); stroke:none;" xml:space="preserve">[taverne active]</text>
    </g>
  </g>
</svg>
