<?xml version="1.0" encoding="UTF-8"?>

<!DOCTYPE svg PUBLIC '-//W3C//DTD SVG 1.0//EN' 'http://www.w3.org/TR/2001/REC-SVG-20010904/DTD/svg10.dtd'>
<svg style="fill-opacity:1; color-rendering:auto; color-interpolation:auto; stroke:black; text-rendering:auto; stroke-linecap:square; stroke-miterlimit:10; stroke-opacity:1; shape-rendering:auto; fill:black; stroke-dasharray:none; font-weight:normal; stroke-width:1; font-family:&apos;Dialog&apos;; font-style:normal; stroke-linejoin:miter; font-size:12; stroke-dashoffset:0; image-rendering:auto;" xmlns="http://www.w3.org/2000/svg" width="606" xmlns:xlink="http://www.w3.org/1999/xlink" height="468">
  <!--Generated by the Batik Graphics2D SVG Generator-->
  <defs id="genericDefs" />
  <g>
    <defs id="defs1">
      <clipPath clipPathUnits="userSpaceOnUse" id="clipPath1">
        <path d="M-3 -3 L587 -3 L587 427 L-3 427 L-3 -3 Z" />
      </clipPath>
      <clipPath clipPathUnits="userSpaceOnUse" id="clipPath2">
        <path d="M0 0 L0 412 L7 412 L7 0 Z" />
      </clipPath>
      <clipPath clipPathUnits="userSpaceOnUse" id="clipPath3">
        <path d="M-3 -3 L587 -3 L587 22 L-3 22 L-3 -3 Z" />
      </clipPath>
      <clipPath clipPathUnits="userSpaceOnUse" id="clipPath4">
        <path d="M0 0 L580 0 L580 15 L0 15 L0 0 Z" />
      </clipPath>
      <clipPath clipPathUnits="userSpaceOnUse" id="clipPath5">
        <path d="M-3 -3 L587 -3 L587 412 L-3 412 L-3 -3 Z" />
      </clipPath>
      <clipPath clipPathUnits="userSpaceOnUse" id="clipPath6">
        <path d="M-3 -3 L47 -3 L47 27 L-3 27 L-3 -3 Z" />
      </clipPath>
      <clipPath clipPathUnits="userSpaceOnUse" id="clipPath7">
        <path d="M-3 -3 L27 -3 L27 47 L-3 47 L-3 -3 Z" />
      </clipPath>
      <clipPath clipPathUnits="userSpaceOnUse" id="clipPath8">
        <path d="M-3 -3 L117 -3 L117 47 L-3 47 L-3 -3 Z" />
      </clipPath>
      <clipPath clipPathUnits="userSpaceOnUse" id="clipPath9">
        <path d="M0 0 L110 0 L110 40 L0 40 L0 0 Z" />
      </clipPath>
      <clipPath clipPathUnits="userSpaceOnUse" id="clipPath10">
        <path d="M-3 -3 L107 -3 L107 47 L-3 47 L-3 -3 Z" />
      </clipPath>
      <clipPath clipPathUnits="userSpaceOnUse" id="clipPath11">
        <path d="M0 0 L0 21 L74 21 L74 0 Z" />
      </clipPath>
      <clipPath clipPathUnits="userSpaceOnUse" id="clipPath12">
        <path d="M0 0 L0 21 L79 21 L79 0 Z" />
      </clipPath>
      <clipPath clipPathUnits="userSpaceOnUse" id="clipPath13">
        <path d="M-3 -3 L137 -3 L137 47 L-3 47 L-3 -3 Z" />
      </clipPath>
      <clipPath clipPathUnits="userSpaceOnUse" id="clipPath14">
        <path d="M0 0 L0 40 L130 40 L130 0 Z" />
      </clipPath>
      <clipPath clipPathUnits="userSpaceOnUse" id="clipPath15">
        <path d="M-580 -405 L1160 -405 L1160 810 L-580 810 L-580 -405 Z" />
      </clipPath>
      <clipPath clipPathUnits="userSpaceOnUse" id="clipPath16">
        <path d="M0 0 L104 0 L104 222 L0 222 L0 0 Z" />
      </clipPath>
      <clipPath clipPathUnits="userSpaceOnUse" id="clipPath17">
        <path d="M0 0 L178 0 L178 104 L0 104 L0 0 Z" />
      </clipPath>
      <clipPath clipPathUnits="userSpaceOnUse" id="clipPath18">
        <path d="M0 0 L330 0 L330 209 L0 209 L0 0 Z" />
      </clipPath>
      <clipPath clipPathUnits="userSpaceOnUse" id="clipPath19">
        <path d="M0 0 L338 0 L338 104 L0 104 L0 0 Z" />
      </clipPath>
      <clipPath clipPathUnits="userSpaceOnUse" id="clipPath20">
        <path d="M0 0 L341 0 L341 219 L0 219 L0 0 Z" />
      </clipPath>
      <clipPath clipPathUnits="userSpaceOnUse" id="clipPath21">
        <path d="M-149 -15 L298 -15 L298 30 L-149 30 L-149 -15 Z" />
      </clipPath>
      <clipPath clipPathUnits="userSpaceOnUse" id="clipPath22">
        <path d="M-138 -15 L276 -15 L276 30 L-138 30 L-138 -15 Z" />
      </clipPath>
      <clipPath clipPathUnits="userSpaceOnUse" id="clipPath23">
        <path d="M-146 -15 L292 -15 L292 30 L-146 30 L-146 -15 Z" />
      </clipPath>
    </defs>
    <g style="fill:white; text-rendering:geometricPrecision; stroke:white;">
      <rect x="0" y="0" width="606" style="stroke:none;" height="468" />
      <rect x="148" y="58" transform="translate(-148,-58)" width="605" style="fill:none; stroke:black;" height="467" />
      <text x="155" y="75" transform="translate(-148,-58)" style="fill:black; stroke:none;" xml:space="preserve">act goWorking</text>
      <line transform="translate(-148,-58)" x1="148" x2="233" y1="82" style="fill:none; stroke:black;" y2="82" />
      <line transform="translate(-148,-58)" x1="239" x2="239" y1="58" style="fill:none; stroke:black;" y2="72" />
      <line transform="translate(-148,-58)" x1="239" x2="233" y1="72" style="fill:none; stroke:black;" y2="82" />
    </g>
    <g transform="translate(12,34)" style="text-rendering:geometricPrecision; stroke-width:2; font-size:11; font-family:sans-serif;">
      <rect x="0" y="0" width="580" style="clip-path:url(#clipPath3); fill:none;" height="15" />
    </g>
    <g style="text-rendering:geometricPrecision; font-size:11; font-family:sans-serif;" transform="translate(12,34)">
      <text x="273" y="12" style="clip-path:url(#clipPath4); stroke:none;" xml:space="preserve">:Dwarf</text>
    </g>
    <g transform="translate(12,49)" style="text-rendering:geometricPrecision; stroke-width:2; font-size:11; font-family:sans-serif;">
      <rect x="0" y="0" width="580" style="clip-path:url(#clipPath5); fill:none;" height="405" />
    </g>
    <g style="text-rendering:geometricPrecision; font-size:11; font-family:sans-serif;" transform="translate(32,234)">
      <circle style="clip-path:url(#clipPath6); stroke:none;" r="10" cx="20" cy="10" />
    </g>
    <g transform="translate(132,224)" style="font-size:11; fill:rgb(122,207,245); text-rendering:geometricPrecision; font-family:sans-serif; stroke:rgb(122,207,245);">
      <polygon style="clip-path:url(#clipPath7); stroke:none;" points=" 10 7 17 20 10 32 3 20" />
    </g>
    <g transform="translate(132,224)" style="font-size:11; stroke-linecap:butt; text-rendering:geometricPrecision; font-family:sans-serif; stroke-linejoin:round; stroke-miterlimit:0;">
      <polygon style="fill:none; clip-path:url(#clipPath7);" points=" 10 7 17 20 10 32 3 20" />
    </g>
    <g transform="translate(372,114)" style="font-size:11; fill:rgb(122,207,245); text-rendering:geometricPrecision; font-family:sans-serif; stroke:rgb(122,207,245);">
      <rect x="1" y="1" width="108" style="clip-path:url(#clipPath8); stroke:none;" rx="15" ry="15" height="38" />
    </g>
    <g transform="translate(372,114)" style="font-size:11; stroke-linecap:butt; text-rendering:geometricPrecision; font-family:sans-serif; stroke-linejoin:round; stroke-miterlimit:0;">
      <rect x="1" y="1" width="108" style="clip-path:url(#clipPath8); fill:none;" rx="15" ry="15" height="38" />
    </g>
    <g style="text-rendering:geometricPrecision; font-size:11; font-family:sans-serif;" transform="translate(372,114)">
      <text x="24" y="24" style="clip-path:url(#clipPath9); stroke:none;" xml:space="preserve">ref : Crafting</text>
    </g>
    <g transform="translate(382,224)" style="font-size:11; fill:rgb(122,207,245); text-rendering:geometricPrecision; font-family:sans-serif; stroke:rgb(122,207,245); font-weight:bold;">
      <rect x="1" y="1" width="98" style="clip-path:url(#clipPath10); stroke:none;" rx="15" ry="15" height="38" />
    </g>
    <g transform="translate(382,224)" style="font-size:11; stroke-linecap:butt; text-rendering:geometricPrecision; font-family:sans-serif; stroke-linejoin:round; font-weight:bold; stroke-miterlimit:0;">
      <rect x="1" y="1" width="98" style="clip-path:url(#clipPath10); fill:none;" rx="15" ry="15" height="38" />
    </g>
    <g transform="translate(382,224)" style="text-rendering:geometricPrecision; font-size:11; font-weight:bold; font-family:sans-serif;">
      <text x="10" y="18" style="clip-path:url(#clipPath11); stroke:none;" xml:space="preserve">ref : Mining</text>
    </g>
    <g transform="translate(382,344)" style="font-size:11; fill:rgb(122,207,245); text-rendering:geometricPrecision; font-family:sans-serif; stroke:rgb(122,207,245); font-weight:bold;">
      <rect x="1" y="1" width="98" style="clip-path:url(#clipPath10); stroke:none;" rx="15" ry="15" height="38" />
    </g>
    <g transform="translate(382,344)" style="font-size:11; stroke-linecap:butt; text-rendering:geometricPrecision; font-family:sans-serif; stroke-linejoin:round; font-weight:bold; stroke-miterlimit:0;">
      <rect x="1" y="1" width="98" style="clip-path:url(#clipPath10); fill:none;" rx="15" ry="15" height="38" />
    </g>
    <g transform="translate(382,344)" style="text-rendering:geometricPrecision; font-size:11; font-weight:bold; font-family:sans-serif;">
      <text x="10" y="18" style="clip-path:url(#clipPath12); stroke:none;" xml:space="preserve">ref : Serving</text>
    </g>
    <g transform="translate(82,74)" style="font-size:11; fill:rgb(122,207,245); text-rendering:geometricPrecision; font-family:sans-serif; stroke:rgb(122,207,245);">
      <polygon style="clip-path:url(#clipPath13); stroke:none;" points=" 0 0 114 0 129 15 114 15 114 0 129 15 129 39 0 39" />
    </g>
    <g transform="translate(82,74)" style="font-size:11; stroke-linecap:butt; text-rendering:geometricPrecision; font-family:sans-serif; stroke-linejoin:round; stroke-miterlimit:0;">
      <polygon style="fill:none; clip-path:url(#clipPath13);" points=" 0 0 114 0 129 15 114 15 114 0 129 15 129 39 0 39" />
    </g>
    <g style="text-rendering:geometricPrecision; font-size:11; font-family:&apos;Tahoma&apos;;" transform="translate(82,74)">
      <path d="M3.6562 11.2204 L3.6562 10.2361 L9.3438 7.8298 L9.3438 8.8767 L4.8281 10.7204 L9.3438 12.5954 L9.3438 13.6423 L3.6562 11.2204 ZM10.6562 11.2204 L10.6562 10.2361 L16.3438 7.8298 L16.3438 8.8767 L11.8281 10.7204 L16.3438 12.5954 L16.3438 13.6423 L10.6562 11.2204 ZM17.9219 14.9704 L17.9219 6.3767 L20.8906 6.3767 Q21.8906 6.3767 22.4219 6.5017 Q23.1562 6.6736 23.6719 7.1111 Q24.3594 7.6892 24.6953 8.5876 Q25.0312 9.4861 25.0312 10.6267 Q25.0312 11.6111 24.8047 12.3611 Q24.5781 13.1111 24.2188 13.6111 Q23.8594 14.1111 23.4297 14.3923 Q23 14.6736 22.4062 14.822 Q21.8125 14.9704 21.0312 14.9704 L17.9219 14.9704 ZM19.0625 13.9548 L20.8906 13.9548 Q21.75 13.9548 22.2344 13.7986 Q22.7188 13.6423 23 13.3454 Q23.4062 12.9548 23.6328 12.2673 Q23.8594 11.5798 23.8594 10.6111 Q23.8594 9.2673 23.4141 8.5407 Q22.9688 7.8142 22.3438 7.5642 Q21.875 7.3923 20.875 7.3923 L19.0625 7.3923 L19.0625 13.9548 ZM31.0469 12.9704 L32.1406 13.0954 Q31.8906 14.0486 31.1875 14.5798 Q30.4844 15.1111 29.4062 15.1111 Q28.0469 15.1111 27.2422 14.2673 Q26.4375 13.4236 26.4375 11.9079 Q26.4375 10.3454 27.25 9.4782 Q28.0625 8.6111 29.3438 8.6111 Q30.5938 8.6111 31.3828 9.4548 Q32.1719 10.2986 32.1719 11.8454 Q32.1719 11.9392 32.1719 12.1267 L27.5312 12.1267 Q27.5938 13.1579 28.1094 13.697 Q28.625 14.2361 29.4062 14.2361 Q29.9844 14.2361 30.3984 13.9314 Q30.8125 13.6267 31.0469 12.9704 ZM27.5938 11.2673 L31.0625 11.2673 Q31 10.4704 30.6719 10.0798 Q30.1562 9.4704 29.3594 9.4704 Q28.625 9.4704 28.1328 9.9548 Q27.6406 10.4392 27.5938 11.2673 ZM37.8594 12.6892 L38.8906 12.8298 Q38.7188 13.8923 38.0156 14.5017 Q37.3125 15.1111 36.2969 15.1111 Q35.0156 15.1111 34.2422 14.2751 Q33.4688 13.4392 33.4688 11.8767 Q33.4688 10.8767 33.8047 10.1189 Q34.1406 9.3611 34.8203 8.9861 Q35.5 8.6111 36.3125 8.6111 Q37.3125 8.6111 37.9609 9.1189 Q38.6094 9.6267 38.7969 10.5798 L37.7656 10.7361 Q37.625 10.1111 37.25 9.7907 Q36.875 9.4704 36.3438 9.4704 Q35.5469 9.4704 35.0469 10.0407 Q34.5469 10.6111 34.5469 11.8454 Q34.5469 13.1111 35.0312 13.6736 Q35.5156 14.2361 36.2812 14.2361 Q36.9062 14.2361 37.3203 13.8611 Q37.7344 13.4861 37.8594 12.6892 ZM39.7969 7.5954 L39.7969 6.3767 L40.8594 6.3767 L40.8594 7.5954 L39.7969 7.5954 ZM39.7969 14.9704 L39.7969 8.7517 L40.8594 8.7517 L40.8594 14.9704 L39.7969 14.9704 ZM42.375 13.1111 L43.4062 12.9548 Q43.5 13.5798 43.8984 13.9079 Q44.2969 14.2361 45.0312 14.2361 Q45.75 14.2361 46.1016 13.947 Q46.4531 13.6579 46.4531 13.2517 Q46.4531 12.8923 46.1406 12.6892 Q45.9219 12.5486 45.0625 12.3298 Q43.9062 12.0329 43.4609 11.822 Q43.0156 11.6111 42.7812 11.2361 Q42.5469 10.8611 42.5469 10.3923 Q42.5469 9.9861 42.7344 9.6267 Q42.9219 9.2673 43.25 9.0329 Q43.5 8.8611 43.9219 8.7361 Q44.3438 8.6111 44.8438 8.6111 Q45.5625 8.6111 46.1172 8.822 Q46.6719 9.0329 46.9375 9.3923 Q47.2031 9.7517 47.2969 10.3454 L46.2656 10.4861 Q46.2031 10.0173 45.8672 9.7439 Q45.5312 9.4704 44.9062 9.4704 Q44.1875 9.4704 43.875 9.7126 Q43.5625 9.9548 43.5625 10.2829 Q43.5625 10.4861 43.6875 10.6423 Q43.8281 10.8142 44.0938 10.9236 Q44.25 10.9861 45.0312 11.1892 Q46.1562 11.5017 46.5938 11.6892 Q47.0312 11.8767 47.2812 12.2361 Q47.5312 12.5954 47.5312 13.1423 Q47.5312 13.6736 47.2266 14.1345 Q46.9219 14.5954 46.3438 14.8532 Q45.7656 15.1111 45.0312 15.1111 Q43.8125 15.1111 43.1797 14.6032 Q42.5469 14.0954 42.375 13.1111 ZM49.7969 7.5954 L49.7969 6.3767 L50.8594 6.3767 L50.8594 7.5954 L49.7969 7.5954 ZM49.7969 14.9704 L49.7969 8.7517 L50.8594 8.7517 L50.8594 14.9704 L49.7969 14.9704 ZM52.4062 11.8611 Q52.4062 10.1267 53.3594 9.2986 Q54.1562 8.6111 55.3125 8.6111 Q56.5938 8.6111 57.4141 9.447 Q58.2344 10.2829 58.2344 11.7673 Q58.2344 12.9704 57.875 13.6579 Q57.5156 14.3454 56.8203 14.7282 Q56.125 15.1111 55.3125 15.1111 Q54.0156 15.1111 53.2109 14.2751 Q52.4062 13.4392 52.4062 11.8611 ZM53.4844 11.8611 Q53.4844 13.0486 54.0078 13.6423 Q54.5312 14.2361 55.3125 14.2361 Q56.1094 14.2361 56.625 13.6423 Q57.1406 13.0486 57.1406 11.8298 Q57.1406 10.6736 56.6172 10.0798 Q56.0938 9.4861 55.3125 9.4861 Q54.5312 9.4861 54.0078 10.072 Q53.4844 10.6579 53.4844 11.8611 ZM59.7969 14.9704 L59.7969 8.7517 L60.7344 8.7517 L60.7344 9.6267 Q61.4219 8.6111 62.7188 8.6111 Q63.2812 8.6111 63.7578 8.8142 Q64.2344 9.0173 64.4688 9.3454 Q64.7031 9.6736 64.7969 10.1111 Q64.8438 10.4079 64.8438 11.1423 L64.8438 14.9704 L63.7969 14.9704 L63.7969 11.1892 Q63.7969 10.5329 63.6719 10.2204 Q63.5469 9.9079 63.2344 9.7126 Q62.9219 9.5173 62.5 9.5173 Q61.8281 9.5173 61.3359 9.947 Q60.8438 10.3767 60.8438 11.5642 L60.8438 14.9704 L59.7969 14.9704 ZM67.125 14.9704 L67.125 6.3767 L68.25 6.3767 L68.25 14.9704 L67.125 14.9704 ZM69.7969 14.9704 L69.7969 8.7517 L70.7344 8.7517 L70.7344 9.6267 Q71.4219 8.6111 72.7188 8.6111 Q73.2812 8.6111 73.7578 8.8142 Q74.2344 9.0173 74.4688 9.3454 Q74.7031 9.6736 74.7969 10.1111 Q74.8438 10.4079 74.8438 11.1423 L74.8438 14.9704 L73.7969 14.9704 L73.7969 11.1892 Q73.7969 10.5329 73.6719 10.2204 Q73.5469 9.9079 73.2344 9.7126 Q72.9219 9.5173 72.5 9.5173 Q71.8281 9.5173 71.3359 9.947 Q70.8438 10.3767 70.8438 11.5642 L70.8438 14.9704 L69.7969 14.9704 ZM76.7969 17.3611 L76.7969 8.7517 L77.75 8.7517 L77.75 9.5486 Q78.0938 9.0798 78.5234 8.8454 Q78.9531 8.6111 79.5625 8.6111 Q80.3594 8.6111 80.9688 9.0173 Q81.5781 9.4236 81.8828 10.1736 Q82.1875 10.9236 82.1875 11.8142 Q82.1875 12.7673 81.8516 13.5329 Q81.5156 14.2986 80.8594 14.7048 Q80.2031 15.1111 79.4844 15.1111 Q78.9531 15.1111 78.5312 14.8845 Q78.1094 14.6579 77.8438 14.3298 L77.8438 17.3611 L76.7969 17.3611 ZM77.75 11.8923 Q77.75 13.0954 78.2344 13.6657 Q78.7188 14.2361 79.4062 14.2361 Q80.1094 14.2361 80.6094 13.6423 Q81.1094 13.0486 81.1094 11.7986 Q81.1094 10.6111 80.625 10.0251 Q80.1406 9.4392 79.4531 9.4392 Q78.7812 9.4392 78.2656 10.0642 Q77.75 10.6892 77.75 11.8923 ZM87.875 14.9704 L87.875 14.0486 Q87.1406 15.1111 85.8906 15.1111 Q85.3438 15.1111 84.8672 14.9001 Q84.3906 14.6892 84.1562 14.3689 Q83.9219 14.0486 83.8281 13.5798 Q83.7656 13.2829 83.7656 12.5954 L83.7656 8.7517 L84.8281 8.7517 L84.8281 12.2048 Q84.8281 13.0173 84.8906 13.3142 Q84.9844 13.7204 85.3047 13.9626 Q85.625 14.2048 86.1094 14.2048 Q86.5781 14.2048 86.9922 13.9626 Q87.4062 13.7204 87.5859 13.2986 Q87.7656 12.8767 87.7656 12.0798 L87.7656 8.7517 L88.8125 8.7517 L88.8125 14.9704 L87.875 14.9704 ZM93.0938 14.0329 L93.25 14.9548 Q92.7969 15.0486 92.4531 15.0486 Q91.875 15.0486 91.5625 14.8689 Q91.25 14.6892 91.1172 14.3923 Q90.9844 14.0954 90.9844 13.1423 L90.9844 9.5642 L90.2188 9.5642 L90.2188 8.7517 L90.9844 8.7517 L90.9844 7.2048 L92.0312 6.5798 L92.0312 8.7517 L93.0938 8.7517 L93.0938 9.5642 L92.0312 9.5642 L92.0312 13.2048 Q92.0312 13.6579 92.0859 13.7829 Q92.1406 13.9079 92.2656 13.9861 Q92.3906 14.0642 92.625 14.0642 Q92.8125 14.0642 93.0938 14.0329 ZM99.3438 11.2204 L93.6562 13.6423 L93.6562 12.5954 L98.1562 10.7204 L93.6562 8.8767 L93.6562 7.8298 L99.3438 10.2361 L99.3438 11.2204 ZM106.3438 11.2204 L100.6562 13.6423 L100.6562 12.5954 L105.1562 10.7204 L100.6562 8.8767 L100.6562 7.8298 L106.3438 10.2361 L106.3438 11.2204 Z" style="clip-path:url(#clipPath14); stroke:none;" />
      <path d="M3.9219 28.9704 L3.9219 20.3767 L6.8906 20.3767 Q7.8906 20.3767 8.4219 20.5017 Q9.1562 20.6736 9.6719 21.1111 Q10.3594 21.6892 10.6953 22.5876 Q11.0312 23.4861 11.0312 24.6267 Q11.0312 25.6111 10.8047 26.3611 Q10.5781 27.1111 10.2188 27.6111 Q9.8594 28.1111 9.4297 28.3923 Q9 28.6736 8.4062 28.822 Q7.8125 28.9704 7.0312 28.9704 L3.9219 28.9704 ZM5.0625 27.9548 L6.8906 27.9548 Q7.75 27.9548 8.2344 27.7986 Q8.7188 27.6423 9 27.3454 Q9.4062 26.9548 9.6328 26.2673 Q9.8594 25.5798 9.8594 24.6111 Q9.8594 23.2673 9.4141 22.5407 Q8.9688 21.8142 8.3438 21.5642 Q7.875 21.3923 6.875 21.3923 L5.0625 21.3923 L5.0625 27.9548 ZM13.9375 28.9704 L12.0312 22.7517 L13.125 22.7517 L14.1094 26.3454 L14.4844 27.6736 Q14.5156 27.5798 14.8125 26.3923 L15.7969 22.7517 L16.875 22.7517 L17.8125 26.3611 L18.125 27.5486 L18.4844 26.3454 L19.5469 22.7517 L20.5781 22.7517 L18.625 28.9704 L17.5312 28.9704 L16.5469 25.2361 L16.2969 24.1892 L15.0469 28.9704 L13.9375 28.9704 ZM25.8594 28.2048 Q25.2656 28.7048 24.7266 28.9079 Q24.1875 29.1111 23.5625 29.1111 Q22.5312 29.1111 21.9844 28.6111 Q21.4375 28.1111 21.4375 27.3298 Q21.4375 26.8767 21.6406 26.4939 Q21.8438 26.1111 22.1875 25.8845 Q22.5312 25.6579 22.9531 25.5486 Q23.25 25.4548 23.8906 25.3767 Q25.1562 25.2361 25.7656 25.0173 Q25.7656 24.7986 25.7656 24.7517 Q25.7656 24.0954 25.4688 23.8298 Q25.0625 23.4861 24.2656 23.4861 Q23.5312 23.4861 23.1719 23.7439 Q22.8125 24.0017 22.6406 24.6579 L21.6094 24.5173 Q21.75 23.8611 22.0781 23.4548 Q22.4062 23.0486 23.0156 22.8298 Q23.625 22.6111 24.4219 22.6111 Q25.2188 22.6111 25.7188 22.7986 Q26.2188 22.9861 26.4531 23.2673 Q26.6875 23.5486 26.7812 23.9861 Q26.8281 24.2517 26.8281 24.9548 L26.8281 26.3611 Q26.8281 27.8298 26.8984 28.2204 Q26.9688 28.6111 27.1719 28.9704 L26.0625 28.9704 Q25.9062 28.6423 25.8594 28.2048 ZM25.7656 25.8454 Q25.1875 26.0798 24.0469 26.2517 Q23.3906 26.3454 23.125 26.4626 Q22.8594 26.5798 22.7109 26.7986 Q22.5625 27.0173 22.5625 27.2986 Q22.5625 27.7204 22.8828 28.0017 Q23.2031 28.2829 23.8125 28.2829 Q24.4219 28.2829 24.8984 28.0173 Q25.375 27.7517 25.5938 27.2829 Q25.7656 26.9236 25.7656 26.2361 L25.7656 25.8454 ZM28.7812 28.9704 L28.7812 22.7517 L29.7344 22.7517 L29.7344 23.6892 Q30.0938 23.0329 30.3984 22.822 Q30.7031 22.6111 31.0781 22.6111 Q31.6094 22.6111 32.1562 22.9392 L31.7969 23.9236 Q31.4062 23.6892 31.0312 23.6892 Q30.6719 23.6892 30.3984 23.9001 Q30.125 24.1111 30.0156 24.4861 Q29.8281 25.0486 29.8281 25.7048 L29.8281 28.9704 L28.7812 28.9704 ZM33.0469 28.9704 L33.0469 23.5642 L32.1094 23.5642 L32.1094 22.7517 L33.0469 22.7517 L33.0469 22.0798 Q33.0469 21.4548 33.1562 21.1579 Q33.3125 20.7361 33.6953 20.4861 Q34.0781 20.2361 34.7656 20.2361 Q35.2188 20.2361 35.75 20.3454 L35.5938 21.2517 Q35.2656 21.2048 34.9688 21.2048 Q34.4844 21.2048 34.2891 21.4079 Q34.0938 21.6111 34.0938 22.1736 L34.0938 22.7517 L35.3125 22.7517 L35.3125 23.5642 L34.0938 23.5642 L34.0938 28.9704 L33.0469 28.9704 ZM36.0938 28.9704 L36.0938 27.7673 L37.2969 27.7673 L37.2969 28.9704 L36.0938 28.9704 ZM38.5938 29.4861 L39.625 29.6423 Q39.6875 30.1111 39.9844 30.3298 Q40.375 30.6267 41.0469 30.6267 Q41.7812 30.6267 42.1797 30.3298 Q42.5781 30.0329 42.7188 29.5173 Q42.8125 29.1892 42.7969 28.1579 Q42.1094 28.9704 41.0781 28.9704 Q39.7969 28.9704 39.0938 28.0407 Q38.3906 27.1111 38.3906 25.8298 Q38.3906 24.9392 38.7109 24.1814 Q39.0312 23.4236 39.6406 23.0173 Q40.25 22.6111 41.0781 22.6111 Q42.1875 22.6111 42.9062 23.5017 L42.9062 22.7517 L43.875 22.7517 L43.875 28.1267 Q43.875 29.5798 43.5781 30.1892 Q43.2812 30.7986 42.6406 31.1501 Q42 31.5017 41.0625 31.5017 Q39.9531 31.5017 39.2656 31.0017 Q38.5781 30.5017 38.5938 29.4861 ZM39.4688 25.7517 Q39.4688 26.9704 39.9531 27.5329 Q40.4375 28.0954 41.1719 28.0954 Q41.9062 28.0954 42.3984 27.5329 Q42.8906 26.9704 42.8906 25.7829 Q42.8906 24.6423 42.3828 24.0642 Q41.875 23.4861 41.1562 23.4861 Q40.4531 23.4861 39.9609 24.0564 Q39.4688 24.6267 39.4688 25.7517 ZM50.0469 26.9704 L51.1406 27.0954 Q50.8906 28.0486 50.1875 28.5798 Q49.4844 29.1111 48.4062 29.1111 Q47.0469 29.1111 46.2422 28.2673 Q45.4375 27.4236 45.4375 25.9079 Q45.4375 24.3454 46.25 23.4782 Q47.0625 22.6111 48.3438 22.6111 Q49.5938 22.6111 50.3828 23.4548 Q51.1719 24.2986 51.1719 25.8454 Q51.1719 25.9392 51.1719 26.1267 L46.5312 26.1267 Q46.5938 27.1579 47.1094 27.697 Q47.625 28.2361 48.4062 28.2361 Q48.9844 28.2361 49.3984 27.9314 Q49.8125 27.6267 50.0469 26.9704 ZM46.5938 25.2673 L50.0625 25.2673 Q50 24.4704 49.6719 24.0798 Q49.1562 23.4704 48.3594 23.4704 Q47.625 23.4704 47.1328 23.9548 Q46.6406 24.4392 46.5938 25.2673 ZM55.0938 28.0329 L55.25 28.9548 Q54.7969 29.0486 54.4531 29.0486 Q53.875 29.0486 53.5625 28.8689 Q53.25 28.6892 53.1172 28.3923 Q52.9844 28.0954 52.9844 27.1423 L52.9844 23.5642 L52.2188 23.5642 L52.2188 22.7517 L52.9844 22.7517 L52.9844 21.2048 L54.0312 20.5798 L54.0312 22.7517 L55.0938 22.7517 L55.0938 23.5642 L54.0312 23.5642 L54.0312 27.2048 Q54.0312 27.6579 54.0859 27.7829 Q54.1406 27.9079 54.2656 27.9861 Q54.3906 28.0642 54.625 28.0642 Q54.8125 28.0642 55.0938 28.0329 ZM62.0625 25.9548 L63.1875 26.2517 Q62.8281 27.6423 61.9062 28.3767 Q60.9844 29.1111 59.6406 29.1111 Q58.25 29.1111 57.375 28.5486 Q56.5 27.9861 56.0469 26.9157 Q55.5938 25.8454 55.5938 24.6111 Q55.5938 23.2673 56.1094 22.2673 Q56.625 21.2673 57.5703 20.7517 Q58.5156 20.2361 59.6562 20.2361 Q60.9375 20.2361 61.8203 20.8923 Q62.7031 21.5486 63.0469 22.7361 L61.9219 23.0017 Q61.625 22.0642 61.0547 21.6345 Q60.4844 21.2048 59.625 21.2048 Q58.6406 21.2048 57.9766 21.6814 Q57.3125 22.1579 57.0391 22.9548 Q56.7656 23.7517 56.7656 24.6111 Q56.7656 25.7048 57.0859 26.5173 Q57.4062 27.3298 58.0781 27.7361 Q58.75 28.1423 59.5469 28.1423 Q60.5 28.1423 61.1641 27.5954 Q61.8281 27.0486 62.0625 25.9548 ZM64.7656 28.9704 L64.7656 20.3767 L65.8281 20.3767 L65.8281 28.9704 L64.7656 28.9704 ZM71.8594 28.2048 Q71.2656 28.7048 70.7266 28.9079 Q70.1875 29.1111 69.5625 29.1111 Q68.5312 29.1111 67.9844 28.6111 Q67.4375 28.1111 67.4375 27.3298 Q67.4375 26.8767 67.6406 26.4939 Q67.8438 26.1111 68.1875 25.8845 Q68.5312 25.6579 68.9531 25.5486 Q69.25 25.4548 69.8906 25.3767 Q71.1562 25.2361 71.7656 25.0173 Q71.7656 24.7986 71.7656 24.7517 Q71.7656 24.0954 71.4688 23.8298 Q71.0625 23.4861 70.2656 23.4861 Q69.5312 23.4861 69.1719 23.7439 Q68.8125 24.0017 68.6406 24.6579 L67.6094 24.5173 Q67.75 23.8611 68.0781 23.4548 Q68.4062 23.0486 69.0156 22.8298 Q69.625 22.6111 70.4219 22.6111 Q71.2188 22.6111 71.7188 22.7986 Q72.2188 22.9861 72.4531 23.2673 Q72.6875 23.5486 72.7812 23.9861 Q72.8281 24.2517 72.8281 24.9548 L72.8281 26.3611 Q72.8281 27.8298 72.8984 28.2204 Q72.9688 28.6111 73.1719 28.9704 L72.0625 28.9704 Q71.9062 28.6423 71.8594 28.2048 ZM71.7656 25.8454 Q71.1875 26.0798 70.0469 26.2517 Q69.3906 26.3454 69.125 26.4626 Q68.8594 26.5798 68.7109 26.7986 Q68.5625 27.0173 68.5625 27.2986 Q68.5625 27.7204 68.8828 28.0017 Q69.2031 28.2829 69.8125 28.2829 Q70.4219 28.2829 70.8984 28.0173 Q71.375 27.7517 71.5938 27.2829 Q71.7656 26.9236 71.7656 26.2361 L71.7656 25.8454 ZM74.375 27.1111 L75.4062 26.9548 Q75.5 27.5798 75.8984 27.9079 Q76.2969 28.2361 77.0312 28.2361 Q77.75 28.2361 78.1016 27.947 Q78.4531 27.6579 78.4531 27.2517 Q78.4531 26.8923 78.1406 26.6892 Q77.9219 26.5486 77.0625 26.3298 Q75.9062 26.0329 75.4609 25.822 Q75.0156 25.6111 74.7812 25.2361 Q74.5469 24.8611 74.5469 24.3923 Q74.5469 23.9861 74.7344 23.6267 Q74.9219 23.2673 75.25 23.0329 Q75.5 22.8611 75.9219 22.7361 Q76.3438 22.6111 76.8438 22.6111 Q77.5625 22.6111 78.1172 22.822 Q78.6719 23.0329 78.9375 23.3923 Q79.2031 23.7517 79.2969 24.3454 L78.2656 24.4861 Q78.2031 24.0173 77.8672 23.7439 Q77.5312 23.4704 76.9062 23.4704 Q76.1875 23.4704 75.875 23.7126 Q75.5625 23.9548 75.5625 24.2829 Q75.5625 24.4861 75.6875 24.6423 Q75.8281 24.8142 76.0938 24.9236 Q76.25 24.9861 77.0312 25.1892 Q78.1562 25.5017 78.5938 25.6892 Q79.0312 25.8767 79.2812 26.2361 Q79.5312 26.5954 79.5312 27.1423 Q79.5312 27.6736 79.2266 28.1345 Q78.9219 28.5954 78.3438 28.8532 Q77.7656 29.1111 77.0312 29.1111 Q75.8125 29.1111 75.1797 28.6032 Q74.5469 28.0954 74.375 27.1111 ZM81.375 27.1111 L82.4062 26.9548 Q82.5 27.5798 82.8984 27.9079 Q83.2969 28.2361 84.0312 28.2361 Q84.75 28.2361 85.1016 27.947 Q85.4531 27.6579 85.4531 27.2517 Q85.4531 26.8923 85.1406 26.6892 Q84.9219 26.5486 84.0625 26.3298 Q82.9062 26.0329 82.4609 25.822 Q82.0156 25.6111 81.7812 25.2361 Q81.5469 24.8611 81.5469 24.3923 Q81.5469 23.9861 81.7344 23.6267 Q81.9219 23.2673 82.25 23.0329 Q82.5 22.8611 82.9219 22.7361 Q83.3438 22.6111 83.8438 22.6111 Q84.5625 22.6111 85.1172 22.822 Q85.6719 23.0329 85.9375 23.3923 Q86.2031 23.7517 86.2969 24.3454 L85.2656 24.4861 Q85.2031 24.0173 84.8672 23.7439 Q84.5312 23.4704 83.9062 23.4704 Q83.1875 23.4704 82.875 23.7126 Q82.5625 23.9548 82.5625 24.2829 Q82.5625 24.4861 82.6875 24.6423 Q82.8281 24.8142 83.0938 24.9236 Q83.25 24.9861 84.0312 25.1892 Q85.1562 25.5017 85.5938 25.6892 Q86.0312 25.8767 86.2812 26.2361 Q86.5312 26.5954 86.5312 27.1423 Q86.5312 27.6736 86.2266 28.1345 Q85.9219 28.5954 85.3438 28.8532 Q84.7656 29.1111 84.0312 29.1111 Q82.8125 29.1111 82.1797 28.6032 Q81.5469 28.0954 81.375 27.1111 ZM90.8125 31.5017 Q89.9375 30.3923 89.3359 28.9157 Q88.7344 27.4392 88.7344 25.8611 Q88.7344 24.4704 89.1719 23.1892 Q89.7031 21.7048 90.8125 20.2361 L91.5625 20.2361 Q90.8594 21.4548 90.625 21.9704 Q90.2656 22.7829 90.0625 23.6579 Q89.8125 24.7517 89.8125 25.8611 Q89.8125 28.6892 91.5625 31.5017 L90.8125 31.5017 ZM93.4844 31.5017 L92.7344 31.5017 Q94.4844 28.6892 94.4844 25.8611 Q94.4844 24.7673 94.2344 23.6736 Q94.0312 22.7986 93.6719 21.9861 Q93.4375 21.4704 92.7344 20.2361 L93.4844 20.2361 Q94.5781 21.7048 95.1094 23.1892 Q95.5625 24.4704 95.5625 25.8611 Q95.5625 27.4392 94.9531 28.9157 Q94.3438 30.3923 93.4844 31.5017 Z" style="clip-path:url(#clipPath14); stroke:none;" />
    </g>
    <g transform="translate(92,64)" style="font-size:11; stroke-linecap:butt; text-rendering:geometricPrecision; font-family:sans-serif; stroke-linejoin:round; stroke-dasharray:4;">
      <line x1="50" x2="50" y1="50" style="clip-path:url(#clipPath16); fill:none;" y2="168" />
    </g>
    <g transform="translate(11,194)" style="font-size:11; stroke-linecap:butt; text-rendering:geometricPrecision; font-family:sans-serif; stroke-linejoin:round;">
      <line x1="50" x2="124" y1="50" style="clip-path:url(#clipPath17); fill:none;" y2="50" />
      <line x1="124" x2="112" y1="50" style="clip-path:url(#clipPath17); fill:none;" y2="44" />
      <line x1="124" x2="112" y1="50" style="clip-path:url(#clipPath17); fill:none;" y2="56" />
    </g>
    <g transform="translate(96,84)" style="font-size:11; stroke-linecap:butt; text-rendering:geometricPrecision; font-family:sans-serif; stroke-linejoin:round;">
      <line x1="50" x2="126" y1="155" style="clip-path:url(#clipPath18); fill:none;" y2="50" />
      <line x1="126" x2="276" y1="50" style="clip-path:url(#clipPath18); fill:none;" y2="50" />
      <line x1="276" x2="264" y1="50" style="clip-path:url(#clipPath18); fill:none;" y2="44" />
      <line x1="276" x2="264" y1="50" style="clip-path:url(#clipPath18); fill:none;" y2="56" />
    </g>
    <g transform="translate(98,194)" style="font-size:11; stroke-linecap:butt; text-rendering:geometricPrecision; font-family:sans-serif; stroke-linejoin:round;">
      <line x1="50" x2="284" y1="50" style="clip-path:url(#clipPath19); fill:none;" y2="50" />
      <line x1="284" x2="272" y1="50" style="clip-path:url(#clipPath19); fill:none;" y2="44" />
      <line x1="284" x2="272" y1="50" style="clip-path:url(#clipPath19); fill:none;" y2="56" />
    </g>
    <g transform="translate(95,199)" style="font-size:11; stroke-linecap:butt; text-rendering:geometricPrecision; font-family:sans-serif; stroke-linejoin:round;">
      <line x1="50" x2="127" y1="50" style="clip-path:url(#clipPath20); fill:none;" y2="165" />
      <line x1="127" x2="287" y1="165" style="clip-path:url(#clipPath20); fill:none;" y2="165" />
      <line x1="287" x2="275" y1="165" style="clip-path:url(#clipPath20); fill:none;" y2="159" />
      <line x1="287" x2="275" y1="165" style="clip-path:url(#clipPath20); fill:none;" y2="171" />
    </g>
    <g style="text-rendering:geometricPrecision; font-size:11; font-family:sans-serif;" transform="translate(222,344)">
      <text x="9" y="12" style="clip-path:url(#clipPath21); stroke:none;" xml:space="preserve">[isInstance(Barman.class)]</text>
    </g>
    <g style="text-rendering:geometricPrecision; font-size:11; font-family:sans-serif;" transform="translate(222,224)">
      <text x="9" y="12" style="clip-path:url(#clipPath22); stroke:none;" xml:space="preserve">[isInstance(Miner.class)]</text>
    </g>
    <g style="text-rendering:geometricPrecision; font-size:11; font-family:sans-serif;" transform="translate(222,114)">
      <text x="9" y="12" style="clip-path:url(#clipPath23); stroke:none;" xml:space="preserve">[isInstance(Crafter.class)]</text>
    </g>
  </g>
</svg>
