<?xml version="1.0" encoding="UTF-8"?>

<!DOCTYPE svg PUBLIC '-//W3C//DTD SVG 1.0//EN' 'http://www.w3.org/TR/2001/REC-SVG-20010904/DTD/svg10.dtd'>
<svg style="fill-opacity:1; color-rendering:auto; color-interpolation:auto; stroke:black; text-rendering:auto; stroke-linecap:square; stroke-miterlimit:10; stroke-opacity:1; shape-rendering:auto; fill:black; stroke-dasharray:none; font-weight:normal; stroke-width:1; font-family:&apos;Dialog&apos;; font-style:normal; stroke-linejoin:miter; font-size:12; stroke-dashoffset:0; image-rendering:auto;" xmlns="http://www.w3.org/2000/svg" width="516" xmlns:xlink="http://www.w3.org/1999/xlink" height="528">
  <!--Generated by the Batik Graphics2D SVG Generator-->
  <defs id="genericDefs" />
  <g>
    <defs id="defs1">
      <clipPath clipPathUnits="userSpaceOnUse" id="clipPath1">
        <path d="M-3 -3 L497 -3 L497 487 L-3 487 L-3 -3 Z" />
      </clipPath>
      <clipPath clipPathUnits="userSpaceOnUse" id="clipPath2">
        <path d="M0 0 L0 472 L7 472 L7 0 Z" />
      </clipPath>
      <clipPath clipPathUnits="userSpaceOnUse" id="clipPath3">
        <path d="M-3 -3 L497 -3 L497 22 L-3 22 L-3 -3 Z" />
      </clipPath>
      <clipPath clipPathUnits="userSpaceOnUse" id="clipPath4">
        <path d="M0 0 L490 0 L490 15 L0 15 L0 0 Z" />
      </clipPath>
      <clipPath clipPathUnits="userSpaceOnUse" id="clipPath5">
        <path d="M-3 -3 L497 -3 L497 471 L-3 471 L-3 -3 Z" />
      </clipPath>
      <clipPath clipPathUnits="userSpaceOnUse" id="clipPath6">
        <path d="M-3 -3 L47 -3 L47 27 L-3 27 L-3 -3 Z" />
      </clipPath>
      <clipPath clipPathUnits="userSpaceOnUse" id="clipPath7">
        <path d="M-3 -3 L27 -3 L27 27 L-3 27 L-3 -3 Z" />
      </clipPath>
      <clipPath clipPathUnits="userSpaceOnUse" id="clipPath8">
        <path d="M-3 -3 L187 -3 L187 147 L-3 147 L-3 -3 Z" />
      </clipPath>
      <clipPath clipPathUnits="userSpaceOnUse" id="clipPath9">
        <path d="M0 0 L180 0 L180 140 L0 140 L0 0 Z" />
      </clipPath>
      <clipPath clipPathUnits="userSpaceOnUse" id="clipPath10">
        <path d="M-3 -3 L27 -3 L27 47 L-3 47 L-3 -3 Z" />
      </clipPath>
      <clipPath clipPathUnits="userSpaceOnUse" id="clipPath11">
        <path d="M-3 -3 L97 -3 L97 52 L-3 52 L-3 -3 Z" />
      </clipPath>
      <clipPath clipPathUnits="userSpaceOnUse" id="clipPath12">
        <path d="M0 0 L0 45 L90 45 L90 0 Z" />
      </clipPath>
      <clipPath clipPathUnits="userSpaceOnUse" id="clipPath13">
        <path d="M-490 -464 L980 -464 L980 928 L-490 928 L-490 -464 Z" />
      </clipPath>
      <clipPath clipPathUnits="userSpaceOnUse" id="clipPath14">
        <path d="M0 0 L201 0 L201 70 L0 70 L0 0 Z" />
      </clipPath>
      <clipPath clipPathUnits="userSpaceOnUse" id="clipPath15">
        <path d="M0 0 L127 0 L127 66 L0 66 L0 0 Z" />
      </clipPath>
      <clipPath clipPathUnits="userSpaceOnUse" id="clipPath16">
        <path d="M0 0 L66 0 L66 141 L0 141 L0 0 Z" />
      </clipPath>
      <clipPath clipPathUnits="userSpaceOnUse" id="clipPath17">
        <path d="M0 0 L115 0 L115 215 L0 215 L0 0 Z" />
      </clipPath>
      <clipPath clipPathUnits="userSpaceOnUse" id="clipPath18">
        <path d="M0 0 L128 0 L128 156 L0 156 L0 0 Z" />
      </clipPath>
      <clipPath clipPathUnits="userSpaceOnUse" id="clipPath19">
        <path d="M-39 -15 L78 -15 L78 30 L-39 30 L-39 -15 Z" />
      </clipPath>
      <clipPath clipPathUnits="userSpaceOnUse" id="clipPath20">
        <path d="M-36 -15 L72 -15 L72 30 L-36 30 L-36 -15 Z" />
      </clipPath>
    </defs>
    <g style="fill:white; text-rendering:geometricPrecision; stroke:white;">
      <rect x="0" y="0" width="516" style="stroke:none;" height="528" />
      <rect x="38" y="8" transform="translate(-38,-8)" width="515" style="fill:none; stroke:black;" height="527" />
      <text x="45" y="25" transform="translate(-38,-8)" style="fill:black; stroke:none;" xml:space="preserve">act MinerWaiting</text>
      <line transform="translate(-38,-8)" x1="38" x2="135" y1="32" style="fill:none; stroke:black;" y2="32" />
      <line transform="translate(-38,-8)" x1="141" x2="141" y1="8" style="fill:none; stroke:black;" y2="22" />
      <line transform="translate(-38,-8)" x1="141" x2="135" y1="22" style="fill:none; stroke:black;" y2="32" />
    </g>
    <g transform="translate(12,34)" style="text-rendering:geometricPrecision; stroke-width:2; font-size:11; font-family:sans-serif;">
      <rect x="0" y="0" width="490" style="clip-path:url(#clipPath3); fill:none;" height="15" />
    </g>
    <g style="text-rendering:geometricPrecision; font-size:11; font-family:sans-serif;" transform="translate(12,34)">
      <text x="230" y="12" style="clip-path:url(#clipPath4); stroke:none;" xml:space="preserve">:Miner</text>
    </g>
    <g transform="translate(12,49)" style="text-rendering:geometricPrecision; stroke-width:2; font-size:11; font-family:sans-serif;">
      <rect x="0" y="0" width="490" style="clip-path:url(#clipPath5); fill:none;" height="464" />
    </g>
    <g style="text-rendering:geometricPrecision; font-size:11; font-family:sans-serif;" transform="translate(52,124)">
      <circle style="clip-path:url(#clipPath6); stroke:none;" r="10" cx="20" cy="10" />
    </g>
    <g style="text-rendering:geometricPrecision; font-size:11; font-family:sans-serif;" transform="translate(292,454)">
      <circle style="clip-path:url(#clipPath7); stroke:none;" r="6.6667" cx="10" cy="10" />
      <circle style="stroke-linecap:butt; clip-path:url(#clipPath7); fill:none; stroke-linejoin:round; stroke-miterlimit:0;" r="10" cx="10" cy="10" />
    </g>
    <g transform="translate(212,114)" style="font-size:11; fill:rgb(122,207,245); text-rendering:geometricPrecision; font-family:sans-serif; stroke:rgb(122,207,245);">
      <rect x="1" y="1" width="178" style="clip-path:url(#clipPath8); stroke:none;" rx="15" ry="15" height="138" />
    </g>
    <g transform="translate(212,114)" style="font-size:11; stroke-linecap:butt; text-rendering:geometricPrecision; font-family:sans-serif; stroke-linejoin:round; stroke-miterlimit:0;">
      <rect x="1" y="1" width="178" style="clip-path:url(#clipPath8); fill:none;" rx="15" ry="15" height="138" />
    </g>
    <g style="text-rendering:geometricPrecision; font-size:11; font-family:sans-serif;" transform="translate(212,114)">
      <text x="39" y="74" style="clip-path:url(#clipPath9); stroke:none;" xml:space="preserve">Joue avec sa pioche</text>
    </g>
    <g transform="translate(292,324)" style="font-size:11; fill:rgb(122,207,245); text-rendering:geometricPrecision; font-family:sans-serif; stroke:rgb(122,207,245);">
      <polygon style="clip-path:url(#clipPath10); stroke:none;" points=" 10 7 17 20 10 32 3 20" />
    </g>
    <g transform="translate(292,324)" style="font-size:11; stroke-linecap:butt; text-rendering:geometricPrecision; font-family:sans-serif; stroke-linejoin:round; stroke-miterlimit:0;">
      <polygon style="fill:none; clip-path:url(#clipPath10);" points=" 10 7 17 20 10 32 3 20" />
    </g>
    <g transform="translate(372,324)" style="font-size:11; fill:rgb(122,207,245); text-rendering:geometricPrecision; font-family:sans-serif; stroke:rgb(122,207,245);">
      <polygon style="clip-path:url(#clipPath11); stroke:none;" points=" 0 0 74 0 89 15 74 15 74 0 89 15 89 44 0 44" />
    </g>
    <g transform="translate(372,324)" style="font-size:11; stroke-linecap:butt; text-rendering:geometricPrecision; font-family:sans-serif; stroke-linejoin:round; stroke-miterlimit:0;">
      <polygon style="fill:none; clip-path:url(#clipPath11);" points=" 0 0 74 0 89 15 74 15 74 0 89 15 89 44 0 44" />
    </g>
    <g style="text-rendering:geometricPrecision; font-size:11; font-family:&apos;Tahoma&apos;;" transform="translate(372,324)">
      <path d="M3.5781 10.7829 Q3.5781 8.6423 4.7266 7.4314 Q5.875 6.2204 7.6875 6.2204 Q8.8906 6.2204 9.8438 6.7907 Q10.7969 7.3611 11.2969 8.3767 Q11.7969 9.3923 11.7969 10.6892 Q11.7969 11.9861 11.2656 13.0173 Q10.7344 14.0486 9.7734 14.5798 Q8.8125 15.1111 7.6875 15.1111 Q6.4688 15.1111 5.5156 14.5251 Q4.5625 13.9392 4.0703 12.9314 Q3.5781 11.9236 3.5781 10.7829 ZM4.75 10.7986 Q4.75 12.3611 5.5859 13.2517 Q6.4219 14.1423 7.6875 14.1423 Q8.9688 14.1423 9.7969 13.2439 Q10.625 12.3454 10.625 10.6736 Q10.625 9.6267 10.2734 8.8454 Q9.9219 8.0642 9.2344 7.6345 Q8.5469 7.2048 7.7031 7.2048 Q6.5 7.2048 5.625 8.0329 Q4.75 8.8611 4.75 10.7986 ZM12.7812 14.9704 L12.7812 8.7517 L13.7344 8.7517 L13.7344 9.6892 Q14.0938 9.0329 14.3984 8.822 Q14.7031 8.6111 15.0781 8.6111 Q15.6094 8.6111 16.1562 8.9392 L15.7969 9.9236 Q15.4062 9.6892 15.0312 9.6892 Q14.6719 9.6892 14.3984 9.9001 Q14.125 10.1111 14.0156 10.4861 Q13.8281 11.0486 13.8281 11.7048 L13.8281 14.9704 L12.7812 14.9704 ZM20.8281 14.9704 L20.8281 14.1892 Q20.2344 15.1111 19.0938 15.1111 Q18.3438 15.1111 17.7188 14.697 Q17.0938 14.2829 16.75 13.5486 Q16.4062 12.8142 16.4062 11.8611 Q16.4062 10.9392 16.7188 10.1736 Q17.0312 9.4079 17.6562 9.0095 Q18.2812 8.6111 19.0469 8.6111 Q19.6094 8.6111 20.0469 8.8454 Q20.4844 9.0798 20.7656 9.4548 L20.7656 6.3767 L21.8125 6.3767 L21.8125 14.9704 L20.8281 14.9704 ZM17.5 11.8611 Q17.5 13.0642 18 13.6501 Q18.5 14.2361 19.1875 14.2361 Q19.875 14.2361 20.3594 13.6736 Q20.8438 13.1111 20.8438 11.9548 Q20.8438 10.6736 20.3516 10.0798 Q19.8594 9.4861 19.1406 9.4861 Q18.4375 9.4861 17.9688 10.0564 Q17.5 10.6267 17.5 11.8611 ZM23.7812 14.9704 L23.7812 8.7517 L24.7344 8.7517 L24.7344 9.6892 Q25.0938 9.0329 25.3984 8.822 Q25.7031 8.6111 26.0781 8.6111 Q26.6094 8.6111 27.1562 8.9392 L26.7969 9.9236 Q26.4062 9.6892 26.0312 9.6892 Q25.6719 9.6892 25.3984 9.9001 Q25.125 10.1111 25.0156 10.4861 Q24.8281 11.0486 24.8281 11.7048 L24.8281 14.9704 L23.7812 14.9704 ZM32.0469 12.9704 L33.1406 13.0954 Q32.8906 14.0486 32.1875 14.5798 Q31.4844 15.1111 30.4062 15.1111 Q29.0469 15.1111 28.2422 14.2673 Q27.4375 13.4236 27.4375 11.9079 Q27.4375 10.3454 28.25 9.4782 Q29.0625 8.6111 30.3438 8.6111 Q31.5938 8.6111 32.3828 9.4548 Q33.1719 10.2986 33.1719 11.8454 Q33.1719 11.9392 33.1719 12.1267 L28.5312 12.1267 Q28.5938 13.1579 29.1094 13.697 Q29.625 14.2361 30.4062 14.2361 Q30.9844 14.2361 31.3984 13.9314 Q31.8125 13.6267 32.0469 12.9704 ZM28.5938 11.2673 L32.0625 11.2673 Q32 10.4704 31.6719 10.0798 Q31.1562 9.4704 30.3594 9.4704 Q29.625 9.4704 29.1328 9.9548 Q28.6406 10.4392 28.5938 11.2673 ZM41.8281 14.9704 L41.8281 14.1892 Q41.2344 15.1111 40.0938 15.1111 Q39.3438 15.1111 38.7188 14.697 Q38.0938 14.2829 37.75 13.5486 Q37.4062 12.8142 37.4062 11.8611 Q37.4062 10.9392 37.7188 10.1736 Q38.0312 9.4079 38.6562 9.0095 Q39.2812 8.6111 40.0469 8.6111 Q40.6094 8.6111 41.0469 8.8454 Q41.4844 9.0798 41.7656 9.4548 L41.7656 6.3767 L42.8125 6.3767 L42.8125 14.9704 L41.8281 14.9704 ZM38.5 11.8611 Q38.5 13.0642 39 13.6501 Q39.5 14.2361 40.1875 14.2361 Q40.875 14.2361 41.3594 13.6736 Q41.8438 13.1111 41.8438 11.9548 Q41.8438 10.6736 41.3516 10.0798 Q40.8594 9.4861 40.1406 9.4861 Q39.4375 9.4861 38.9688 10.0564 Q38.5 10.6267 38.5 11.8611 ZM49.0469 12.9704 L50.1406 13.0954 Q49.8906 14.0486 49.1875 14.5798 Q48.4844 15.1111 47.4062 15.1111 Q46.0469 15.1111 45.2422 14.2673 Q44.4375 13.4236 44.4375 11.9079 Q44.4375 10.3454 45.25 9.4782 Q46.0625 8.6111 47.3438 8.6111 Q48.5938 8.6111 49.3828 9.4548 Q50.1719 10.2986 50.1719 11.8454 Q50.1719 11.9392 50.1719 12.1267 L45.5312 12.1267 Q45.5938 13.1579 46.1094 13.697 Q46.625 14.2361 47.4062 14.2361 Q47.9844 14.2361 48.3984 13.9314 Q48.8125 13.6267 49.0469 12.9704 ZM45.5938 11.2673 L49.0625 11.2673 Q49 10.4704 48.6719 10.0798 Q48.1562 9.4704 47.3594 9.4704 Q46.625 9.4704 46.1328 9.9548 Q45.6406 10.4392 45.5938 11.2673 Z" style="clip-path:url(#clipPath12); stroke:none;" />
      <path d="M7.8594 26.6892 L8.8906 26.8298 Q8.7188 27.8923 8.0156 28.5017 Q7.3125 29.1111 6.2969 29.1111 Q5.0156 29.1111 4.2422 28.2751 Q3.4688 27.4392 3.4688 25.8767 Q3.4688 24.8767 3.8047 24.1189 Q4.1406 23.3611 4.8203 22.9861 Q5.5 22.6111 6.3125 22.6111 Q7.3125 22.6111 7.9609 23.1189 Q8.6094 23.6267 8.7969 24.5798 L7.7656 24.7361 Q7.625 24.1111 7.25 23.7907 Q6.875 23.4704 6.3438 23.4704 Q5.5469 23.4704 5.0469 24.0407 Q4.5469 24.6111 4.5469 25.8454 Q4.5469 27.1111 5.0312 27.6736 Q5.5156 28.2361 6.2812 28.2361 Q6.9062 28.2361 7.3203 27.8611 Q7.7344 27.4861 7.8594 26.6892 ZM9.7812 28.9704 L9.7812 22.7517 L10.7344 22.7517 L10.7344 23.6892 Q11.0938 23.0329 11.3984 22.822 Q11.7031 22.6111 12.0781 22.6111 Q12.6094 22.6111 13.1562 22.9392 L12.7969 23.9236 Q12.4062 23.6892 12.0312 23.6892 Q11.6719 23.6892 11.3984 23.9001 Q11.125 24.1111 11.0156 24.4861 Q10.8281 25.0486 10.8281 25.7048 L10.8281 28.9704 L9.7812 28.9704 ZM18.0469 26.9704 L19.1406 27.0954 Q18.8906 28.0486 18.1875 28.5798 Q17.4844 29.1111 16.4062 29.1111 Q15.0469 29.1111 14.2422 28.2673 Q13.4375 27.4236 13.4375 25.9079 Q13.4375 24.3454 14.25 23.4782 Q15.0625 22.6111 16.3438 22.6111 Q17.5938 22.6111 18.3828 23.4548 Q19.1719 24.2986 19.1719 25.8454 Q19.1719 25.9392 19.1719 26.1267 L14.5312 26.1267 Q14.5938 27.1579 15.1094 27.697 Q15.625 28.2361 16.4062 28.2361 Q16.9844 28.2361 17.3984 27.9314 Q17.8125 27.6267 18.0469 26.9704 ZM14.5938 25.2673 L18.0625 25.2673 Q18 24.4704 17.6719 24.0798 Q17.1562 23.4704 16.3594 23.4704 Q15.625 23.4704 15.1328 23.9548 Q14.6406 24.4392 14.5938 25.2673 ZM24.875 28.9704 L24.875 28.0486 Q24.1406 29.1111 22.8906 29.1111 Q22.3438 29.1111 21.8672 28.9001 Q21.3906 28.6892 21.1562 28.3689 Q20.9219 28.0486 20.8281 27.5798 Q20.7656 27.2829 20.7656 26.5954 L20.7656 22.7517 L21.8281 22.7517 L21.8281 26.2048 Q21.8281 27.0173 21.8906 27.3142 Q21.9844 27.7204 22.3047 27.9626 Q22.625 28.2048 23.1094 28.2048 Q23.5781 28.2048 23.9922 27.9626 Q24.4062 27.7204 24.5859 27.2986 Q24.7656 26.8767 24.7656 26.0798 L24.7656 22.7517 L25.8125 22.7517 L25.8125 28.9704 L24.875 28.9704 ZM27.375 27.1111 L28.4062 26.9548 Q28.5 27.5798 28.8984 27.9079 Q29.2969 28.2361 30.0312 28.2361 Q30.75 28.2361 31.1016 27.947 Q31.4531 27.6579 31.4531 27.2517 Q31.4531 26.8923 31.1406 26.6892 Q30.9219 26.5486 30.0625 26.3298 Q28.9062 26.0329 28.4609 25.822 Q28.0156 25.6111 27.7812 25.2361 Q27.5469 24.8611 27.5469 24.3923 Q27.5469 23.9861 27.7344 23.6267 Q27.9219 23.2673 28.25 23.0329 Q28.5 22.8611 28.9219 22.7361 Q29.3438 22.6111 29.8438 22.6111 Q30.5625 22.6111 31.1172 22.822 Q31.6719 23.0329 31.9375 23.3923 Q32.2031 23.7517 32.2969 24.3454 L31.2656 24.4861 Q31.2031 24.0173 30.8672 23.7439 Q30.5312 23.4704 29.9062 23.4704 Q29.1875 23.4704 28.875 23.7126 Q28.5625 23.9548 28.5625 24.2829 Q28.5625 24.4861 28.6875 24.6423 Q28.8281 24.8142 29.0938 24.9236 Q29.25 24.9861 30.0312 25.1892 Q31.1562 25.5017 31.5938 25.6892 Q32.0312 25.8767 32.2812 26.2361 Q32.5312 26.5954 32.5312 27.1423 Q32.5312 27.6736 32.2266 28.1345 Q31.9219 28.5954 31.3438 28.8532 Q30.7656 29.1111 30.0312 29.1111 Q28.8125 29.1111 28.1797 28.6032 Q27.5469 28.0954 27.375 27.1111 ZM39.0469 26.9704 L40.1406 27.0954 Q39.8906 28.0486 39.1875 28.5798 Q38.4844 29.1111 37.4062 29.1111 Q36.0469 29.1111 35.2422 28.2673 Q34.4375 27.4236 34.4375 25.9079 Q34.4375 24.3454 35.25 23.4782 Q36.0625 22.6111 37.3438 22.6111 Q38.5938 22.6111 39.3828 23.4548 Q40.1719 24.2986 40.1719 25.8454 Q40.1719 25.9392 40.1719 26.1267 L35.5312 26.1267 Q35.5938 27.1579 36.1094 27.697 Q36.625 28.2361 37.4062 28.2361 Q37.9844 28.2361 38.3984 27.9314 Q38.8125 27.6267 39.0469 26.9704 ZM35.5938 25.2673 L39.0625 25.2673 Q39 24.4704 38.6719 24.0798 Q38.1562 23.4704 37.3594 23.4704 Q36.625 23.4704 36.1328 23.9548 Q35.6406 24.4392 35.5938 25.2673 ZM36.125 20.9704 L36.9062 19.3298 L38.2969 19.3298 L37 20.9704 L36.125 20.9704 ZM48.8281 28.9704 L48.8281 28.1892 Q48.2344 29.1111 47.0938 29.1111 Q46.3438 29.1111 45.7188 28.697 Q45.0938 28.2829 44.75 27.5486 Q44.4062 26.8142 44.4062 25.8611 Q44.4062 24.9392 44.7188 24.1736 Q45.0312 23.4079 45.6562 23.0095 Q46.2812 22.6111 47.0469 22.6111 Q47.6094 22.6111 48.0469 22.8454 Q48.4844 23.0798 48.7656 23.4548 L48.7656 20.3767 L49.8125 20.3767 L49.8125 28.9704 L48.8281 28.9704 ZM45.5 25.8611 Q45.5 27.0642 46 27.6501 Q46.5 28.2361 47.1875 28.2361 Q47.875 28.2361 48.3594 27.6736 Q48.8438 27.1111 48.8438 25.9548 Q48.8438 24.6736 48.3516 24.0798 Q47.8594 23.4861 47.1406 23.4861 Q46.4375 23.4861 45.9688 24.0564 Q45.5 24.6267 45.5 25.8611 ZM51.4062 25.8611 Q51.4062 24.1267 52.3594 23.2986 Q53.1562 22.6111 54.3125 22.6111 Q55.5938 22.6111 56.4141 23.447 Q57.2344 24.2829 57.2344 25.7673 Q57.2344 26.9704 56.875 27.6579 Q56.5156 28.3454 55.8203 28.7282 Q55.125 29.1111 54.3125 29.1111 Q53.0156 29.1111 52.2109 28.2751 Q51.4062 27.4392 51.4062 25.8611 ZM52.4844 25.8611 Q52.4844 27.0486 53.0078 27.6423 Q53.5312 28.2361 54.3125 28.2361 Q55.1094 28.2361 55.625 27.6423 Q56.1406 27.0486 56.1406 25.8298 Q56.1406 24.6736 55.6172 24.0798 Q55.0938 23.4861 54.3125 23.4861 Q53.5312 23.4861 53.0078 24.072 Q52.4844 24.6579 52.4844 25.8611 ZM58.7969 28.9704 L58.7969 22.7517 L59.7344 22.7517 L59.7344 23.6267 Q60.4219 22.6111 61.7188 22.6111 Q62.2812 22.6111 62.7578 22.8142 Q63.2344 23.0173 63.4688 23.3454 Q63.7031 23.6736 63.7969 24.1111 Q63.8438 24.4079 63.8438 25.1423 L63.8438 28.9704 L62.7969 28.9704 L62.7969 25.1892 Q62.7969 24.5329 62.6719 24.2204 Q62.5469 23.9079 62.2344 23.7126 Q61.9219 23.5173 61.5 23.5173 Q60.8281 23.5173 60.3359 23.947 Q59.8438 24.3767 59.8438 25.5642 L59.8438 28.9704 L58.7969 28.9704 ZM65.7969 28.9704 L65.7969 22.7517 L66.7344 22.7517 L66.7344 23.6267 Q67.4219 22.6111 68.7188 22.6111 Q69.2812 22.6111 69.7578 22.8142 Q70.2344 23.0173 70.4688 23.3454 Q70.7031 23.6736 70.7969 24.1111 Q70.8438 24.4079 70.8438 25.1423 L70.8438 28.9704 L69.7969 28.9704 L69.7969 25.1892 Q69.7969 24.5329 69.6719 24.2204 Q69.5469 23.9079 69.2344 23.7126 Q68.9219 23.5173 68.5 23.5173 Q67.8281 23.5173 67.3359 23.947 Q66.8438 24.3767 66.8438 25.5642 L66.8438 28.9704 L65.7969 28.9704 ZM77.0469 26.9704 L78.1406 27.0954 Q77.8906 28.0486 77.1875 28.5798 Q76.4844 29.1111 75.4062 29.1111 Q74.0469 29.1111 73.2422 28.2673 Q72.4375 27.4236 72.4375 25.9079 Q72.4375 24.3454 73.25 23.4782 Q74.0625 22.6111 75.3438 22.6111 Q76.5938 22.6111 77.3828 23.4548 Q78.1719 24.2986 78.1719 25.8454 Q78.1719 25.9392 78.1719 26.1267 L73.5312 26.1267 Q73.5938 27.1579 74.1094 27.697 Q74.625 28.2361 75.4062 28.2361 Q75.9844 28.2361 76.3984 27.9314 Q76.8125 27.6267 77.0469 26.9704 ZM73.5938 25.2673 L77.0625 25.2673 Q77 24.4704 76.6719 24.0798 Q76.1562 23.4704 75.3594 23.4704 Q74.625 23.4704 74.1328 23.9548 Q73.6406 24.4392 73.5938 25.2673 ZM74.125 20.9704 L74.9062 19.3298 L76.2969 19.3298 L75 20.9704 L74.125 20.9704 Z" style="clip-path:url(#clipPath12); stroke:none;" />
    </g>
    <g transform="translate(48,100)" style="font-size:11; stroke-linecap:butt; text-rendering:geometricPrecision; font-family:sans-serif; stroke-linejoin:round;">
      <line x1="33" x2="164" y1="33" style="clip-path:url(#clipPath14); fill:none;" y2="33" />
      <line x1="164" x2="152" y1="33" style="clip-path:url(#clipPath14); fill:none;" y2="27" />
      <line x1="164" x2="152" y1="33" style="clip-path:url(#clipPath14); fill:none;" y2="39" />
    </g>
    <g transform="translate(278,312)" style="font-size:11; stroke-linecap:butt; text-rendering:geometricPrecision; font-family:sans-serif; stroke-linejoin:round; stroke-dasharray:4;">
      <line x1="92" x2="31" y1="32" style="clip-path:url(#clipPath15); fill:none;" y2="32" />
    </g>
    <g transform="translate(270,222)" style="font-size:11; stroke-linecap:butt; text-rendering:geometricPrecision; font-family:sans-serif; stroke-linejoin:round;">
      <line x1="32" x2="32" y1="32" style="clip-path:url(#clipPath16); fill:none;" y2="107" />
      <line x1="32" x2="38" y1="107" style="clip-path:url(#clipPath16); fill:none;" y2="95" />
      <line x1="32" x2="26" y1="107" style="clip-path:url(#clipPath16); fill:none;" y2="95" />
    </g>
    <g transform="translate(246,299)" style="font-size:11; stroke-linecap:butt; text-rendering:geometricPrecision; font-family:sans-serif; stroke-linejoin:round;">
      <line x1="56" x2="56" y1="56" style="clip-path:url(#clipPath17); fill:none;" y2="156" />
      <line x1="56" x2="62" y1="156" style="clip-path:url(#clipPath17); fill:none;" y2="144" />
      <line x1="56" x2="50" y1="156" style="clip-path:url(#clipPath17); fill:none;" y2="144" />
    </g>
    <g transform="translate(200,222)" style="font-size:11; stroke-linecap:butt; text-rendering:geometricPrecision; font-family:sans-serif; stroke-linejoin:round;">
      <line x1="93" x2="32" y1="122" style="clip-path:url(#clipPath18); fill:none;" y2="122" />
      <line x1="32" x2="32" y1="122" style="clip-path:url(#clipPath18); fill:none;" y2="32" />
      <line x1="32" x2="26" y1="32" style="clip-path:url(#clipPath18); fill:none;" y2="44" />
      <line x1="32" x2="38" y1="32" style="clip-path:url(#clipPath18); fill:none;" y2="44" />
    </g>
    <g style="text-rendering:geometricPrecision; font-size:11; font-family:sans-serif;" transform="translate(193,326)">
      <text x="9" y="12" style="clip-path:url(#clipPath19); stroke:none;" xml:space="preserve">Non</text>
    </g>
    <g style="text-rendering:geometricPrecision; font-size:11; font-family:sans-serif;" transform="translate(300,396)">
      <text x="9" y="12" style="clip-path:url(#clipPath20); stroke:none;" xml:space="preserve">Oui</text>
    </g>
  </g>
</svg>
