<?xml version="1.0" encoding="UTF-8"?>

<!DOCTYPE svg PUBLIC '-//W3C//DTD SVG 1.0//EN' 'http://www.w3.org/TR/2001/REC-SVG-20010904/DTD/svg10.dtd'>
<svg style="fill-opacity:1; color-rendering:auto; color-interpolation:auto; stroke:black; text-rendering:auto; stroke-linecap:square; stroke-miterlimit:10; stroke-opacity:1; shape-rendering:auto; fill:black; stroke-dasharray:none; font-weight:normal; stroke-width:1; font-family:&apos;Dialog&apos;; font-style:normal; stroke-linejoin:miter; font-size:12; stroke-dashoffset:0; image-rendering:auto;" xmlns="http://www.w3.org/2000/svg" width="616" xmlns:xlink="http://www.w3.org/1999/xlink" height="878">
  <!--Generated by the Batik Graphics2D SVG Generator-->
  <defs id="genericDefs" />
  <g>
    <defs id="defs1">
      <clipPath clipPathUnits="userSpaceOnUse" id="clipPath1">
        <path d="M-3 -3 L597 -3 L597 837 L-3 837 L-3 -3 Z" />
      </clipPath>
      <clipPath clipPathUnits="userSpaceOnUse" id="clipPath2">
        <path d="M0 0 L0 822 L7 822 L7 0 Z" />
      </clipPath>
      <clipPath clipPathUnits="userSpaceOnUse" id="clipPath3">
        <path d="M-3 -3 L47 -3 L47 27 L-3 27 L-3 -3 Z" />
      </clipPath>
      <clipPath clipPathUnits="userSpaceOnUse" id="clipPath4">
        <path d="M-3 -3 L597 -3 L597 22 L-3 22 L-3 -3 Z" />
      </clipPath>
      <clipPath clipPathUnits="userSpaceOnUse" id="clipPath5">
        <path d="M0 0 L590 0 L590 15 L0 15 L0 0 Z" />
      </clipPath>
      <clipPath clipPathUnits="userSpaceOnUse" id="clipPath6">
        <path d="M-3 -3 L597 -3 L597 822 L-3 822 L-3 -3 Z" />
      </clipPath>
      <clipPath clipPathUnits="userSpaceOnUse" id="clipPath7">
        <path d="M-3 -3 L127 -3 L127 157 L-3 157 L-3 -3 Z" />
      </clipPath>
      <clipPath clipPathUnits="userSpaceOnUse" id="clipPath8">
        <path d="M0 0 L120 0 L120 150 L0 150 L0 0 Z" />
      </clipPath>
      <clipPath clipPathUnits="userSpaceOnUse" id="clipPath9">
        <path d="M-3 -3 L187 -3 L187 127 L-3 127 L-3 -3 Z" />
      </clipPath>
      <clipPath clipPathUnits="userSpaceOnUse" id="clipPath10">
        <path d="M0 0 L180 0 L180 120 L0 120 L0 0 Z" />
      </clipPath>
      <clipPath clipPathUnits="userSpaceOnUse" id="clipPath11">
        <path d="M-3 -3 L177 -3 L177 127 L-3 127 L-3 -3 Z" />
      </clipPath>
      <clipPath clipPathUnits="userSpaceOnUse" id="clipPath12">
        <path d="M0 0 L170 0 L170 120 L0 120 L0 0 Z" />
      </clipPath>
      <clipPath clipPathUnits="userSpaceOnUse" id="clipPath13">
        <path d="M-3 -3 L27 -3 L27 47 L-3 47 L-3 -3 Z" />
      </clipPath>
      <clipPath clipPathUnits="userSpaceOnUse" id="clipPath14">
        <path d="M-3 -3 L137 -3 L137 127 L-3 127 L-3 -3 Z" />
      </clipPath>
      <clipPath clipPathUnits="userSpaceOnUse" id="clipPath15">
        <path d="M0 0 L130 0 L130 120 L0 120 L0 0 Z" />
      </clipPath>
      <clipPath clipPathUnits="userSpaceOnUse" id="clipPath16">
        <path d="M-3 -3 L147 -3 L147 107 L-3 107 L-3 -3 Z" />
      </clipPath>
      <clipPath clipPathUnits="userSpaceOnUse" id="clipPath17">
        <path d="M0 0 L140 0 L140 100 L0 100 L0 0 Z" />
      </clipPath>
      <clipPath clipPathUnits="userSpaceOnUse" id="clipPath18">
        <path d="M-3 -3 L87 -3 L87 47 L-3 47 L-3 -3 Z" />
      </clipPath>
      <clipPath clipPathUnits="userSpaceOnUse" id="clipPath19">
        <path d="M0 0 L0 40 L80 40 L80 0 Z" />
      </clipPath>
      <clipPath clipPathUnits="userSpaceOnUse" id="clipPath20">
        <path d="M-3 -3 L177 -3 L177 55 L-3 55 L-3 -3 Z" />
      </clipPath>
      <clipPath clipPathUnits="userSpaceOnUse" id="clipPath21">
        <path d="M0 0 L0 48 L170 48 L170 0 Z" />
      </clipPath>
      <clipPath clipPathUnits="userSpaceOnUse" id="clipPath22">
        <path d="M-590 -815 L1180 -815 L1180 1630 L-590 1630 L-590 -815 Z" />
      </clipPath>
      <clipPath clipPathUnits="userSpaceOnUse" id="clipPath23">
        <path d="M0 0 L104 0 L104 122 L0 122 L0 0 Z" />
      </clipPath>
      <clipPath clipPathUnits="userSpaceOnUse" id="clipPath24">
        <path d="M0 0 L56 0 L56 81 L0 81 L0 0 Z" />
      </clipPath>
      <clipPath clipPathUnits="userSpaceOnUse" id="clipPath25">
        <path d="M0 0 L139 0 L139 269 L0 269 L0 0 Z" />
      </clipPath>
      <clipPath clipPathUnits="userSpaceOnUse" id="clipPath26">
        <path d="M0 0 L146 0 L146 181 L0 181 L0 0 Z" />
      </clipPath>
      <clipPath clipPathUnits="userSpaceOnUse" id="clipPath27">
        <path d="M0 0 L128 0 L128 113 L0 113 L0 0 Z" />
      </clipPath>
      <clipPath clipPathUnits="userSpaceOnUse" id="clipPath28">
        <path d="M0 0 L254 0 L254 279 L0 279 L0 0 Z" />
      </clipPath>
      <clipPath clipPathUnits="userSpaceOnUse" id="clipPath29">
        <path d="M0 0 L56 0 L56 111 L0 111 L0 0 Z" />
      </clipPath>
      <clipPath clipPathUnits="userSpaceOnUse" id="clipPath30">
        <path d="M0 0 L351 0 L351 116 L0 116 L0 0 Z" />
      </clipPath>
      <clipPath clipPathUnits="userSpaceOnUse" id="clipPath31">
        <path d="M0 0 L343 0 L343 579 L0 579 L0 0 Z" />
      </clipPath>
      <clipPath clipPathUnits="userSpaceOnUse" id="clipPath32">
        <path d="M0 0 L401 0 L401 336 L0 336 L0 0 Z" />
      </clipPath>
      <clipPath clipPathUnits="userSpaceOnUse" id="clipPath33">
        <path d="M0 0 L247 0 L247 87 L0 87 L0 0 Z" />
      </clipPath>
      <clipPath clipPathUnits="userSpaceOnUse" id="clipPath34">
        <path d="M-40 -15 L80 -15 L80 30 L-40 30 L-40 -15 Z" />
      </clipPath>
      <clipPath clipPathUnits="userSpaceOnUse" id="clipPath35">
        <path d="M-44 -15 L88 -15 L88 30 L-44 30 L-44 -15 Z" />
      </clipPath>
    </defs>
    <g style="fill:white; text-rendering:geometricPrecision; stroke:white;">
      <rect x="0" y="0" width="616" style="stroke:none;" height="878" />
      <rect x="88" y="68" transform="translate(-88,-68)" width="615" style="fill:none; stroke:black;" height="877" />
      <text x="95" y="85" transform="translate(-88,-68)" style="fill:black; stroke:none;" xml:space="preserve">act Mining</text>
      <line transform="translate(-88,-68)" x1="88" x2="150" y1="92" style="fill:none; stroke:black;" y2="92" />
      <line transform="translate(-88,-68)" x1="156" x2="156" y1="68" style="fill:none; stroke:black;" y2="82" />
      <line transform="translate(-88,-68)" x1="156" x2="150" y1="82" style="fill:none; stroke:black;" y2="92" />
    </g>
    <g style="text-rendering:geometricPrecision; font-size:11; font-family:sans-serif;" transform="translate(22,154)">
      <circle style="clip-path:url(#clipPath3); stroke:none;" r="10" cx="20" cy="10" />
    </g>
    <g transform="translate(12,34)" style="text-rendering:geometricPrecision; stroke-width:2; font-size:11; font-family:sans-serif;">
      <rect x="0" y="0" width="590" style="clip-path:url(#clipPath4); fill:none;" height="15" />
    </g>
    <g style="text-rendering:geometricPrecision; font-size:11; font-family:sans-serif;" transform="translate(12,34)">
      <text x="280" y="12" style="clip-path:url(#clipPath5); stroke:none;" xml:space="preserve">:Miner</text>
    </g>
    <g transform="translate(12,49)" style="text-rendering:geometricPrecision; stroke-width:2; font-size:11; font-family:sans-serif;">
      <rect x="0" y="0" width="590" style="clip-path:url(#clipPath6); fill:none;" height="815" />
    </g>
    <g transform="translate(112,84)" style="font-size:11; fill:rgb(122,207,245); text-rendering:geometricPrecision; font-family:sans-serif; stroke:rgb(122,207,245);">
      <rect x="1" y="1" width="118" style="clip-path:url(#clipPath7); stroke:none;" rx="15" ry="15" height="148" />
    </g>
    <g transform="translate(112,84)" style="font-size:11; stroke-linecap:butt; text-rendering:geometricPrecision; font-family:sans-serif; stroke-linejoin:round; stroke-miterlimit:0;">
      <rect x="1" y="1" width="118" style="clip-path:url(#clipPath7); fill:none;" rx="15" ry="15" height="148" />
    </g>
    <g style="text-rendering:geometricPrecision; font-size:11; font-family:sans-serif;" transform="translate(112,84)">
      <text x="8" y="79" style="clip-path:url(#clipPath8); stroke:none;" xml:space="preserve">ref : act MinerWaiting</text>
    </g>
    <g transform="translate(392,104)" style="font-size:11; fill:rgb(122,207,245); text-rendering:geometricPrecision; font-family:sans-serif; stroke:rgb(122,207,245);">
      <rect x="1" y="1" width="178" style="clip-path:url(#clipPath9); stroke:none;" rx="15" ry="15" height="118" />
    </g>
    <g transform="translate(392,104)" style="font-size:11; stroke-linecap:butt; text-rendering:geometricPrecision; font-family:sans-serif; stroke-linejoin:round; stroke-miterlimit:0;">
      <rect x="1" y="1" width="178" style="clip-path:url(#clipPath9); fill:none;" rx="15" ry="15" height="118" />
    </g>
    <g style="text-rendering:geometricPrecision; font-size:11; font-family:sans-serif;" transform="translate(392,104)">
      <text x="8" y="64" style="clip-path:url(#clipPath10); stroke:none;" xml:space="preserve">Regarde si la zone est en attente</text>
    </g>
    <g transform="translate(392,334)" style="font-size:11; fill:rgb(122,207,245); text-rendering:geometricPrecision; font-family:sans-serif; stroke:rgb(122,207,245);">
      <rect x="1" y="1" width="168" style="clip-path:url(#clipPath11); stroke:none;" rx="15" ry="15" height="118" />
    </g>
    <g transform="translate(392,334)" style="font-size:11; stroke-linecap:butt; text-rendering:geometricPrecision; font-family:sans-serif; stroke-linejoin:round; stroke-miterlimit:0;">
      <rect x="1" y="1" width="168" style="clip-path:url(#clipPath11); fill:none;" rx="15" ry="15" height="118" />
    </g>
    <g style="text-rendering:geometricPrecision; font-size:11; font-family:sans-serif;" transform="translate(392,334)">
      <text x="5" y="64" style="clip-path:url(#clipPath12); stroke:none;" xml:space="preserve">Se déplace vers la zone à miner</text>
    </g>
    <g transform="translate(462,274)" style="font-size:11; fill:rgb(122,207,245); text-rendering:geometricPrecision; font-family:sans-serif; stroke:rgb(122,207,245);">
      <polygon style="clip-path:url(#clipPath13); stroke:none;" points=" 10 7 17 20 10 32 3 20" />
    </g>
    <g transform="translate(462,274)" style="font-size:11; stroke-linecap:butt; text-rendering:geometricPrecision; font-family:sans-serif; stroke-linejoin:round; stroke-miterlimit:0;">
      <polygon style="fill:none; clip-path:url(#clipPath13);" points=" 10 7 17 20 10 32 3 20" />
    </g>
    <g transform="translate(412,474)" style="font-size:11; fill:rgb(122,207,245); text-rendering:geometricPrecision; font-family:sans-serif; stroke:rgb(122,207,245);">
      <rect x="1" y="1" width="128" style="clip-path:url(#clipPath14); stroke:none;" rx="15" ry="15" height="118" />
    </g>
    <g transform="translate(412,474)" style="font-size:11; stroke-linecap:butt; text-rendering:geometricPrecision; font-family:sans-serif; stroke-linejoin:round; stroke-miterlimit:0;">
      <rect x="1" y="1" width="128" style="clip-path:url(#clipPath14); fill:none;" rx="15" ry="15" height="118" />
    </g>
    <g style="text-rendering:geometricPrecision; font-size:11; font-family:sans-serif;" transform="translate(412,474)">
      <text x="8" y="57" style="clip-path:url(#clipPath15); stroke:none;" xml:space="preserve">Cherche le bloc le plus</text>
      <text x="48" y="72" style="clip-path:url(#clipPath15); stroke:none;" xml:space="preserve">proche</text>
    </g>
    <g transform="translate(412,624)" style="font-size:11; fill:rgb(122,207,245); text-rendering:geometricPrecision; font-family:sans-serif; stroke:rgb(122,207,245);">
      <rect x="1" y="1" width="138" style="clip-path:url(#clipPath16); stroke:none;" rx="15" ry="15" height="98" />
    </g>
    <g transform="translate(412,624)" style="font-size:11; stroke-linecap:butt; text-rendering:geometricPrecision; font-family:sans-serif; stroke-linejoin:round; stroke-miterlimit:0;">
      <rect x="1" y="1" width="138" style="clip-path:url(#clipPath16); fill:none;" rx="15" ry="15" height="98" />
    </g>
    <g style="text-rendering:geometricPrecision; font-size:11; font-family:sans-serif;" transform="translate(412,624)">
      <text x="4" y="54" style="clip-path:url(#clipPath17); stroke:none;" xml:space="preserve">Mine le bloc le plus proche</text>
    </g>
    <g transform="translate(462,744)" style="font-size:11; fill:rgb(122,207,245); text-rendering:geometricPrecision; font-family:sans-serif; stroke:rgb(122,207,245);">
      <polygon style="clip-path:url(#clipPath13); stroke:none;" points=" 10 7 17 20 10 32 3 20" />
    </g>
    <g transform="translate(462,744)" style="font-size:11; stroke-linecap:butt; text-rendering:geometricPrecision; font-family:sans-serif; stroke-linejoin:round; stroke-miterlimit:0;">
      <polygon style="fill:none; clip-path:url(#clipPath13);" points=" 10 7 17 20 10 32 3 20" />
    </g>
    <g transform="translate(502,244)" style="font-size:11; fill:rgb(122,207,245); text-rendering:geometricPrecision; font-family:sans-serif; stroke:rgb(122,207,245);">
      <polygon style="clip-path:url(#clipPath18); stroke:none;" points=" 0 0 64 0 79 15 64 15 64 0 79 15 79 39 0 39" />
    </g>
    <g transform="translate(502,244)" style="font-size:11; stroke-linecap:butt; text-rendering:geometricPrecision; font-family:sans-serif; stroke-linejoin:round; stroke-miterlimit:0;">
      <polygon style="fill:none; clip-path:url(#clipPath18);" points=" 0 0 64 0 79 15 64 15 64 0 79 15 79 39 0 39" />
    </g>
    <g style="text-rendering:geometricPrecision; font-size:11; font-family:&apos;Tahoma&apos;;" transform="translate(502,244)">
      <path d="M3.2344 14.9704 L3.2344 13.9079 L7.6406 8.4079 Q8.1094 7.8298 8.5312 7.3923 L3.7344 7.3923 L3.7344 6.3767 L9.8906 6.3767 L9.8906 7.3923 L5.0625 13.3454 L4.5469 13.9548 L10.0312 13.9548 L10.0312 14.9704 L3.2344 14.9704 ZM10.4062 11.8611 Q10.4062 10.1267 11.3594 9.2986 Q12.1562 8.6111 13.3125 8.6111 Q14.5938 8.6111 15.4141 9.447 Q16.2344 10.2829 16.2344 11.7673 Q16.2344 12.9704 15.875 13.6579 Q15.5156 14.3454 14.8203 14.7282 Q14.125 15.1111 13.3125 15.1111 Q12.0156 15.1111 11.2109 14.2751 Q10.4062 13.4392 10.4062 11.8611 ZM11.4844 11.8611 Q11.4844 13.0486 12.0078 13.6423 Q12.5312 14.2361 13.3125 14.2361 Q14.1094 14.2361 14.625 13.6423 Q15.1406 13.0486 15.1406 11.8298 Q15.1406 10.6736 14.6172 10.0798 Q14.0938 9.4861 13.3125 9.4861 Q12.5312 9.4861 12.0078 10.072 Q11.4844 10.6579 11.4844 11.8611 ZM17.7969 14.9704 L17.7969 8.7517 L18.7344 8.7517 L18.7344 9.6267 Q19.4219 8.6111 20.7188 8.6111 Q21.2812 8.6111 21.7578 8.8142 Q22.2344 9.0173 22.4688 9.3454 Q22.7031 9.6736 22.7969 10.1111 Q22.8438 10.4079 22.8438 11.1423 L22.8438 14.9704 L21.7969 14.9704 L21.7969 11.1892 Q21.7969 10.5329 21.6719 10.2204 Q21.5469 9.9079 21.2344 9.7126 Q20.9219 9.5173 20.5 9.5173 Q19.8281 9.5173 19.3359 9.947 Q18.8438 10.3767 18.8438 11.5642 L18.8438 14.9704 L17.7969 14.9704 ZM29.0469 12.9704 L30.1406 13.0954 Q29.8906 14.0486 29.1875 14.5798 Q28.4844 15.1111 27.4062 15.1111 Q26.0469 15.1111 25.2422 14.2673 Q24.4375 13.4236 24.4375 11.9079 Q24.4375 10.3454 25.25 9.4782 Q26.0625 8.6111 27.3438 8.6111 Q28.5938 8.6111 29.3828 9.4548 Q30.1719 10.2986 30.1719 11.8454 Q30.1719 11.9392 30.1719 12.1267 L25.5312 12.1267 Q25.5938 13.1579 26.1094 13.697 Q26.625 14.2361 27.4062 14.2361 Q27.9844 14.2361 28.3984 13.9314 Q28.8125 13.6267 29.0469 12.9704 ZM25.5938 11.2673 L29.0625 11.2673 Q29 10.4704 28.6719 10.0798 Q28.1562 9.4704 27.3594 9.4704 Q26.625 9.4704 26.1328 9.9548 Q25.6406 10.4392 25.5938 11.2673 ZM39.0469 12.9704 L40.1406 13.0954 Q39.8906 14.0486 39.1875 14.5798 Q38.4844 15.1111 37.4062 15.1111 Q36.0469 15.1111 35.2422 14.2673 Q34.4375 13.4236 34.4375 11.9079 Q34.4375 10.3454 35.25 9.4782 Q36.0625 8.6111 37.3438 8.6111 Q38.5938 8.6111 39.3828 9.4548 Q40.1719 10.2986 40.1719 11.8454 Q40.1719 11.9392 40.1719 12.1267 L35.5312 12.1267 Q35.5938 13.1579 36.1094 13.697 Q36.625 14.2361 37.4062 14.2361 Q37.9844 14.2361 38.3984 13.9314 Q38.8125 13.6267 39.0469 12.9704 ZM35.5938 11.2673 L39.0625 11.2673 Q39 10.4704 38.6719 10.0798 Q38.1562 9.4704 37.3594 9.4704 Q36.625 9.4704 36.1328 9.9548 Q35.6406 10.4392 35.5938 11.2673 ZM41.7969 14.9704 L41.7969 8.7517 L42.7344 8.7517 L42.7344 9.6267 Q43.4219 8.6111 44.7188 8.6111 Q45.2812 8.6111 45.7578 8.8142 Q46.2344 9.0173 46.4688 9.3454 Q46.7031 9.6736 46.7969 10.1111 Q46.8438 10.4079 46.8438 11.1423 L46.8438 14.9704 L45.7969 14.9704 L45.7969 11.1892 Q45.7969 10.5329 45.6719 10.2204 Q45.5469 9.9079 45.2344 9.7126 Q44.9219 9.5173 44.5 9.5173 Q43.8281 9.5173 43.3359 9.947 Q42.8438 10.3767 42.8438 11.5642 L42.8438 14.9704 L41.7969 14.9704 Z" style="clip-path:url(#clipPath19); stroke:none;" />
      <path d="M7.8594 28.2048 Q7.2656 28.7048 6.7266 28.9079 Q6.1875 29.1111 5.5625 29.1111 Q4.5312 29.1111 3.9844 28.6111 Q3.4375 28.1111 3.4375 27.3298 Q3.4375 26.8767 3.6406 26.4939 Q3.8438 26.1111 4.1875 25.8845 Q4.5312 25.6579 4.9531 25.5486 Q5.25 25.4548 5.8906 25.3767 Q7.1562 25.2361 7.7656 25.0173 Q7.7656 24.7986 7.7656 24.7517 Q7.7656 24.0954 7.4688 23.8298 Q7.0625 23.4861 6.2656 23.4861 Q5.5312 23.4861 5.1719 23.7439 Q4.8125 24.0017 4.6406 24.6579 L3.6094 24.5173 Q3.75 23.8611 4.0781 23.4548 Q4.4062 23.0486 5.0156 22.8298 Q5.625 22.6111 6.4219 22.6111 Q7.2188 22.6111 7.7188 22.7986 Q8.2188 22.9861 8.4531 23.2673 Q8.6875 23.5486 8.7812 23.9861 Q8.8281 24.2517 8.8281 24.9548 L8.8281 26.3611 Q8.8281 27.8298 8.8984 28.2204 Q8.9688 28.6111 9.1719 28.9704 L8.0625 28.9704 Q7.9062 28.6423 7.8594 28.2048 ZM7.7656 25.8454 Q7.1875 26.0798 6.0469 26.2517 Q5.3906 26.3454 5.125 26.4626 Q4.8594 26.5798 4.7109 26.7986 Q4.5625 27.0173 4.5625 27.2986 Q4.5625 27.7204 4.8828 28.0017 Q5.2031 28.2829 5.8125 28.2829 Q6.4219 28.2829 6.8984 28.0173 Q7.375 27.7517 7.5938 27.2829 Q7.7656 26.9236 7.7656 26.2361 L7.7656 25.8454 ZM13.0938 28.0329 L13.25 28.9548 Q12.7969 29.0486 12.4531 29.0486 Q11.875 29.0486 11.5625 28.8689 Q11.25 28.6892 11.1172 28.3923 Q10.9844 28.0954 10.9844 27.1423 L10.9844 23.5642 L10.2188 23.5642 L10.2188 22.7517 L10.9844 22.7517 L10.9844 21.2048 L12.0312 20.5798 L12.0312 22.7517 L13.0938 22.7517 L13.0938 23.5642 L12.0312 23.5642 L12.0312 27.2048 Q12.0312 27.6579 12.0859 27.7829 Q12.1406 27.9079 12.2656 27.9861 Q12.3906 28.0642 12.625 28.0642 Q12.8125 28.0642 13.0938 28.0329 ZM16.0938 28.0329 L16.25 28.9548 Q15.7969 29.0486 15.4531 29.0486 Q14.875 29.0486 14.5625 28.8689 Q14.25 28.6892 14.1172 28.3923 Q13.9844 28.0954 13.9844 27.1423 L13.9844 23.5642 L13.2188 23.5642 L13.2188 22.7517 L13.9844 22.7517 L13.9844 21.2048 L15.0312 20.5798 L15.0312 22.7517 L16.0938 22.7517 L16.0938 23.5642 L15.0312 23.5642 L15.0312 27.2048 Q15.0312 27.6579 15.0859 27.7829 Q15.1406 27.9079 15.2656 27.9861 Q15.3906 28.0642 15.625 28.0642 Q15.8125 28.0642 16.0938 28.0329 ZM21.0469 26.9704 L22.1406 27.0954 Q21.8906 28.0486 21.1875 28.5798 Q20.4844 29.1111 19.4062 29.1111 Q18.0469 29.1111 17.2422 28.2673 Q16.4375 27.4236 16.4375 25.9079 Q16.4375 24.3454 17.25 23.4782 Q18.0625 22.6111 19.3438 22.6111 Q20.5938 22.6111 21.3828 23.4548 Q22.1719 24.2986 22.1719 25.8454 Q22.1719 25.9392 22.1719 26.1267 L17.5312 26.1267 Q17.5938 27.1579 18.1094 27.697 Q18.625 28.2361 19.4062 28.2361 Q19.9844 28.2361 20.3984 27.9314 Q20.8125 27.6267 21.0469 26.9704 ZM17.5938 25.2673 L21.0625 25.2673 Q21 24.4704 20.6719 24.0798 Q20.1562 23.4704 19.3594 23.4704 Q18.625 23.4704 18.1328 23.9548 Q17.6406 24.4392 17.5938 25.2673 ZM23.7969 28.9704 L23.7969 22.7517 L24.7344 22.7517 L24.7344 23.6267 Q25.4219 22.6111 26.7188 22.6111 Q27.2812 22.6111 27.7578 22.8142 Q28.2344 23.0173 28.4688 23.3454 Q28.7031 23.6736 28.7969 24.1111 Q28.8438 24.4079 28.8438 25.1423 L28.8438 28.9704 L27.7969 28.9704 L27.7969 25.1892 Q27.7969 24.5329 27.6719 24.2204 Q27.5469 23.9079 27.2344 23.7126 Q26.9219 23.5173 26.5 23.5173 Q25.8281 23.5173 25.3359 23.947 Q24.8438 24.3767 24.8438 25.5642 L24.8438 28.9704 L23.7969 28.9704 ZM33.0938 28.0329 L33.25 28.9548 Q32.7969 29.0486 32.4531 29.0486 Q31.875 29.0486 31.5625 28.8689 Q31.25 28.6892 31.1172 28.3923 Q30.9844 28.0954 30.9844 27.1423 L30.9844 23.5642 L30.2188 23.5642 L30.2188 22.7517 L30.9844 22.7517 L30.9844 21.2048 L32.0312 20.5798 L32.0312 22.7517 L33.0938 22.7517 L33.0938 23.5642 L32.0312 23.5642 L32.0312 27.2048 Q32.0312 27.6579 32.0859 27.7829 Q32.1406 27.9079 32.2656 27.9861 Q32.3906 28.0642 32.625 28.0642 Q32.8125 28.0642 33.0938 28.0329 ZM38.0469 26.9704 L39.1406 27.0954 Q38.8906 28.0486 38.1875 28.5798 Q37.4844 29.1111 36.4062 29.1111 Q35.0469 29.1111 34.2422 28.2673 Q33.4375 27.4236 33.4375 25.9079 Q33.4375 24.3454 34.25 23.4782 Q35.0625 22.6111 36.3438 22.6111 Q37.5938 22.6111 38.3828 23.4548 Q39.1719 24.2986 39.1719 25.8454 Q39.1719 25.9392 39.1719 26.1267 L34.5312 26.1267 Q34.5938 27.1579 35.1094 27.697 Q35.625 28.2361 36.4062 28.2361 Q36.9844 28.2361 37.3984 27.9314 Q37.8125 27.6267 38.0469 26.9704 ZM34.5938 25.2673 L38.0625 25.2673 Q38 24.4704 37.6719 24.0798 Q37.1562 23.4704 36.3594 23.4704 Q35.625 23.4704 35.1328 23.9548 Q34.6406 24.4392 34.5938 25.2673 Z" style="clip-path:url(#clipPath19); stroke:none;" />
    </g>
    <g transform="translate(392,794)" style="font-size:11; fill:rgb(122,207,245); text-rendering:geometricPrecision; font-family:sans-serif; stroke:rgb(122,207,245);">
      <polygon style="clip-path:url(#clipPath20); stroke:none;" points=" 0 0 154 0 169 15 154 15 154 0 169 15 169 47 0 47" />
    </g>
    <g transform="translate(392,794)" style="font-size:11; stroke-linecap:butt; text-rendering:geometricPrecision; font-family:sans-serif; stroke-linejoin:round; stroke-miterlimit:0;">
      <polygon style="fill:none; clip-path:url(#clipPath20);" points=" 0 0 154 0 169 15 154 15 154 0 169 15 169 47 0 47" />
    </g>
    <g style="text-rendering:geometricPrecision; font-size:11; font-family:&apos;Tahoma&apos;;" transform="translate(392,794)">
      <path d="M3.2344 14.9704 L3.2344 13.9079 L7.6406 8.4079 Q8.1094 7.8298 8.5312 7.3923 L3.7344 7.3923 L3.7344 6.3767 L9.8906 6.3767 L9.8906 7.3923 L5.0625 13.3454 L4.5469 13.9548 L10.0312 13.9548 L10.0312 14.9704 L3.2344 14.9704 ZM10.4062 11.8611 Q10.4062 10.1267 11.3594 9.2986 Q12.1562 8.6111 13.3125 8.6111 Q14.5938 8.6111 15.4141 9.447 Q16.2344 10.2829 16.2344 11.7673 Q16.2344 12.9704 15.875 13.6579 Q15.5156 14.3454 14.8203 14.7282 Q14.125 15.1111 13.3125 15.1111 Q12.0156 15.1111 11.2109 14.2751 Q10.4062 13.4392 10.4062 11.8611 ZM11.4844 11.8611 Q11.4844 13.0486 12.0078 13.6423 Q12.5312 14.2361 13.3125 14.2361 Q14.1094 14.2361 14.625 13.6423 Q15.1406 13.0486 15.1406 11.8298 Q15.1406 10.6736 14.6172 10.0798 Q14.0938 9.4861 13.3125 9.4861 Q12.5312 9.4861 12.0078 10.072 Q11.4844 10.6579 11.4844 11.8611 ZM17.7969 14.9704 L17.7969 8.7517 L18.7344 8.7517 L18.7344 9.6267 Q19.4219 8.6111 20.7188 8.6111 Q21.2812 8.6111 21.7578 8.8142 Q22.2344 9.0173 22.4688 9.3454 Q22.7031 9.6736 22.7969 10.1111 Q22.8438 10.4079 22.8438 11.1423 L22.8438 14.9704 L21.7969 14.9704 L21.7969 11.1892 Q21.7969 10.5329 21.6719 10.2204 Q21.5469 9.9079 21.2344 9.7126 Q20.9219 9.5173 20.5 9.5173 Q19.8281 9.5173 19.3359 9.947 Q18.8438 10.3767 18.8438 11.5642 L18.8438 14.9704 L17.7969 14.9704 ZM29.0469 12.9704 L30.1406 13.0954 Q29.8906 14.0486 29.1875 14.5798 Q28.4844 15.1111 27.4062 15.1111 Q26.0469 15.1111 25.2422 14.2673 Q24.4375 13.4236 24.4375 11.9079 Q24.4375 10.3454 25.25 9.4782 Q26.0625 8.6111 27.3438 8.6111 Q28.5938 8.6111 29.3828 9.4548 Q30.1719 10.2986 30.1719 11.8454 Q30.1719 11.9392 30.1719 12.1267 L25.5312 12.1267 Q25.5938 13.1579 26.1094 13.697 Q26.625 14.2361 27.4062 14.2361 Q27.9844 14.2361 28.3984 13.9314 Q28.8125 13.6267 29.0469 12.9704 ZM25.5938 11.2673 L29.0625 11.2673 Q29 10.4704 28.6719 10.0798 Q28.1562 9.4704 27.3594 9.4704 Q26.625 9.4704 26.1328 9.9548 Q25.6406 10.4392 25.5938 11.2673 ZM38.8594 12.6892 L39.8906 12.8298 Q39.7188 13.8923 39.0156 14.5017 Q38.3125 15.1111 37.2969 15.1111 Q36.0156 15.1111 35.2422 14.2751 Q34.4688 13.4392 34.4688 11.8767 Q34.4688 10.8767 34.8047 10.1189 Q35.1406 9.3611 35.8203 8.9861 Q36.5 8.6111 37.3125 8.6111 Q38.3125 8.6111 38.9609 9.1189 Q39.6094 9.6267 39.7969 10.5798 L38.7656 10.7361 Q38.625 10.1111 38.25 9.7907 Q37.875 9.4704 37.3438 9.4704 Q36.5469 9.4704 36.0469 10.0407 Q35.5469 10.6111 35.5469 11.8454 Q35.5469 13.1111 36.0312 13.6736 Q36.5156 14.2361 37.2812 14.2361 Q37.9062 14.2361 38.3203 13.8611 Q38.7344 13.4861 38.8594 12.6892 ZM40.4062 11.8611 Q40.4062 10.1267 41.3594 9.2986 Q42.1562 8.6111 43.3125 8.6111 Q44.5938 8.6111 45.4141 9.447 Q46.2344 10.2829 46.2344 11.7673 Q46.2344 12.9704 45.875 13.6579 Q45.5156 14.3454 44.8203 14.7282 Q44.125 15.1111 43.3125 15.1111 Q42.0156 15.1111 41.2109 14.2751 Q40.4062 13.4392 40.4062 11.8611 ZM41.4844 11.8611 Q41.4844 13.0486 42.0078 13.6423 Q42.5312 14.2361 43.3125 14.2361 Q44.1094 14.2361 44.625 13.6423 Q45.1406 13.0486 45.1406 11.8298 Q45.1406 10.6736 44.6172 10.0798 Q44.0938 9.4861 43.3125 9.4861 Q42.5312 9.4861 42.0078 10.072 Q41.4844 10.6579 41.4844 11.8611 ZM47.7969 14.9704 L47.7969 8.7517 L48.7344 8.7517 L48.7344 9.6267 Q49.0312 9.1579 49.5156 8.8845 Q50 8.6111 50.625 8.6111 Q51.3125 8.6111 51.7578 8.8923 Q52.2031 9.1736 52.375 9.6892 Q53.125 8.6111 54.2969 8.6111 Q55.2344 8.6111 55.7266 9.1189 Q56.2188 9.6267 56.2188 10.7048 L56.2188 14.9704 L55.1719 14.9704 L55.1719 11.0486 Q55.1719 10.4236 55.0703 10.1423 Q54.9688 9.8611 54.7031 9.6892 Q54.4375 9.5173 54.0625 9.5173 Q53.4062 9.5173 52.9766 9.9548 Q52.5469 10.3923 52.5469 11.3611 L52.5469 14.9704 L51.4844 14.9704 L51.4844 10.9236 Q51.4844 10.2204 51.2266 9.8689 Q50.9688 9.5173 50.3906 9.5173 Q49.9375 9.5173 49.5625 9.7517 Q49.1875 9.9861 49.0156 10.4392 Q48.8438 10.8923 48.8438 11.7361 L48.8438 14.9704 L47.7969 14.9704 ZM58.7969 17.3611 L58.7969 8.7517 L59.75 8.7517 L59.75 9.5486 Q60.0938 9.0798 60.5234 8.8454 Q60.9531 8.6111 61.5625 8.6111 Q62.3594 8.6111 62.9688 9.0173 Q63.5781 9.4236 63.8828 10.1736 Q64.1875 10.9236 64.1875 11.8142 Q64.1875 12.7673 63.8516 13.5329 Q63.5156 14.2986 62.8594 14.7048 Q62.2031 15.1111 61.4844 15.1111 Q60.9531 15.1111 60.5312 14.8845 Q60.1094 14.6579 59.8438 14.3298 L59.8438 17.3611 L58.7969 17.3611 ZM59.75 11.8923 Q59.75 13.0954 60.2344 13.6657 Q60.7188 14.2361 61.4062 14.2361 Q62.1094 14.2361 62.6094 13.6423 Q63.1094 13.0486 63.1094 11.7986 Q63.1094 10.6111 62.625 10.0251 Q62.1406 9.4392 61.4531 9.4392 Q60.7812 9.4392 60.2656 10.0642 Q59.75 10.6892 59.75 11.8923 ZM65.7656 14.9704 L65.7656 6.3767 L66.8281 6.3767 L66.8281 14.9704 L65.7656 14.9704 ZM73.0469 12.9704 L74.1406 13.0954 Q73.8906 14.0486 73.1875 14.5798 Q72.4844 15.1111 71.4062 15.1111 Q70.0469 15.1111 69.2422 14.2673 Q68.4375 13.4236 68.4375 11.9079 Q68.4375 10.3454 69.25 9.4782 Q70.0625 8.6111 71.3438 8.6111 Q72.5938 8.6111 73.3828 9.4548 Q74.1719 10.2986 74.1719 11.8454 Q74.1719 11.9392 74.1719 12.1267 L69.5312 12.1267 Q69.5938 13.1579 70.1094 13.697 Q70.625 14.2361 71.4062 14.2361 Q71.9844 14.2361 72.3984 13.9314 Q72.8125 13.6267 73.0469 12.9704 ZM69.5938 11.2673 L73.0625 11.2673 Q73 10.4704 72.6719 10.0798 Q72.1562 9.4704 71.3594 9.4704 Q70.625 9.4704 70.1328 9.9548 Q69.6406 10.4392 69.5938 11.2673 ZM70.8438 6.9704 L70 6.9704 L68.6406 5.3298 L70.0625 5.3298 L70.8438 6.9704 ZM78.0938 14.0329 L78.25 14.9548 Q77.7969 15.0486 77.4531 15.0486 Q76.875 15.0486 76.5625 14.8689 Q76.25 14.6892 76.1172 14.3923 Q75.9844 14.0954 75.9844 13.1423 L75.9844 9.5642 L75.2188 9.5642 L75.2188 8.7517 L75.9844 8.7517 L75.9844 7.2048 L77.0312 6.5798 L77.0312 8.7517 L78.0938 8.7517 L78.0938 9.5642 L77.0312 9.5642 L77.0312 13.2048 Q77.0312 13.6579 77.0859 13.7829 Q77.1406 13.9079 77.2656 13.9861 Q77.3906 14.0642 77.625 14.0642 Q77.8125 14.0642 78.0938 14.0329 ZM83.0469 12.9704 L84.1406 13.0954 Q83.8906 14.0486 83.1875 14.5798 Q82.4844 15.1111 81.4062 15.1111 Q80.0469 15.1111 79.2422 14.2673 Q78.4375 13.4236 78.4375 11.9079 Q78.4375 10.3454 79.25 9.4782 Q80.0625 8.6111 81.3438 8.6111 Q82.5938 8.6111 83.3828 9.4548 Q84.1719 10.2986 84.1719 11.8454 Q84.1719 11.9392 84.1719 12.1267 L79.5312 12.1267 Q79.5938 13.1579 80.1094 13.697 Q80.625 14.2361 81.4062 14.2361 Q81.9844 14.2361 82.3984 13.9314 Q82.8125 13.6267 83.0469 12.9704 ZM79.5938 11.2673 L83.0625 11.2673 Q83 10.4704 82.6719 10.0798 Q82.1562 9.4704 81.3594 9.4704 Q80.625 9.4704 80.1328 9.9548 Q79.6406 10.4392 79.5938 11.2673 ZM85.7969 14.9704 L85.7969 8.7517 L86.7344 8.7517 L86.7344 9.6267 Q87.0312 9.1579 87.5156 8.8845 Q88 8.6111 88.625 8.6111 Q89.3125 8.6111 89.7578 8.8923 Q90.2031 9.1736 90.375 9.6892 Q91.125 8.6111 92.2969 8.6111 Q93.2344 8.6111 93.7266 9.1189 Q94.2188 9.6267 94.2188 10.7048 L94.2188 14.9704 L93.1719 14.9704 L93.1719 11.0486 Q93.1719 10.4236 93.0703 10.1423 Q92.9688 9.8611 92.7031 9.6892 Q92.4375 9.5173 92.0625 9.5173 Q91.4062 9.5173 90.9766 9.9548 Q90.5469 10.3923 90.5469 11.3611 L90.5469 14.9704 L89.4844 14.9704 L89.4844 10.9236 Q89.4844 10.2204 89.2266 9.8689 Q88.9688 9.5173 88.3906 9.5173 Q87.9375 9.5173 87.5625 9.7517 Q87.1875 9.9861 87.0156 10.4392 Q86.8438 10.8923 86.8438 11.7361 L86.8438 14.9704 L85.7969 14.9704 ZM101.0469 12.9704 L102.1406 13.0954 Q101.8906 14.0486 101.1875 14.5798 Q100.4844 15.1111 99.4062 15.1111 Q98.0469 15.1111 97.2422 14.2673 Q96.4375 13.4236 96.4375 11.9079 Q96.4375 10.3454 97.25 9.4782 Q98.0625 8.6111 99.3438 8.6111 Q100.5938 8.6111 101.3828 9.4548 Q102.1719 10.2986 102.1719 11.8454 Q102.1719 11.9392 102.1719 12.1267 L97.5312 12.1267 Q97.5938 13.1579 98.1094 13.697 Q98.625 14.2361 99.4062 14.2361 Q99.9844 14.2361 100.3984 13.9314 Q100.8125 13.6267 101.0469 12.9704 ZM97.5938 11.2673 L101.0625 11.2673 Q101 10.4704 100.6719 10.0798 Q100.1562 9.4704 99.3594 9.4704 Q98.625 9.4704 98.1328 9.9548 Q97.6406 10.4392 97.5938 11.2673 ZM103.7969 14.9704 L103.7969 8.7517 L104.7344 8.7517 L104.7344 9.6267 Q105.4219 8.6111 106.7188 8.6111 Q107.2812 8.6111 107.7578 8.8142 Q108.2344 9.0173 108.4688 9.3454 Q108.7031 9.6736 108.7969 10.1111 Q108.8438 10.4079 108.8438 11.1423 L108.8438 14.9704 L107.7969 14.9704 L107.7969 11.1892 Q107.7969 10.5329 107.6719 10.2204 Q107.5469 9.9079 107.2344 9.7126 Q106.9219 9.5173 106.5 9.5173 Q105.8281 9.5173 105.3359 9.947 Q104.8438 10.3767 104.8438 11.5642 L104.8438 14.9704 L103.7969 14.9704 ZM113.0938 14.0329 L113.25 14.9548 Q112.7969 15.0486 112.4531 15.0486 Q111.875 15.0486 111.5625 14.8689 Q111.25 14.6892 111.1172 14.3923 Q110.9844 14.0954 110.9844 13.1423 L110.9844 9.5642 L110.2188 9.5642 L110.2188 8.7517 L110.9844 8.7517 L110.9844 7.2048 L112.0312 6.5798 L112.0312 8.7517 L113.0938 8.7517 L113.0938 9.5642 L112.0312 9.5642 L112.0312 13.2048 Q112.0312 13.6579 112.0859 13.7829 Q112.1406 13.9079 112.2656 13.9861 Q112.3906 14.0642 112.625 14.0642 Q112.8125 14.0642 113.0938 14.0329 ZM116.7969 14.9704 L116.7969 8.7517 L117.7344 8.7517 L117.7344 9.6267 Q118.0312 9.1579 118.5156 8.8845 Q119 8.6111 119.625 8.6111 Q120.3125 8.6111 120.7578 8.8923 Q121.2031 9.1736 121.375 9.6892 Q122.125 8.6111 123.2969 8.6111 Q124.2344 8.6111 124.7266 9.1189 Q125.2188 9.6267 125.2188 10.7048 L125.2188 14.9704 L124.1719 14.9704 L124.1719 11.0486 Q124.1719 10.4236 124.0703 10.1423 Q123.9688 9.8611 123.7031 9.6892 Q123.4375 9.5173 123.0625 9.5173 Q122.4062 9.5173 121.9766 9.9548 Q121.5469 10.3923 121.5469 11.3611 L121.5469 14.9704 L120.4844 14.9704 L120.4844 10.9236 Q120.4844 10.2204 120.2266 9.8689 Q119.9688 9.5173 119.3906 9.5173 Q118.9375 9.5173 118.5625 9.7517 Q118.1875 9.9861 118.0156 10.4392 Q117.8438 10.8923 117.8438 11.7361 L117.8438 14.9704 L116.7969 14.9704 ZM127.7969 7.5954 L127.7969 6.3767 L128.8594 6.3767 L128.8594 7.5954 L127.7969 7.5954 ZM127.7969 14.9704 L127.7969 8.7517 L128.8594 8.7517 L128.8594 14.9704 L127.7969 14.9704 ZM130.7969 14.9704 L130.7969 8.7517 L131.7344 8.7517 L131.7344 9.6267 Q132.4219 8.6111 133.7188 8.6111 Q134.2812 8.6111 134.7578 8.8142 Q135.2344 9.0173 135.4688 9.3454 Q135.7031 9.6736 135.7969 10.1111 Q135.8438 10.4079 135.8438 11.1423 L135.8438 14.9704 L134.7969 14.9704 L134.7969 11.1892 Q134.7969 10.5329 134.6719 10.2204 Q134.5469 9.9079 134.2344 9.7126 Q133.9219 9.5173 133.5 9.5173 Q132.8281 9.5173 132.3359 9.947 Q131.8438 10.3767 131.8438 11.5642 L131.8438 14.9704 L130.7969 14.9704 ZM142.0469 12.9704 L143.1406 13.0954 Q142.8906 14.0486 142.1875 14.5798 Q141.4844 15.1111 140.4062 15.1111 Q139.0469 15.1111 138.2422 14.2673 Q137.4375 13.4236 137.4375 11.9079 Q137.4375 10.3454 138.25 9.4782 Q139.0625 8.6111 140.3438 8.6111 Q141.5938 8.6111 142.3828 9.4548 Q143.1719 10.2986 143.1719 11.8454 Q143.1719 11.9392 143.1719 12.1267 L138.5312 12.1267 Q138.5938 13.1579 139.1094 13.697 Q139.625 14.2361 140.4062 14.2361 Q140.9844 14.2361 141.3984 13.9314 Q141.8125 13.6267 142.0469 12.9704 ZM138.5938 11.2673 L142.0625 11.2673 Q142 10.4704 141.6719 10.0798 Q141.1562 9.4704 140.3594 9.4704 Q139.625 9.4704 139.1328 9.9548 Q138.6406 10.4392 138.5938 11.2673 ZM139.125 6.9704 L139.9062 5.3298 L141.2969 5.3298 L140 6.9704 L139.125 6.9704 ZM149.0469 12.9704 L150.1406 13.0954 Q149.8906 14.0486 149.1875 14.5798 Q148.4844 15.1111 147.4062 15.1111 Q146.0469 15.1111 145.2422 14.2673 Q144.4375 13.4236 144.4375 11.9079 Q144.4375 10.3454 145.25 9.4782 Q146.0625 8.6111 147.3438 8.6111 Q148.5938 8.6111 149.3828 9.4548 Q150.1719 10.2986 150.1719 11.8454 Q150.1719 11.9392 150.1719 12.1267 L145.5312 12.1267 Q145.5938 13.1579 146.1094 13.697 Q146.625 14.2361 147.4062 14.2361 Q147.9844 14.2361 148.3984 13.9314 Q148.8125 13.6267 149.0469 12.9704 ZM145.5938 11.2673 L149.0625 11.2673 Q149 10.4704 148.6719 10.0798 Q148.1562 9.4704 147.3594 9.4704 Q146.625 9.4704 146.1328 9.9548 Q145.6406 10.4392 145.5938 11.2673 Z" style="clip-path:url(#clipPath21); stroke:none;" />
    </g>
    <g transform="translate(422,725)" style="font-size:11; stroke-linecap:butt; text-rendering:geometricPrecision; font-family:sans-serif; stroke-linejoin:round; stroke-dasharray:4;">
      <line x1="50" x2="50" y1="68" style="clip-path:url(#clipPath23); fill:none;" y2="50" />
    </g>
    <g transform="translate(445,697)" style="font-size:11; stroke-linecap:butt; text-rendering:geometricPrecision; font-family:sans-serif; stroke-linejoin:round;">
      <line x1="26" x2="26" y1="26" style="clip-path:url(#clipPath24); fill:none;" y2="51" />
      <line x1="26" x2="32" y1="51" style="clip-path:url(#clipPath24); fill:none;" y2="39" />
      <line x1="26" x2="20" y1="51" style="clip-path:url(#clipPath24); fill:none;" y2="39" />
    </g>
    <g transform="translate(457,521)" style="font-size:11; stroke-linecap:butt; text-rendering:geometricPrecision; font-family:sans-serif; stroke-linejoin:round;">
      <line x1="23" x2="112" y1="242" style="clip-path:url(#clipPath25); fill:none;" y2="242" />
      <line x1="112" x2="112" y1="242" style="clip-path:url(#clipPath25); fill:none;" y2="22" />
      <line x1="112" x2="84" y1="22" style="clip-path:url(#clipPath25); fill:none;" y2="22" />
      <line x1="84" x2="96" y1="22" style="clip-path:url(#clipPath25); fill:none;" y2="28" />
      <line x1="84" x2="96" y1="22" style="clip-path:url(#clipPath25); fill:none;" y2="16" />
    </g>
    <g transform="translate(402,521)" style="font-size:11; stroke-linecap:butt; text-rendering:geometricPrecision; font-family:sans-serif; stroke-linejoin:round;">
      <line x1="70" x2="70" y1="70" style="clip-path:url(#clipPath26); fill:none;" y2="103" />
      <line x1="70" x2="76" y1="103" style="clip-path:url(#clipPath26); fill:none;" y2="91" />
      <line x1="70" x2="64" y1="103" style="clip-path:url(#clipPath26); fill:none;" y2="91" />
    </g>
    <g transform="translate(428,233)" style="font-size:11; stroke-linecap:butt; text-rendering:geometricPrecision; font-family:sans-serif; stroke-linejoin:round; stroke-dasharray:4;">
      <line x1="74" x2="50" y1="50" style="clip-path:url(#clipPath27); fill:none;" y2="59" />
    </g>
    <g transform="translate(445,282)" style="font-size:11; stroke-linecap:butt; text-rendering:geometricPrecision; font-family:sans-serif; stroke-linejoin:round;">
      <line x1="26" x2="26" y1="27" style="clip-path:url(#clipPath24); fill:none;" y2="51" />
      <line x1="26" x2="32" y1="51" style="clip-path:url(#clipPath24); fill:none;" y2="39" />
      <line x1="26" x2="20" y1="51" style="clip-path:url(#clipPath24); fill:none;" y2="39" />
    </g>
    <g transform="translate(347,326)" style="font-size:11; stroke-linecap:butt; text-rendering:geometricPrecision; font-family:sans-serif; stroke-linejoin:round;">
      <line x1="125" x2="125" y1="125" style="clip-path:url(#clipPath28); fill:none;" y2="150" />
      <line x1="125" x2="131" y1="150" style="clip-path:url(#clipPath28); fill:none;" y2="138" />
      <line x1="125" x2="119" y1="150" style="clip-path:url(#clipPath28); fill:none;" y2="138" />
    </g>
    <g transform="translate(445,197)" style="font-size:11; stroke-linecap:butt; text-rendering:geometricPrecision; font-family:sans-serif; stroke-linejoin:round;">
      <line x1="26" x2="26" y1="26" style="clip-path:url(#clipPath29); fill:none;" y2="82" />
      <line x1="26" x2="32" y1="82" style="clip-path:url(#clipPath29); fill:none;" y2="70" />
      <line x1="26" x2="20" y1="82" style="clip-path:url(#clipPath29); fill:none;" y2="70" />
    </g>
    <g transform="translate(143,207)" style="font-size:11; stroke-linecap:butt; text-rendering:geometricPrecision; font-family:sans-serif; stroke-linejoin:round;">
      <line x1="321" x2="26" y1="86" style="clip-path:url(#clipPath30); fill:none;" y2="86" />
      <line x1="26" x2="26" y1="86" style="clip-path:url(#clipPath30); fill:none;" y2="26" />
      <line x1="26" x2="20" y1="26" style="clip-path:url(#clipPath30); fill:none;" y2="38" />
      <line x1="26" x2="32" y1="26" style="clip-path:url(#clipPath30); fill:none;" y2="38" />
    </g>
    <g transform="translate(147,211)" style="font-size:11; stroke-linecap:butt; text-rendering:geometricPrecision; font-family:sans-serif; stroke-linejoin:round;">
      <line x1="316" x2="22" y1="553" style="clip-path:url(#clipPath31); fill:none;" y2="553" />
      <line x1="22" x2="22" y1="553" style="clip-path:url(#clipPath31); fill:none;" y2="22" />
      <line x1="22" x2="16" y1="22" style="clip-path:url(#clipPath31); fill:none;" y2="34" />
      <line x1="22" x2="28" y1="22" style="clip-path:url(#clipPath31); fill:none;" y2="34" />
    </g>
    <g transform="translate(-118,-6)" style="font-size:11; stroke-linecap:butt; text-rendering:geometricPrecision; font-family:sans-serif; stroke-linejoin:round;">
      <line x1="167" x2="230" y1="167" style="clip-path:url(#clipPath32); fill:none;" y2="167" />
      <line x1="230" x2="218" y1="167" style="clip-path:url(#clipPath32); fill:none;" y2="161" />
      <line x1="230" x2="218" y1="167" style="clip-path:url(#clipPath32); fill:none;" y2="173" />
    </g>
    <g transform="translate(190,122)" style="font-size:11; stroke-linecap:butt; text-rendering:geometricPrecision; font-family:sans-serif; stroke-linejoin:round;">
      <line x1="42" x2="202" y1="41" style="clip-path:url(#clipPath33); fill:none;" y2="41" />
      <line x1="202" x2="190" y1="41" style="clip-path:url(#clipPath33); fill:none;" y2="35" />
      <line x1="202" x2="190" y1="41" style="clip-path:url(#clipPath33); fill:none;" y2="47" />
    </g>
    <g style="text-rendering:geometricPrecision; font-size:11; font-family:sans-serif;" transform="translate(415,742)">
      <text x="9" y="12" style="clip-path:url(#clipPath34); stroke:none;" xml:space="preserve">[oui]</text>
    </g>
    <g style="text-rendering:geometricPrecision; font-size:11; font-family:sans-serif;" transform="translate(410,273)">
      <text x="10" y="12" style="clip-path:url(#clipPath35); stroke:none;" xml:space="preserve">[non]</text>
    </g>
    <g style="text-rendering:geometricPrecision; font-size:11; font-family:sans-serif;" transform="translate(481,302)">
      <text x="9" y="12" style="clip-path:url(#clipPath34); stroke:none;" xml:space="preserve">[oui]</text>
    </g>
    <g style="text-rendering:geometricPrecision; font-size:11; font-family:sans-serif;" transform="translate(492,741)">
      <text x="10" y="12" style="clip-path:url(#clipPath35); stroke:none;" xml:space="preserve">[non]</text>
    </g>
  </g>
</svg>
