<?xml version="1.0" encoding="UTF-8"?>

<!DOCTYPE svg PUBLIC '-//W3C//DTD SVG 1.0//EN' 'http://www.w3.org/TR/2001/REC-SVG-20010904/DTD/svg10.dtd'>
<svg style="fill-opacity:1; color-rendering:auto; color-interpolation:auto; stroke:black; text-rendering:auto; stroke-linecap:square; stroke-miterlimit:10; stroke-opacity:1; shape-rendering:auto; fill:black; stroke-dasharray:none; font-weight:normal; stroke-width:1; font-family:&apos;Dialog&apos;; font-style:normal; stroke-linejoin:miter; font-size:12; stroke-dashoffset:0; image-rendering:auto;" xmlns="http://www.w3.org/2000/svg" width="956" xmlns:xlink="http://www.w3.org/1999/xlink" height="598">
  <!--Generated by the Batik Graphics2D SVG Generator-->
  <defs id="genericDefs" />
  <g>
    <defs id="defs1">
      <clipPath clipPathUnits="userSpaceOnUse" id="clipPath1">
        <path d="M-3 -3 L657 -3 L657 557 L-3 557 L-3 -3 Z" />
      </clipPath>
      <clipPath clipPathUnits="userSpaceOnUse" id="clipPath2">
        <path d="M0 0 L650 0 L650 15 L0 15 L0 0 Z" />
      </clipPath>
      <clipPath clipPathUnits="userSpaceOnUse" id="clipPath3">
        <path d="M-3 -3 L277 -3 L277 397 L-3 397 L-3 -3 Z" />
      </clipPath>
      <clipPath clipPathUnits="userSpaceOnUse" id="clipPath4">
        <path d="M0 0 L270 0 L270 15 L0 15 L0 0 Z" />
      </clipPath>
      <clipPath clipPathUnits="userSpaceOnUse" id="clipPath5">
        <path d="M-3 -3 L577 -3 L577 487 L-3 487 L-3 -3 Z" />
      </clipPath>
      <clipPath clipPathUnits="userSpaceOnUse" id="clipPath6">
        <path d="M0 0 L570 0 L570 15 L0 15 L0 0 Z" />
      </clipPath>
      <clipPath clipPathUnits="userSpaceOnUse" id="clipPath7">
        <path d="M-3 -3 L227 -3 L227 277 L-3 277 L-3 -3 Z" />
      </clipPath>
      <clipPath clipPathUnits="userSpaceOnUse" id="clipPath8">
        <path d="M0 0 L220 0 L220 15 L0 15 L0 0 Z" />
      </clipPath>
      <clipPath clipPathUnits="userSpaceOnUse" id="clipPath9">
        <path d="M-3 -3 L277 -3 L277 317 L-3 317 L-3 -3 Z" />
      </clipPath>
      <clipPath clipPathUnits="userSpaceOnUse" id="clipPath10">
        <path d="M0 0 L0 302 L270 302 L270 0 Z" />
      </clipPath>
      <clipPath clipPathUnits="userSpaceOnUse" id="clipPath11">
        <path d="M-3 -3 L117 -3 L117 317 L-3 317 L-3 -3 Z" />
      </clipPath>
      <clipPath clipPathUnits="userSpaceOnUse" id="clipPath12">
        <path d="M0 0 L0 302 L110 302 L110 0 Z" />
      </clipPath>
      <clipPath clipPathUnits="userSpaceOnUse" id="clipPath13">
        <path d="M0 0 L110 0 L110 15 L0 15 L0 0 Z" />
      </clipPath>
      <clipPath clipPathUnits="userSpaceOnUse" id="clipPath14">
        <path d="M-3 -3 L147 -3 L147 107 L-3 107 L-3 -3 Z" />
      </clipPath>
      <clipPath clipPathUnits="userSpaceOnUse" id="clipPath15">
        <path d="M0 0 L0 92 L140 92 L140 0 Z" />
      </clipPath>
      <clipPath clipPathUnits="userSpaceOnUse" id="clipPath16">
        <path d="M0 0 L140 0 L140 15 L0 15 L0 0 Z" />
      </clipPath>
      <clipPath clipPathUnits="userSpaceOnUse" id="clipPath17">
        <path d="M-3 -3 L69 -3 L69 23 L-3 23 L-3 -3 Z" />
      </clipPath>
      <clipPath clipPathUnits="userSpaceOnUse" id="clipPath18">
        <path d="M-3 -3 L45 -3 L45 23 L-3 23 L-3 -3 Z" />
      </clipPath>
      <clipPath clipPathUnits="userSpaceOnUse" id="clipPath19">
        <path d="M-3 -3 L59 -3 L59 23 L-3 23 L-3 -3 Z" />
      </clipPath>
      <clipPath clipPathUnits="userSpaceOnUse" id="clipPath20">
        <path d="M-3 -3 L33 -3 L33 23 L-3 23 L-3 -3 Z" />
      </clipPath>
      <clipPath clipPathUnits="userSpaceOnUse" id="clipPath21">
        <path d="M-3 -3 L49 -3 L49 23 L-3 23 L-3 -3 Z" />
      </clipPath>
      <clipPath clipPathUnits="userSpaceOnUse" id="clipPath22">
        <path d="M-3 -3 L71 -3 L71 23 L-3 23 L-3 -3 Z" />
      </clipPath>
      <clipPath clipPathUnits="userSpaceOnUse" id="clipPath23">
        <path d="M-3 -3 L89 -3 L89 23 L-3 23 L-3 -3 Z" />
      </clipPath>
      <clipPath clipPathUnits="userSpaceOnUse" id="clipPath24">
        <path d="M-3 -3 L75 -3 L75 23 L-3 23 L-3 -3 Z" />
      </clipPath>
      <clipPath clipPathUnits="userSpaceOnUse" id="clipPath25">
        <path d="M-3 -3 L81 -3 L81 23 L-3 23 L-3 -3 Z" />
      </clipPath>
      <clipPath clipPathUnits="userSpaceOnUse" id="clipPath26">
        <path d="M-3 -3 L62 -3 L62 22 L-3 22 L-3 -3 Z" />
      </clipPath>
      <clipPath clipPathUnits="userSpaceOnUse" id="clipPath27">
        <path d="M0 0 L204 0 L204 204 L0 204 L0 0 Z" />
      </clipPath>
      <clipPath clipPathUnits="userSpaceOnUse" id="clipPath28">
        <path d="M0 0 L314 0 L314 284 L0 284 L0 0 Z" />
      </clipPath>
      <clipPath clipPathUnits="userSpaceOnUse" id="clipPath29">
        <path d="M0 0 L294 0 L294 204 L0 204 L0 0 Z" />
      </clipPath>
      <clipPath clipPathUnits="userSpaceOnUse" id="clipPath30">
        <path d="M0 0 L129 0 L129 129 L0 129 L0 0 Z" />
      </clipPath>
      <clipPath clipPathUnits="userSpaceOnUse" id="clipPath31">
        <path d="M0 0 L307 0 L307 129 L0 129 L0 0 Z" />
      </clipPath>
      <clipPath clipPathUnits="userSpaceOnUse" id="clipPath32">
        <path d="M-55 -15 L110 -15 L110 30 L-55 30 L-55 -15 Z" />
      </clipPath>
      <clipPath clipPathUnits="userSpaceOnUse" id="clipPath33">
        <path d="M-26 -16 L52 -16 L52 32 L-26 32 L-26 -16 Z" />
      </clipPath>
      <clipPath clipPathUnits="userSpaceOnUse" id="clipPath34">
        <path d="M-74 -16 L148 -16 L148 32 L-74 32 L-74 -16 Z" />
      </clipPath>
      <clipPath clipPathUnits="userSpaceOnUse" id="clipPath35">
        <path d="M-68 -16 L136 -16 L136 32 L-68 32 L-68 -16 Z" />
      </clipPath>
      <clipPath clipPathUnits="userSpaceOnUse" id="clipPath36">
        <path d="M-82 -16 L164 -16 L164 32 L-82 32 L-82 -16 Z" />
      </clipPath>
      <clipPath clipPathUnits="userSpaceOnUse" id="clipPath37">
        <path d="M-38 -16 L76 -16 L76 32 L-38 32 L-38 -16 Z" />
      </clipPath>
      <clipPath clipPathUnits="userSpaceOnUse" id="clipPath38">
        <path d="M-64 -16 L128 -16 L128 32 L-64 32 L-64 -16 Z" />
      </clipPath>
      <clipPath clipPathUnits="userSpaceOnUse" id="clipPath39">
        <path d="M-42 -16 L84 -16 L84 32 L-42 32 L-42 -16 Z" />
      </clipPath>
      <clipPath clipPathUnits="userSpaceOnUse" id="clipPath40">
        <path d="M-52 -16 L104 -16 L104 32 L-52 32 L-52 -16 Z" />
      </clipPath>
      <clipPath clipPathUnits="userSpaceOnUse" id="clipPath41">
        <path d="M-62 -16 L124 -16 L124 32 L-62 32 L-62 -16 Z" />
      </clipPath>
    </defs>
    <g style="fill:white; text-rendering:geometricPrecision; stroke:white;">
      <rect x="0" y="0" width="956" style="stroke:none;" height="598" />
      <rect x="168" y="18" transform="translate(-168,-18)" width="955" style="fill:none; stroke:black;" height="597" />
      <text x="175" y="35" transform="translate(-168,-18)" style="fill:black; stroke:none;" xml:space="preserve">class Pathfinding</text>
      <line transform="translate(-168,-18)" x1="168" x2="270" y1="42" style="fill:none; stroke:black;" y2="42" />
      <line transform="translate(-168,-18)" x1="276" x2="276" y1="18" style="fill:none; stroke:black;" y2="32" />
      <line transform="translate(-168,-18)" x1="276" x2="270" y1="32" style="fill:none; stroke:black;" y2="42" />
    </g>
    <g transform="translate(292,34)" style="font-size:11; fill:rgb(122,207,245); text-rendering:geometricPrecision; font-family:sans-serif; stroke:rgb(122,207,245);">
      <rect x="0" y="0" width="129" style="clip-path:url(#clipPath1); stroke:none;" height="20" />
      <rect x="0" y="20" width="649" style="clip-path:url(#clipPath1); stroke:none;" height="529" />
    </g>
    <g transform="translate(292,34)" style="font-size:11; stroke-linecap:butt; text-rendering:geometricPrecision; font-family:sans-serif; stroke-linejoin:round; stroke-miterlimit:0;">
      <rect x="0" y="0" width="129" style="clip-path:url(#clipPath1); fill:none;" height="20" />
      <rect x="0" y="20" width="649" style="clip-path:url(#clipPath1); fill:none;" height="529" />
    </g>
    <g style="text-rendering:geometricPrecision; font-size:11; font-family:sans-serif;" transform="translate(292,54)">
      <text x="299" y="12" style="clip-path:url(#clipPath2); stroke:none;" xml:space="preserve">controllers</text>
    </g>
    <g transform="translate(12,34)" style="font-size:11; fill:rgb(122,207,245); text-rendering:geometricPrecision; font-family:sans-serif; stroke:rgb(122,207,245);">
      <rect x="0" y="0" width="53" style="clip-path:url(#clipPath3); stroke:none;" height="20" />
      <rect x="0" y="20" width="269" style="clip-path:url(#clipPath3); stroke:none;" height="369" />
    </g>
    <g transform="translate(12,34)" style="font-size:11; stroke-linecap:butt; text-rendering:geometricPrecision; font-family:sans-serif; stroke-linejoin:round; stroke-miterlimit:0;">
      <rect x="0" y="0" width="53" style="clip-path:url(#clipPath3); fill:none;" height="20" />
      <rect x="0" y="20" width="269" style="clip-path:url(#clipPath3); fill:none;" height="369" />
    </g>
    <g style="text-rendering:geometricPrecision; font-size:11; font-family:sans-serif;" transform="translate(12,54)">
      <text x="120" y="12" style="clip-path:url(#clipPath4); stroke:none;" xml:space="preserve">views</text>
    </g>
    <g transform="translate(362,94)" style="font-size:11; fill:rgb(122,207,245); text-rendering:geometricPrecision; font-family:sans-serif; stroke:rgb(122,207,245);">
      <rect x="0" y="0" width="113" style="clip-path:url(#clipPath5); stroke:none;" height="20" />
      <rect x="0" y="20" width="569" style="clip-path:url(#clipPath5); stroke:none;" height="459" />
    </g>
    <g transform="translate(362,94)" style="font-size:11; stroke-linecap:butt; text-rendering:geometricPrecision; font-family:sans-serif; stroke-linejoin:round; stroke-miterlimit:0;">
      <rect x="0" y="0" width="113" style="clip-path:url(#clipPath5); fill:none;" height="20" />
      <rect x="0" y="20" width="569" style="clip-path:url(#clipPath5); fill:none;" height="459" />
    </g>
    <g style="text-rendering:geometricPrecision; font-size:11; font-family:sans-serif;" transform="translate(362,114)">
      <text x="260" y="12" style="clip-path:url(#clipPath6); stroke:none;" xml:space="preserve">pathfinder</text>
    </g>
    <g transform="translate(42,104)" style="font-size:11; fill:rgb(122,207,245); text-rendering:geometricPrecision; font-family:sans-serif; stroke:rgb(122,207,245);">
      <rect x="0" y="0" width="43" style="clip-path:url(#clipPath7); stroke:none;" height="20" />
      <rect x="0" y="20" width="219" style="clip-path:url(#clipPath7); stroke:none;" height="249" />
    </g>
    <g transform="translate(42,104)" style="font-size:11; stroke-linecap:butt; text-rendering:geometricPrecision; font-family:sans-serif; stroke-linejoin:round; stroke-miterlimit:0;">
      <rect x="0" y="0" width="43" style="clip-path:url(#clipPath7); fill:none;" height="20" />
      <rect x="0" y="20" width="219" style="clip-path:url(#clipPath7); fill:none;" height="249" />
    </g>
    <g style="text-rendering:geometricPrecision; font-size:11; font-family:sans-serif;" transform="translate(42,124)">
      <text x="96" y="12" style="clip-path:url(#clipPath8); stroke:none;" xml:space="preserve">world</text>
    </g>
    <g transform="translate(392,184)" style="font-size:11; fill:rgb(122,207,245); text-rendering:geometricPrecision; font-family:sans-serif; stroke:rgb(122,207,245); font-weight:bold;">
      <rect x="0" y="0" width="270" style="clip-path:url(#clipPath9); stroke:none;" height="310" />
    </g>
    <g transform="translate(392,184)" style="font-size:11; stroke-linecap:butt; text-rendering:geometricPrecision; font-family:sans-serif; stroke-linejoin:round; font-weight:bold; stroke-miterlimit:0;">
      <rect x="0" y="0" width="270" style="clip-path:url(#clipPath9); fill:none;" height="310" />
      <line x1="0" x2="270" y1="15" style="clip-path:url(#clipPath9); fill:none;" y2="15" />
    </g>
    <g style="text-rendering:geometricPrecision; font-size:11; font-family:sans-serif;" transform="translate(392,199)">
      <text x="2" y="14" style="clip-path:url(#clipPath10); stroke:none;" xml:space="preserve">-ALLOW_DIAGONAL_MOVEMENT : boolean = false</text>
      <line x1="2" x2="250" y1="16" style="clip-path:url(#clipPath10); fill:none;" y2="16" />
      <text x="2" y="29" style="clip-path:url(#clipPath10); stroke:none;" xml:space="preserve">-STRAIGHT_MOVEMENT_COST : int = 10</text>
      <line x1="2" x2="198" y1="31" style="clip-path:url(#clipPath10); fill:none;" y2="31" />
      <text x="2" y="44" style="clip-path:url(#clipPath10); stroke:none;" xml:space="preserve">-DIAGONAL_MOVEMENT_COST : int = 14</text>
      <line x1="2" x2="201" y1="46" style="clip-path:url(#clipPath10); fill:none;" y2="46" />
      <line x1="0" x2="270" y1="49" style="stroke-linecap:butt; clip-path:url(#clipPath10); fill:none; stroke-linejoin:bevel; stroke-miterlimit:0;" y2="49" />
      <text x="2" y="63" style="clip-path:url(#clipPath10); stroke:none;" xml:space="preserve">+Pathfinder(beginNode : Node, goalNode : Node)</text>
      <text x="2" y="78" style="clip-path:url(#clipPath10); stroke:none;" xml:space="preserve">+run()</text>
      <text x="2" y="93" style="clip-path:url(#clipPath10); stroke:none;" xml:space="preserve">+getPath() : Node [0..*]</text>
    </g>
    <g transform="translate(392,184)" style="text-rendering:geometricPrecision; font-size:11; font-weight:bold; font-family:sans-serif;">
      <text x="107" y="12" style="clip-path:url(#clipPath4); stroke:none;" xml:space="preserve">Pathfinder</text>
    </g>
    <g transform="translate(752,184)" style="font-size:11; fill:rgb(122,207,245); text-rendering:geometricPrecision; font-family:sans-serif; stroke:rgb(122,207,245); font-weight:bold;">
      <rect x="0" y="0" width="110" style="clip-path:url(#clipPath11); stroke:none;" height="310" />
    </g>
    <g transform="translate(752,184)" style="font-size:11; stroke-linecap:butt; text-rendering:geometricPrecision; font-family:sans-serif; stroke-linejoin:round; font-weight:bold; stroke-miterlimit:0;">
      <rect x="0" y="0" width="110" style="clip-path:url(#clipPath11); fill:none;" height="310" />
      <line x1="0" x2="110" y1="15" style="clip-path:url(#clipPath11); fill:none;" y2="15" />
    </g>
    <g style="text-rendering:geometricPrecision; font-size:11; font-family:sans-serif;" transform="translate(752,199)">
      <text x="2" y="14" style="clip-path:url(#clipPath12); stroke:none;" xml:space="preserve">-g : int</text>
      <text x="2" y="29" style="clip-path:url(#clipPath12); stroke:none;" xml:space="preserve">-h : int</text>
      <text x="2" y="44" style="clip-path:url(#clipPath12); stroke:none;" xml:space="preserve">-pos : float[2]</text>
      <text x="2" y="59" style="clip-path:url(#clipPath12); stroke:none;" xml:space="preserve">-walkable : boolean</text>
    </g>
    <g transform="translate(752,184)" style="text-rendering:geometricPrecision; font-size:11; font-weight:bold; font-family:sans-serif;">
      <text x="41" y="12" style="clip-path:url(#clipPath13); stroke:none;" xml:space="preserve">Node</text>
    </g>
    <g transform="translate(72,224)" style="font-size:11; fill:rgb(122,207,245); text-rendering:geometricPrecision; font-family:sans-serif; stroke:rgb(122,207,245); font-weight:bold;">
      <rect x="0" y="0" width="140" style="clip-path:url(#clipPath14); stroke:none;" height="100" />
    </g>
    <g transform="translate(72,224)" style="font-size:11; stroke-linecap:butt; text-rendering:geometricPrecision; font-family:sans-serif; stroke-linejoin:round; font-weight:bold; stroke-miterlimit:0;">
      <rect x="0" y="0" width="140" style="clip-path:url(#clipPath14); fill:none;" height="100" />
      <line x1="0" x2="140" y1="15" style="clip-path:url(#clipPath14); fill:none;" y2="15" />
    </g>
    <g style="text-rendering:geometricPrecision; font-size:11; font-family:sans-serif;" transform="translate(72,239)">
      <text x="2" y="14" style="clip-path:url(#clipPath15); stroke:none;" xml:space="preserve">+name : String</text>
      <text x="2" y="29" style="clip-path:url(#clipPath15); stroke:none;" xml:space="preserve">+xSize : int</text>
      <text x="2" y="44" style="clip-path:url(#clipPath15); stroke:none;" xml:space="preserve">+ySize : int</text>
      <text x="2" y="59" style="clip-path:url(#clipPath15); stroke:none;" xml:space="preserve">+tileWidth : int</text>
      <text x="2" y="74" style="clip-path:url(#clipPath15); stroke:none;" xml:space="preserve">+tileHeight : int</text>
    </g>
    <g transform="translate(72,224)" style="text-rendering:geometricPrecision; font-size:11; font-weight:bold; font-family:sans-serif;">
      <text x="49" y="12" style="clip-path:url(#clipPath16); stroke:none;" xml:space="preserve">TileMap</text>
    </g>
    <g transform="translate(702,44)" style="font-size:11; stroke-linecap:butt; text-rendering:geometricPrecision; font-family:sans-serif; stroke-linejoin:round;">
      <line x1="100" x2="100" y1="116" style="clip-path:url(#clipPath28); fill:none;" y2="100" />
      <line x1="100" x2="210" y1="100" style="clip-path:url(#clipPath28); fill:none;" y2="100" />
      <line x1="210" x2="210" y1="100" style="clip-path:url(#clipPath28); fill:none;" y2="180" />
      <line x1="210" x2="160" y1="180" style="clip-path:url(#clipPath28); fill:none;" y2="180" />
      <polygon style="fill:none; clip-path:url(#clipPath28);" points=" 100 140 106 128 100 116 94 128" />
    </g>
    <g transform="translate(562,94)" style="font-size:11; stroke-linecap:butt; text-rendering:geometricPrecision; font-family:sans-serif; stroke-linejoin:round;">
      <line x1="124" x2="190" y1="100" style="clip-path:url(#clipPath29); fill:none;" y2="100" />
      <polygon style="fill:none; clip-path:url(#clipPath29);" points=" 100 100 112 106 124 100 112 94" />
    </g>
    <g transform="translate(562,144)" style="font-size:11; stroke-linecap:butt; text-rendering:geometricPrecision; font-family:sans-serif; stroke-linejoin:round;">
      <line x1="124" x2="190" y1="100" style="clip-path:url(#clipPath29); fill:none;" y2="100" />
      <polygon style="fill:none; clip-path:url(#clipPath29);" points=" 100 100 112 106 124 100 112 94" />
    </g>
    <g transform="translate(562,194)" style="font-size:11; stroke-linecap:butt; text-rendering:geometricPrecision; font-family:sans-serif; stroke-linejoin:round;">
      <line x1="124" x2="190" y1="100" style="clip-path:url(#clipPath29); fill:none;" y2="100" />
      <polygon style="fill:none; clip-path:url(#clipPath29);" points=" 100 100 112 106 124 100 112 94" />
    </g>
    <g transform="translate(562,304)" style="font-size:11; stroke-linecap:butt; text-rendering:geometricPrecision; font-family:sans-serif; stroke-linejoin:round;">
      <line x1="124" x2="190" y1="100" style="clip-path:url(#clipPath29); fill:none;" y2="100" />
      <polygon style="fill:none; clip-path:url(#clipPath29);" points=" 100 100 112 106 124 100 112 94" />
    </g>
    <g transform="translate(562,254)" style="font-size:11; stroke-linecap:butt; text-rendering:geometricPrecision; font-family:sans-serif; stroke-linejoin:round;">
      <line x1="124" x2="190" y1="100" style="clip-path:url(#clipPath29); fill:none;" y2="100" />
      <polygon style="fill:none; clip-path:url(#clipPath29);" points=" 100 100 112 106 124 100 112 94" />
    </g>
    <g transform="translate(562,354)" style="font-size:11; stroke-linecap:butt; text-rendering:geometricPrecision; font-family:sans-serif; stroke-linejoin:round;">
      <line x1="124" x2="190" y1="100" style="clip-path:url(#clipPath29); fill:none;" y2="100" />
      <polygon style="fill:none; clip-path:url(#clipPath29);" points=" 100 100 112 106 124 100 112 94" />
    </g>
    <g transform="translate(149,211)" style="font-size:11; stroke-linecap:butt; text-rendering:geometricPrecision; font-family:sans-serif; stroke-linejoin:round;">
      <line x1="63" x2="241" y1="63" style="clip-path:url(#clipPath31); fill:none;" y2="63" />
    </g>
    <g style="text-rendering:geometricPrecision; font-size:11; font-family:sans-serif;" transform="translate(212,274)">
      <text x="11" y="12" style="clip-path:url(#clipPath32); stroke:none;" xml:space="preserve">tilemap</text>
    </g>
    <g style="text-rendering:geometricPrecision; font-size:11; font-family:sans-serif;" transform="translate(702,194)">
      <text x="10" y="12" style="clip-path:url(#clipPath33); stroke:none;" xml:space="preserve">1</text>
    </g>
    <g style="text-rendering:geometricPrecision; font-size:11; font-family:sans-serif;" transform="translate(662,174)">
      <text x="11" y="12" style="clip-path:url(#clipPath34); stroke:none;" xml:space="preserve">beginNode</text>
    </g>
    <g style="text-rendering:geometricPrecision; font-size:11; font-family:sans-serif;" transform="translate(702,244)">
      <text x="10" y="12" style="clip-path:url(#clipPath33); stroke:none;" xml:space="preserve">1</text>
    </g>
    <g style="text-rendering:geometricPrecision; font-size:11; font-family:sans-serif;" transform="translate(662,224)">
      <text x="11" y="12" style="clip-path:url(#clipPath35); stroke:none;" xml:space="preserve">goalNode</text>
    </g>
    <g style="text-rendering:geometricPrecision; font-size:11; font-family:sans-serif;" transform="translate(702,294)">
      <text x="10" y="12" style="clip-path:url(#clipPath33); stroke:none;" xml:space="preserve">1</text>
    </g>
    <g style="text-rendering:geometricPrecision; font-size:11; font-family:sans-serif;" transform="translate(662,274)">
      <text x="10" y="12" style="clip-path:url(#clipPath36); stroke:none;" xml:space="preserve">currentNode</text>
    </g>
    <g style="text-rendering:geometricPrecision; font-size:11; font-family:sans-serif;" transform="translate(702,404)">
      <text x="10" y="12" style="clip-path:url(#clipPath37); stroke:none;" xml:space="preserve">0..*</text>
    </g>
    <g style="text-rendering:geometricPrecision; font-size:11; font-family:sans-serif;" transform="translate(672,384)">
      <text x="10" y="12" style="clip-path:url(#clipPath38); stroke:none;" xml:space="preserve">closeList</text>
    </g>
    <g style="text-rendering:geometricPrecision; font-size:11; font-family:sans-serif;" transform="translate(692,454)">
      <text x="10" y="12" style="clip-path:url(#clipPath37); stroke:none;" xml:space="preserve">0..*</text>
    </g>
    <g style="text-rendering:geometricPrecision; font-size:11; font-family:sans-serif;" transform="translate(692,434)">
      <text x="10" y="12" style="clip-path:url(#clipPath39); stroke:none;" xml:space="preserve">path</text>
    </g>
    <g style="text-rendering:geometricPrecision; font-size:11; font-family:sans-serif;" transform="translate(852,214)">
      <text x="10" y="12" style="clip-path:url(#clipPath33); stroke:none;" xml:space="preserve">1</text>
    </g>
    <g style="text-rendering:geometricPrecision; font-size:11; font-family:sans-serif;" transform="translate(842,194)">
      <text x="10" y="12" style="clip-path:url(#clipPath40); stroke:none;" xml:space="preserve">parent</text>
    </g>
    <g style="text-rendering:geometricPrecision; font-size:11; font-family:sans-serif;" transform="translate(702,354)">
      <text x="10" y="12" style="clip-path:url(#clipPath37); stroke:none;" xml:space="preserve">0..*</text>
    </g>
    <g style="text-rendering:geometricPrecision; font-size:11; font-family:sans-serif;" transform="translate(672,334)">
      <text x="10" y="12" style="clip-path:url(#clipPath41); stroke:none;" xml:space="preserve">openList</text>
    </g>
  </g>
</svg>
