<?xml version="1.0" encoding="UTF-8"?>

<!DOCTYPE svg PUBLIC '-//W3C//DTD SVG 1.0//EN' 'http://www.w3.org/TR/2001/REC-SVG-20010904/DTD/svg10.dtd'>
<svg style="fill-opacity:1; color-rendering:auto; color-interpolation:auto; stroke:black; text-rendering:auto; stroke-linecap:square; stroke-miterlimit:10; stroke-opacity:1; shape-rendering:auto; fill:black; stroke-dasharray:none; font-weight:normal; stroke-width:1; font-family:&apos;Dialog&apos;; font-style:normal; stroke-linejoin:miter; font-size:12; stroke-dashoffset:0; image-rendering:auto;" xmlns="http://www.w3.org/2000/svg" width="646" xmlns:xlink="http://www.w3.org/1999/xlink" height="123">
  <!--Generated by the Batik Graphics2D SVG Generator-->
  <defs id="genericDefs" />
  <g>
    <defs id="defs1">
      <clipPath clipPathUnits="userSpaceOnUse" id="clipPath1">
        <path d="M-3 -3 L27 -3 L27 27 L-3 27 L-3 -3 Z" />
      </clipPath>
      <clipPath clipPathUnits="userSpaceOnUse" id="clipPath2">
        <path d="M-3 -3 L197 -3 L197 67 L-3 67 L-3 -3 Z" />
      </clipPath>
      <clipPath clipPathUnits="userSpaceOnUse" id="clipPath3">
        <path d="M0 0 L0 17 L190 17 L190 0 Z" />
      </clipPath>
      <clipPath clipPathUnits="userSpaceOnUse" id="clipPath4">
        <path d="M-3 -3 L227 -3 L227 67 L-3 67 L-3 -3 Z" />
      </clipPath>
      <clipPath clipPathUnits="userSpaceOnUse" id="clipPath5">
        <path d="M0 0 L0 17 L220 17 L220 0 Z" />
      </clipPath>
      <clipPath clipPathUnits="userSpaceOnUse" id="clipPath6">
        <path d="M-220 -15 L440 -15 L440 30 L-220 30 L-220 -15 Z" />
      </clipPath>
      <clipPath clipPathUnits="userSpaceOnUse" id="clipPath7">
        <path d="M-190 -15 L380 -15 L380 30 L-190 30 L-190 -15 Z" />
      </clipPath>
      <clipPath clipPathUnits="userSpaceOnUse" id="clipPath8">
        <path d="M0 0 L223 0 L223 104 L0 104 L0 0 Z" />
      </clipPath>
      <clipPath clipPathUnits="userSpaceOnUse" id="clipPath9">
        <path d="M0 0 L175 0 L175 104 L0 104 L0 0 Z" />
      </clipPath>
      <clipPath clipPathUnits="userSpaceOnUse" id="clipPath10">
        <path d="M-89 -15 L178 -15 L178 30 L-89 30 L-89 -15 Z" />
      </clipPath>
      <clipPath clipPathUnits="userSpaceOnUse" id="clipPath11">
        <path d="M-93 -15 L186 -15 L186 30 L-93 30 L-93 -15 Z" />
      </clipPath>
    </defs>
    <g style="fill:white; text-rendering:geometricPrecision; stroke:white;">
      <rect x="0" y="0" width="646" style="stroke:none;" height="123" />
      <rect x="158" y="188" transform="translate(-158,-188)" width="645" style="fill:none; stroke:black;" height="122" />
      <text x="165" y="205" transform="translate(-158,-188)" style="fill:black; stroke:none;" xml:space="preserve">stm Ready</text>
      <line transform="translate(-158,-188)" x1="158" x2="224" y1="212" style="fill:none; stroke:black;" y2="212" />
      <line transform="translate(-158,-188)" x1="230" x2="230" y1="188" style="fill:none; stroke:black;" y2="202" />
      <line transform="translate(-158,-188)" x1="230" x2="224" y1="202" style="fill:none; stroke:black;" y2="212" />
    </g>
    <g style="text-rendering:geometricPrecision; font-size:11; font-family:sans-serif;" transform="translate(12,64)">
      <circle style="clip-path:url(#clipPath1); stroke:none;" r="9.5" cx="9.5" cy="9.5" />
    </g>
    <g transform="translate(102,44)" style="font-size:11; fill:rgb(122,207,245); text-rendering:geometricPrecision; font-family:sans-serif; stroke:rgb(122,207,245);">
      <rect x="0" y="0" width="190" style="clip-path:url(#clipPath2); stroke:none;" rx="10" ry="10" height="60" />
    </g>
    <g transform="translate(102,44)" style="font-size:11; stroke-linecap:butt; text-rendering:geometricPrecision; font-family:sans-serif; stroke-linejoin:round; stroke-miterlimit:0;">
      <rect x="0" y="0" width="190" style="clip-path:url(#clipPath2); fill:none;" rx="10" ry="10" height="60" />
    </g>
    <g style="text-rendering:geometricPrecision; font-size:11; font-family:sans-serif;" transform="translate(102,59)">
      <text x="6" y="12" style="clip-path:url(#clipPath3); stroke:none;" xml:space="preserve">entry / addAction(new Waiting(this))</text>
    </g>
    <g style="text-rendering:geometricPrecision; font-size:11; font-family:sans-serif;" transform="translate(102,59)">
      <line x1="0" x2="189" y1="0" style="clip-path:url(#clipPath3); fill:none;" y2="0" />
    </g>
    <g transform="translate(412,44)" style="font-size:11; fill:rgb(122,207,245); text-rendering:geometricPrecision; font-family:sans-serif; stroke:rgb(122,207,245);">
      <rect x="0" y="0" width="220" style="clip-path:url(#clipPath4); stroke:none;" rx="10" ry="10" height="60" />
    </g>
    <g transform="translate(412,44)" style="font-size:11; stroke-linecap:butt; text-rendering:geometricPrecision; font-family:sans-serif; stroke-linejoin:round; stroke-miterlimit:0;">
      <rect x="0" y="0" width="220" style="clip-path:url(#clipPath4); fill:none;" rx="10" ry="10" height="60" />
    </g>
    <g style="text-rendering:geometricPrecision; font-size:11; font-family:sans-serif;" transform="translate(412,59)">
      <text x="6" y="12" style="clip-path:url(#clipPath5); stroke:none;" xml:space="preserve">entry / addAction(new goWorking(this))</text>
    </g>
    <g style="text-rendering:geometricPrecision; font-size:11; font-family:sans-serif;" transform="translate(412,59)">
      <line x1="0" x2="219" y1="0" style="clip-path:url(#clipPath5); fill:none;" y2="0" />
    </g>
    <g style="text-rendering:geometricPrecision; font-size:11; font-family:sans-serif;" transform="translate(412,44)">
      <text x="89" y="12" style="clip-path:url(#clipPath6); stroke:none;" xml:space="preserve">Working</text>
    </g>
    <g style="text-rendering:geometricPrecision; font-size:11; font-family:sans-serif;" transform="translate(102,44)">
      <text x="74" y="12" style="clip-path:url(#clipPath7); stroke:none;" xml:space="preserve">Pending</text>
    </g>
    <g transform="translate(242,4)" style="font-size:11; stroke-linecap:butt; text-rendering:geometricPrecision; font-family:sans-serif; stroke-linejoin:round;">
      <line x1="50" x2="169" y1="50" style="clip-path:url(#clipPath8); fill:none;" y2="50" />
      <line x1="169" x2="157" y1="50" style="clip-path:url(#clipPath8); fill:none;" y2="44" />
      <line x1="169" x2="157" y1="50" style="clip-path:url(#clipPath8); fill:none;" y2="56" />
    </g>
    <g transform="translate(242,44)" style="font-size:11; stroke-linecap:butt; text-rendering:geometricPrecision; font-family:sans-serif; stroke-linejoin:round;">
      <line x1="169" x2="50" y1="50" style="clip-path:url(#clipPath8); fill:none;" y2="50" />
      <line x1="50" x2="62" y1="50" style="clip-path:url(#clipPath8); fill:none;" y2="56" />
      <line x1="50" x2="62" y1="50" style="clip-path:url(#clipPath8); fill:none;" y2="44" />
    </g>
    <g transform="translate(-20,24)" style="font-size:11; stroke-linecap:butt; text-rendering:geometricPrecision; font-family:sans-serif; stroke-linejoin:round;">
      <line x1="50" x2="121" y1="50" style="clip-path:url(#clipPath9); fill:none;" y2="50" />
      <line x1="121" x2="109" y1="50" style="clip-path:url(#clipPath9); fill:none;" y2="44" />
      <line x1="121" x2="109" y1="50" style="clip-path:url(#clipPath9); fill:none;" y2="56" />
    </g>
    <g style="text-rendering:geometricPrecision; font-size:11; font-family:sans-serif;" transform="translate(306,94)">
      <text x="10" y="12" style="clip-path:url(#clipPath10); stroke:none;" xml:space="preserve">taskFinished()</text>
    </g>
    <g style="text-rendering:geometricPrecision; font-size:11; font-family:sans-serif;" transform="translate(306,34)">
      <text x="10" y="12" style="clip-path:url(#clipPath11); stroke:none;" xml:space="preserve">taskAssigned()</text>
    </g>
  </g>
</svg>
