<?xml version="1.0" encoding="UTF-8"?>

<!DOCTYPE svg PUBLIC '-//W3C//DTD SVG 1.0//EN' 'http://www.w3.org/TR/2001/REC-SVG-20010904/DTD/svg10.dtd'>
<svg style="fill-opacity:1; color-rendering:auto; color-interpolation:auto; stroke:black; text-rendering:auto; stroke-linecap:square; stroke-miterlimit:10; stroke-opacity:1; shape-rendering:auto; fill:black; stroke-dasharray:none; font-weight:normal; stroke-width:1; font-family:&apos;Dialog&apos;; font-style:normal; stroke-linejoin:miter; font-size:12; stroke-dashoffset:0; image-rendering:auto;" xmlns="http://www.w3.org/2000/svg" width="569" xmlns:xlink="http://www.w3.org/1999/xlink" height="748">
  <!--Generated by the Batik Graphics2D SVG Generator-->
  <defs id="genericDefs" />
  <g>
    <defs id="defs1">
      <clipPath clipPathUnits="userSpaceOnUse" id="clipPath1">
        <path d="M-3 -3 L550 -3 L550 707 L-3 707 L-3 -3 Z" />
      </clipPath>
      <clipPath clipPathUnits="userSpaceOnUse" id="clipPath2">
        <path d="M0 0 L0 692 L7 692 L7 0 Z" />
      </clipPath>
      <clipPath clipPathUnits="userSpaceOnUse" id="clipPath3">
        <path d="M-3 -3 L290 -3 L290 22 L-3 22 L-3 -3 Z" />
      </clipPath>
      <clipPath clipPathUnits="userSpaceOnUse" id="clipPath4">
        <path d="M0 0 L283 0 L283 15 L0 15 L0 0 Z" />
      </clipPath>
      <clipPath clipPathUnits="userSpaceOnUse" id="clipPath5">
        <path d="M-3 -3 L290 -3 L290 692 L-3 692 L-3 -3 Z" />
      </clipPath>
      <clipPath clipPathUnits="userSpaceOnUse" id="clipPath6">
        <path d="M-3 -3 L267 -3 L267 22 L-3 22 L-3 -3 Z" />
      </clipPath>
      <clipPath clipPathUnits="userSpaceOnUse" id="clipPath7">
        <path d="M0 0 L260 0 L260 15 L0 15 L0 0 Z" />
      </clipPath>
      <clipPath clipPathUnits="userSpaceOnUse" id="clipPath8">
        <path d="M-3 -3 L267 -3 L267 692 L-3 692 L-3 -3 Z" />
      </clipPath>
      <clipPath clipPathUnits="userSpaceOnUse" id="clipPath9">
        <path d="M-3 -3 L87 -3 L87 47 L-3 47 L-3 -3 Z" />
      </clipPath>
      <clipPath clipPathUnits="userSpaceOnUse" id="clipPath10">
        <path d="M0 0 L80 0 L80 40 L0 40 L0 0 Z" />
      </clipPath>
      <clipPath clipPathUnits="userSpaceOnUse" id="clipPath11">
        <path d="M-3 -3 L47 -3 L47 27 L-3 27 L-3 -3 Z" />
      </clipPath>
      <clipPath clipPathUnits="userSpaceOnUse" id="clipPath12">
        <path d="M-3 -3 L117 -3 L117 47 L-3 47 L-3 -3 Z" />
      </clipPath>
      <clipPath clipPathUnits="userSpaceOnUse" id="clipPath13">
        <path d="M0 0 L110 0 L110 40 L0 40 L0 0 Z" />
      </clipPath>
      <clipPath clipPathUnits="userSpaceOnUse" id="clipPath14">
        <path d="M-3 -3 L117 -3 L117 97 L-3 97 L-3 -3 Z" />
      </clipPath>
      <clipPath clipPathUnits="userSpaceOnUse" id="clipPath15">
        <path d="M0 0 L110 0 L110 90 L0 90 L0 0 Z" />
      </clipPath>
      <clipPath clipPathUnits="userSpaceOnUse" id="clipPath16">
        <path d="M-3 -3 L27 -3 L27 47 L-3 47 L-3 -3 Z" />
      </clipPath>
      <clipPath clipPathUnits="userSpaceOnUse" id="clipPath17">
        <path d="M-3 -3 L47 -3 L47 47 L-3 47 L-3 -3 Z" />
      </clipPath>
      <clipPath clipPathUnits="userSpaceOnUse" id="clipPath18">
        <path d="M-3 -3 L67 -3 L67 47 L-3 47 L-3 -3 Z" />
      </clipPath>
      <clipPath clipPathUnits="userSpaceOnUse" id="clipPath19">
        <path d="M0 0 L60 0 L60 40 L0 40 L0 0 Z" />
      </clipPath>
      <clipPath clipPathUnits="userSpaceOnUse" id="clipPath20">
        <path d="M-3 -3 L147 -3 L147 77 L-3 77 L-3 -3 Z" />
      </clipPath>
      <clipPath clipPathUnits="userSpaceOnUse" id="clipPath21">
        <path d="M0 0 L140 0 L140 70 L0 70 L0 0 Z" />
      </clipPath>
      <clipPath clipPathUnits="userSpaceOnUse" id="clipPath22">
        <path d="M-3 -3 L107 -3 L107 47 L-3 47 L-3 -3 Z" />
      </clipPath>
      <clipPath clipPathUnits="userSpaceOnUse" id="clipPath23">
        <path d="M0 0 L100 0 L100 40 L0 40 L0 0 Z" />
      </clipPath>
      <clipPath clipPathUnits="userSpaceOnUse" id="clipPath24">
        <path d="M-3 -3 L27 -3 L27 27 L-3 27 L-3 -3 Z" />
      </clipPath>
      <clipPath clipPathUnits="userSpaceOnUse" id="clipPath25">
        <path d="M-34 -15 L68 -15 L68 30 L-34 30 L-34 -15 Z" />
      </clipPath>
      <clipPath clipPathUnits="userSpaceOnUse" id="clipPath26">
        <path d="M-260 -685 L520 -685 L520 1370 L-260 1370 L-260 -685 Z" />
      </clipPath>
      <clipPath clipPathUnits="userSpaceOnUse" id="clipPath27">
        <path d="M-283 -685 L566 -685 L566 1370 L-283 1370 L-283 -685 Z" />
      </clipPath>
      <clipPath clipPathUnits="userSpaceOnUse" id="clipPath28">
        <path d="M0 0 L305 0 L305 104 L0 104 L0 0 Z" />
      </clipPath>
      <clipPath clipPathUnits="userSpaceOnUse" id="clipPath29">
        <path d="M0 0 L104 0 L104 134 L0 134 L0 0 Z" />
      </clipPath>
      <clipPath clipPathUnits="userSpaceOnUse" id="clipPath30">
        <path d="M0 0 L104 0 L104 132 L0 132 L0 0 Z" />
      </clipPath>
      <clipPath clipPathUnits="userSpaceOnUse" id="clipPath31">
        <path d="M0 0 L104 0 L104 227 L0 227 L0 0 Z" />
      </clipPath>
      <clipPath clipPathUnits="userSpaceOnUse" id="clipPath32">
        <path d="M0 0 L104 0 L104 140 L0 140 L0 0 Z" />
      </clipPath>
      <clipPath clipPathUnits="userSpaceOnUse" id="clipPath33">
        <path d="M0 0 L387 0 L387 104 L0 104 L0 0 Z" />
      </clipPath>
      <clipPath clipPathUnits="userSpaceOnUse" id="clipPath34">
        <path d="M0 0 L392 0 L392 163 L0 163 L0 0 Z" />
      </clipPath>
      <clipPath clipPathUnits="userSpaceOnUse" id="clipPath35">
        <path d="M0 0 L295 0 L295 104 L0 104 L0 0 Z" />
      </clipPath>
      <clipPath clipPathUnits="userSpaceOnUse" id="clipPath36">
        <path d="M0 0 L394 0 L394 104 L0 104 L0 0 Z" />
      </clipPath>
      <clipPath clipPathUnits="userSpaceOnUse" id="clipPath37">
        <path d="M0 0 L375 0 L375 163 L0 163 L0 0 Z" />
      </clipPath>
      <clipPath clipPathUnits="userSpaceOnUse" id="clipPath38">
        <path d="M0 0 L104 0 L104 124 L0 124 L0 0 Z" />
      </clipPath>
      <clipPath clipPathUnits="userSpaceOnUse" id="clipPath39">
        <path d="M0 0 L104 0 L104 207 L0 207 L0 0 Z" />
      </clipPath>
      <clipPath clipPathUnits="userSpaceOnUse" id="clipPath40">
        <path d="M0 0 L104 0 L104 136 L0 136 L0 0 Z" />
      </clipPath>
      <clipPath clipPathUnits="userSpaceOnUse" id="clipPath41">
        <path d="M0 0 L104 0 L104 145 L0 145 L0 0 Z" />
      </clipPath>
      <clipPath clipPathUnits="userSpaceOnUse" id="clipPath42">
        <path d="M-91 -15 L182 -15 L182 30 L-91 30 L-91 -15 Z" />
      </clipPath>
      <clipPath clipPathUnits="userSpaceOnUse" id="clipPath43">
        <path d="M-52 -15 L104 -15 L104 30 L-52 30 L-52 -15 Z" />
      </clipPath>
    </defs>
    <g style="fill:white; text-rendering:geometricPrecision; stroke:white;">
      <rect x="0" y="0" width="569" style="stroke:none;" height="748" />
      <rect x="138" y="98" transform="translate(-138,-98)" width="568" style="fill:none; stroke:black;" height="747" />
      <text x="145" y="115" transform="translate(-138,-98)" style="fill:black; stroke:none;" xml:space="preserve">act repairTool</text>
      <line transform="translate(-138,-98)" x1="138" x2="220" y1="122" style="fill:none; stroke:black;" y2="122" />
      <line transform="translate(-138,-98)" x1="226" x2="226" y1="98" style="fill:none; stroke:black;" y2="112" />
      <line transform="translate(-138,-98)" x1="226" x2="220" y1="112" style="fill:none; stroke:black;" y2="122" />
    </g>
    <g transform="translate(12,34)" style="text-rendering:geometricPrecision; stroke-width:2; font-size:11; font-family:sans-serif;">
      <rect x="0" y="0" width="283" style="clip-path:url(#clipPath3); fill:none;" height="15" />
    </g>
    <g style="text-rendering:geometricPrecision; font-size:11; font-family:sans-serif;" transform="translate(12,34)">
      <text x="124" y="12" style="clip-path:url(#clipPath4); stroke:none;" xml:space="preserve">:Dwarf</text>
    </g>
    <g transform="translate(12,49)" style="text-rendering:geometricPrecision; stroke-width:2; font-size:11; font-family:sans-serif;">
      <rect x="0" y="0" width="283" style="clip-path:url(#clipPath5); fill:none;" height="685" />
    </g>
    <g transform="translate(295,34)" style="text-rendering:geometricPrecision; stroke-width:2; font-size:11; font-family:sans-serif;">
      <rect x="0" y="0" width="260" style="clip-path:url(#clipPath6); fill:none;" height="15" />
    </g>
    <g style="text-rendering:geometricPrecision; font-size:11; font-family:sans-serif;" transform="translate(295,34)">
      <text x="103" y="12" style="clip-path:url(#clipPath7); stroke:none;" xml:space="preserve">:Pathfinder</text>
    </g>
    <g transform="translate(295,49)" style="text-rendering:geometricPrecision; stroke-width:2; font-size:11; font-family:sans-serif;">
      <rect x="0" y="0" width="260" style="clip-path:url(#clipPath8); fill:none;" height="685" />
    </g>
    <g transform="translate(412,214)" style="font-size:11; fill:rgb(122,207,245); text-rendering:geometricPrecision; font-family:sans-serif; stroke:rgb(122,207,245);">
      <rect x="0" y="0" width="80" style="clip-path:url(#clipPath9); stroke:none;" height="40" />
    </g>
    <g transform="translate(412,214)" style="font-size:11; stroke-linecap:butt; text-rendering:geometricPrecision; font-family:sans-serif; stroke-linejoin:round; stroke-miterlimit:0;">
      <rect x="0" y="0" width="80" style="clip-path:url(#clipPath9); fill:none;" height="40" />
    </g>
    <g style="text-rendering:geometricPrecision; font-size:11; font-family:sans-serif;" transform="translate(412,214)">
      <text x="8" y="24" style="clip-path:url(#clipPath10); stroke:none;" xml:space="preserve">path : Node[]</text>
    </g>
    <g transform="translate(412,504)" style="font-size:11; fill:rgb(122,207,245); text-rendering:geometricPrecision; font-family:sans-serif; stroke:rgb(122,207,245);">
      <rect x="0" y="0" width="80" style="clip-path:url(#clipPath9); stroke:none;" height="40" />
    </g>
    <g transform="translate(412,504)" style="font-size:11; stroke-linecap:butt; text-rendering:geometricPrecision; font-family:sans-serif; stroke-linejoin:round; stroke-miterlimit:0;">
      <rect x="0" y="0" width="80" style="clip-path:url(#clipPath9); fill:none;" height="40" />
    </g>
    <g style="text-rendering:geometricPrecision; font-size:11; font-family:sans-serif;" transform="translate(412,504)">
      <text x="8" y="24" style="clip-path:url(#clipPath10); stroke:none;" xml:space="preserve">path : Node[]</text>
    </g>
    <g style="text-rendering:geometricPrecision; font-size:11; font-family:sans-serif;" transform="translate(122,64)">
      <circle style="clip-path:url(#clipPath11); stroke:none;" r="10" cx="20" cy="10" />
    </g>
    <g transform="translate(85,119)" style="font-size:11; fill:rgb(122,207,245); text-rendering:geometricPrecision; font-family:sans-serif; stroke:rgb(122,207,245);">
      <rect x="1" y="1" width="108" style="clip-path:url(#clipPath12); stroke:none;" rx="15" ry="15" height="38" />
    </g>
    <g transform="translate(85,119)" style="font-size:11; stroke-linecap:butt; text-rendering:geometricPrecision; font-family:sans-serif; stroke-linejoin:round; stroke-miterlimit:0;">
      <rect x="1" y="1" width="108" style="clip-path:url(#clipPath12); fill:none;" rx="15" ry="15" height="38" />
    </g>
    <g style="text-rendering:geometricPrecision; font-size:11; font-family:sans-serif;" transform="translate(85,119)">
      <text x="5" y="17" style="clip-path:url(#clipPath13); stroke:none;" xml:space="preserve">demander le chemin</text>
      <text x="18" y="32" style="clip-path:url(#clipPath13); stroke:none;" xml:space="preserve">où se déplacer</text>
    </g>
    <g transform="translate(395,94)" style="font-size:11; fill:rgb(122,207,245); text-rendering:geometricPrecision; font-family:sans-serif; stroke:rgb(122,207,245);">
      <rect x="1" y="1" width="108" style="clip-path:url(#clipPath14); stroke:none;" rx="15" ry="15" height="88" />
    </g>
    <g transform="translate(395,94)" style="font-size:11; stroke-linecap:butt; text-rendering:geometricPrecision; font-family:sans-serif; stroke-linejoin:round; stroke-miterlimit:0;">
      <rect x="1" y="1" width="108" style="clip-path:url(#clipPath14); fill:none;" rx="15" ry="15" height="88" />
    </g>
    <g style="text-rendering:geometricPrecision; font-size:11; font-family:sans-serif;" transform="translate(395,94)">
      <text x="12" y="19" style="clip-path:url(#clipPath15); stroke:none;" xml:space="preserve">trouver la forge la</text>
      <text x="26" y="34" style="clip-path:url(#clipPath15); stroke:none;" xml:space="preserve">plus proche</text>
      <text x="21" y="49" style="clip-path:url(#clipPath15); stroke:none;" xml:space="preserve">possédant un</text>
      <text x="6" y="64" style="clip-path:url(#clipPath15); stroke:none;" xml:space="preserve">râtelier de libre et le</text>
      <text x="18" y="79" style="clip-path:url(#clipPath15); stroke:none;" xml:space="preserve">râtelier associé</text>
    </g>
    <g transform="translate(442,274)" style="font-size:11; fill:rgb(122,207,245); text-rendering:geometricPrecision; font-family:sans-serif; stroke:rgb(122,207,245);">
      <polygon style="clip-path:url(#clipPath16); stroke:none;" points=" 10 7 17 20 10 32 3 20" />
    </g>
    <g transform="translate(442,274)" style="font-size:11; stroke-linecap:butt; text-rendering:geometricPrecision; font-family:sans-serif; stroke-linejoin:round; stroke-miterlimit:0;">
      <polygon style="fill:none; clip-path:url(#clipPath16);" points=" 10 7 17 20 10 32 3 20" />
    </g>
    <g transform="translate(122,274)" style="font-size:11; fill:rgb(122,207,245); text-rendering:geometricPrecision; font-family:sans-serif; stroke:rgb(122,207,245);">
      <path d="M8 8 L32 8 L8 32 L32 32 Z" style="clip-path:url(#clipPath17); stroke:none;" />
    </g>
    <g transform="translate(122,274)" style="font-size:11; stroke-linecap:butt; text-rendering:geometricPrecision; font-family:sans-serif; stroke-linejoin:round; stroke-miterlimit:0;">
      <path d="M8 8 L32 8 L8 32 L32 32 Z" style="fill:none; clip-path:url(#clipPath17);" />
    </g>
    <g transform="translate(105,349)" style="font-size:11; fill:rgb(122,207,245); text-rendering:geometricPrecision; font-family:sans-serif; stroke:rgb(122,207,245);">
      <rect x="1" y="1" width="58" style="clip-path:url(#clipPath18); stroke:none;" rx="15" ry="15" height="38" />
    </g>
    <g transform="translate(105,349)" style="font-size:11; stroke-linecap:butt; text-rendering:geometricPrecision; font-family:sans-serif; stroke-linejoin:round; stroke-miterlimit:0;">
      <rect x="1" y="1" width="58" style="clip-path:url(#clipPath18); fill:none;" rx="15" ry="15" height="38" />
    </g>
    <g style="text-rendering:geometricPrecision; font-size:11; font-family:sans-serif;" transform="translate(105,349)">
      <text x="11" y="17" style="clip-path:url(#clipPath19); stroke:none;" xml:space="preserve">prendre</text>
      <text x="9" y="32" style="clip-path:url(#clipPath19); stroke:none;" xml:space="preserve">son outil</text>
    </g>
    <g transform="translate(75,429)" style="font-size:11; fill:rgb(122,207,245); text-rendering:geometricPrecision; font-family:sans-serif; stroke:rgb(122,207,245);">
      <rect x="1" y="1" width="108" style="clip-path:url(#clipPath12); stroke:none;" rx="15" ry="15" height="38" />
    </g>
    <g transform="translate(75,429)" style="font-size:11; stroke-linecap:butt; text-rendering:geometricPrecision; font-family:sans-serif; stroke-linejoin:round; stroke-miterlimit:0;">
      <rect x="1" y="1" width="108" style="clip-path:url(#clipPath12); fill:none;" rx="15" ry="15" height="38" />
    </g>
    <g style="text-rendering:geometricPrecision; font-size:11; font-family:sans-serif;" transform="translate(75,429)">
      <text x="5" y="17" style="clip-path:url(#clipPath13); stroke:none;" xml:space="preserve">demander le chemin</text>
      <text x="18" y="32" style="clip-path:url(#clipPath13); stroke:none;" xml:space="preserve">où se déplacer</text>
    </g>
    <g transform="translate(375,414)" style="font-size:11; fill:rgb(122,207,245); text-rendering:geometricPrecision; font-family:sans-serif; stroke:rgb(122,207,245);">
      <rect x="1" y="1" width="138" style="clip-path:url(#clipPath20); stroke:none;" rx="15" ry="15" height="68" />
    </g>
    <g transform="translate(375,414)" style="font-size:11; stroke-linecap:butt; text-rendering:geometricPrecision; font-family:sans-serif; stroke-linejoin:round; stroke-miterlimit:0;">
      <rect x="1" y="1" width="138" style="clip-path:url(#clipPath20); fill:none;" rx="15" ry="15" height="68" />
    </g>
    <g style="text-rendering:geometricPrecision; font-size:11; font-family:sans-serif;" transform="translate(375,414)">
      <text x="15" y="17" style="clip-path:url(#clipPath21); stroke:none;" xml:space="preserve">trouver la forge la plus</text>
      <text x="7" y="32" style="clip-path:url(#clipPath21); stroke:none;" xml:space="preserve">proche possédant râtelier</text>
      <text x="7" y="47" style="clip-path:url(#clipPath21); stroke:none;" xml:space="preserve">contenant un outil neuf et</text>
      <text x="26" y="62" style="clip-path:url(#clipPath21); stroke:none;" xml:space="preserve">le râtelier associé</text>
    </g>
    <g transform="translate(442,564)" style="font-size:11; fill:rgb(122,207,245); text-rendering:geometricPrecision; font-family:sans-serif; stroke:rgb(122,207,245);">
      <polygon style="clip-path:url(#clipPath16); stroke:none;" points=" 10 7 17 20 10 32 3 20" />
    </g>
    <g transform="translate(442,564)" style="font-size:11; stroke-linecap:butt; text-rendering:geometricPrecision; font-family:sans-serif; stroke-linejoin:round; stroke-miterlimit:0;">
      <polygon style="fill:none; clip-path:url(#clipPath16);" points=" 10 7 17 20 10 32 3 20" />
    </g>
    <g transform="translate(115,564)" style="font-size:11; fill:rgb(122,207,245); text-rendering:geometricPrecision; font-family:sans-serif; stroke:rgb(122,207,245);">
      <path d="M8 8 L32 8 L8 32 L32 32 Z" style="clip-path:url(#clipPath17); stroke:none;" />
    </g>
    <g transform="translate(115,564)" style="font-size:11; stroke-linecap:butt; text-rendering:geometricPrecision; font-family:sans-serif; stroke-linejoin:round; stroke-miterlimit:0;">
      <path d="M8 8 L32 8 L8 32 L32 32 Z" style="fill:none; clip-path:url(#clipPath17);" />
    </g>
    <g transform="translate(82,634)" style="font-size:11; fill:rgb(122,207,245); text-rendering:geometricPrecision; font-family:sans-serif; stroke:rgb(122,207,245);">
      <rect x="1" y="1" width="98" style="clip-path:url(#clipPath22); stroke:none;" rx="15" ry="15" height="38" />
    </g>
    <g transform="translate(82,634)" style="font-size:11; stroke-linecap:butt; text-rendering:geometricPrecision; font-family:sans-serif; stroke-linejoin:round; stroke-miterlimit:0;">
      <rect x="1" y="1" width="98" style="clip-path:url(#clipPath22); fill:none;" rx="15" ry="15" height="38" />
    </g>
    <g style="text-rendering:geometricPrecision; font-size:11; font-family:sans-serif;" transform="translate(82,634)">
      <text x="9" y="24" style="clip-path:url(#clipPath23); stroke:none;" xml:space="preserve">prendre son outil</text>
    </g>
    <g style="text-rendering:geometricPrecision; font-size:11; font-family:sans-serif;" transform="translate(122,704)">
      <circle style="clip-path:url(#clipPath24); stroke:none;" r="6.6667" cx="10" cy="10" />
      <circle style="stroke-linecap:butt; clip-path:url(#clipPath24); fill:none; stroke-linejoin:round; stroke-miterlimit:0;" r="10" cx="10" cy="10" />
    </g>
    <g style="text-rendering:geometricPrecision; font-size:11; font-family:sans-serif;" transform="translate(118,604)">
      <text x="7" y="12" style="clip-path:url(#clipPath25); stroke:none;" xml:space="preserve">10s</text>
    </g>
    <g style="text-rendering:geometricPrecision; font-size:11; font-family:sans-serif;" transform="translate(125,314)">
      <text x="7" y="12" style="clip-path:url(#clipPath25); stroke:none;" xml:space="preserve">10s</text>
    </g>
    <g transform="translate(141,94)" style="font-size:11; stroke-linecap:butt; text-rendering:geometricPrecision; font-family:sans-serif; stroke-linejoin:round;">
      <line x1="50" x2="251" y1="50" style="clip-path:url(#clipPath28); fill:none;" y2="50" />
      <line x1="251" x2="239" y1="50" style="clip-path:url(#clipPath28); fill:none;" y2="44" />
      <line x1="251" x2="239" y1="50" style="clip-path:url(#clipPath28); fill:none;" y2="56" />
    </g>
    <g transform="translate(402,133)" style="font-size:11; stroke-linecap:butt; text-rendering:geometricPrecision; font-family:sans-serif; stroke-linejoin:round;">
      <line x1="50" x2="50" y1="50" style="clip-path:url(#clipPath29); fill:none;" y2="80" />
      <line x1="50" x2="56" y1="80" style="clip-path:url(#clipPath29); fill:none;" y2="68" />
      <line x1="50" x2="44" y1="80" style="clip-path:url(#clipPath29); fill:none;" y2="68" />
    </g>
    <g transform="translate(402,204)" style="font-size:11; stroke-linecap:butt; text-rendering:geometricPrecision; font-family:sans-serif; stroke-linejoin:round;">
      <line x1="50" x2="50" y1="50" style="clip-path:url(#clipPath30); fill:none;" y2="78" />
      <line x1="50" x2="56" y1="78" style="clip-path:url(#clipPath30); fill:none;" y2="66" />
      <line x1="50" x2="44" y1="78" style="clip-path:url(#clipPath30); fill:none;" y2="66" />
    </g>
    <g transform="translate(92,108)" style="font-size:11; stroke-linecap:butt; text-rendering:geometricPrecision; font-family:sans-serif; stroke-linejoin:round;">
      <line x1="50" x2="50" y1="173" style="clip-path:url(#clipPath31); fill:none;" y2="50" />
      <line x1="50" x2="44" y1="50" style="clip-path:url(#clipPath31); fill:none;" y2="62" />
      <line x1="50" x2="56" y1="50" style="clip-path:url(#clipPath31); fill:none;" y2="62" />
    </g>
    <g transform="translate(92,33)" style="font-size:11; stroke-linecap:butt; text-rendering:geometricPrecision; font-family:sans-serif; stroke-linejoin:round;">
      <line x1="50" x2="50" y1="50" style="clip-path:url(#clipPath32); fill:none;" y2="86" />
      <line x1="50" x2="56" y1="86" style="clip-path:url(#clipPath32); fill:none;" y2="74" />
      <line x1="50" x2="44" y1="86" style="clip-path:url(#clipPath32); fill:none;" y2="74" />
    </g>
    <g transform="translate(112,244)" style="font-size:11; stroke-linecap:butt; text-rendering:geometricPrecision; font-family:sans-serif; stroke-linejoin:round;">
      <line x1="333" x2="50" y1="50" style="clip-path:url(#clipPath33); fill:none;" y2="50" />
      <line x1="50" x2="62" y1="50" style="clip-path:url(#clipPath33); fill:none;" y2="56" />
      <line x1="50" x2="62" y1="50" style="clip-path:url(#clipPath33); fill:none;" y2="44" />
    </g>
    <g transform="translate(114,255)" style="font-size:11; stroke-linecap:butt; text-rendering:geometricPrecision; font-family:sans-serif; stroke-linejoin:round;">
      <line x1="338" x2="338" y1="50" style="clip-path:url(#clipPath34); fill:none;" y2="109" />
      <line x1="338" x2="50" y1="109" style="clip-path:url(#clipPath34); fill:none;" y2="109" />
      <line x1="50" x2="62" y1="109" style="clip-path:url(#clipPath34); fill:none;" y2="115" />
      <line x1="50" x2="62" y1="109" style="clip-path:url(#clipPath34); fill:none;" y2="103" />
    </g>
    <g transform="translate(131,404)" style="font-size:11; stroke-linecap:butt; text-rendering:geometricPrecision; font-family:sans-serif; stroke-linejoin:round;">
      <line x1="50" x2="241" y1="50" style="clip-path:url(#clipPath35); fill:none;" y2="50" />
      <line x1="241" x2="229" y1="50" style="clip-path:url(#clipPath35); fill:none;" y2="44" />
      <line x1="241" x2="229" y1="50" style="clip-path:url(#clipPath35); fill:none;" y2="56" />
    </g>
    <g transform="translate(105,534)" style="font-size:11; stroke-linecap:butt; text-rendering:geometricPrecision; font-family:sans-serif; stroke-linejoin:round;">
      <line x1="340" x2="50" y1="50" style="clip-path:url(#clipPath36); fill:none;" y2="50" />
      <line x1="50" x2="62" y1="50" style="clip-path:url(#clipPath36); fill:none;" y2="56" />
      <line x1="50" x2="62" y1="50" style="clip-path:url(#clipPath36); fill:none;" y2="44" />
    </g>
    <g transform="translate(131,545)" style="font-size:11; stroke-linecap:butt; text-rendering:geometricPrecision; font-family:sans-serif; stroke-linejoin:round;">
      <line x1="321" x2="321" y1="50" style="clip-path:url(#clipPath37); fill:none;" y2="109" />
      <line x1="321" x2="50" y1="109" style="clip-path:url(#clipPath37); fill:none;" y2="109" />
      <line x1="50" x2="62" y1="109" style="clip-path:url(#clipPath37); fill:none;" y2="115" />
      <line x1="50" x2="62" y1="109" style="clip-path:url(#clipPath37); fill:none;" y2="103" />
    </g>
    <g transform="translate(402,494)" style="font-size:11; stroke-linecap:butt; text-rendering:geometricPrecision; font-family:sans-serif; stroke-linejoin:round;">
      <line x1="50" x2="50" y1="50" style="clip-path:url(#clipPath30); fill:none;" y2="78" />
      <line x1="50" x2="56" y1="78" style="clip-path:url(#clipPath30); fill:none;" y2="66" />
      <line x1="50" x2="44" y1="78" style="clip-path:url(#clipPath30); fill:none;" y2="66" />
    </g>
    <g transform="translate(92,33)" style="font-size:11; stroke-linecap:butt; text-rendering:geometricPrecision; font-family:sans-serif; stroke-linejoin:round;">
      <line x1="50" x2="50" y1="50" style="clip-path:url(#clipPath32); fill:none;" y2="86" />
      <line x1="50" x2="56" y1="86" style="clip-path:url(#clipPath32); fill:none;" y2="74" />
      <line x1="50" x2="44" y1="86" style="clip-path:url(#clipPath32); fill:none;" y2="74" />
    </g>
    <g transform="translate(141,94)" style="font-size:11; stroke-linecap:butt; text-rendering:geometricPrecision; font-family:sans-serif; stroke-linejoin:round;">
      <line x1="50" x2="251" y1="50" style="clip-path:url(#clipPath28); fill:none;" y2="50" />
      <line x1="251" x2="239" y1="50" style="clip-path:url(#clipPath28); fill:none;" y2="44" />
      <line x1="251" x2="239" y1="50" style="clip-path:url(#clipPath28); fill:none;" y2="56" />
    </g>
    <g transform="translate(392,433)" style="font-size:11; stroke-linecap:butt; text-rendering:geometricPrecision; font-family:sans-serif; stroke-linejoin:round;">
      <line x1="50" x2="50" y1="50" style="clip-path:url(#clipPath38); fill:none;" y2="70" />
      <line x1="50" x2="56" y1="70" style="clip-path:url(#clipPath38); fill:none;" y2="58" />
      <line x1="50" x2="44" y1="70" style="clip-path:url(#clipPath38); fill:none;" y2="58" />
    </g>
    <g transform="translate(82,418)" style="font-size:11; stroke-linecap:butt; text-rendering:geometricPrecision; font-family:sans-serif; stroke-linejoin:round;">
      <line x1="50" x2="50" y1="153" style="clip-path:url(#clipPath39); fill:none;" y2="50" />
      <line x1="50" x2="44" y1="50" style="clip-path:url(#clipPath39); fill:none;" y2="62" />
      <line x1="50" x2="56" y1="50" style="clip-path:url(#clipPath39); fill:none;" y2="62" />
    </g>
    <g transform="translate(82,623)" style="font-size:11; stroke-linecap:butt; text-rendering:geometricPrecision; font-family:sans-serif; stroke-linejoin:round;">
      <line x1="50" x2="50" y1="50" style="clip-path:url(#clipPath40); fill:none;" y2="82" />
      <line x1="50" x2="56" y1="82" style="clip-path:url(#clipPath40); fill:none;" y2="70" />
      <line x1="50" x2="44" y1="82" style="clip-path:url(#clipPath40); fill:none;" y2="70" />
    </g>
    <g transform="translate(80,338)" style="font-size:11; stroke-linecap:butt; text-rendering:geometricPrecision; font-family:sans-serif; stroke-linejoin:round;">
      <line x1="50" x2="50" y1="50" style="clip-path:url(#clipPath41); fill:none;" y2="91" />
      <line x1="50" x2="56" y1="91" style="clip-path:url(#clipPath41); fill:none;" y2="79" />
      <line x1="50" x2="44" y1="91" style="clip-path:url(#clipPath41); fill:none;" y2="79" />
    </g>
    <g style="text-rendering:geometricPrecision; font-size:11; font-family:sans-serif;" transform="translate(452,603)">
      <text x="10" y="12" style="clip-path:url(#clipPath42); stroke:none;" xml:space="preserve">[chemin valide]</text>
    </g>
    <g style="text-rendering:geometricPrecision; font-size:11; font-family:sans-serif;" transform="translate(390,563)">
      <text x="10" y="12" style="clip-path:url(#clipPath43); stroke:none;" xml:space="preserve">[sinon]</text>
    </g>
    <g style="text-rendering:geometricPrecision; font-size:11; font-family:sans-serif;" transform="translate(444,306)">
      <text x="10" y="12" style="clip-path:url(#clipPath42); stroke:none;" xml:space="preserve">[chemin valide]</text>
    </g>
    <g style="text-rendering:geometricPrecision; font-size:11; font-family:sans-serif;" transform="translate(391,274)">
      <text x="10" y="12" style="clip-path:url(#clipPath43); stroke:none;" xml:space="preserve">[sinon]</text>
    </g>
  </g>
</svg>
