<?xml version="1.0" encoding="UTF-8"?>

<!DOCTYPE svg PUBLIC '-//W3C//DTD SVG 1.0//EN' 'http://www.w3.org/TR/2001/REC-SVG-20010904/DTD/svg10.dtd'>
<svg style="fill-opacity:1; color-rendering:auto; color-interpolation:auto; stroke:black; text-rendering:auto; stroke-linecap:square; stroke-miterlimit:10; stroke-opacity:1; shape-rendering:auto; fill:black; stroke-dasharray:none; font-weight:normal; stroke-width:1; font-family:&apos;Dialog&apos;; font-style:normal; stroke-linejoin:miter; font-size:12; stroke-dashoffset:0; image-rendering:auto;" xmlns="http://www.w3.org/2000/svg" width="903" xmlns:xlink="http://www.w3.org/1999/xlink" height="203">
  <!--Generated by the Batik Graphics2D SVG Generator-->
  <defs id="genericDefs" />
  <g>
    <defs id="defs1">
      <clipPath clipPathUnits="userSpaceOnUse" id="clipPath1">
        <path d="M-3 -3 L27 -3 L27 27 L-3 27 L-3 -3 Z" />
      </clipPath>
      <clipPath clipPathUnits="userSpaceOnUse" id="clipPath2">
        <path d="M-3 -3 L257 -3 L257 47 L-3 47 L-3 -3 Z" />
      </clipPath>
      <clipPath clipPathUnits="userSpaceOnUse" id="clipPath3">
        <path d="M0 0 L0 17 L250 17 L250 0 Z" />
      </clipPath>
      <clipPath clipPathUnits="userSpaceOnUse" id="clipPath4">
        <path d="M-3 -3 L47 -3 L47 27 L-3 27 L-3 -3 Z" />
      </clipPath>
      <clipPath clipPathUnits="userSpaceOnUse" id="clipPath5">
        <path d="M-250 -15 L500 -15 L500 30 L-250 30 L-250 -15 Z" />
      </clipPath>
      <clipPath clipPathUnits="userSpaceOnUse" id="clipPath6">
        <path d="M0 0 L104 0 L104 173 L0 173 L0 0 Z" />
      </clipPath>
      <clipPath clipPathUnits="userSpaceOnUse" id="clipPath7">
        <path d="M0 0 L423 0 L423 155 L0 155 L0 0 Z" />
      </clipPath>
      <clipPath clipPathUnits="userSpaceOnUse" id="clipPath8">
        <path d="M0 0 L434 0 L434 154 L0 154 L0 0 Z" />
      </clipPath>
      <clipPath clipPathUnits="userSpaceOnUse" id="clipPath9">
        <path d="M0 0 L246 0 L246 104 L0 104 L0 0 Z" />
      </clipPath>
      <clipPath clipPathUnits="userSpaceOnUse" id="clipPath10">
        <path d="M-75 -15 L150 -15 L150 30 L-75 30 L-75 -15 Z" />
      </clipPath>
      <clipPath clipPathUnits="userSpaceOnUse" id="clipPath11">
        <path d="M-74 -15 L148 -15 L148 30 L-74 30 L-74 -15 Z" />
      </clipPath>
      <clipPath clipPathUnits="userSpaceOnUse" id="clipPath12">
        <path d="M-147 -15 L294 -15 L294 30 L-147 30 L-147 -15 Z" />
      </clipPath>
    </defs>
    <g style="fill:white; text-rendering:geometricPrecision; stroke:white;">
      <rect x="0" y="0" width="903" style="stroke:none;" height="203" />
      <rect x="38" y="178" transform="translate(-38,-178)" width="902" style="fill:none; stroke:black;" height="202" />
      <text x="45" y="195" transform="translate(-38,-178)" style="fill:black; stroke:none;" xml:space="preserve">stm Resting</text>
      <line transform="translate(-38,-178)" x1="38" x2="112" y1="202" style="fill:none; stroke:black;" y2="202" />
      <line transform="translate(-38,-178)" x1="118" x2="118" y1="178" style="fill:none; stroke:black;" y2="192" />
      <line transform="translate(-38,-178)" x1="118" x2="112" y1="192" style="fill:none; stroke:black;" y2="202" />
    </g>
    <g style="text-rendering:geometricPrecision; font-size:11; font-family:sans-serif;" transform="translate(12,104)">
      <circle style="clip-path:url(#clipPath1); stroke:none;" r="9.5" cx="9.5" cy="9.5" />
    </g>
    <g transform="translate(512,34)" style="font-size:11; fill:rgb(122,207,245); text-rendering:geometricPrecision; font-family:sans-serif; stroke:rgb(122,207,245);">
      <rect x="0" y="0" width="250" style="clip-path:url(#clipPath2); stroke:none;" rx="10" ry="10" height="40" />
    </g>
    <g transform="translate(512,34)" style="font-size:11; stroke-linecap:butt; text-rendering:geometricPrecision; font-family:sans-serif; stroke-linejoin:round; stroke-miterlimit:0;">
      <rect x="0" y="0" width="250" style="clip-path:url(#clipPath2); fill:none;" rx="10" ry="10" height="40" />
    </g>
    <g style="text-rendering:geometricPrecision; font-size:11; font-family:sans-serif;" transform="translate(512,49)">
      <text x="6" y="12" style="clip-path:url(#clipPath3); stroke:none;" xml:space="preserve">entry / dwarf.addAction(new GoDrinking(dwarf))</text>
    </g>
    <g style="text-rendering:geometricPrecision; font-size:11; font-family:sans-serif;" transform="translate(512,49)">
      <line x1="0" x2="249" y1="0" style="clip-path:url(#clipPath3); fill:none;" y2="0" />
    </g>
    <g transform="translate(512,144)" style="font-size:11; fill:rgb(122,207,245); text-rendering:geometricPrecision; font-family:sans-serif; stroke:rgb(122,207,245);">
      <rect x="0" y="0" width="250" style="clip-path:url(#clipPath2); stroke:none;" rx="10" ry="10" height="40" />
    </g>
    <g transform="translate(512,144)" style="font-size:11; stroke-linecap:butt; text-rendering:geometricPrecision; font-family:sans-serif; stroke-linejoin:round; stroke-miterlimit:0;">
      <rect x="0" y="0" width="250" style="clip-path:url(#clipPath2); fill:none;" rx="10" ry="10" height="40" />
    </g>
    <g style="text-rendering:geometricPrecision; font-size:11; font-family:sans-serif;" transform="translate(512,159)">
      <text x="6" y="12" style="clip-path:url(#clipPath3); stroke:none;" xml:space="preserve">entry / dwarf.addAction(new GoSleeping(dwarf))</text>
    </g>
    <g style="text-rendering:geometricPrecision; font-size:11; font-family:sans-serif;" transform="translate(512,159)">
      <line x1="0" x2="249" y1="0" style="clip-path:url(#clipPath3); fill:none;" y2="0" />
    </g>
    <g transform="translate(172,104)" style="font-size:11; fill:rgb(122,207,245); text-rendering:geometricPrecision; font-family:sans-serif; stroke:rgb(122,207,245);">
      <path d="M20 0 L39 10 L20 19 L0 10 Z" style="clip-path:url(#clipPath4); stroke:none;" />
    </g>
    <g transform="translate(172,104)" style="font-size:11; stroke-linecap:butt; text-rendering:geometricPrecision; font-family:sans-serif; stroke-linejoin:round; stroke-miterlimit:0;">
      <path d="M20 0 L39 10 L20 19 L0 10 Z" style="fill:none; clip-path:url(#clipPath4);" />
    </g>
    <g style="text-rendering:geometricPrecision; font-size:11; font-family:sans-serif;" transform="translate(512,144)">
      <text x="108" y="12" style="clip-path:url(#clipPath5); stroke:none;" xml:space="preserve">Sleepy</text>
    </g>
    <g style="text-rendering:geometricPrecision; font-size:11; font-family:sans-serif;" transform="translate(512,34)">
      <text x="108" y="12" style="clip-path:url(#clipPath5); stroke:none;" xml:space="preserve">Thirsty</text>
    </g>
    <g transform="translate(682,24)" style="font-size:11; stroke-linecap:butt; text-rendering:geometricPrecision; font-family:sans-serif; stroke-linejoin:round;">
      <line x1="50" x2="50" y1="50" style="clip-path:url(#clipPath6); fill:none;" y2="119" />
      <line x1="50" x2="56" y1="119" style="clip-path:url(#clipPath6); fill:none;" y2="107" />
      <line x1="50" x2="44" y1="119" style="clip-path:url(#clipPath6); fill:none;" y2="107" />
    </g>
    <g transform="translate(502,24)" style="font-size:11; stroke-linecap:butt; text-rendering:geometricPrecision; font-family:sans-serif; stroke-linejoin:round;">
      <line x1="50" x2="50" y1="119" style="clip-path:url(#clipPath6); fill:none;" y2="50" />
      <line x1="50" x2="44" y1="50" style="clip-path:url(#clipPath6); fill:none;" y2="62" />
      <line x1="50" x2="56" y1="50" style="clip-path:url(#clipPath6); fill:none;" y2="62" />
    </g>
    <g transform="translate(142,4)" style="font-size:11; stroke-linecap:butt; text-rendering:geometricPrecision; font-family:sans-serif; stroke-linejoin:round;">
      <line x1="50" x2="50" y1="101" style="clip-path:url(#clipPath7); fill:none;" y2="50" />
      <line x1="50" x2="369" y1="50" style="clip-path:url(#clipPath7); fill:none;" y2="50" />
      <line x1="369" x2="357" y1="50" style="clip-path:url(#clipPath7); fill:none;" y2="44" />
      <line x1="369" x2="357" y1="50" style="clip-path:url(#clipPath7); fill:none;" y2="56" />
    </g>
    <g transform="translate(136,69)" style="font-size:11; stroke-linecap:butt; text-rendering:geometricPrecision; font-family:sans-serif; stroke-linejoin:round;">
      <line x1="56" x2="56" y1="56" style="clip-path:url(#clipPath8); fill:none;" y2="95" />
      <line x1="56" x2="374" y1="95" style="clip-path:url(#clipPath8); fill:none;" y2="95" />
      <line x1="374" x2="362" y1="95" style="clip-path:url(#clipPath8); fill:none;" y2="89" />
      <line x1="374" x2="362" y1="95" style="clip-path:url(#clipPath8); fill:none;" y2="101" />
    </g>
    <g transform="translate(-20,64)" style="font-size:11; stroke-linecap:butt; text-rendering:geometricPrecision; font-family:sans-serif; stroke-linejoin:round;">
      <line x1="50" x2="192" y1="50" style="clip-path:url(#clipPath9); fill:none;" y2="50" />
      <line x1="192" x2="180" y1="50" style="clip-path:url(#clipPath9); fill:none;" y2="44" />
      <line x1="192" x2="180" y1="50" style="clip-path:url(#clipPath9); fill:none;" y2="56" />
    </g>
    <g style="text-rendering:geometricPrecision; font-size:11; font-family:sans-serif;" transform="translate(292,174)">
      <text x="10" y="12" style="clip-path:url(#clipPath10); stroke:none;" xml:space="preserve">[isSleepy()]</text>
    </g>
    <g style="text-rendering:geometricPrecision; font-size:11; font-family:sans-serif;" transform="translate(292,34)">
      <text x="10" y="12" style="clip-path:url(#clipPath11); stroke:none;" xml:space="preserve">[isThirsty()]</text>
    </g>
    <g style="text-rendering:geometricPrecision; font-size:11; font-family:sans-serif;" transform="translate(392,104)">
      <text x="10" y="12" style="clip-path:url(#clipPath12); stroke:none;" xml:space="preserve">[!isSleepy() &amp;&amp; isThirsty()]</text>
    </g>
    <g style="text-rendering:geometricPrecision; font-size:11; font-family:sans-serif;" transform="translate(742,94)">
      <text x="10" y="12" style="clip-path:url(#clipPath12); stroke:none;" xml:space="preserve">[isSleepy() &amp;&amp; !isThirsty()]</text>
    </g>
  </g>
</svg>
