<?xml version="1.0" encoding="UTF-8"?>

<!DOCTYPE svg PUBLIC '-//W3C//DTD SVG 1.0//EN' 'http://www.w3.org/TR/2001/REC-SVG-20010904/DTD/svg10.dtd'>
<svg style="fill-opacity:1; color-rendering:auto; color-interpolation:auto; stroke:black; text-rendering:auto; stroke-linecap:square; stroke-miterlimit:10; stroke-opacity:1; shape-rendering:auto; fill:black; stroke-dasharray:none; font-weight:normal; stroke-width:1; font-family:&apos;Dialog&apos;; font-style:normal; stroke-linejoin:miter; font-size:12; stroke-dashoffset:0; image-rendering:auto;" xmlns="http://www.w3.org/2000/svg" width="956" xmlns:xlink="http://www.w3.org/1999/xlink" height="668">
  <!--Generated by the Batik Graphics2D SVG Generator-->
  <defs id="genericDefs" />
  <g>
    <defs id="defs1">
      <clipPath clipPathUnits="userSpaceOnUse" id="clipPath1">
        <path d="M-3 -3 L937 -3 L937 627 L-3 627 L-3 -3 Z" />
      </clipPath>
      <clipPath clipPathUnits="userSpaceOnUse" id="clipPath2">
        <path d="M0 0 L930 0 L930 15 L0 15 L0 0 Z" />
      </clipPath>
      <clipPath clipPathUnits="userSpaceOnUse" id="clipPath3">
        <path d="M-3 -3 L627 -3 L627 577 L-3 577 L-3 -3 Z" />
      </clipPath>
      <clipPath clipPathUnits="userSpaceOnUse" id="clipPath4">
        <path d="M0 0 L620 0 L620 15 L0 15 L0 0 Z" />
      </clipPath>
      <clipPath clipPathUnits="userSpaceOnUse" id="clipPath5">
        <path d="M-3 -3 L237 -3 L237 177 L-3 177 L-3 -3 Z" />
      </clipPath>
      <clipPath clipPathUnits="userSpaceOnUse" id="clipPath6">
        <path d="M0 0 L230 0 L230 15 L0 15 L0 0 Z" />
      </clipPath>
      <clipPath clipPathUnits="userSpaceOnUse" id="clipPath7">
        <path d="M-3 -3 L237 -3 L237 137 L-3 137 L-3 -3 Z" />
      </clipPath>
      <clipPath clipPathUnits="userSpaceOnUse" id="clipPath8">
        <path d="M-3 -3 L227 -3 L227 167 L-3 167 L-3 -3 Z" />
      </clipPath>
      <clipPath clipPathUnits="userSpaceOnUse" id="clipPath9">
        <path d="M0 0 L0 152 L220 152 L220 0 Z" />
      </clipPath>
      <clipPath clipPathUnits="userSpaceOnUse" id="clipPath10">
        <path d="M0 0 L220 0 L220 15 L0 15 L0 0 Z" />
      </clipPath>
      <clipPath clipPathUnits="userSpaceOnUse" id="clipPath11">
        <path d="M-3 -3 L87 -3 L87 97 L-3 97 L-3 -3 Z" />
      </clipPath>
      <clipPath clipPathUnits="userSpaceOnUse" id="clipPath12">
        <path d="M0 0 L0 82 L80 82 L80 0 Z" />
      </clipPath>
      <clipPath clipPathUnits="userSpaceOnUse" id="clipPath13">
        <path d="M0 0 L80 0 L80 15 L0 15 L0 0 Z" />
      </clipPath>
      <clipPath clipPathUnits="userSpaceOnUse" id="clipPath14">
        <path d="M-3 -3 L97 -3 L97 47 L-3 47 L-3 -3 Z" />
      </clipPath>
      <clipPath clipPathUnits="userSpaceOnUse" id="clipPath15">
        <path d="M0 0 L0 32 L90 32 L90 0 Z" />
      </clipPath>
      <clipPath clipPathUnits="userSpaceOnUse" id="clipPath16">
        <path d="M0 0 L90 0 L90 15 L0 15 L0 0 Z" />
      </clipPath>
      <clipPath clipPathUnits="userSpaceOnUse" id="clipPath17">
        <path d="M-3 -3 L147 -3 L147 87 L-3 87 L-3 -3 Z" />
      </clipPath>
      <clipPath clipPathUnits="userSpaceOnUse" id="clipPath18">
        <path d="M0 0 L0 72 L140 72 L140 0 Z" />
      </clipPath>
      <clipPath clipPathUnits="userSpaceOnUse" id="clipPath19">
        <path d="M0 0 L140 0 L140 15 L0 15 L0 0 Z" />
      </clipPath>
      <clipPath clipPathUnits="userSpaceOnUse" id="clipPath20">
        <path d="M-3 -3 L197 -3 L197 97 L-3 97 L-3 -3 Z" />
      </clipPath>
      <clipPath clipPathUnits="userSpaceOnUse" id="clipPath21">
        <path d="M0 0 L0 67 L190 67 L190 0 Z" />
      </clipPath>
      <clipPath clipPathUnits="userSpaceOnUse" id="clipPath22">
        <path d="M0 0 L190 0 L190 30 L0 30 L0 0 Z" />
      </clipPath>
      <clipPath clipPathUnits="userSpaceOnUse" id="clipPath23">
        <path d="M-3 -3 L157 -3 L157 107 L-3 107 L-3 -3 Z" />
      </clipPath>
      <clipPath clipPathUnits="userSpaceOnUse" id="clipPath24">
        <path d="M0 0 L0 92 L150 92 L150 0 Z" />
      </clipPath>
      <clipPath clipPathUnits="userSpaceOnUse" id="clipPath25">
        <path d="M0 0 L150 0 L150 15 L0 15 L0 0 Z" />
      </clipPath>
      <clipPath clipPathUnits="userSpaceOnUse" id="clipPath26">
        <path d="M-3 -3 L177 -3 L177 167 L-3 167 L-3 -3 Z" />
      </clipPath>
      <clipPath clipPathUnits="userSpaceOnUse" id="clipPath27">
        <path d="M0 0 L0 152 L170 152 L170 0 Z" />
      </clipPath>
      <clipPath clipPathUnits="userSpaceOnUse" id="clipPath28">
        <path d="M0 0 L170 0 L170 15 L0 15 L0 0 Z" />
      </clipPath>
      <clipPath clipPathUnits="userSpaceOnUse" id="clipPath29">
        <path d="M-3 -3 L67 -3 L67 67 L-3 67 L-3 -3 Z" />
      </clipPath>
      <clipPath clipPathUnits="userSpaceOnUse" id="clipPath30">
        <path d="M-3 -3 L57 -3 L57 57 L-3 57 L-3 -3 Z" />
      </clipPath>
      <clipPath clipPathUnits="userSpaceOnUse" id="clipPath31">
        <path d="M-3 -3 L47 -3 L47 47 L-3 47 L-3 -3 Z" />
      </clipPath>
      <clipPath clipPathUnits="userSpaceOnUse" id="clipPath32">
        <path d="M0 0 L80 0 L80 80 L0 80 L0 0 Z" />
      </clipPath>
      <clipPath clipPathUnits="userSpaceOnUse" id="clipPath33">
        <path d="M0 0 L344 0 L344 154 L0 154 L0 0 Z" />
      </clipPath>
      <clipPath clipPathUnits="userSpaceOnUse" id="clipPath34">
        <path d="M0 0 L94 0 L94 94 L0 94 L0 0 Z" />
      </clipPath>
      <clipPath clipPathUnits="userSpaceOnUse" id="clipPath35">
        <path d="M0 0 L453 0 L453 153 L0 153 L0 0 Z" />
      </clipPath>
      <clipPath clipPathUnits="userSpaceOnUse" id="clipPath36">
        <path d="M0 0 L129 0 L129 129 L0 129 L0 0 Z" />
      </clipPath>
      <clipPath clipPathUnits="userSpaceOnUse" id="clipPath37">
        <path d="M0 0 L154 0 L154 115 L0 115 L0 0 Z" />
      </clipPath>
      <clipPath clipPathUnits="userSpaceOnUse" id="clipPath38">
        <path d="M0 0 L205 0 L205 214 L0 214 L0 0 Z" />
      </clipPath>
      <clipPath clipPathUnits="userSpaceOnUse" id="clipPath39">
        <path d="M0 0 L115 0 L115 214 L0 214 L0 0 Z" />
      </clipPath>
      <clipPath clipPathUnits="userSpaceOnUse" id="clipPath40">
        <path d="M0 0 L235 0 L235 214 L0 214 L0 0 Z" />
      </clipPath>
      <clipPath clipPathUnits="userSpaceOnUse" id="clipPath41">
        <path d="M-40 -40 L80 -40 L80 80 L-40 80 L-40 -40 Z" />
      </clipPath>
      <clipPath clipPathUnits="userSpaceOnUse" id="clipPath42">
        <path d="M-50 -50 L100 -50 L100 100 L-50 100 L-50 -50 Z" />
      </clipPath>
      <clipPath clipPathUnits="userSpaceOnUse" id="clipPath43">
        <path d="M-60 -60 L120 -60 L120 120 L-60 120 L-60 -60 Z" />
      </clipPath>
    </defs>
    <g style="fill:white; text-rendering:geometricPrecision; stroke:white;">
      <rect x="0" y="0" width="956" style="stroke:none;" height="668" />
      <rect x="78" y="58" transform="translate(-78,-58)" width="955" style="fill:none; stroke:black;" height="667" />
      <text x="85" y="75" transform="translate(-78,-58)" style="fill:black; stroke:none;" xml:space="preserve">class Room</text>
      <line transform="translate(-78,-58)" x1="78" x2="152" y1="82" style="fill:none; stroke:black;" y2="82" />
      <line transform="translate(-78,-58)" x1="158" x2="158" y1="58" style="fill:none; stroke:black;" y2="72" />
      <line transform="translate(-78,-58)" x1="158" x2="152" y1="72" style="fill:none; stroke:black;" y2="82" />
    </g>
    <g transform="translate(12,34)" style="font-size:11; fill:rgb(122,207,245); text-rendering:geometricPrecision; font-family:sans-serif; stroke:rgb(122,207,245);">
      <rect x="0" y="0" width="185" style="clip-path:url(#clipPath1); stroke:none;" height="20" />
      <rect x="0" y="20" width="929" style="clip-path:url(#clipPath1); stroke:none;" height="599" />
    </g>
    <g transform="translate(12,34)" style="font-size:11; stroke-linecap:butt; text-rendering:geometricPrecision; font-family:sans-serif; stroke-linejoin:round; stroke-miterlimit:0;">
      <rect x="0" y="0" width="185" style="clip-path:url(#clipPath1); fill:none;" height="20" />
      <rect x="0" y="20" width="929" style="clip-path:url(#clipPath1); fill:none;" height="599" />
    </g>
    <g style="text-rendering:geometricPrecision; font-size:11; font-family:sans-serif;" transform="translate(12,54)">
      <text x="447" y="12" style="clip-path:url(#clipPath2); stroke:none;" xml:space="preserve">models</text>
    </g>
    <g transform="translate(42,64)" style="font-size:11; fill:rgb(122,207,245); text-rendering:geometricPrecision; font-family:sans-serif; stroke:rgb(122,207,245);">
      <rect x="0" y="0" width="123" style="clip-path:url(#clipPath3); stroke:none;" height="20" />
      <rect x="0" y="20" width="619" style="clip-path:url(#clipPath3); stroke:none;" height="549" />
    </g>
    <g transform="translate(42,64)" style="font-size:11; stroke-linecap:butt; text-rendering:geometricPrecision; font-family:sans-serif; stroke-linejoin:round; stroke-miterlimit:0;">
      <rect x="0" y="0" width="123" style="clip-path:url(#clipPath3); fill:none;" height="20" />
      <rect x="0" y="20" width="619" style="clip-path:url(#clipPath3); fill:none;" height="549" />
    </g>
    <g style="text-rendering:geometricPrecision; font-size:11; font-family:sans-serif;" transform="translate(42,84)">
      <text x="293" y="12" style="clip-path:url(#clipPath4); stroke:none;" xml:space="preserve">Rooms</text>
    </g>
    <g transform="translate(682,214)" style="font-size:11; fill:rgb(122,207,245); text-rendering:geometricPrecision; font-family:sans-serif; stroke:rgb(122,207,245);">
      <rect x="0" y="0" width="45" style="clip-path:url(#clipPath5); stroke:none;" height="20" />
      <rect x="0" y="20" width="229" style="clip-path:url(#clipPath5); stroke:none;" height="149" />
    </g>
    <g transform="translate(682,214)" style="font-size:11; stroke-linecap:butt; text-rendering:geometricPrecision; font-family:sans-serif; stroke-linejoin:round; stroke-miterlimit:0;">
      <rect x="0" y="0" width="45" style="clip-path:url(#clipPath5); fill:none;" height="20" />
      <rect x="0" y="20" width="229" style="clip-path:url(#clipPath5); fill:none;" height="149" />
    </g>
    <g style="text-rendering:geometricPrecision; font-size:11; font-family:sans-serif;" transform="translate(682,234)">
      <text x="100" y="12" style="clip-path:url(#clipPath6); stroke:none;" xml:space="preserve">World</text>
    </g>
    <g transform="translate(682,64)" style="font-size:11; fill:rgb(122,207,245); text-rendering:geometricPrecision; font-family:sans-serif; stroke:rgb(122,207,245);">
      <rect x="0" y="0" width="45" style="clip-path:url(#clipPath7); stroke:none;" height="20" />
      <rect x="0" y="20" width="229" style="clip-path:url(#clipPath7); stroke:none;" height="109" />
    </g>
    <g transform="translate(682,64)" style="font-size:11; stroke-linecap:butt; text-rendering:geometricPrecision; font-family:sans-serif; stroke-linejoin:round; stroke-miterlimit:0;">
      <rect x="0" y="0" width="45" style="clip-path:url(#clipPath7); fill:none;" height="20" />
      <rect x="0" y="20" width="229" style="clip-path:url(#clipPath7); fill:none;" height="109" />
    </g>
    <g style="text-rendering:geometricPrecision; font-size:11; font-family:sans-serif;" transform="translate(682,84)">
      <text x="96" y="12" style="clip-path:url(#clipPath6); stroke:none;" xml:space="preserve">Objects</text>
    </g>
    <g transform="translate(302,184)" style="font-size:11; fill:rgb(122,207,245); text-rendering:geometricPrecision; font-family:sans-serif; stroke:rgb(122,207,245); font-weight:bold;">
      <rect x="0" y="0" width="220" style="clip-path:url(#clipPath8); stroke:none;" height="160" />
    </g>
    <g transform="translate(302,184)" style="font-size:11; stroke-linecap:butt; text-rendering:geometricPrecision; font-family:sans-serif; stroke-linejoin:round; font-weight:bold; stroke-miterlimit:0;">
      <rect x="0" y="0" width="220" style="clip-path:url(#clipPath8); fill:none;" height="160" />
      <line x1="0" x2="220" y1="15" style="clip-path:url(#clipPath8); fill:none;" y2="15" />
    </g>
    <g style="text-rendering:geometricPrecision; font-size:11; font-family:sans-serif;" transform="translate(302,199)">
      <text x="2" y="14" style="clip-path:url(#clipPath9); stroke:none;" xml:space="preserve">-operationnal : boolean</text>
      <line x1="0" x2="220" y1="19" style="stroke-linecap:butt; clip-path:url(#clipPath9); fill:none; stroke-linejoin:bevel; stroke-miterlimit:0;" y2="19" />
      <text x="2" y="33" style="clip-path:url(#clipPath9); stroke:none;" xml:space="preserve">+isOperationnal() : boolean</text>
      <text x="2" y="48" style="clip-path:url(#clipPath9); stroke:none;" xml:space="preserve">+objectIn(object : GameObject) : boolean</text>
      <text x="2" y="63" style="clip-path:url(#clipPath9); stroke:none;" xml:space="preserve">+barycenter() : int [2]</text>
      <text x="2" y="78" style="clip-path:url(#clipPath9); stroke:none;" xml:space="preserve">+clean() : void</text>
      <text x="2" y="93" style="clip-path:url(#clipPath9); stroke:none;" xml:space="preserve">+intersect(Room room) : boolean</text>
      <text x="2" y="108" style="clip-path:url(#clipPath9); stroke:none;" xml:space="preserve">+fusion(Room room) : void</text>
      <text x="2" y="123" style="clip-path:url(#clipPath9); stroke:none;" xml:space="preserve">+addObject(object : GameObject) : void</text>
      <text x="2" y="138" style="clip-path:url(#clipPath9); stroke:none;" xml:space="preserve">+removeObject(object : GameObject) : void</text>
    </g>
    <g transform="translate(302,184)" style="font-size:11; text-rendering:geometricPrecision; font-family:sans-serif; font-style:italic; font-weight:bold;">
      <text x="93" y="12" style="clip-path:url(#clipPath10); stroke:none;" xml:space="preserve">Room</text>
    </g>
    <g transform="translate(772,274)" style="font-size:11; fill:rgb(122,207,245); text-rendering:geometricPrecision; font-family:sans-serif; stroke:rgb(122,207,245); font-weight:bold;">
      <rect x="0" y="0" width="80" style="clip-path:url(#clipPath11); stroke:none;" height="90" />
    </g>
    <g transform="translate(772,274)" style="font-size:11; stroke-linecap:butt; text-rendering:geometricPrecision; font-family:sans-serif; stroke-linejoin:round; font-weight:bold; stroke-miterlimit:0;">
      <rect x="0" y="0" width="80" style="clip-path:url(#clipPath11); fill:none;" height="90" />
      <line x1="0" x2="80" y1="15" style="clip-path:url(#clipPath11); fill:none;" y2="15" />
    </g>
    <g style="text-rendering:geometricPrecision; font-size:11; font-family:sans-serif;" transform="translate(772,289)">
      <text x="2" y="14" style="clip-path:url(#clipPath12); stroke:none;" xml:space="preserve">-i : int</text>
      <text x="2" y="29" style="clip-path:url(#clipPath12); stroke:none;" xml:space="preserve">-j : int</text>
      <text x="2" y="44" style="clip-path:url(#clipPath12); stroke:none;" xml:space="preserve">-w : int</text>
      <text x="2" y="59" style="clip-path:url(#clipPath12); stroke:none;" xml:space="preserve">-h : int</text>
    </g>
    <g transform="translate(772,274)" style="text-rendering:geometricPrecision; font-size:11; font-weight:bold; font-family:sans-serif;">
      <text x="16" y="12" style="clip-path:url(#clipPath13); stroke:none;" xml:space="preserve">MapArea</text>
    </g>
    <g transform="translate(752,114)" style="font-size:11; fill:rgb(122,207,245); text-rendering:geometricPrecision; font-family:sans-serif; stroke:rgb(122,207,245); font-weight:bold;">
      <rect x="0" y="0" width="90" style="clip-path:url(#clipPath14); stroke:none;" height="40" />
    </g>
    <g transform="translate(752,114)" style="font-size:11; stroke-linecap:butt; text-rendering:geometricPrecision; font-family:sans-serif; stroke-linejoin:round; font-weight:bold; stroke-miterlimit:0;">
      <rect x="0" y="0" width="90" style="clip-path:url(#clipPath14); fill:none;" height="40" />
      <line x1="0" x2="90" y1="15" style="clip-path:url(#clipPath14); fill:none;" y2="15" />
    </g>
    <g transform="translate(752,114)" style="font-size:11; text-rendering:geometricPrecision; font-family:sans-serif; font-style:italic; font-weight:bold;">
      <text x="12" y="12" style="clip-path:url(#clipPath16); stroke:none;" xml:space="preserve">GameObject</text>
    </g>
    <g transform="translate(122,444)" style="font-size:11; fill:rgb(122,207,245); text-rendering:geometricPrecision; font-family:sans-serif; stroke:rgb(122,207,245); font-weight:bold;">
      <rect x="0" y="0" width="140" style="clip-path:url(#clipPath17); stroke:none;" height="80" />
    </g>
    <g transform="translate(122,444)" style="font-size:11; stroke-linecap:butt; text-rendering:geometricPrecision; font-family:sans-serif; stroke-linejoin:round; font-weight:bold; stroke-miterlimit:0;">
      <rect x="0" y="0" width="140" style="clip-path:url(#clipPath17); fill:none;" height="80" />
      <line x1="0" x2="140" y1="15" style="clip-path:url(#clipPath17); fill:none;" y2="15" />
    </g>
    <g style="text-rendering:geometricPrecision; font-size:11; font-family:sans-serif;" transform="translate(122,459)">
      <text x="2" y="14" style="clip-path:url(#clipPath18); stroke:none;" xml:space="preserve">-bedCount : int</text>
      <line x1="0" x2="140" y1="19" style="stroke-linecap:butt; clip-path:url(#clipPath18); fill:none; stroke-linejoin:bevel; stroke-miterlimit:0;" y2="19" />
      <text x="2" y="33" style="clip-path:url(#clipPath18); stroke:none;" xml:space="preserve">+bedAvailable() : boolean</text>
    </g>
    <g transform="translate(122,444)" style="text-rendering:geometricPrecision; font-size:11; font-weight:bold; font-family:sans-serif;">
      <text x="55" y="12" style="clip-path:url(#clipPath19); stroke:none;" xml:space="preserve">Dorm</text>
    </g>
    <g transform="translate(72,204)" style="font-size:11; fill:rgb(122,207,245); text-rendering:geometricPrecision; font-family:sans-serif; stroke:rgb(122,207,245); font-weight:bold;">
      <rect x="0" y="0" width="190" style="clip-path:url(#clipPath20); stroke:none;" height="90" />
    </g>
    <g transform="translate(72,204)" style="font-size:11; stroke-linecap:butt; text-rendering:geometricPrecision; font-family:sans-serif; stroke-linejoin:round; font-weight:bold; stroke-miterlimit:0;">
      <rect x="0" y="0" width="190" style="clip-path:url(#clipPath20); fill:none;" height="90" />
      <line x1="0" x2="190" y1="30" style="clip-path:url(#clipPath20); fill:none;" y2="30" />
    </g>
    <g style="text-rendering:geometricPrecision; font-size:11; font-family:sans-serif;" transform="translate(72,234)">
      <text x="2" y="14" style="clip-path:url(#clipPath21); stroke:none;" xml:space="preserve">+updateOperationalState() : boolean</text>
      <text x="2" y="29" style="clip-path:url(#clipPath21); stroke:none;" xml:space="preserve">+getRoomColor() : float [4]</text>
      <text x="2" y="44" style="clip-path:url(#clipPath21); stroke:none;" xml:space="preserve">+getRoomName() : String</text>
    </g>
    <g transform="translate(72,204)" style="text-rendering:geometricPrecision; font-size:11; font-weight:bold; font-family:sans-serif;">
      <text x="59" y="12" style="clip-path:url(#clipPath22); stroke:none;" xml:space="preserve">&lt;&lt;Interface&gt;&gt;</text>
      <text x="77" y="27" style="clip-path:url(#clipPath22); stroke:none;" xml:space="preserve">IRoom</text>
    </g>
    <g transform="translate(302,444)" style="font-size:11; fill:rgb(122,207,245); text-rendering:geometricPrecision; font-family:sans-serif; stroke:rgb(122,207,245); font-weight:bold;">
      <rect x="0" y="0" width="150" style="clip-path:url(#clipPath23); stroke:none;" height="100" />
    </g>
    <g transform="translate(302,444)" style="font-size:11; stroke-linecap:butt; text-rendering:geometricPrecision; font-family:sans-serif; stroke-linejoin:round; font-weight:bold; stroke-miterlimit:0;">
      <rect x="0" y="0" width="150" style="clip-path:url(#clipPath23); fill:none;" height="100" />
      <line x1="0" x2="150" y1="15" style="clip-path:url(#clipPath23); fill:none;" y2="15" />
    </g>
    <g style="text-rendering:geometricPrecision; font-size:11; font-family:sans-serif;" transform="translate(302,459)">
      <text x="2" y="14" style="clip-path:url(#clipPath24); stroke:none;" xml:space="preserve">-tableCount : int</text>
      <text x="2" y="29" style="clip-path:url(#clipPath24); stroke:none;" xml:space="preserve">-counterCount : int</text>
      <text x="2" y="44" style="clip-path:url(#clipPath24); stroke:none;" xml:space="preserve">-barrelCount : int</text>
      <line x1="0" x2="150" y1="49" style="stroke-linecap:butt; clip-path:url(#clipPath24); fill:none; stroke-linejoin:bevel; stroke-miterlimit:0;" y2="49" />
      <text x="2" y="63" style="clip-path:url(#clipPath24); stroke:none;" xml:space="preserve">+tableAvailable() : boolean</text>
      <text x="2" y="78" style="clip-path:url(#clipPath24); stroke:none;" xml:space="preserve">+barmanNeeded() : boolean</text>
    </g>
    <g transform="translate(302,444)" style="text-rendering:geometricPrecision; font-size:11; font-weight:bold; font-family:sans-serif;">
      <text x="56" y="12" style="clip-path:url(#clipPath25); stroke:none;" xml:space="preserve">Tavern</text>
    </g>
    <g transform="translate(482,444)" style="font-size:11; fill:rgb(122,207,245); text-rendering:geometricPrecision; font-family:sans-serif; stroke:rgb(122,207,245); font-weight:bold;">
      <rect x="0" y="0" width="170" style="clip-path:url(#clipPath26); stroke:none;" height="160" />
    </g>
    <g transform="translate(482,444)" style="font-size:11; stroke-linecap:butt; text-rendering:geometricPrecision; font-family:sans-serif; stroke-linejoin:round; font-weight:bold; stroke-miterlimit:0;">
      <rect x="0" y="0" width="170" style="clip-path:url(#clipPath26); fill:none;" height="160" />
      <line x1="0" x2="170" y1="15" style="clip-path:url(#clipPath26); fill:none;" y2="15" />
    </g>
    <g style="text-rendering:geometricPrecision; font-size:11; font-family:sans-serif;" transform="translate(482,459)">
      <text x="2" y="14" style="clip-path:url(#clipPath27); stroke:none;" xml:space="preserve">-pickaxeCount : int</text>
      <text x="2" y="29" style="clip-path:url(#clipPath27); stroke:none;" xml:space="preserve">-damagedPickaxeCount : int</text>
      <text x="2" y="44" style="clip-path:url(#clipPath27); stroke:none;" xml:space="preserve">-repairedPickaxeCount : int</text>
      <text x="2" y="59" style="clip-path:url(#clipPath27); stroke:none;" xml:space="preserve">-pickaxeCapacity : int</text>
      <text x="2" y="74" style="clip-path:url(#clipPath27); stroke:none;" xml:space="preserve">-rackCount : int</text>
      <text x="2" y="89" style="clip-path:url(#clipPath27); stroke:none;" xml:space="preserve">-anvilCount : int</text>
      <line x1="0" x2="170" y1="94" style="stroke-linecap:butt; clip-path:url(#clipPath27); fill:none; stroke-linejoin:bevel; stroke-miterlimit:0;" y2="94" />
      <text x="2" y="108" style="clip-path:url(#clipPath27); stroke:none;" xml:space="preserve">+crafterNeeded() : boolean</text>
      <text x="2" y="123" style="clip-path:url(#clipPath27); stroke:none;" xml:space="preserve">+pickaxeAvailable() : boolean</text>
      <text x="2" y="138" style="clip-path:url(#clipPath27); stroke:none;" xml:space="preserve">+pickaxeSlotAvailable() : boolean</text>
    </g>
    <g transform="translate(482,444)" style="text-rendering:geometricPrecision; font-size:11; font-weight:bold; font-family:sans-serif;">
      <text x="58" y="12" style="clip-path:url(#clipPath28); stroke:none;" xml:space="preserve">Workshop</text>
    </g>
    <g transform="translate(476,208)" style="font-size:11; stroke-linecap:butt; text-rendering:geometricPrecision; font-family:sans-serif; stroke-linejoin:round;">
      <line x1="70" x2="246" y1="46" style="clip-path:url(#clipPath33); fill:none;" y2="46" />
      <line x1="246" x2="246" y1="46" style="clip-path:url(#clipPath33); fill:none;" y2="106" />
      <line x1="246" x2="295" y1="106" style="clip-path:url(#clipPath33); fill:none;" y2="106" />
      <polygon style="clip-path:url(#clipPath33); stroke:none;" points=" 46 46 58 52 70 46 58 40" />
      <polygon style="fill:none; clip-path:url(#clipPath33);" points=" 46 46 58 52 70 46 58 40" />
    </g>
    <g transform="translate(352,84)" style="font-size:11; stroke-linecap:butt; text-rendering:geometricPrecision; font-family:sans-serif; stroke-linejoin:round;">
      <line x1="399" x2="50" y1="50" style="clip-path:url(#clipPath35); fill:none;" y2="50" />
      <line x1="50" x2="50" y1="50" style="clip-path:url(#clipPath35); fill:none;" y2="99" />
    </g>
    <g transform="translate(206,198)" style="font-size:11; stroke-linecap:butt; stroke-dashoffset:1; text-rendering:geometricPrecision; font-family:sans-serif; stroke-linejoin:round; stroke-dasharray:5;">
      <line x1="56" x2="94" y1="56" style="clip-path:url(#clipPath37); fill:none;" y2="56" />
    </g>
    <g transform="translate(206,198)" style="font-size:11; stroke-linecap:butt; fill:rgb(122,207,245); text-rendering:geometricPrecision; font-family:sans-serif; stroke-linejoin:round; stroke:rgb(122,207,245);">
      <polygon style="clip-path:url(#clipPath37); stroke:none;" points=" 56 56 68 62 68 50" />
      <polygon style="fill:none; clip-path:url(#clipPath37); stroke:black;" points=" 56 56 68 62 68 50" />
    </g>
    <g transform="translate(436,288)" style="font-size:11; stroke-linecap:butt; text-rendering:geometricPrecision; font-family:sans-serif; stroke-linejoin:round;">
      <line x1="56" x2="56" y1="56" style="clip-path:url(#clipPath38); fill:none;" y2="76" />
      <line x1="56" x2="146" y1="76" style="clip-path:url(#clipPath38); fill:none;" y2="76" />
      <line x1="146" x2="146" y1="76" style="clip-path:url(#clipPath38); fill:none;" y2="154" />
      <polygon style="fill:white; clip-path:url(#clipPath38); stroke:none;" points=" 56 56 50 68 62 68" />
      <polygon style="fill:none; clip-path:url(#clipPath38);" points=" 56 56 50 68 62 68" />
    </g>
    <g transform="translate(356,288)" style="font-size:11; stroke-linecap:butt; text-rendering:geometricPrecision; font-family:sans-serif; stroke-linejoin:round;">
      <line x1="56" x2="56" y1="56" style="clip-path:url(#clipPath39); fill:none;" y2="154" />
      <polygon style="fill:white; clip-path:url(#clipPath39); stroke:none;" points=" 56 56 50 68 62 68" />
      <polygon style="fill:none; clip-path:url(#clipPath39);" points=" 56 56 50 68 62 68" />
    </g>
    <g transform="translate(156,288)" style="font-size:11; stroke-linecap:butt; text-rendering:geometricPrecision; font-family:sans-serif; stroke-linejoin:round;">
      <line x1="176" x2="176" y1="56" style="clip-path:url(#clipPath40); fill:none;" y2="76" />
      <line x1="176" x2="56" y1="76" style="clip-path:url(#clipPath40); fill:none;" y2="76" />
      <line x1="56" x2="56" y1="76" style="clip-path:url(#clipPath40); fill:none;" y2="154" />
      <polygon style="fill:white; clip-path:url(#clipPath40); stroke:none;" points=" 176 56 170 68 182 68" />
      <polygon style="fill:none; clip-path:url(#clipPath40);" points=" 176 56 170 68 182 68" />
    </g>
    <g style="text-rendering:geometricPrecision; font-size:11; font-family:sans-serif;" transform="translate(732,284)">
      <text x="11" y="24" style="clip-path:url(#clipPath41); stroke:none;" xml:space="preserve">1..*</text>
    </g>
    <g style="text-rendering:geometricPrecision; font-size:11; font-family:sans-serif;" transform="translate(722,294)">
      <text x="11" y="29" style="clip-path:url(#clipPath42); stroke:none;" xml:space="preserve">areas</text>
    </g>
    <g style="text-rendering:geometricPrecision; font-size:11; font-family:sans-serif;" transform="translate(362,144)">
      <text x="11" y="24" style="clip-path:url(#clipPath41); stroke:none;" xml:space="preserve">0..1</text>
    </g>
    <g style="text-rendering:geometricPrecision; font-size:11; font-family:sans-serif;" transform="translate(712,104)">
      <text x="11" y="24" style="clip-path:url(#clipPath41); stroke:none;" xml:space="preserve">0..*</text>
    </g>
    <g style="text-rendering:geometricPrecision; font-size:11; font-family:sans-serif;" transform="translate(402,134)">
      <text x="12" y="29" style="clip-path:url(#clipPath42); stroke:none;" xml:space="preserve">room</text>
    </g>
    <g style="text-rendering:geometricPrecision; font-size:11; font-family:sans-serif;" transform="translate(692,114)">
      <text x="12" y="34" style="clip-path:url(#clipPath43); stroke:none;" xml:space="preserve">objects</text>
    </g>
  </g>
</svg>
