<?xml version="1.0" encoding="UTF-8"?>

<!DOCTYPE svg PUBLIC '-//W3C//DTD SVG 1.0//EN' 'http://www.w3.org/TR/2001/REC-SVG-20010904/DTD/svg10.dtd'>
<svg style="fill-opacity:1; color-rendering:auto; color-interpolation:auto; stroke:black; text-rendering:auto; stroke-linecap:square; stroke-miterlimit:10; stroke-opacity:1; shape-rendering:auto; fill:black; stroke-dasharray:none; font-weight:normal; stroke-width:1; font-family:&apos;Dialog&apos;; font-style:normal; stroke-linejoin:miter; font-size:12; stroke-dashoffset:0; image-rendering:auto;" xmlns="http://www.w3.org/2000/svg" width="776" xmlns:xlink="http://www.w3.org/1999/xlink" height="648">
  <!--Generated by the Batik Graphics2D SVG Generator-->
  <defs id="genericDefs" />
  <g>
    <defs id="defs1">
      <clipPath clipPathUnits="userSpaceOnUse" id="clipPath1">
        <path d="M-3 -3 L757 -3 L757 607 L-3 607 L-3 -3 Z" />
      </clipPath>
      <clipPath clipPathUnits="userSpaceOnUse" id="clipPath2">
        <path d="M0 0 L0 592 L7 592 L7 0 Z" />
      </clipPath>
      <clipPath clipPathUnits="userSpaceOnUse" id="clipPath3">
        <path d="M-3 -3 L367 -3 L367 22 L-3 22 L-3 -3 Z" />
      </clipPath>
      <clipPath clipPathUnits="userSpaceOnUse" id="clipPath4">
        <path d="M0 0 L360 0 L360 15 L0 15 L0 0 Z" />
      </clipPath>
      <clipPath clipPathUnits="userSpaceOnUse" id="clipPath5">
        <path d="M-3 -3 L367 -3 L367 592 L-3 592 L-3 -3 Z" />
      </clipPath>
      <clipPath clipPathUnits="userSpaceOnUse" id="clipPath6">
        <path d="M-3 -3 L397 -3 L397 22 L-3 22 L-3 -3 Z" />
      </clipPath>
      <clipPath clipPathUnits="userSpaceOnUse" id="clipPath7">
        <path d="M0 0 L390 0 L390 15 L0 15 L0 0 Z" />
      </clipPath>
      <clipPath clipPathUnits="userSpaceOnUse" id="clipPath8">
        <path d="M-3 -3 L397 -3 L397 592 L-3 592 L-3 -3 Z" />
      </clipPath>
      <clipPath clipPathUnits="userSpaceOnUse" id="clipPath9">
        <path d="M-3 -3 L97 -3 L97 47 L-3 47 L-3 -3 Z" />
      </clipPath>
      <clipPath clipPathUnits="userSpaceOnUse" id="clipPath10">
        <path d="M0 0 L90 0 L90 40 L0 40 L0 0 Z" />
      </clipPath>
      <clipPath clipPathUnits="userSpaceOnUse" id="clipPath11">
        <path d="M-3 -3 L107 -3 L107 47 L-3 47 L-3 -3 Z" />
      </clipPath>
      <clipPath clipPathUnits="userSpaceOnUse" id="clipPath12">
        <path d="M0 0 L100 0 L100 40 L0 40 L0 0 Z" />
      </clipPath>
      <clipPath clipPathUnits="userSpaceOnUse" id="clipPath13">
        <path d="M-3 -3 L47 -3 L47 27 L-3 27 L-3 -3 Z" />
      </clipPath>
      <clipPath clipPathUnits="userSpaceOnUse" id="clipPath14">
        <path d="M-3 -3 L147 -3 L147 47 L-3 47 L-3 -3 Z" />
      </clipPath>
      <clipPath clipPathUnits="userSpaceOnUse" id="clipPath15">
        <path d="M0 0 L0 21 L138 21 L138 0 Z" />
      </clipPath>
      <clipPath clipPathUnits="userSpaceOnUse" id="clipPath16">
        <path d="M-3 -3 L227 -3 L227 47 L-3 47 L-3 -3 Z" />
      </clipPath>
      <clipPath clipPathUnits="userSpaceOnUse" id="clipPath17">
        <path d="M0 0 L0 21 L199 21 L199 0 Z" />
      </clipPath>
      <clipPath clipPathUnits="userSpaceOnUse" id="clipPath18">
        <path d="M-3 -3 L117 -3 L117 47 L-3 47 L-3 -3 Z" />
      </clipPath>
      <clipPath clipPathUnits="userSpaceOnUse" id="clipPath19">
        <path d="M0 0 L0 21 L104 21 L104 0 Z" />
      </clipPath>
      <clipPath clipPathUnits="userSpaceOnUse" id="clipPath20">
        <path d="M-3 -3 L187 -3 L187 47 L-3 47 L-3 -3 Z" />
      </clipPath>
      <clipPath clipPathUnits="userSpaceOnUse" id="clipPath21">
        <path d="M0 0 L0 21 L172 21 L172 0 Z" />
      </clipPath>
      <clipPath clipPathUnits="userSpaceOnUse" id="clipPath22">
        <path d="M-3 -3 L257 -3 L257 47 L-3 47 L-3 -3 Z" />
      </clipPath>
      <clipPath clipPathUnits="userSpaceOnUse" id="clipPath23">
        <path d="M0 0 L0 21 L249 21 L249 0 Z" />
      </clipPath>
      <clipPath clipPathUnits="userSpaceOnUse" id="clipPath24">
        <path d="M-3 -3 L137 -3 L137 47 L-3 47 L-3 -3 Z" />
      </clipPath>
      <clipPath clipPathUnits="userSpaceOnUse" id="clipPath25">
        <path d="M0 0 L130 0 L130 40 L0 40 L0 0 Z" />
      </clipPath>
      <clipPath clipPathUnits="userSpaceOnUse" id="clipPath26">
        <path d="M0 0 L0 36 L100 36 L100 0 Z" />
      </clipPath>
      <clipPath clipPathUnits="userSpaceOnUse" id="clipPath27">
        <path d="M0 0 L0 15 L100 15 L100 0 Z" />
      </clipPath>
      <clipPath clipPathUnits="userSpaceOnUse" id="clipPath28">
        <path d="M0 0 L0 21 L100 21 L100 0 Z" />
      </clipPath>
      <clipPath clipPathUnits="userSpaceOnUse" id="clipPath29">
        <path d="M-390 -585 L780 -585 L780 1170 L-390 1170 L-390 -585 Z" />
      </clipPath>
      <clipPath clipPathUnits="userSpaceOnUse" id="clipPath30">
        <path d="M-360 -585 L720 -585 L720 1170 L-360 1170 L-360 -585 Z" />
      </clipPath>
      <clipPath clipPathUnits="userSpaceOnUse" id="clipPath31">
        <path d="M0 0 L104 0 L104 165 L0 165 L0 0 Z" />
      </clipPath>
      <clipPath clipPathUnits="userSpaceOnUse" id="clipPath32">
        <path d="M0 0 L295 0 L295 104 L0 104 L0 0 Z" />
      </clipPath>
      <clipPath clipPathUnits="userSpaceOnUse" id="clipPath33">
        <path d="M0 0 L104 0 L104 154 L0 154 L0 0 Z" />
      </clipPath>
      <clipPath clipPathUnits="userSpaceOnUse" id="clipPath34">
        <path d="M0 0 L423 0 L423 144 L0 144 L0 0 Z" />
      </clipPath>
      <clipPath clipPathUnits="userSpaceOnUse" id="clipPath35">
        <path d="M0 0 L104 0 L104 145 L0 145 L0 0 Z" />
      </clipPath>
      <clipPath clipPathUnits="userSpaceOnUse" id="clipPath36">
        <path d="M0 0 L275 0 L275 104 L0 104 L0 0 Z" />
      </clipPath>
      <clipPath clipPathUnits="userSpaceOnUse" id="clipPath37">
        <path d="M0 0 L384 0 L384 104 L0 104 L0 0 Z" />
      </clipPath>
      <clipPath clipPathUnits="userSpaceOnUse" id="clipPath38">
        <path d="M0 0 L104 0 L104 155 L0 155 L0 0 Z" />
      </clipPath>
      <clipPath clipPathUnits="userSpaceOnUse" id="clipPath39">
        <path d="M0 0 L194 0 L194 514 L0 514 L0 0 Z" />
      </clipPath>
    </defs>
    <g style="fill:white; text-rendering:geometricPrecision; stroke:white;">
      <rect x="0" y="0" width="776" style="stroke:none;" height="648" />
      <rect x="168" y="78" transform="translate(-168,-78)" width="775" style="fill:none; stroke:black;" height="647" />
      <text x="175" y="95" transform="translate(-168,-78)" style="fill:black; stroke:none;" xml:space="preserve">act Serving</text>
      <line transform="translate(-168,-78)" x1="168" x2="235" y1="102" style="fill:none; stroke:black;" y2="102" />
      <line transform="translate(-168,-78)" x1="241" x2="241" y1="78" style="fill:none; stroke:black;" y2="92" />
      <line transform="translate(-168,-78)" x1="241" x2="235" y1="92" style="fill:none; stroke:black;" y2="102" />
    </g>
    <g transform="translate(12,34)" style="text-rendering:geometricPrecision; stroke-width:2; font-size:11; font-family:sans-serif;">
      <rect x="0" y="0" width="360" style="clip-path:url(#clipPath3); fill:none;" height="15" />
    </g>
    <g style="text-rendering:geometricPrecision; font-size:11; font-family:sans-serif;" transform="translate(12,34)">
      <text x="160" y="12" style="clip-path:url(#clipPath4); stroke:none;" xml:space="preserve">:Barman</text>
    </g>
    <g transform="translate(12,49)" style="text-rendering:geometricPrecision; stroke-width:2; font-size:11; font-family:sans-serif;">
      <rect x="0" y="0" width="360" style="clip-path:url(#clipPath5); fill:none;" height="585" />
    </g>
    <g transform="translate(372,34)" style="text-rendering:geometricPrecision; stroke-width:2; font-size:11; font-family:sans-serif;">
      <rect x="0" y="0" width="390" style="clip-path:url(#clipPath6); fill:none;" height="15" />
    </g>
    <g style="text-rendering:geometricPrecision; font-size:11; font-family:sans-serif;" transform="translate(372,34)">
      <text x="176" y="12" style="clip-path:url(#clipPath7); stroke:none;" xml:space="preserve">:Tavern</text>
    </g>
    <g transform="translate(372,49)" style="text-rendering:geometricPrecision; stroke-width:2; font-size:11; font-family:sans-serif;">
      <rect x="0" y="0" width="390" style="clip-path:url(#clipPath8); fill:none;" height="585" />
    </g>
    <g transform="translate(532,244)" style="font-size:11; fill:rgb(122,207,245); text-rendering:geometricPrecision; font-family:sans-serif; stroke:rgb(122,207,245);">
      <rect x="0" y="0" width="90" style="clip-path:url(#clipPath9); stroke:none;" height="40" />
    </g>
    <g transform="translate(532,244)" style="font-size:11; stroke-linecap:butt; text-rendering:geometricPrecision; font-family:sans-serif; stroke-linejoin:round; stroke-miterlimit:0;">
      <rect x="0" y="0" width="90" style="clip-path:url(#clipPath9); fill:none;" height="40" />
    </g>
    <g style="text-rendering:geometricPrecision; font-size:11; font-family:sans-serif;" transform="translate(532,244)">
      <text x="14" y="24" style="clip-path:url(#clipPath10); stroke:none;" xml:space="preserve">Barrel:barrel</text>
    </g>
    <g transform="translate(552,474)" style="font-size:11; fill:rgb(122,207,245); text-rendering:geometricPrecision; font-family:sans-serif; stroke:rgb(122,207,245);">
      <rect x="0" y="0" width="100" style="clip-path:url(#clipPath11); stroke:none;" height="40" />
    </g>
    <g transform="translate(552,474)" style="font-size:11; stroke-linecap:butt; text-rendering:geometricPrecision; font-family:sans-serif; stroke-linejoin:round; stroke-miterlimit:0;">
      <rect x="0" y="0" width="100" style="clip-path:url(#clipPath11); fill:none;" height="40" />
    </g>
    <g style="text-rendering:geometricPrecision; font-size:11; font-family:sans-serif;" transform="translate(552,474)">
      <text x="10" y="24" style="clip-path:url(#clipPath12); stroke:none;" xml:space="preserve">Counter:counter</text>
    </g>
    <g style="text-rendering:geometricPrecision; font-size:11; font-family:sans-serif;" transform="translate(182,73)">
      <circle style="clip-path:url(#clipPath13); stroke:none;" r="10" cx="20" cy="10" />
    </g>
    <g transform="translate(132,153)" style="font-size:11; fill:rgb(122,207,245); text-rendering:geometricPrecision; font-family:sans-serif; stroke:rgb(122,207,245); font-weight:bold;">
      <rect x="1" y="1" width="138" style="clip-path:url(#clipPath14); stroke:none;" rx="15" ry="15" height="38" />
    </g>
    <g transform="translate(132,153)" style="font-size:11; stroke-linecap:butt; text-rendering:geometricPrecision; font-family:sans-serif; stroke-linejoin:round; font-weight:bold; stroke-miterlimit:0;">
      <rect x="1" y="1" width="138" style="clip-path:url(#clipPath14); fill:none;" rx="15" ry="15" height="38" />
    </g>
    <g transform="translate(132,153)" style="text-rendering:geometricPrecision; font-size:11; font-weight:bold; font-family:sans-serif;">
      <text x="10" y="18" style="clip-path:url(#clipPath15); stroke:none;" xml:space="preserve">ref : act BarmanWaiting</text>
    </g>
    <g transform="translate(462,154)" style="font-size:11; fill:rgb(122,207,245); text-rendering:geometricPrecision; font-family:sans-serif; stroke:rgb(122,207,245); font-weight:bold;">
      <rect x="1" y="1" width="218" style="clip-path:url(#clipPath16); stroke:none;" rx="15" ry="15" height="38" />
    </g>
    <g transform="translate(462,154)" style="font-size:11; stroke-linecap:butt; text-rendering:geometricPrecision; font-family:sans-serif; stroke-linejoin:round; font-weight:bold; stroke-miterlimit:0;">
      <rect x="1" y="1" width="218" style="clip-path:url(#clipPath16); fill:none;" rx="15" ry="15" height="38" />
    </g>
    <g transform="translate(462,154)" style="text-rendering:geometricPrecision; font-size:11; font-weight:bold; font-family:sans-serif;">
      <text x="10" y="18" style="clip-path:url(#clipPath17); stroke:none;" xml:space="preserve">Trouver Fut de bière le plus proche</text>
    </g>
    <g transform="translate(152,304)" style="font-size:11; fill:rgb(122,207,245); text-rendering:geometricPrecision; font-family:sans-serif; stroke:rgb(122,207,245); font-weight:bold;">
      <rect x="1" y="1" width="108" style="clip-path:url(#clipPath18); stroke:none;" rx="15" ry="15" height="38" />
    </g>
    <g transform="translate(152,304)" style="font-size:11; stroke-linecap:butt; text-rendering:geometricPrecision; font-family:sans-serif; stroke-linejoin:round; font-weight:bold; stroke-miterlimit:0;">
      <rect x="1" y="1" width="108" style="clip-path:url(#clipPath18); fill:none;" rx="15" ry="15" height="38" />
    </g>
    <g transform="translate(152,304)" style="text-rendering:geometricPrecision; font-size:11; font-weight:bold; font-family:sans-serif;">
      <text x="10" y="18" style="clip-path:url(#clipPath19); stroke:none;" xml:space="preserve">Aller jusqu'au fut</text>
    </g>
    <g transform="translate(122,384)" style="font-size:11; fill:rgb(122,207,245); text-rendering:geometricPrecision; font-family:sans-serif; stroke:rgb(122,207,245); font-weight:bold;">
      <rect x="1" y="1" width="178" style="clip-path:url(#clipPath20); stroke:none;" rx="15" ry="15" height="38" />
    </g>
    <g transform="translate(122,384)" style="font-size:11; stroke-linecap:butt; text-rendering:geometricPrecision; font-family:sans-serif; stroke-linejoin:round; font-weight:bold; stroke-miterlimit:0;">
      <rect x="1" y="1" width="178" style="clip-path:url(#clipPath20); fill:none;" rx="15" ry="15" height="38" />
    </g>
    <g transform="translate(122,384)" style="text-rendering:geometricPrecision; font-size:11; font-weight:bold; font-family:sans-serif;">
      <text x="10" y="18" style="clip-path:url(#clipPath21); stroke:none;" xml:space="preserve">Remplir une chope dans le fut</text>
    </g>
    <g transform="translate(472,384)" style="font-size:11; fill:rgb(122,207,245); text-rendering:geometricPrecision; font-family:sans-serif; stroke:rgb(122,207,245); font-weight:bold;">
      <rect x="1" y="1" width="248" style="clip-path:url(#clipPath22); stroke:none;" rx="15" ry="15" height="38" />
    </g>
    <g transform="translate(472,384)" style="font-size:11; stroke-linecap:butt; text-rendering:geometricPrecision; font-family:sans-serif; stroke-linejoin:round; font-weight:bold; stroke-miterlimit:0;">
      <rect x="1" y="1" width="248" style="clip-path:url(#clipPath22); fill:none;" rx="15" ry="15" height="38" />
    </g>
    <g transform="translate(472,384)" style="text-rendering:geometricPrecision; font-size:11; font-weight:bold; font-family:sans-serif;">
      <text x="10" y="18" style="clip-path:url(#clipPath23); stroke:none;" xml:space="preserve">Trouver le comptoir où il y a un client à sevir</text>
    </g>
    <g transform="translate(142,474)" style="font-size:11; fill:rgb(122,207,245); text-rendering:geometricPrecision; font-family:sans-serif; stroke:rgb(122,207,245);">
      <rect x="1" y="1" width="128" style="clip-path:url(#clipPath24); stroke:none;" rx="15" ry="15" height="38" />
    </g>
    <g transform="translate(142,474)" style="font-size:11; stroke-linecap:butt; text-rendering:geometricPrecision; font-family:sans-serif; stroke-linejoin:round; stroke-miterlimit:0;">
      <rect x="1" y="1" width="128" style="clip-path:url(#clipPath24); fill:none;" rx="15" ry="15" height="38" />
    </g>
    <g style="text-rendering:geometricPrecision; font-size:11; font-family:sans-serif;" transform="translate(142,474)">
      <text x="9" y="24" style="clip-path:url(#clipPath25); stroke:none;" xml:space="preserve">Aller jusqu'au comptoir</text>
    </g>
    <g transform="translate(162,564)" style="font-size:11; fill:rgb(122,207,245); text-rendering:geometricPrecision; font-family:sans-serif; stroke:rgb(122,207,245); font-weight:bold;">
      <rect x="1" y="1" width="98" style="clip-path:url(#clipPath11); stroke:none;" rx="15" ry="15" height="38" />
    </g>
    <g transform="translate(162,564)" style="font-size:11; stroke-linecap:butt; text-rendering:geometricPrecision; font-family:sans-serif; stroke-linejoin:round; font-weight:bold; stroke-miterlimit:0;">
      <rect x="1" y="1" width="98" style="clip-path:url(#clipPath11); fill:none;" rx="15" ry="15" height="38" />
    </g>
    <g transform="translate(162,564)" style="text-rendering:geometricPrecision; font-size:11; font-weight:bold; font-family:sans-serif;">
      <text x="10" y="18" style="clip-path:url(#clipPath28); stroke:none;" xml:space="preserve">Donner la chope</text>
    </g>
    <g transform="translate(152,43)" style="font-size:11; stroke-linecap:butt; text-rendering:geometricPrecision; font-family:sans-serif; stroke-linejoin:round;">
      <line x1="50" x2="50" y1="50" style="clip-path:url(#clipPath31); fill:none;" y2="111" />
      <line x1="50" x2="56" y1="111" style="clip-path:url(#clipPath31); fill:none;" y2="99" />
      <line x1="50" x2="44" y1="111" style="clip-path:url(#clipPath31); fill:none;" y2="99" />
    </g>
    <g transform="translate(221,124)" style="font-size:11; stroke-linecap:butt; text-rendering:geometricPrecision; font-family:sans-serif; stroke-linejoin:round;">
      <line x1="50" x2="241" y1="50" style="clip-path:url(#clipPath32); fill:none;" y2="50" />
      <line x1="241" x2="229" y1="50" style="clip-path:url(#clipPath32); fill:none;" y2="44" />
      <line x1="241" x2="229" y1="50" style="clip-path:url(#clipPath32); fill:none;" y2="56" />
    </g>
    <g transform="translate(527,143)" style="font-size:11; stroke-linecap:butt; text-rendering:geometricPrecision; font-family:sans-serif; stroke-linejoin:round;">
      <line x1="50" x2="50" y1="50" style="clip-path:url(#clipPath33); fill:none;" y2="100" />
      <line x1="50" x2="56" y1="100" style="clip-path:url(#clipPath33); fill:none;" y2="88" />
      <line x1="50" x2="44" y1="100" style="clip-path:url(#clipPath33); fill:none;" y2="88" />
    </g>
    <g transform="translate(162,214)" style="font-size:11; stroke-linecap:butt; text-rendering:geometricPrecision; font-family:sans-serif; stroke-linejoin:round;">
      <line x1="369" x2="50" y1="50" style="clip-path:url(#clipPath34); fill:none;" y2="50" />
      <line x1="50" x2="50" y1="50" style="clip-path:url(#clipPath34); fill:none;" y2="90" />
      <line x1="50" x2="56" y1="90" style="clip-path:url(#clipPath34); fill:none;" y2="78" />
      <line x1="50" x2="44" y1="90" style="clip-path:url(#clipPath34); fill:none;" y2="78" />
    </g>
    <g transform="translate(162,293)" style="font-size:11; stroke-linecap:butt; text-rendering:geometricPrecision; font-family:sans-serif; stroke-linejoin:round;">
      <line x1="50" x2="50" y1="50" style="clip-path:url(#clipPath35); fill:none;" y2="91" />
      <line x1="50" x2="56" y1="91" style="clip-path:url(#clipPath35); fill:none;" y2="79" />
      <line x1="50" x2="44" y1="91" style="clip-path:url(#clipPath35); fill:none;" y2="79" />
    </g>
    <g transform="translate(251,354)" style="font-size:11; stroke-linecap:butt; text-rendering:geometricPrecision; font-family:sans-serif; stroke-linejoin:round;">
      <line x1="50" x2="221" y1="50" style="clip-path:url(#clipPath36); fill:none;" y2="50" />
      <line x1="221" x2="209" y1="50" style="clip-path:url(#clipPath36); fill:none;" y2="44" />
      <line x1="221" x2="209" y1="50" style="clip-path:url(#clipPath36); fill:none;" y2="56" />
    </g>
    <g transform="translate(552,373)" style="font-size:11; stroke-linecap:butt; text-rendering:geometricPrecision; font-family:sans-serif; stroke-linejoin:round;">
      <line x1="50" x2="50" y1="50" style="clip-path:url(#clipPath33); fill:none;" y2="100" />
      <line x1="50" x2="56" y1="100" style="clip-path:url(#clipPath33); fill:none;" y2="88" />
      <line x1="50" x2="44" y1="100" style="clip-path:url(#clipPath33); fill:none;" y2="88" />
    </g>
    <g transform="translate(221,444)" style="font-size:11; stroke-linecap:butt; text-rendering:geometricPrecision; font-family:sans-serif; stroke-linejoin:round;">
      <line x1="330" x2="50" y1="50" style="clip-path:url(#clipPath37); fill:none;" y2="50" />
      <line x1="50" x2="62" y1="50" style="clip-path:url(#clipPath37); fill:none;" y2="56" />
      <line x1="50" x2="62" y1="50" style="clip-path:url(#clipPath37); fill:none;" y2="44" />
    </g>
    <g transform="translate(162,463)" style="font-size:11; stroke-linecap:butt; text-rendering:geometricPrecision; font-family:sans-serif; stroke-linejoin:round;">
      <line x1="50" x2="50" y1="50" style="clip-path:url(#clipPath38); fill:none;" y2="101" />
      <line x1="50" x2="56" y1="101" style="clip-path:url(#clipPath38); fill:none;" y2="89" />
      <line x1="50" x2="44" y1="101" style="clip-path:url(#clipPath38); fill:none;" y2="89" />
    </g>
    <g transform="translate(22,124)" style="font-size:11; stroke-linecap:butt; text-rendering:geometricPrecision; font-family:sans-serif; stroke-linejoin:round;">
      <line x1="140" x2="50" y1="460" style="clip-path:url(#clipPath39); fill:none;" y2="460" />
      <line x1="50" x2="50" y1="460" style="clip-path:url(#clipPath39); fill:none;" y2="50" />
      <line x1="50" x2="110" y1="50" style="clip-path:url(#clipPath39); fill:none;" y2="50" />
      <line x1="110" x2="98" y1="50" style="clip-path:url(#clipPath39); fill:none;" y2="44" />
      <line x1="110" x2="98" y1="50" style="clip-path:url(#clipPath39); fill:none;" y2="56" />
    </g>
  </g>
</svg>
