<?xml version="1.0" encoding="UTF-8"?>

<!DOCTYPE svg PUBLIC '-//W3C//DTD SVG 1.0//EN' 'http://www.w3.org/TR/2001/REC-SVG-20010904/DTD/svg10.dtd'>
<svg style="fill-opacity:1; color-rendering:auto; color-interpolation:auto; stroke:black; text-rendering:auto; stroke-linecap:square; stroke-miterlimit:10; stroke-opacity:1; shape-rendering:auto; fill:black; stroke-dasharray:none; font-weight:normal; stroke-width:1; font-family:&apos;Dialog&apos;; font-style:normal; stroke-linejoin:miter; font-size:12; stroke-dashoffset:0; image-rendering:auto;" xmlns="http://www.w3.org/2000/svg" width="1151" xmlns:xlink="http://www.w3.org/1999/xlink" height="866">
  <!--Generated by the Batik Graphics2D SVG Generator-->
  <defs id="genericDefs" />
  <g>
    <defs id="defs1">
      <clipPath clipPathUnits="userSpaceOnUse" id="clipPath1">
        <path d="M-3 -3 L1067 -3 L1067 827 L-3 827 L-3 -3 Z" />
      </clipPath>
      <clipPath clipPathUnits="userSpaceOnUse" id="clipPath2">
        <path d="M0 0 L0 21 L504 21 L504 0 Z" />
      </clipPath>
      <clipPath clipPathUnits="userSpaceOnUse" id="clipPath3">
        <path d="M-3 -3 L847 -3 L847 687 L-3 687 L-3 -3 Z" />
      </clipPath>
      <clipPath clipPathUnits="userSpaceOnUse" id="clipPath4">
        <path d="M0 0 L0 672 L7 672 L7 0 Z" />
      </clipPath>
      <clipPath clipPathUnits="userSpaceOnUse" id="clipPath5">
        <path d="M-3 -3 L77 -3 L77 37 L-3 37 L-3 -3 Z" />
      </clipPath>
      <clipPath clipPathUnits="userSpaceOnUse" id="clipPath6">
        <path d="M-3 -3 L537 -3 L537 22 L-3 22 L-3 -3 Z" />
      </clipPath>
      <clipPath clipPathUnits="userSpaceOnUse" id="clipPath7">
        <path d="M0 0 L530 0 L530 15 L0 15 L0 0 Z" />
      </clipPath>
      <clipPath clipPathUnits="userSpaceOnUse" id="clipPath8">
        <path d="M-3 -3 L537 -3 L537 672 L-3 672 L-3 -3 Z" />
      </clipPath>
      <clipPath clipPathUnits="userSpaceOnUse" id="clipPath9">
        <path d="M-3 -3 L97 -3 L97 57 L-3 57 L-3 -3 Z" />
      </clipPath>
      <clipPath clipPathUnits="userSpaceOnUse" id="clipPath10">
        <path d="M0 0 L90 0 L90 50 L0 50 L0 0 Z" />
      </clipPath>
      <clipPath clipPathUnits="userSpaceOnUse" id="clipPath11">
        <path d="M-3 -3 L247 -3 L247 177 L-3 177 L-3 -3 Z" />
      </clipPath>
      <clipPath clipPathUnits="userSpaceOnUse" id="clipPath12">
        <path d="M0 0 L240 0 L240 19 L0 19 L0 0 Z" />
      </clipPath>
      <clipPath clipPathUnits="userSpaceOnUse" id="clipPath13">
        <path d="M-3 -3 L117 -3 L117 47 L-3 47 L-3 -3 Z" />
      </clipPath>
      <clipPath clipPathUnits="userSpaceOnUse" id="clipPath14">
        <path d="M0 0 L110 0 L110 40 L0 40 L0 0 Z" />
      </clipPath>
      <clipPath clipPathUnits="userSpaceOnUse" id="clipPath15">
        <path d="M-3 -3 L19 -3 L19 67 L-3 67 L-3 -3 Z" />
      </clipPath>
      <clipPath clipPathUnits="userSpaceOnUse" id="clipPath16">
        <path d="M-3 -3 L127 -3 L127 47 L-3 47 L-3 -3 Z" />
      </clipPath>
      <clipPath clipPathUnits="userSpaceOnUse" id="clipPath17">
        <path d="M-3 -3 L87 -3 L87 47 L-3 47 L-3 -3 Z" />
      </clipPath>
      <clipPath clipPathUnits="userSpaceOnUse" id="clipPath18">
        <path d="M0 0 L80 0 L80 40 L0 40 L0 0 Z" />
      </clipPath>
      <clipPath clipPathUnits="userSpaceOnUse" id="clipPath19">
        <path d="M-3 -3 L317 -3 L317 22 L-3 22 L-3 -3 Z" />
      </clipPath>
      <clipPath clipPathUnits="userSpaceOnUse" id="clipPath20">
        <path d="M0 0 L310 0 L310 15 L0 15 L0 0 Z" />
      </clipPath>
      <clipPath clipPathUnits="userSpaceOnUse" id="clipPath21">
        <path d="M-3 -3 L317 -3 L317 672 L-3 672 L-3 -3 Z" />
      </clipPath>
      <clipPath clipPathUnits="userSpaceOnUse" id="clipPath22">
        <path d="M-3 -3 L107 -3 L107 47 L-3 47 L-3 -3 Z" />
      </clipPath>
      <clipPath clipPathUnits="userSpaceOnUse" id="clipPath23">
        <path d="M0 0 L100 0 L100 40 L0 40 L0 0 Z" />
      </clipPath>
      <clipPath clipPathUnits="userSpaceOnUse" id="clipPath24">
        <path d="M-3 -3 L27 -3 L27 47 L-3 47 L-3 -3 Z" />
      </clipPath>
      <clipPath clipPathUnits="userSpaceOnUse" id="clipPath25">
        <path d="M-3 -3 L47 -3 L47 21 L-3 21 L-3 -3 Z" />
      </clipPath>
      <clipPath clipPathUnits="userSpaceOnUse" id="clipPath26">
        <path d="M-3 -3 L19 -3 L19 19 L-3 19 L-3 -3 Z" />
      </clipPath>
      <clipPath clipPathUnits="userSpaceOnUse" id="clipPath27">
        <path d="M-3 -3 L18 -3 L18 19 L-3 19 L-3 -3 Z" />
      </clipPath>
      <clipPath clipPathUnits="userSpaceOnUse" id="clipPath28">
        <path d="M-3 -3 L18 -3 L18 18 L-3 18 L-3 -3 Z" />
      </clipPath>
      <clipPath clipPathUnits="userSpaceOnUse" id="clipPath29">
        <path d="M-310 -665 L620 -665 L620 1330 L-310 1330 L-310 -665 Z" />
      </clipPath>
      <clipPath clipPathUnits="userSpaceOnUse" id="clipPath30">
        <path d="M-530 -665 L1060 -665 L1060 1330 L-530 1330 L-530 -665 Z" />
      </clipPath>
      <clipPath clipPathUnits="userSpaceOnUse" id="clipPath31">
        <path d="M-120 -40 L240 -40 L240 80 L-120 80 L-120 -40 Z" />
      </clipPath>
      <clipPath clipPathUnits="userSpaceOnUse" id="clipPath32">
        <path d="M-110 -40 L220 -40 L220 80 L-110 80 L-110 -40 Z" />
      </clipPath>
      <clipPath clipPathUnits="userSpaceOnUse" id="clipPath33">
        <path d="M-88 -13 L176 -13 L176 26 L-88 26 L-88 -13 Z" />
      </clipPath>
      <clipPath clipPathUnits="userSpaceOnUse" id="clipPath34">
        <path d="M-70 -30 L140 -30 L140 60 L-70 60 L-70 -30 Z" />
      </clipPath>
      <clipPath clipPathUnits="userSpaceOnUse" id="clipPath35">
        <path d="M-77 -13 L154 -13 L154 26 L-77 26 L-77 -13 Z" />
      </clipPath>
      <clipPath clipPathUnits="userSpaceOnUse" id="clipPath36">
        <path d="M-108 -13 L216 -13 L216 26 L-108 26 L-108 -13 Z" />
      </clipPath>
      <clipPath clipPathUnits="userSpaceOnUse" id="clipPath37">
        <path d="M-81 -13 L162 -13 L162 26 L-81 26 L-81 -13 Z" />
      </clipPath>
      <clipPath clipPathUnits="userSpaceOnUse" id="clipPath38">
        <path d="M-102 -13 L204 -13 L204 26 L-102 26 L-102 -13 Z" />
      </clipPath>
      <clipPath clipPathUnits="userSpaceOnUse" id="clipPath39">
        <path d="M-75 -13 L150 -13 L150 26 L-75 26 L-75 -13 Z" />
      </clipPath>
      <clipPath clipPathUnits="userSpaceOnUse" id="clipPath40">
        <path d="M-70 -13 L140 -13 L140 26 L-70 26 L-70 -13 Z" />
      </clipPath>
      <clipPath clipPathUnits="userSpaceOnUse" id="clipPath41">
        <path d="M0 0 L299 0 L299 219 L0 219 L0 0 Z" />
      </clipPath>
      <clipPath clipPathUnits="userSpaceOnUse" id="clipPath42">
        <path d="M0 0 L169 0 L169 181 L0 181 L0 0 Z" />
      </clipPath>
      <clipPath clipPathUnits="userSpaceOnUse" id="clipPath43">
        <path d="M0 0 L179 0 L179 181 L0 181 L0 0 Z" />
      </clipPath>
      <clipPath clipPathUnits="userSpaceOnUse" id="clipPath44">
        <path d="M0 0 L129 0 L129 165 L0 165 L0 0 Z" />
      </clipPath>
      <clipPath clipPathUnits="userSpaceOnUse" id="clipPath45">
        <path d="M0 0 L169 0 L169 169 L0 169 L0 0 Z" />
      </clipPath>
      <clipPath clipPathUnits="userSpaceOnUse" id="clipPath46">
        <path d="M0 0 L129 0 L129 151 L0 151 L0 0 Z" />
      </clipPath>
      <clipPath clipPathUnits="userSpaceOnUse" id="clipPath47">
        <path d="M0 0 L129 0 L129 129 L0 129 L0 0 Z" />
      </clipPath>
      <clipPath clipPathUnits="userSpaceOnUse" id="clipPath48">
        <path d="M0 0 L269 0 L269 372 L0 372 L0 0 Z" />
      </clipPath>
      <clipPath clipPathUnits="userSpaceOnUse" id="clipPath49">
        <path d="M0 0 L229 0 L229 129 L0 129 L0 0 Z" />
      </clipPath>
      <clipPath clipPathUnits="userSpaceOnUse" id="clipPath50">
        <path d="M0 0 L397 0 L397 129 L0 129 L0 0 Z" />
      </clipPath>
      <clipPath clipPathUnits="userSpaceOnUse" id="clipPath51">
        <path d="M0 0 L449 0 L449 196 L0 196 L0 0 Z" />
      </clipPath>
      <clipPath clipPathUnits="userSpaceOnUse" id="clipPath52">
        <path d="M0 0 L129 0 L129 164 L0 164 L0 0 Z" />
      </clipPath>
      <clipPath clipPathUnits="userSpaceOnUse" id="clipPath53">
        <path d="M0 0 L862 0 L862 236 L0 236 L0 0 Z" />
      </clipPath>
      <clipPath clipPathUnits="userSpaceOnUse" id="clipPath54">
        <path d="M0 0 L129 0 L129 149 L0 149 L0 0 Z" />
      </clipPath>
      <clipPath clipPathUnits="userSpaceOnUse" id="clipPath55">
        <path d="M0 0 L591 0 L591 529 L0 529 L0 0 Z" />
      </clipPath>
      <clipPath clipPathUnits="userSpaceOnUse" id="clipPath56">
        <path d="M0 0 L129 0 L129 189 L0 189 L0 0 Z" />
      </clipPath>
      <clipPath clipPathUnits="userSpaceOnUse" id="clipPath57">
        <path d="M0 0 L236 0 L236 209 L0 209 L0 0 Z" />
      </clipPath>
      <clipPath clipPathUnits="userSpaceOnUse" id="clipPath58">
        <path d="M0 0 L269 0 L269 287 L0 287 L0 0 Z" />
      </clipPath>
      <clipPath clipPathUnits="userSpaceOnUse" id="clipPath59">
        <path d="M-45 -15 L90 -15 L90 30 L-45 30 L-45 -15 Z" />
      </clipPath>
      <clipPath clipPathUnits="userSpaceOnUse" id="clipPath60">
        <path d="M-50 -15 L100 -15 L100 30 L-50 30 L-50 -15 Z" />
      </clipPath>
    </defs>
    <g style="fill:white; text-rendering:geometricPrecision; stroke:white;">
      <rect x="0" y="0" width="1151" style="stroke:none;" height="866" />
      <rect x="28" y="0" transform="translate(-28,0)" width="1150" style="fill:none; stroke:black;" height="865" />
      <text x="35" y="17" transform="translate(-28,0)" style="fill:black; stroke:none;" xml:space="preserve">act trouverForgeLaPlusProchePossédantUnRatelierLibreEtCeRatelier</text>
      <line transform="translate(-28,0)" x1="28" x2="418" y1="24" style="fill:none; stroke:black;" y2="24" />
      <line transform="translate(-28,0)" x1="424" x2="424" y1="0" style="fill:none; stroke:black;" y2="14" />
      <line transform="translate(-28,0)" x1="424" x2="418" y1="14" style="fill:none; stroke:black;" y2="24" />
    </g>
    <g transform="translate(42,32)" style="font-size:11; fill:rgb(122,207,245); text-rendering:geometricPrecision; font-family:sans-serif; stroke:rgb(122,207,245); font-weight:bold;">
      <rect x="1" y="1" width="1058" style="clip-path:url(#clipPath1); stroke:none;" rx="15" ry="15" height="818" />
    </g>
    <g transform="translate(42,32)" style="font-size:11; stroke-linecap:butt; text-rendering:geometricPrecision; font-family:sans-serif; stroke-linejoin:round; font-weight:bold; stroke-miterlimit:0;">
      <rect x="1" y="1" width="1058" style="clip-path:url(#clipPath1); fill:none;" rx="15" ry="15" height="818" />
    </g>
    <g transform="translate(42,32)" style="text-rendering:geometricPrecision; font-size:11; font-weight:bold; font-family:sans-serif;">
      <text x="10" y="18" style="clip-path:url(#clipPath2); stroke:none;" xml:space="preserve">trouver la forge la plus proche possédant râtelier contenant un outil neuf et le râtelier associé</text>
    </g>
    <g transform="translate(12,203)" style="font-size:11; fill:rgb(122,207,245); text-rendering:geometricPrecision; font-family:sans-serif; stroke:rgb(122,207,245);">
      <rect x="0" y="0" width="70" style="clip-path:url(#clipPath5); stroke:none;" height="30" />
    </g>
    <g transform="translate(12,203)" style="font-size:11; stroke-linecap:butt; text-rendering:geometricPrecision; font-family:sans-serif; stroke-linejoin:round; stroke-miterlimit:0;">
      <rect x="0" y="0" width="70" style="clip-path:url(#clipPath5); fill:none;" height="30" />
    </g>
    <g transform="translate(1067,769)" style="font-size:11; fill:rgb(122,207,245); text-rendering:geometricPrecision; font-family:sans-serif; stroke:rgb(122,207,245);">
      <rect x="0" y="0" width="70" style="clip-path:url(#clipPath5); stroke:none;" height="30" />
    </g>
    <g transform="translate(1067,769)" style="font-size:11; stroke-linecap:butt; text-rendering:geometricPrecision; font-family:sans-serif; stroke-linejoin:round; stroke-miterlimit:0;">
      <rect x="0" y="0" width="70" style="clip-path:url(#clipPath5); fill:none;" height="30" />
    </g>
    <g transform="translate(12,107)" style="font-size:11; fill:rgb(122,207,245); text-rendering:geometricPrecision; font-family:sans-serif; stroke:rgb(122,207,245);">
      <rect x="0" y="0" width="70" style="clip-path:url(#clipPath5); stroke:none;" height="30" />
    </g>
    <g transform="translate(12,107)" style="font-size:11; stroke-linecap:butt; text-rendering:geometricPrecision; font-family:sans-serif; stroke-linejoin:round; stroke-miterlimit:0;">
      <rect x="0" y="0" width="70" style="clip-path:url(#clipPath5); fill:none;" height="30" />
    </g>
    <g transform="translate(132,82)" style="text-rendering:geometricPrecision; stroke-width:2; font-size:11; font-family:sans-serif;">
      <rect x="0" y="0" width="530" style="clip-path:url(#clipPath6); fill:none;" height="15" />
    </g>
    <g style="text-rendering:geometricPrecision; font-size:11; font-family:sans-serif;" transform="translate(132,82)">
      <text x="249" y="12" style="clip-path:url(#clipPath7); stroke:none;" xml:space="preserve">:World</text>
    </g>
    <g transform="translate(132,97)" style="text-rendering:geometricPrecision; stroke-width:2; font-size:11; font-family:sans-serif;">
      <rect x="0" y="0" width="530" style="clip-path:url(#clipPath8); fill:none;" height="665" />
    </g>
    <g transform="translate(362,212)" style="font-size:11; fill:rgb(122,207,245); text-rendering:geometricPrecision; font-family:sans-serif; stroke:rgb(122,207,245);">
      <rect x="1" y="1" width="88" style="clip-path:url(#clipPath9); stroke:none;" rx="15" ry="15" height="48" />
    </g>
    <g transform="translate(362,212)" style="font-size:11; stroke-linecap:butt; text-rendering:geometricPrecision; font-family:sans-serif; stroke-linejoin:round; stroke-miterlimit:0;">
      <rect x="1" y="1" width="88" style="clip-path:url(#clipPath9); fill:none;" rx="15" ry="15" height="48" />
    </g>
    <g style="text-rendering:geometricPrecision; font-size:11; font-family:sans-serif;" transform="translate(362,212)">
      <text x="7" y="22" style="clip-path:url(#clipPath10); stroke:none;" xml:space="preserve">mettre à jour la</text>
      <text x="7" y="37" style="clip-path:url(#clipPath10); stroke:none;" xml:space="preserve">liste des forges</text>
    </g>
    <g transform="translate(212,312)" style="font-size:11; fill:rgb(122,207,245); text-rendering:geometricPrecision; font-family:sans-serif; stroke:rgb(122,207,245);">
      <rect x="0" y="0" width="240" style="clip-path:url(#clipPath11); stroke:none;" rx="15" ry="15" height="170" />
    </g>
    <g transform="translate(212,312)" style="font-size:11; stroke-linecap:round; text-rendering:geometricPrecision; font-family:sans-serif; stroke-linejoin:round; stroke-dasharray:12,9; stroke-miterlimit:0;">
      <rect x="0" y="0" width="240" style="clip-path:url(#clipPath11); fill:none;" rx="15" ry="15" height="170" />
    </g>
    <g transform="translate(212,312)" style="font-style:italic; text-rendering:geometricPrecision; font-size:11; font-family:sans-serif;">
      <text x="100" y="16" style="clip-path:url(#clipPath12); stroke:none;" xml:space="preserve">iterative</text>
    </g>
    <g transform="translate(272,522)" style="font-size:11; fill:rgb(122,207,245); text-rendering:geometricPrecision; font-family:sans-serif; stroke:rgb(122,207,245);">
      <rect x="1" y="1" width="108" style="clip-path:url(#clipPath13); stroke:none;" rx="15" ry="15" height="38" />
    </g>
    <g transform="translate(272,522)" style="font-size:11; stroke-linecap:butt; text-rendering:geometricPrecision; font-family:sans-serif; stroke-linejoin:round; stroke-miterlimit:0;">
      <rect x="1" y="1" width="108" style="clip-path:url(#clipPath13); fill:none;" rx="15" ry="15" height="38" />
    </g>
    <g style="text-rendering:geometricPrecision; font-size:11; font-family:sans-serif;" transform="translate(272,522)">
      <text x="8" y="17" style="clip-path:url(#clipPath14); stroke:none;" xml:space="preserve">calcul du chemin le</text>
      <text x="31" y="32" style="clip-path:url(#clipPath14); stroke:none;" xml:space="preserve">plus court</text>
    </g>
    <g style="text-rendering:geometricPrecision; font-size:11; font-family:sans-serif;" transform="translate(482,512)">
      <rect x="0" y="0" width="12" style="clip-path:url(#clipPath15); stroke:none;" height="60" />
      <rect x="0" y="0" width="12" style="stroke-linecap:butt; clip-path:url(#clipPath15); fill:none; stroke-linejoin:round; stroke-miterlimit:0;" height="60" />
    </g>
    <g transform="translate(272,622)" style="font-size:11; fill:rgb(122,207,245); text-rendering:geometricPrecision; font-family:sans-serif; stroke:rgb(122,207,245);">
      <path d="M0 0 L119 0 L119 39 L0 39 L12 20 Z" style="clip-path:url(#clipPath16); stroke:none;" />
    </g>
    <g transform="translate(272,622)" style="font-size:11; stroke-linecap:butt; text-rendering:geometricPrecision; font-family:sans-serif; stroke-linejoin:round; stroke-miterlimit:0;">
      <path d="M0 0 L119 0 L119 39 L0 39 L12 20 Z" style="fill:none; clip-path:url(#clipPath16);" />
    </g>
    <g transform="translate(562,402)" style="font-size:11; fill:rgb(122,207,245); text-rendering:geometricPrecision; font-family:sans-serif; stroke:rgb(122,207,245);">
      <rect x="0" y="0" width="80" style="clip-path:url(#clipPath17); stroke:none;" height="40" />
    </g>
    <g transform="translate(562,402)" style="font-size:11; stroke-linecap:butt; text-rendering:geometricPrecision; font-family:sans-serif; stroke-linejoin:round; stroke-miterlimit:0;">
      <rect x="0" y="0" width="80" style="clip-path:url(#clipPath17); fill:none;" height="40" />
    </g>
    <g style="text-rendering:geometricPrecision; font-size:11; font-family:sans-serif;" transform="translate(562,402)">
      <text x="10" y="24" style="clip-path:url(#clipPath18); stroke:none;" xml:space="preserve">forge : Area</text>
    </g>
    <g transform="translate(662,82)" style="text-rendering:geometricPrecision; stroke-width:2; font-size:11; font-family:sans-serif;">
      <rect x="0" y="0" width="310" style="clip-path:url(#clipPath19); fill:none;" height="15" />
    </g>
    <g style="text-rendering:geometricPrecision; font-size:11; font-family:sans-serif;" transform="translate(662,82)">
      <text x="128" y="12" style="clip-path:url(#clipPath20); stroke:none;" xml:space="preserve">forge:Area</text>
    </g>
    <g transform="translate(662,97)" style="text-rendering:geometricPrecision; stroke-width:2; font-size:11; font-family:sans-serif;">
      <rect x="0" y="0" width="310" style="clip-path:url(#clipPath21); fill:none;" height="665" />
    </g>
    <g transform="translate(762,542)" style="font-size:11; fill:rgb(122,207,245); text-rendering:geometricPrecision; font-family:sans-serif; stroke:rgb(122,207,245);">
      <rect x="1" y="1" width="98" style="clip-path:url(#clipPath22); stroke:none;" rx="15" ry="15" height="38" />
    </g>
    <g transform="translate(762,542)" style="font-size:11; stroke-linecap:butt; text-rendering:geometricPrecision; font-family:sans-serif; stroke-linejoin:round; stroke-miterlimit:0;">
      <rect x="1" y="1" width="98" style="clip-path:url(#clipPath22); fill:none;" rx="15" ry="15" height="38" />
    </g>
    <g style="text-rendering:geometricPrecision; font-size:11; font-family:sans-serif;" transform="translate(762,542)">
      <text x="21" y="17" style="clip-path:url(#clipPath23); stroke:none;" xml:space="preserve">Vérifier si le</text>
      <text x="6" y="32" style="clip-path:url(#clipPath23); stroke:none;" xml:space="preserve">ratelier possède...</text>
    </g>
    <g transform="translate(802,602)" style="font-size:11; fill:rgb(122,207,245); text-rendering:geometricPrecision; font-family:sans-serif; stroke:rgb(122,207,245);">
      <polygon style="clip-path:url(#clipPath24); stroke:none;" points=" 10 7 17 20 10 32 3 20" />
    </g>
    <g transform="translate(802,602)" style="font-size:11; stroke-linecap:butt; text-rendering:geometricPrecision; font-family:sans-serif; stroke-linejoin:round; stroke-miterlimit:0;">
      <polygon style="fill:none; clip-path:url(#clipPath24);" points=" 10 7 17 20 10 32 3 20" />
    </g>
    <g transform="translate(772,692)" style="font-size:11; fill:rgb(122,207,245); text-rendering:geometricPrecision; font-family:sans-serif; stroke:rgb(122,207,245);">
      <path d="M0 0 L97 0 L109 20 L97 39 L0 39 Z" style="clip-path:url(#clipPath13); stroke:none;" />
    </g>
    <g transform="translate(772,692)" style="font-size:11; stroke-linecap:butt; text-rendering:geometricPrecision; font-family:sans-serif; stroke-linejoin:round; stroke-miterlimit:0;">
      <path d="M0 0 L97 0 L109 20 L97 39 L0 39 Z" style="fill:none; clip-path:url(#clipPath13);" />
    </g>
    <g transform="translate(232,303)" style="font-size:11; fill:rgb(122,207,245); text-rendering:geometricPrecision; font-family:sans-serif; stroke:rgb(122,207,245);">
      <rect x="0" y="0" width="39" style="clip-path:url(#clipPath25); stroke:none;" height="13" />
    </g>
    <g transform="translate(232,303)" style="font-size:11; stroke-linecap:butt; text-rendering:geometricPrecision; font-family:sans-serif; stroke-linejoin:round; stroke-miterlimit:0;">
      <line x1="10" x2="10" y1="0" style="clip-path:url(#clipPath25); fill:none;" y2="13" />
      <line x1="20" x2="20" y1="0" style="clip-path:url(#clipPath25); fill:none;" y2="13" />
      <line x1="30" x2="30" y1="0" style="clip-path:url(#clipPath25); fill:none;" y2="13" />
      <rect x="0" y="0" width="39" style="clip-path:url(#clipPath25); fill:none;" height="13" />
    </g>
    <g transform="translate(380,303)" style="font-size:11; fill:rgb(122,207,245); text-rendering:geometricPrecision; font-family:sans-serif; stroke:rgb(122,207,245);">
      <rect x="0" y="0" width="39" style="clip-path:url(#clipPath25); stroke:none;" height="13" />
    </g>
    <g transform="translate(380,303)" style="font-size:11; stroke-linecap:butt; text-rendering:geometricPrecision; font-family:sans-serif; stroke-linejoin:round; stroke-miterlimit:0;">
      <line x1="10" x2="10" y1="0" style="clip-path:url(#clipPath25); fill:none;" y2="13" />
      <line x1="20" x2="20" y1="0" style="clip-path:url(#clipPath25); fill:none;" y2="13" />
      <line x1="30" x2="30" y1="0" style="clip-path:url(#clipPath25); fill:none;" y2="13" />
      <rect x="0" y="0" width="39" style="clip-path:url(#clipPath25); fill:none;" height="13" />
    </g>
    <g transform="translate(282,382)" style="font-size:11; fill:rgb(122,207,245); text-rendering:geometricPrecision; font-family:sans-serif; stroke:rgb(122,207,245);">
      <rect x="1" y="1" width="98" style="clip-path:url(#clipPath22); stroke:none;" rx="15" ry="15" height="38" />
    </g>
    <g transform="translate(282,382)" style="font-size:11; stroke-linecap:butt; text-rendering:geometricPrecision; font-family:sans-serif; stroke-linejoin:round; stroke-miterlimit:0;">
      <rect x="1" y="1" width="98" style="clip-path:url(#clipPath22); fill:none;" rx="15" ry="15" height="38" />
    </g>
    <g style="text-rendering:geometricPrecision; font-size:11; font-family:sans-serif;" transform="translate(282,382)">
      <text x="9" y="24" style="clip-path:url(#clipPath23); stroke:none;" xml:space="preserve">calcul du chemin</text>
    </g>
    <g transform="translate(397,253)" style="font-size:11; fill:rgb(122,207,245); text-rendering:geometricPrecision; font-family:sans-serif; stroke:rgb(122,207,245);">
      <rect x="0" y="0" width="12" style="clip-path:url(#clipPath26); stroke:none;" height="12" />
    </g>
    <g transform="translate(397,253)" style="font-size:11; stroke-linecap:butt; text-rendering:geometricPrecision; font-family:sans-serif; stroke-linejoin:round; stroke-miterlimit:0;">
      <rect x="0" y="0" width="12" style="clip-path:url(#clipPath26); fill:none;" height="12" />
    </g>
    <g transform="translate(272,473)" style="font-size:11; fill:rgb(122,207,245); text-rendering:geometricPrecision; font-family:sans-serif; stroke:rgb(122,207,245);">
      <rect x="0" y="0" width="39" style="clip-path:url(#clipPath25); stroke:none;" height="13" />
    </g>
    <g transform="translate(272,473)" style="font-size:11; stroke-linecap:butt; text-rendering:geometricPrecision; font-family:sans-serif; stroke-linejoin:round; stroke-miterlimit:0;">
      <line x1="10" x2="10" y1="0" style="clip-path:url(#clipPath25); fill:none;" y2="13" />
      <line x1="20" x2="20" y1="0" style="clip-path:url(#clipPath25); fill:none;" y2="13" />
      <line x1="30" x2="30" y1="0" style="clip-path:url(#clipPath25); fill:none;" y2="13" />
      <rect x="0" y="0" width="39" style="clip-path:url(#clipPath25); fill:none;" height="13" />
    </g>
    <g transform="translate(285,510)" style="font-size:11; fill:rgb(122,207,245); text-rendering:geometricPrecision; font-family:sans-serif; stroke:rgb(122,207,245);">
      <rect x="0" y="0" width="12" style="clip-path:url(#clipPath26); stroke:none;" height="12" />
    </g>
    <g transform="translate(285,510)" style="font-size:11; stroke-linecap:butt; text-rendering:geometricPrecision; font-family:sans-serif; stroke-linejoin:round; stroke-miterlimit:0;">
      <rect x="0" y="0" width="12" style="clip-path:url(#clipPath26); fill:none;" height="12" />
    </g>
    <g transform="translate(355,510)" style="font-size:11; fill:rgb(122,207,245); text-rendering:geometricPrecision; font-family:sans-serif; stroke:rgb(122,207,245);">
      <rect x="0" y="0" width="12" style="clip-path:url(#clipPath26); stroke:none;" height="12" />
    </g>
    <g transform="translate(355,510)" style="font-size:11; stroke-linecap:butt; text-rendering:geometricPrecision; font-family:sans-serif; stroke-linejoin:round; stroke-miterlimit:0;">
      <rect x="0" y="0" width="12" style="clip-path:url(#clipPath26); fill:none;" height="12" />
    </g>
    <g transform="translate(327,560)" style="font-size:11; fill:rgb(122,207,245); text-rendering:geometricPrecision; font-family:sans-serif; stroke:rgb(122,207,245);">
      <rect x="0" y="0" width="11" style="clip-path:url(#clipPath27); stroke:none;" height="12" />
    </g>
    <g transform="translate(327,560)" style="font-size:11; stroke-linecap:butt; text-rendering:geometricPrecision; font-family:sans-serif; stroke-linejoin:round; stroke-miterlimit:0;">
      <rect x="0" y="0" width="11" style="clip-path:url(#clipPath27); fill:none;" height="12" />
    </g>
    <g transform="translate(805,580)" style="font-size:11; fill:rgb(122,207,245); text-rendering:geometricPrecision; font-family:sans-serif; stroke:rgb(122,207,245);">
      <rect x="0" y="0" width="12" style="clip-path:url(#clipPath26); stroke:none;" height="12" />
    </g>
    <g transform="translate(805,580)" style="font-size:11; stroke-linecap:butt; text-rendering:geometricPrecision; font-family:sans-serif; stroke-linejoin:round; stroke-miterlimit:0;">
      <rect x="0" y="0" width="12" style="clip-path:url(#clipPath26); fill:none;" height="12" />
    </g>
    <g transform="translate(450,235)" style="font-size:11; fill:rgb(122,207,245); text-rendering:geometricPrecision; font-family:sans-serif; stroke:rgb(122,207,245);">
      <rect x="0" y="0" width="12" style="clip-path:url(#clipPath26); stroke:none;" height="12" />
    </g>
    <g transform="translate(450,235)" style="font-size:11; stroke-linecap:butt; text-rendering:geometricPrecision; font-family:sans-serif; stroke-linejoin:round; stroke-miterlimit:0;">
      <rect x="0" y="0" width="12" style="clip-path:url(#clipPath26); fill:none;" height="12" />
    </g>
    <g transform="translate(397,200)" style="font-size:11; fill:rgb(122,207,245); text-rendering:geometricPrecision; font-family:sans-serif; stroke:rgb(122,207,245);">
      <rect x="0" y="0" width="12" style="clip-path:url(#clipPath26); stroke:none;" height="12" />
    </g>
    <g transform="translate(397,200)" style="font-size:11; stroke-linecap:butt; text-rendering:geometricPrecision; font-family:sans-serif; stroke-linejoin:round; stroke-miterlimit:0;">
      <rect x="0" y="0" width="12" style="clip-path:url(#clipPath26); fill:none;" height="12" />
    </g>
    <g transform="translate(328,660)" style="font-size:11; fill:rgb(122,207,245); text-rendering:geometricPrecision; font-family:sans-serif; stroke:rgb(122,207,245);">
      <rect x="0" y="0" width="11" style="clip-path:url(#clipPath28); stroke:none;" height="11" />
    </g>
    <g transform="translate(328,660)" style="font-size:11; stroke-linecap:butt; text-rendering:geometricPrecision; font-family:sans-serif; stroke-linejoin:round; stroke-miterlimit:0;">
      <rect x="0" y="0" width="11" style="clip-path:url(#clipPath28); fill:none;" height="11" />
    </g>
    <g transform="translate(328,610)" style="font-size:11; fill:rgb(122,207,245); text-rendering:geometricPrecision; font-family:sans-serif; stroke:rgb(122,207,245);">
      <rect x="0" y="0" width="11" style="clip-path:url(#clipPath28); stroke:none;" height="11" />
    </g>
    <g transform="translate(328,610)" style="font-size:11; stroke-linecap:butt; text-rendering:geometricPrecision; font-family:sans-serif; stroke-linejoin:round; stroke-miterlimit:0;">
      <rect x="0" y="0" width="11" style="clip-path:url(#clipPath28); fill:none;" height="11" />
    </g>
    <g transform="translate(298,370)" style="font-size:11; fill:rgb(122,207,245); text-rendering:geometricPrecision; font-family:sans-serif; stroke:rgb(122,207,245);">
      <rect x="0" y="0" width="12" style="clip-path:url(#clipPath26); stroke:none;" height="12" />
    </g>
    <g transform="translate(298,370)" style="font-size:11; stroke-linecap:butt; text-rendering:geometricPrecision; font-family:sans-serif; stroke-linejoin:round; stroke-miterlimit:0;">
      <rect x="0" y="0" width="12" style="clip-path:url(#clipPath26); fill:none;" height="12" />
    </g>
    <g transform="translate(355,370)" style="font-size:11; fill:rgb(122,207,245); text-rendering:geometricPrecision; font-family:sans-serif; stroke:rgb(122,207,245);">
      <rect x="0" y="0" width="12" style="clip-path:url(#clipPath26); stroke:none;" height="12" />
    </g>
    <g transform="translate(355,370)" style="font-size:11; stroke-linecap:butt; text-rendering:geometricPrecision; font-family:sans-serif; stroke-linejoin:round; stroke-miterlimit:0;">
      <rect x="0" y="0" width="12" style="clip-path:url(#clipPath26); fill:none;" height="12" />
    </g>
    <g transform="translate(325,420)" style="font-size:11; fill:rgb(122,207,245); text-rendering:geometricPrecision; font-family:sans-serif; stroke:rgb(122,207,245);">
      <rect x="0" y="0" width="12" style="clip-path:url(#clipPath26); stroke:none;" height="12" />
    </g>
    <g transform="translate(325,420)" style="font-size:11; stroke-linecap:butt; text-rendering:geometricPrecision; font-family:sans-serif; stroke-linejoin:round; stroke-miterlimit:0;">
      <rect x="0" y="0" width="12" style="clip-path:url(#clipPath26); fill:none;" height="12" />
    </g>
    <g style="text-rendering:geometricPrecision; font-size:11; font-family:sans-serif;" transform="translate(272,622)">
      <text x="35" y="24" style="clip-path:url(#clipPath31); stroke:none;" xml:space="preserve">râtelier libre</text>
    </g>
    <g style="text-rendering:geometricPrecision; font-size:11; font-family:sans-serif;" transform="translate(772,692)">
      <text x="20" y="24" style="clip-path:url(#clipPath32); stroke:none;" xml:space="preserve">râtelier libre</text>
    </g>
    <g style="text-rendering:geometricPrecision; font-size:11; font-family:sans-serif;" transform="translate(412,190)">
      <text x="8" y="11" style="clip-path:url(#clipPath33); stroke:none;" xml:space="preserve">forges : Area[]</text>
    </g>
    <g style="text-rendering:geometricPrecision; font-size:11; font-family:sans-serif;" transform="translate(12,107)">
      <text x="16" y="12" style="clip-path:url(#clipPath34); stroke:none;" xml:space="preserve">forges :</text>
      <text x="19" y="27" style="clip-path:url(#clipPath34); stroke:none;" xml:space="preserve">Area[]</text>
    </g>
    <g style="text-rendering:geometricPrecision; font-size:11; font-family:sans-serif;" transform="translate(472,242)">
      <text x="9" y="11" style="clip-path:url(#clipPath35); stroke:none;" xml:space="preserve">forge : Area</text>
    </g>
    <g style="text-rendering:geometricPrecision; font-size:11; font-family:sans-serif;" transform="translate(700,582)">
      <text x="10" y="11" style="clip-path:url(#clipPath36); stroke:none;" xml:space="preserve">reponse : boolean</text>
    </g>
    <g style="text-rendering:geometricPrecision; font-size:11; font-family:sans-serif;" transform="translate(242,562)">
      <text x="10" y="11" style="clip-path:url(#clipPath37); stroke:none;" xml:space="preserve">path : Node[]</text>
    </g>
    <g style="text-rendering:geometricPrecision; font-size:11; font-family:sans-serif;" transform="translate(1067,769)">
      <text x="20" y="12" style="clip-path:url(#clipPath34); stroke:none;" xml:space="preserve">path :</text>
      <text x="18" y="27" style="clip-path:url(#clipPath34); stroke:none;" xml:space="preserve">Node[]</text>
    </g>
    <g style="text-rendering:geometricPrecision; font-size:11; font-family:sans-serif;" transform="translate(360,500)">
      <text x="8" y="11" style="clip-path:url(#clipPath33); stroke:none;" xml:space="preserve">forges : Area[]</text>
    </g>
    <g style="text-rendering:geometricPrecision; font-size:11; font-family:sans-serif;" transform="translate(189,490)">
      <text x="11" y="11" style="clip-path:url(#clipPath38); stroke:none;" xml:space="preserve">listPath : Node[][]</text>
    </g>
    <g style="text-rendering:geometricPrecision; font-size:11; font-family:sans-serif;" transform="translate(328,422)">
      <text x="10" y="11" style="clip-path:url(#clipPath37); stroke:none;" xml:space="preserve">path : Node[]</text>
    </g>
    <g style="text-rendering:geometricPrecision; font-size:11; font-family:sans-serif;" transform="translate(402,262)">
      <text x="8" y="11" style="clip-path:url(#clipPath33); stroke:none;" xml:space="preserve">forges : Area[]</text>
    </g>
    <g style="text-rendering:geometricPrecision; font-size:11; font-family:sans-serif;" transform="translate(358,360)">
      <text x="8" y="11" style="clip-path:url(#clipPath39); stroke:none;" xml:space="preserve">forge : Area</text>
    </g>
    <g style="text-rendering:geometricPrecision; font-size:11; font-family:sans-serif;" transform="translate(233,360)">
      <text x="9" y="11" style="clip-path:url(#clipPath40); stroke:none;" xml:space="preserve">pos : int[2]</text>
    </g>
    <g style="text-rendering:geometricPrecision; font-size:11; font-family:sans-serif;" transform="translate(12,203)">
      <text x="17" y="19" style="clip-path:url(#clipPath34); stroke:none;" xml:space="preserve">: Dwarf</text>
    </g>
    <g transform="translate(19,149)" style="font-size:11; stroke-linecap:butt; text-rendering:geometricPrecision; font-family:sans-serif; stroke-linejoin:round;">
      <line x1="63" x2="233" y1="63" style="clip-path:url(#clipPath41); fill:none;" y2="63" />
      <line x1="233" x2="233" y1="63" style="clip-path:url(#clipPath41); fill:none;" y2="153" />
      <line x1="233" x2="239" y1="153" style="clip-path:url(#clipPath41); fill:none;" y2="141" />
      <line x1="233" x2="227" y1="153" style="clip-path:url(#clipPath41); fill:none;" y2="141" />
    </g>
    <g transform="translate(299,254)" style="font-size:11; stroke-linecap:butt; text-rendering:geometricPrecision; font-family:sans-serif; stroke-linejoin:round;">
      <line x1="103" x2="103" y1="63" style="clip-path:url(#clipPath42); fill:none;" y2="88" />
      <line x1="103" x2="63" y1="88" style="clip-path:url(#clipPath42); fill:none;" y2="88" />
      <line x1="63" x2="63" y1="88" style="clip-path:url(#clipPath42); fill:none;" y2="115" />
      <line x1="63" x2="69" y1="115" style="clip-path:url(#clipPath42); fill:none;" y2="103" />
      <line x1="63" x2="57" y1="115" style="clip-path:url(#clipPath42); fill:none;" y2="103" />
    </g>
    <g transform="translate(189,254)" style="font-size:11; stroke-linecap:butt; text-rendering:geometricPrecision; font-family:sans-serif; stroke-linejoin:round;">
      <line x1="63" x2="63" y1="63" style="clip-path:url(#clipPath43); fill:none;" y2="88" />
      <line x1="63" x2="113" y1="88" style="clip-path:url(#clipPath43); fill:none;" y2="88" />
      <line x1="113" x2="113" y1="88" style="clip-path:url(#clipPath43); fill:none;" y2="115" />
      <line x1="113" x2="119" y1="115" style="clip-path:url(#clipPath43); fill:none;" y2="103" />
      <line x1="113" x2="107" y1="115" style="clip-path:url(#clipPath43); fill:none;" y2="103" />
    </g>
    <g transform="translate(339,203)" style="font-size:11; stroke-linecap:butt; text-rendering:geometricPrecision; font-family:sans-serif; stroke-linejoin:round;">
      <line x1="63" x2="63" y1="62" style="clip-path:url(#clipPath44); fill:none;" y2="99" />
      <line x1="63" x2="69" y1="99" style="clip-path:url(#clipPath44); fill:none;" y2="87" />
      <line x1="63" x2="57" y1="99" style="clip-path:url(#clipPath44); fill:none;" y2="87" />
    </g>
    <g transform="translate(229,369)" style="font-size:11; stroke-linecap:butt; text-rendering:geometricPrecision; font-family:sans-serif; stroke-linejoin:round;">
      <line x1="103" x2="103" y1="63" style="clip-path:url(#clipPath45); fill:none;" y2="73" />
      <line x1="103" x2="63" y1="73" style="clip-path:url(#clipPath45); fill:none;" y2="73" />
      <line x1="63" x2="63" y1="73" style="clip-path:url(#clipPath45); fill:none;" y2="103" />
      <line x1="63" x2="69" y1="103" style="clip-path:url(#clipPath45); fill:none;" y2="91" />
      <line x1="63" x2="57" y1="103" style="clip-path:url(#clipPath45); fill:none;" y2="91" />
    </g>
    <g transform="translate(229,424)" style="font-size:11; stroke-linecap:butt; text-rendering:geometricPrecision; font-family:sans-serif; stroke-linejoin:round;">
      <line x1="63" x2="63" y1="63" style="clip-path:url(#clipPath46); fill:none;" y2="85" />
      <line x1="63" x2="69" y1="85" style="clip-path:url(#clipPath46); fill:none;" y2="73" />
      <line x1="63" x2="57" y1="85" style="clip-path:url(#clipPath46); fill:none;" y2="73" />
    </g>
    <g transform="translate(299,203)" style="font-size:11; stroke-linecap:butt; text-rendering:geometricPrecision; font-family:sans-serif; stroke-linejoin:round;">
      <line x1="103" x2="103" y1="62" style="clip-path:url(#clipPath48); fill:none;" y2="79" />
      <line x1="103" x2="203" y1="79" style="clip-path:url(#clipPath48); fill:none;" y2="79" />
      <line x1="203" x2="203" y1="79" style="clip-path:url(#clipPath48); fill:none;" y2="289" />
      <line x1="203" x2="63" y1="289" style="clip-path:url(#clipPath48); fill:none;" y2="289" />
      <line x1="63" x2="63" y1="289" style="clip-path:url(#clipPath48); fill:none;" y2="306" />
      <line x1="63" x2="69" y1="306" style="clip-path:url(#clipPath48); fill:none;" y2="294" />
      <line x1="63" x2="57" y1="306" style="clip-path:url(#clipPath48); fill:none;" y2="294" />
    </g>
    <g transform="translate(318,479)" style="font-size:11; stroke-linecap:butt; text-rendering:geometricPrecision; font-family:sans-serif; stroke-linejoin:round;">
      <line x1="62" x2="162" y1="63" style="clip-path:url(#clipPath49); fill:none;" y2="63" />
      <line x1="162" x2="150" y1="63" style="clip-path:url(#clipPath49); fill:none;" y2="57" />
      <line x1="162" x2="150" y1="63" style="clip-path:url(#clipPath49); fill:none;" y2="69" />
    </g>
    <g transform="translate(432,499)" style="font-size:11; stroke-linecap:butt; text-rendering:geometricPrecision; font-family:sans-serif; stroke-linejoin:round;">
      <line x1="62" x2="331" y1="63" style="clip-path:url(#clipPath50); fill:none;" y2="63" />
      <line x1="331" x2="319" y1="63" style="clip-path:url(#clipPath50); fill:none;" y2="57" />
      <line x1="331" x2="319" y1="63" style="clip-path:url(#clipPath50); fill:none;" y2="69" />
    </g>
    <g transform="translate(19,69)" style="font-size:11; stroke-linecap:butt; text-rendering:geometricPrecision; font-family:sans-serif; stroke-linejoin:round;">
      <line x1="63" x2="383" y1="63" style="clip-path:url(#clipPath51); fill:none;" y2="63" />
      <line x1="383" x2="383" y1="63" style="clip-path:url(#clipPath51); fill:none;" y2="130" />
      <line x1="383" x2="389" y1="130" style="clip-path:url(#clipPath51); fill:none;" y2="118" />
      <line x1="383" x2="377" y1="130" style="clip-path:url(#clipPath51); fill:none;" y2="118" />
    </g>
    <g transform="translate(269,512)" style="font-size:11; stroke-linecap:butt; text-rendering:geometricPrecision; font-family:sans-serif; stroke-linejoin:round;">
      <line x1="63" x2="63" y1="62" style="clip-path:url(#clipPath52); fill:none;" y2="97" />
      <line x1="63" x2="69" y1="97" style="clip-path:url(#clipPath52); fill:none;" y2="85" />
      <line x1="63" x2="57" y1="97" style="clip-path:url(#clipPath52); fill:none;" y2="85" />
    </g>
    <g transform="translate(269,612)" style="font-size:11; stroke-linecap:butt; text-rendering:geometricPrecision; font-family:sans-serif; stroke-linejoin:round;">
      <line x1="63" x2="63" y1="62" style="clip-path:url(#clipPath53); fill:none;" y2="170" />
      <line x1="63" x2="796" y1="170" style="clip-path:url(#clipPath53); fill:none;" y2="170" />
      <line x1="796" x2="784" y1="170" style="clip-path:url(#clipPath53); fill:none;" y2="164" />
      <line x1="796" x2="784" y1="170" style="clip-path:url(#clipPath53); fill:none;" y2="176" />
    </g>
    <g transform="translate(749,529)" style="font-size:11; stroke-linecap:butt; text-rendering:geometricPrecision; font-family:sans-serif; stroke-linejoin:round;">
      <line x1="63" x2="63" y1="63" style="clip-path:url(#clipPath54); fill:none;" y2="83" />
      <line x1="63" x2="69" y1="83" style="clip-path:url(#clipPath54); fill:none;" y2="71" />
      <line x1="63" x2="57" y1="83" style="clip-path:url(#clipPath54); fill:none;" y2="71" />
    </g>
    <g transform="translate(387,159)" style="font-size:11; stroke-linecap:butt; text-rendering:geometricPrecision; font-family:sans-serif; stroke-linejoin:round;">
      <line x1="431" x2="525" y1="463" style="clip-path:url(#clipPath55); fill:none;" y2="463" />
      <line x1="525" x2="525" y1="463" style="clip-path:url(#clipPath55); fill:none;" y2="63" />
      <line x1="525" x2="62" y1="63" style="clip-path:url(#clipPath55); fill:none;" y2="63" />
      <line x1="62" x2="74" y1="63" style="clip-path:url(#clipPath55); fill:none;" y2="69" />
      <line x1="62" x2="74" y1="63" style="clip-path:url(#clipPath55); fill:none;" y2="57" />
    </g>
    <g transform="translate(749,568)" style="font-size:11; stroke-linecap:butt; text-rendering:geometricPrecision; font-family:sans-serif; stroke-linejoin:round;">
      <line x1="63" x2="63" y1="62" style="clip-path:url(#clipPath56); fill:none;" y2="122" />
      <line x1="63" x2="69" y1="122" style="clip-path:url(#clipPath56); fill:none;" y2="110" />
      <line x1="63" x2="57" y1="122" style="clip-path:url(#clipPath56); fill:none;" y2="110" />
    </g>
    <g transform="translate(432,379)" style="font-size:11; stroke-linecap:butt; text-rendering:geometricPrecision; font-family:sans-serif; stroke-linejoin:round;">
      <line x1="62" x2="170" y1="143" style="clip-path:url(#clipPath57); fill:none;" y2="143" />
      <line x1="170" x2="170" y1="143" style="clip-path:url(#clipPath57); fill:none;" y2="63" />
      <line x1="170" x2="164" y1="63" style="clip-path:url(#clipPath57); fill:none;" y2="75" />
      <line x1="170" x2="176" y1="63" style="clip-path:url(#clipPath57); fill:none;" y2="75" />
    </g>
    <g transform="translate(399,179)" style="font-size:11; stroke-linecap:butt; text-rendering:geometricPrecision; font-family:sans-serif; stroke-linejoin:round;">
      <line x1="203" x2="203" y1="221" style="clip-path:url(#clipPath58); fill:none;" y2="63" />
      <line x1="203" x2="63" y1="63" style="clip-path:url(#clipPath58); fill:none;" y2="63" />
      <line x1="63" x2="75" y1="63" style="clip-path:url(#clipPath58); fill:none;" y2="69" />
      <line x1="63" x2="75" y1="63" style="clip-path:url(#clipPath58); fill:none;" y2="57" />
    </g>
    <g style="text-rendering:geometricPrecision; font-size:11; font-family:sans-serif;" transform="translate(812,640)">
      <text x="10" y="12" style="clip-path:url(#clipPath59); stroke:none;" xml:space="preserve">[true]</text>
    </g>
    <g style="text-rendering:geometricPrecision; font-size:11; font-family:sans-serif;" transform="translate(830,602)">
      <text x="9" y="12" style="clip-path:url(#clipPath60); stroke:none;" xml:space="preserve">[false]</text>
    </g>
  </g>
</svg>
