<?xml version="1.0" encoding="UTF-8"?>

<!DOCTYPE svg PUBLIC '-//W3C//DTD SVG 1.0//EN' 'http://www.w3.org/TR/2001/REC-SVG-20010904/DTD/svg10.dtd'>
<svg style="fill-opacity:1; color-rendering:auto; color-interpolation:auto; stroke:black; text-rendering:auto; stroke-linecap:square; stroke-miterlimit:10; stroke-opacity:1; shape-rendering:auto; fill:black; stroke-dasharray:none; font-weight:normal; stroke-width:1; font-family:&apos;Dialog&apos;; font-style:normal; stroke-linejoin:miter; font-size:12; stroke-dashoffset:0; image-rendering:auto;" xmlns="http://www.w3.org/2000/svg" width="1151" xmlns:xlink="http://www.w3.org/1999/xlink" height="868">
  <!--Generated by the Batik Graphics2D SVG Generator-->
  <defs id="genericDefs" />
  <g>
    <defs id="defs1">
      <clipPath clipPathUnits="userSpaceOnUse" id="clipPath1">
        <path d="M-3 -3 L1067 -3 L1067 827 L-3 827 L-3 -3 Z" />
      </clipPath>
      <clipPath clipPathUnits="userSpaceOnUse" id="clipPath2">
        <path d="M0 0 L0 21 L504 21 L504 0 Z" />
      </clipPath>
      <clipPath clipPathUnits="userSpaceOnUse" id="clipPath3">
        <path d="M-3 -3 L937 -3 L937 677 L-3 677 L-3 -3 Z" />
      </clipPath>
      <clipPath clipPathUnits="userSpaceOnUse" id="clipPath4">
        <path d="M0 0 L0 662 L7 662 L7 0 Z" />
      </clipPath>
      <clipPath clipPathUnits="userSpaceOnUse" id="clipPath5">
        <path d="M-3 -3 L77 -3 L77 37 L-3 37 L-3 -3 Z" />
      </clipPath>
      <clipPath clipPathUnits="userSpaceOnUse" id="clipPath6">
        <path d="M-3 -3 L127 -3 L127 47 L-3 47 L-3 -3 Z" />
      </clipPath>
      <clipPath clipPathUnits="userSpaceOnUse" id="clipPath7">
        <path d="M-3 -3 L117 -3 L117 47 L-3 47 L-3 -3 Z" />
      </clipPath>
      <clipPath clipPathUnits="userSpaceOnUse" id="clipPath8">
        <path d="M-3 -3 L497 -3 L497 22 L-3 22 L-3 -3 Z" />
      </clipPath>
      <clipPath clipPathUnits="userSpaceOnUse" id="clipPath9">
        <path d="M0 0 L490 0 L490 15 L0 15 L0 0 Z" />
      </clipPath>
      <clipPath clipPathUnits="userSpaceOnUse" id="clipPath10">
        <path d="M-3 -3 L497 -3 L497 661 L-3 661 L-3 -3 Z" />
      </clipPath>
      <clipPath clipPathUnits="userSpaceOnUse" id="clipPath11">
        <path d="M-3 -3 L97 -3 L97 57 L-3 57 L-3 -3 Z" />
      </clipPath>
      <clipPath clipPathUnits="userSpaceOnUse" id="clipPath12">
        <path d="M0 0 L90 0 L90 50 L0 50 L0 0 Z" />
      </clipPath>
      <clipPath clipPathUnits="userSpaceOnUse" id="clipPath13">
        <path d="M-3 -3 L247 -3 L247 177 L-3 177 L-3 -3 Z" />
      </clipPath>
      <clipPath clipPathUnits="userSpaceOnUse" id="clipPath14">
        <path d="M0 0 L240 0 L240 19 L0 19 L0 0 Z" />
      </clipPath>
      <clipPath clipPathUnits="userSpaceOnUse" id="clipPath15">
        <path d="M0 0 L110 0 L110 40 L0 40 L0 0 Z" />
      </clipPath>
      <clipPath clipPathUnits="userSpaceOnUse" id="clipPath16">
        <path d="M-3 -3 L447 -3 L447 22 L-3 22 L-3 -3 Z" />
      </clipPath>
      <clipPath clipPathUnits="userSpaceOnUse" id="clipPath17">
        <path d="M0 0 L440 0 L440 15 L0 15 L0 0 Z" />
      </clipPath>
      <clipPath clipPathUnits="userSpaceOnUse" id="clipPath18">
        <path d="M-3 -3 L447 -3 L447 661 L-3 661 L-3 -3 Z" />
      </clipPath>
      <clipPath clipPathUnits="userSpaceOnUse" id="clipPath19">
        <path d="M-3 -3 L107 -3 L107 67 L-3 67 L-3 -3 Z" />
      </clipPath>
      <clipPath clipPathUnits="userSpaceOnUse" id="clipPath20">
        <path d="M0 0 L100 0 L100 60 L0 60 L0 0 Z" />
      </clipPath>
      <clipPath clipPathUnits="userSpaceOnUse" id="clipPath21">
        <path d="M-3 -3 L27 -3 L27 47 L-3 47 L-3 -3 Z" />
      </clipPath>
      <clipPath clipPathUnits="userSpaceOnUse" id="clipPath22">
        <path d="M-3 -3 L87 -3 L87 47 L-3 47 L-3 -3 Z" />
      </clipPath>
      <clipPath clipPathUnits="userSpaceOnUse" id="clipPath23">
        <path d="M0 0 L80 0 L80 40 L0 40 L0 0 Z" />
      </clipPath>
      <clipPath clipPathUnits="userSpaceOnUse" id="clipPath24">
        <path d="M-3 -3 L18 -3 L18 67 L-3 67 L-3 -3 Z" />
      </clipPath>
      <clipPath clipPathUnits="userSpaceOnUse" id="clipPath25">
        <path d="M-3 -3 L47 -3 L47 21 L-3 21 L-3 -3 Z" />
      </clipPath>
      <clipPath clipPathUnits="userSpaceOnUse" id="clipPath26">
        <path d="M-3 -3 L107 -3 L107 47 L-3 47 L-3 -3 Z" />
      </clipPath>
      <clipPath clipPathUnits="userSpaceOnUse" id="clipPath27">
        <path d="M0 0 L100 0 L100 40 L0 40 L0 0 Z" />
      </clipPath>
      <clipPath clipPathUnits="userSpaceOnUse" id="clipPath28">
        <path d="M-3 -3 L18 -3 L18 19 L-3 19 L-3 -3 Z" />
      </clipPath>
      <clipPath clipPathUnits="userSpaceOnUse" id="clipPath29">
        <path d="M-3 -3 L18 -3 L18 18 L-3 18 L-3 -3 Z" />
      </clipPath>
      <clipPath clipPathUnits="userSpaceOnUse" id="clipPath30">
        <path d="M-3 -3 L20 -3 L20 18 L-3 18 L-3 -3 Z" />
      </clipPath>
      <clipPath clipPathUnits="userSpaceOnUse" id="clipPath31">
        <path d="M-3 -3 L19 -3 L19 18 L-3 18 L-3 -3 Z" />
      </clipPath>
      <clipPath clipPathUnits="userSpaceOnUse" id="clipPath32">
        <path d="M-440 -654 L880 -654 L880 1308 L-440 1308 L-440 -654 Z" />
      </clipPath>
      <clipPath clipPathUnits="userSpaceOnUse" id="clipPath33">
        <path d="M-490 -654 L980 -654 L980 1308 L-490 1308 L-490 -654 Z" />
      </clipPath>
      <clipPath clipPathUnits="userSpaceOnUse" id="clipPath34">
        <path d="M-81 -14 L162 -14 L162 28 L-81 28 L-81 -14 Z" />
      </clipPath>
      <clipPath clipPathUnits="userSpaceOnUse" id="clipPath35">
        <path d="M-74 -14 L148 -14 L148 28 L-74 28 L-74 -14 Z" />
      </clipPath>
      <clipPath clipPathUnits="userSpaceOnUse" id="clipPath36">
        <path d="M-70 -14 L140 -14 L140 28 L-70 28 L-70 -14 Z" />
      </clipPath>
      <clipPath clipPathUnits="userSpaceOnUse" id="clipPath37">
        <path d="M-86 -14 L172 -14 L172 28 L-86 28 L-86 -14 Z" />
      </clipPath>
      <clipPath clipPathUnits="userSpaceOnUse" id="clipPath38">
        <path d="M-76 -14 L152 -14 L152 28 L-76 28 L-76 -14 Z" />
      </clipPath>
      <clipPath clipPathUnits="userSpaceOnUse" id="clipPath39">
        <path d="M-108 -14 L216 -14 L216 28 L-108 28 L-108 -14 Z" />
      </clipPath>
      <clipPath clipPathUnits="userSpaceOnUse" id="clipPath40">
        <path d="M-103 -14 L206 -14 L206 28 L-103 28 L-103 -14 Z" />
      </clipPath>
      <clipPath clipPathUnits="userSpaceOnUse" id="clipPath41">
        <path d="M-70 -30 L140 -30 L140 60 L-70 60 L-70 -30 Z" />
      </clipPath>
      <clipPath clipPathUnits="userSpaceOnUse" id="clipPath42">
        <path d="M-110 -40 L220 -40 L220 80 L-110 80 L-110 -40 Z" />
      </clipPath>
      <clipPath clipPathUnits="userSpaceOnUse" id="clipPath43">
        <path d="M-120 -40 L240 -40 L240 80 L-120 80 L-120 -40 Z" />
      </clipPath>
      <clipPath clipPathUnits="userSpaceOnUse" id="clipPath44">
        <path d="M0 0 L165 0 L165 166 L0 166 L0 0 Z" />
      </clipPath>
      <clipPath clipPathUnits="userSpaceOnUse" id="clipPath45">
        <path d="M0 0 L155 0 L155 166 L0 166 L0 0 Z" />
      </clipPath>
      <clipPath clipPathUnits="userSpaceOnUse" id="clipPath46">
        <path d="M0 0 L115 0 L115 136 L0 136 L0 0 Z" />
      </clipPath>
      <clipPath clipPathUnits="userSpaceOnUse" id="clipPath47">
        <path d="M0 0 L285 0 L285 205 L0 205 L0 0 Z" />
      </clipPath>
      <clipPath clipPathUnits="userSpaceOnUse" id="clipPath48">
        <path d="M0 0 L115 0 L115 150 L0 150 L0 0 Z" />
      </clipPath>
      <clipPath clipPathUnits="userSpaceOnUse" id="clipPath49">
        <path d="M0 0 L255 0 L255 357 L0 357 L0 0 Z" />
      </clipPath>
      <clipPath clipPathUnits="userSpaceOnUse" id="clipPath50">
        <path d="M0 0 L435 0 L435 181 L0 181 L0 0 Z" />
      </clipPath>
      <clipPath clipPathUnits="userSpaceOnUse" id="clipPath51">
        <path d="M0 0 L115 0 L115 141 L0 141 L0 0 Z" />
      </clipPath>
      <clipPath clipPathUnits="userSpaceOnUse" id="clipPath52">
        <path d="M0 0 L849 0 L849 234 L0 234 L0 0 Z" />
      </clipPath>
      <clipPath clipPathUnits="userSpaceOnUse" id="clipPath53">
        <path d="M0 0 L115 0 L115 115 L0 115 L0 0 Z" />
      </clipPath>
      <clipPath clipPathUnits="userSpaceOnUse" id="clipPath54">
        <path d="M0 0 L155 0 L155 155 L0 155 L0 0 Z" />
      </clipPath>
      <clipPath clipPathUnits="userSpaceOnUse" id="clipPath55">
        <path d="M0 0 L115 0 L115 167 L0 167 L0 0 Z" />
      </clipPath>
      <clipPath clipPathUnits="userSpaceOnUse" id="clipPath56">
        <path d="M0 0 L115 0 L115 152 L0 152 L0 0 Z" />
      </clipPath>
      <clipPath clipPathUnits="userSpaceOnUse" id="clipPath57">
        <path d="M0 0 L364 0 L364 115 L0 115 L0 0 Z" />
      </clipPath>
      <clipPath clipPathUnits="userSpaceOnUse" id="clipPath58">
        <path d="M0 0 L235 0 L235 115 L0 115 L0 0 Z" />
      </clipPath>
      <clipPath clipPathUnits="userSpaceOnUse" id="clipPath59">
        <path d="M0 0 L302 0 L302 205 L0 205 L0 0 Z" />
      </clipPath>
      <clipPath clipPathUnits="userSpaceOnUse" id="clipPath60">
        <path d="M0 0 L354 0 L354 264 L0 264 L0 0 Z" />
      </clipPath>
      <clipPath clipPathUnits="userSpaceOnUse" id="clipPath61">
        <path d="M0 0 L657 0 L657 545 L0 545 L0 0 Z" />
      </clipPath>
      <clipPath clipPathUnits="userSpaceOnUse" id="clipPath62">
        <path d="M-50 -15 L100 -15 L100 30 L-50 30 L-50 -15 Z" />
      </clipPath>
      <clipPath clipPathUnits="userSpaceOnUse" id="clipPath63">
        <path d="M-45 -15 L90 -15 L90 30 L-45 30 L-45 -15 Z" />
      </clipPath>
    </defs>
    <g style="fill:white; text-rendering:geometricPrecision; stroke:white;">
      <rect x="0" y="0" width="1151" style="stroke:none;" height="868" />
      <rect x="118" y="68" transform="translate(-118,-68)" width="1150" style="fill:none; stroke:black;" height="867" />
      <text x="125" y="85" transform="translate(-118,-68)" style="fill:black; stroke:none;" xml:space="preserve">act trouverForgeLaPlusProchePossédantUnRatelierContenantUnOutilNeufEtCeRatelier</text>
      <line transform="translate(-118,-68)" x1="118" x2="604" y1="92" style="fill:none; stroke:black;" y2="92" />
      <line transform="translate(-118,-68)" x1="610" x2="610" y1="68" style="fill:none; stroke:black;" y2="82" />
      <line transform="translate(-118,-68)" x1="610" x2="604" y1="82" style="fill:none; stroke:black;" y2="92" />
    </g>
    <g transform="translate(42,34)" style="font-size:11; fill:rgb(122,207,245); text-rendering:geometricPrecision; font-family:sans-serif; stroke:rgb(122,207,245); font-weight:bold;">
      <rect x="1" y="1" width="1058" style="clip-path:url(#clipPath1); stroke:none;" rx="15" ry="15" height="818" />
    </g>
    <g transform="translate(42,34)" style="font-size:11; stroke-linecap:butt; text-rendering:geometricPrecision; font-family:sans-serif; stroke-linejoin:round; font-weight:bold; stroke-miterlimit:0;">
      <rect x="1" y="1" width="1058" style="clip-path:url(#clipPath1); fill:none;" rx="15" ry="15" height="818" />
    </g>
    <g transform="translate(42,34)" style="text-rendering:geometricPrecision; font-size:11; font-weight:bold; font-family:sans-serif;">
      <text x="10" y="18" style="clip-path:url(#clipPath2); stroke:none;" xml:space="preserve">trouver la forge la plus proche possédant râtelier contenant un outil neuf et le râtelier associé</text>
    </g>
    <g transform="translate(12,205)" style="font-size:11; fill:rgb(122,207,245); text-rendering:geometricPrecision; font-family:sans-serif; stroke:rgb(122,207,245);">
      <rect x="0" y="0" width="70" style="clip-path:url(#clipPath5); stroke:none;" height="30" />
    </g>
    <g transform="translate(12,205)" style="font-size:11; stroke-linecap:butt; text-rendering:geometricPrecision; font-family:sans-serif; stroke-linejoin:round; stroke-miterlimit:0;">
      <rect x="0" y="0" width="70" style="clip-path:url(#clipPath5); fill:none;" height="30" />
    </g>
    <g transform="translate(1067,770)" style="font-size:11; fill:rgb(122,207,245); text-rendering:geometricPrecision; font-family:sans-serif; stroke:rgb(122,207,245);">
      <rect x="0" y="0" width="70" style="clip-path:url(#clipPath5); stroke:none;" height="30" />
    </g>
    <g transform="translate(1067,770)" style="font-size:11; stroke-linecap:butt; text-rendering:geometricPrecision; font-family:sans-serif; stroke-linejoin:round; stroke-miterlimit:0;">
      <rect x="0" y="0" width="70" style="clip-path:url(#clipPath5); fill:none;" height="30" />
    </g>
    <g transform="translate(272,614)" style="font-size:11; fill:rgb(122,207,245); text-rendering:geometricPrecision; font-family:sans-serif; stroke:rgb(122,207,245);">
      <path d="M0 0 L119 0 L119 39 L0 39 L12 20 Z" style="clip-path:url(#clipPath6); stroke:none;" />
    </g>
    <g transform="translate(272,614)" style="font-size:11; stroke-linecap:butt; text-rendering:geometricPrecision; font-family:sans-serif; stroke-linejoin:round; stroke-miterlimit:0;">
      <path d="M0 0 L119 0 L119 39 L0 39 L12 20 Z" style="fill:none; clip-path:url(#clipPath6);" />
    </g>
    <g transform="translate(762,704)" style="font-size:11; fill:rgb(122,207,245); text-rendering:geometricPrecision; font-family:sans-serif; stroke:rgb(122,207,245);">
      <path d="M0 0 L97 0 L109 20 L97 39 L0 39 Z" style="clip-path:url(#clipPath7); stroke:none;" />
    </g>
    <g transform="translate(762,704)" style="font-size:11; stroke-linecap:butt; text-rendering:geometricPrecision; font-family:sans-serif; stroke-linejoin:round; stroke-miterlimit:0;">
      <path d="M0 0 L97 0 L109 20 L97 39 L0 39 Z" style="fill:none; clip-path:url(#clipPath7);" />
    </g>
    <g transform="translate(12,109)" style="font-size:11; fill:rgb(122,207,245); text-rendering:geometricPrecision; font-family:sans-serif; stroke:rgb(122,207,245);">
      <rect x="0" y="0" width="70" style="clip-path:url(#clipPath5); stroke:none;" height="30" />
    </g>
    <g transform="translate(12,109)" style="font-size:11; stroke-linecap:butt; text-rendering:geometricPrecision; font-family:sans-serif; stroke-linejoin:round; stroke-miterlimit:0;">
      <rect x="0" y="0" width="70" style="clip-path:url(#clipPath5); fill:none;" height="30" />
    </g>
    <g transform="translate(92,94)" style="text-rendering:geometricPrecision; stroke-width:2; font-size:11; font-family:sans-serif;">
      <rect x="0" y="0" width="490" style="clip-path:url(#clipPath8); fill:none;" height="15" />
    </g>
    <g style="text-rendering:geometricPrecision; font-size:11; font-family:sans-serif;" transform="translate(92,94)">
      <text x="229" y="12" style="clip-path:url(#clipPath9); stroke:none;" xml:space="preserve">:World</text>
    </g>
    <g transform="translate(92,109)" style="text-rendering:geometricPrecision; stroke-width:2; font-size:11; font-family:sans-serif;">
      <rect x="0" y="0" width="490" style="clip-path:url(#clipPath10); fill:none;" height="654" />
    </g>
    <g transform="translate(362,214)" style="font-size:11; fill:rgb(122,207,245); text-rendering:geometricPrecision; font-family:sans-serif; stroke:rgb(122,207,245);">
      <rect x="1" y="1" width="88" style="clip-path:url(#clipPath11); stroke:none;" rx="15" ry="15" height="48" />
    </g>
    <g transform="translate(362,214)" style="font-size:11; stroke-linecap:butt; text-rendering:geometricPrecision; font-family:sans-serif; stroke-linejoin:round; stroke-miterlimit:0;">
      <rect x="1" y="1" width="88" style="clip-path:url(#clipPath11); fill:none;" rx="15" ry="15" height="48" />
    </g>
    <g style="text-rendering:geometricPrecision; font-size:11; font-family:sans-serif;" transform="translate(362,214)">
      <text x="7" y="22" style="clip-path:url(#clipPath12); stroke:none;" xml:space="preserve">mettre à jour la</text>
      <text x="7" y="37" style="clip-path:url(#clipPath12); stroke:none;" xml:space="preserve">liste des forges</text>
    </g>
    <g transform="translate(212,314)" style="font-size:11; fill:rgb(122,207,245); text-rendering:geometricPrecision; font-family:sans-serif; stroke:rgb(122,207,245);">
      <rect x="0" y="0" width="240" style="clip-path:url(#clipPath13); stroke:none;" rx="15" ry="15" height="170" />
    </g>
    <g transform="translate(212,314)" style="font-size:11; stroke-linecap:round; text-rendering:geometricPrecision; font-family:sans-serif; stroke-linejoin:round; stroke-dasharray:12,9; stroke-miterlimit:0;">
      <rect x="0" y="0" width="240" style="clip-path:url(#clipPath13); fill:none;" rx="15" ry="15" height="170" />
    </g>
    <g transform="translate(212,314)" style="font-style:italic; text-rendering:geometricPrecision; font-size:11; font-family:sans-serif;">
      <text x="100" y="16" style="clip-path:url(#clipPath14); stroke:none;" xml:space="preserve">iterative</text>
    </g>
    <g transform="translate(272,524)" style="font-size:11; fill:rgb(122,207,245); text-rendering:geometricPrecision; font-family:sans-serif; stroke:rgb(122,207,245);">
      <rect x="1" y="1" width="108" style="clip-path:url(#clipPath7); stroke:none;" rx="15" ry="15" height="38" />
    </g>
    <g transform="translate(272,524)" style="font-size:11; stroke-linecap:butt; text-rendering:geometricPrecision; font-family:sans-serif; stroke-linejoin:round; stroke-miterlimit:0;">
      <rect x="1" y="1" width="108" style="clip-path:url(#clipPath7); fill:none;" rx="15" ry="15" height="38" />
    </g>
    <g style="text-rendering:geometricPrecision; font-size:11; font-family:sans-serif;" transform="translate(272,524)">
      <text x="8" y="17" style="clip-path:url(#clipPath15); stroke:none;" xml:space="preserve">calcul du chemin le</text>
      <text x="31" y="32" style="clip-path:url(#clipPath15); stroke:none;" xml:space="preserve">plus court</text>
    </g>
    <g transform="translate(582,94)" style="text-rendering:geometricPrecision; stroke-width:2; font-size:11; font-family:sans-serif;">
      <rect x="0" y="0" width="440" style="clip-path:url(#clipPath16); fill:none;" height="15" />
    </g>
    <g style="text-rendering:geometricPrecision; font-size:11; font-family:sans-serif;" transform="translate(582,94)">
      <text x="193" y="12" style="clip-path:url(#clipPath17); stroke:none;" xml:space="preserve">forge:Area</text>
    </g>
    <g transform="translate(582,109)" style="text-rendering:geometricPrecision; stroke-width:2; font-size:11; font-family:sans-serif;">
      <rect x="0" y="0" width="440" style="clip-path:url(#clipPath18); fill:none;" height="654" />
    </g>
    <g transform="translate(762,524)" style="font-size:11; fill:rgb(122,207,245); text-rendering:geometricPrecision; font-family:sans-serif; stroke:rgb(122,207,245);">
      <rect x="1" y="1" width="98" style="clip-path:url(#clipPath19); stroke:none;" rx="15" ry="15" height="58" />
    </g>
    <g transform="translate(762,524)" style="font-size:11; stroke-linecap:butt; text-rendering:geometricPrecision; font-family:sans-serif; stroke-linejoin:round; stroke-miterlimit:0;">
      <rect x="1" y="1" width="98" style="clip-path:url(#clipPath19); fill:none;" rx="15" ry="15" height="58" />
    </g>
    <g style="text-rendering:geometricPrecision; font-size:11; font-family:sans-serif;" transform="translate(762,524)">
      <text x="20" y="19" style="clip-path:url(#clipPath20); stroke:none;" xml:space="preserve">Vérifier si le</text>
      <text x="10" y="34" style="clip-path:url(#clipPath20); stroke:none;" xml:space="preserve">ratelier possède</text>
      <text x="19" y="49" style="clip-path:url(#clipPath20); stroke:none;" xml:space="preserve">un outil neuf</text>
    </g>
    <g transform="translate(802,634)" style="font-size:11; fill:rgb(122,207,245); text-rendering:geometricPrecision; font-family:sans-serif; stroke:rgb(122,207,245);">
      <polygon style="clip-path:url(#clipPath21); stroke:none;" points=" 10 7 17 20 10 32 3 20" />
    </g>
    <g transform="translate(802,634)" style="font-size:11; stroke-linecap:butt; text-rendering:geometricPrecision; font-family:sans-serif; stroke-linejoin:round; stroke-miterlimit:0;">
      <polygon style="fill:none; clip-path:url(#clipPath21);" points=" 10 7 17 20 10 32 3 20" />
    </g>
    <g transform="translate(662,394)" style="font-size:11; fill:rgb(122,207,245); text-rendering:geometricPrecision; font-family:sans-serif; stroke:rgb(122,207,245);">
      <rect x="0" y="0" width="80" style="clip-path:url(#clipPath22); stroke:none;" height="40" />
    </g>
    <g transform="translate(662,394)" style="font-size:11; stroke-linecap:butt; text-rendering:geometricPrecision; font-family:sans-serif; stroke-linejoin:round; stroke-miterlimit:0;">
      <rect x="0" y="0" width="80" style="clip-path:url(#clipPath22); fill:none;" height="40" />
    </g>
    <g style="text-rendering:geometricPrecision; font-size:11; font-family:sans-serif;" transform="translate(662,394)">
      <text x="10" y="24" style="clip-path:url(#clipPath23); stroke:none;" xml:space="preserve">forge : Area</text>
    </g>
    <g style="text-rendering:geometricPrecision; font-size:11; font-family:sans-serif;" transform="translate(502,514)">
      <rect x="0" y="0" width="11" style="clip-path:url(#clipPath24); stroke:none;" height="60" />
      <rect x="0" y="0" width="11" style="stroke-linecap:butt; clip-path:url(#clipPath24); fill:none; stroke-linejoin:round; stroke-miterlimit:0;" height="60" />
    </g>
    <g transform="translate(232,305)" style="font-size:11; fill:rgb(122,207,245); text-rendering:geometricPrecision; font-family:sans-serif; stroke:rgb(122,207,245);">
      <rect x="0" y="0" width="39" style="clip-path:url(#clipPath25); stroke:none;" height="13" />
    </g>
    <g transform="translate(232,305)" style="font-size:11; stroke-linecap:butt; text-rendering:geometricPrecision; font-family:sans-serif; stroke-linejoin:round; stroke-miterlimit:0;">
      <line x1="10" x2="10" y1="0" style="clip-path:url(#clipPath25); fill:none;" y2="13" />
      <line x1="20" x2="20" y1="0" style="clip-path:url(#clipPath25); fill:none;" y2="13" />
      <line x1="30" x2="30" y1="0" style="clip-path:url(#clipPath25); fill:none;" y2="13" />
      <rect x="0" y="0" width="39" style="clip-path:url(#clipPath25); fill:none;" height="13" />
    </g>
    <g transform="translate(380,305)" style="font-size:11; fill:rgb(122,207,245); text-rendering:geometricPrecision; font-family:sans-serif; stroke:rgb(122,207,245);">
      <rect x="0" y="0" width="39" style="clip-path:url(#clipPath25); stroke:none;" height="13" />
    </g>
    <g transform="translate(380,305)" style="font-size:11; stroke-linecap:butt; text-rendering:geometricPrecision; font-family:sans-serif; stroke-linejoin:round; stroke-miterlimit:0;">
      <line x1="10" x2="10" y1="0" style="clip-path:url(#clipPath25); fill:none;" y2="13" />
      <line x1="20" x2="20" y1="0" style="clip-path:url(#clipPath25); fill:none;" y2="13" />
      <line x1="30" x2="30" y1="0" style="clip-path:url(#clipPath25); fill:none;" y2="13" />
      <rect x="0" y="0" width="39" style="clip-path:url(#clipPath25); fill:none;" height="13" />
    </g>
    <g transform="translate(282,384)" style="font-size:11; fill:rgb(122,207,245); text-rendering:geometricPrecision; font-family:sans-serif; stroke:rgb(122,207,245);">
      <rect x="1" y="1" width="98" style="clip-path:url(#clipPath26); stroke:none;" rx="15" ry="15" height="38" />
    </g>
    <g transform="translate(282,384)" style="font-size:11; stroke-linecap:butt; text-rendering:geometricPrecision; font-family:sans-serif; stroke-linejoin:round; stroke-miterlimit:0;">
      <rect x="1" y="1" width="98" style="clip-path:url(#clipPath26); fill:none;" rx="15" ry="15" height="38" />
    </g>
    <g style="text-rendering:geometricPrecision; font-size:11; font-family:sans-serif;" transform="translate(282,384)">
      <text x="9" y="24" style="clip-path:url(#clipPath27); stroke:none;" xml:space="preserve">calcul du chemin</text>
    </g>
    <g transform="translate(397,255)" style="font-size:11; fill:rgb(122,207,245); text-rendering:geometricPrecision; font-family:sans-serif; stroke:rgb(122,207,245);">
      <rect x="0" y="0" width="11" style="clip-path:url(#clipPath28); stroke:none;" height="12" />
    </g>
    <g transform="translate(397,255)" style="font-size:11; stroke-linecap:butt; text-rendering:geometricPrecision; font-family:sans-serif; stroke-linejoin:round; stroke-miterlimit:0;">
      <rect x="0" y="0" width="11" style="clip-path:url(#clipPath28); fill:none;" height="12" />
    </g>
    <g transform="translate(272,475)" style="font-size:11; fill:rgb(122,207,245); text-rendering:geometricPrecision; font-family:sans-serif; stroke:rgb(122,207,245);">
      <rect x="0" y="0" width="39" style="clip-path:url(#clipPath25); stroke:none;" height="13" />
    </g>
    <g transform="translate(272,475)" style="font-size:11; stroke-linecap:butt; text-rendering:geometricPrecision; font-family:sans-serif; stroke-linejoin:round; stroke-miterlimit:0;">
      <line x1="10" x2="10" y1="0" style="clip-path:url(#clipPath25); fill:none;" y2="13" />
      <line x1="20" x2="20" y1="0" style="clip-path:url(#clipPath25); fill:none;" y2="13" />
      <line x1="30" x2="30" y1="0" style="clip-path:url(#clipPath25); fill:none;" y2="13" />
      <rect x="0" y="0" width="39" style="clip-path:url(#clipPath25); fill:none;" height="13" />
    </g>
    <g transform="translate(285,512)" style="font-size:11; fill:rgb(122,207,245); text-rendering:geometricPrecision; font-family:sans-serif; stroke:rgb(122,207,245);">
      <rect x="0" y="0" width="11" style="clip-path:url(#clipPath29); stroke:none;" height="11" />
    </g>
    <g transform="translate(285,512)" style="font-size:11; stroke-linecap:butt; text-rendering:geometricPrecision; font-family:sans-serif; stroke-linejoin:round; stroke-miterlimit:0;">
      <rect x="0" y="0" width="11" style="clip-path:url(#clipPath29); fill:none;" height="11" />
    </g>
    <g transform="translate(356,512)" style="font-size:11; fill:rgb(122,207,245); text-rendering:geometricPrecision; font-family:sans-serif; stroke:rgb(122,207,245);">
      <rect x="0" y="0" width="11" style="clip-path:url(#clipPath29); stroke:none;" height="11" />
    </g>
    <g transform="translate(356,512)" style="font-size:11; stroke-linecap:butt; text-rendering:geometricPrecision; font-family:sans-serif; stroke-linejoin:round; stroke-miterlimit:0;">
      <rect x="0" y="0" width="11" style="clip-path:url(#clipPath29); fill:none;" height="11" />
    </g>
    <g transform="translate(325,560)" style="font-size:11; fill:rgb(122,207,245); text-rendering:geometricPrecision; font-family:sans-serif; stroke:rgb(122,207,245);">
      <rect x="0" y="0" width="13" style="clip-path:url(#clipPath30); stroke:none;" height="11" />
    </g>
    <g transform="translate(325,560)" style="font-size:11; stroke-linecap:butt; text-rendering:geometricPrecision; font-family:sans-serif; stroke-linejoin:round; stroke-miterlimit:0;">
      <rect x="0" y="0" width="13" style="clip-path:url(#clipPath30); fill:none;" height="11" />
    </g>
    <g transform="translate(325,600)" style="font-size:11; fill:rgb(122,207,245); text-rendering:geometricPrecision; font-family:sans-serif; stroke:rgb(122,207,245);">
      <rect x="0" y="0" width="12" style="clip-path:url(#clipPath31); stroke:none;" height="11" />
    </g>
    <g transform="translate(325,600)" style="font-size:11; stroke-linecap:butt; text-rendering:geometricPrecision; font-family:sans-serif; stroke-linejoin:round; stroke-miterlimit:0;">
      <rect x="0" y="0" width="12" style="clip-path:url(#clipPath31); fill:none;" height="11" />
    </g>
    <g transform="translate(806,580)" style="font-size:11; fill:rgb(122,207,245); text-rendering:geometricPrecision; font-family:sans-serif; stroke:rgb(122,207,245);">
      <rect x="0" y="0" width="13" style="clip-path:url(#clipPath30); stroke:none;" height="11" />
    </g>
    <g transform="translate(806,580)" style="font-size:11; stroke-linecap:butt; text-rendering:geometricPrecision; font-family:sans-serif; stroke-linejoin:round; stroke-miterlimit:0;">
      <rect x="0" y="0" width="13" style="clip-path:url(#clipPath30); fill:none;" height="11" />
    </g>
    <g transform="translate(450,238)" style="font-size:11; fill:rgb(122,207,245); text-rendering:geometricPrecision; font-family:sans-serif; stroke:rgb(122,207,245);">
      <rect x="0" y="0" width="11" style="clip-path:url(#clipPath29); stroke:none;" height="11" />
    </g>
    <g transform="translate(450,238)" style="font-size:11; stroke-linecap:butt; text-rendering:geometricPrecision; font-family:sans-serif; stroke-linejoin:round; stroke-miterlimit:0;">
      <rect x="0" y="0" width="11" style="clip-path:url(#clipPath29); fill:none;" height="11" />
    </g>
    <g transform="translate(397,202)" style="font-size:11; fill:rgb(122,207,245); text-rendering:geometricPrecision; font-family:sans-serif; stroke:rgb(122,207,245);">
      <rect x="0" y="0" width="11" style="clip-path:url(#clipPath29); stroke:none;" height="11" />
    </g>
    <g transform="translate(397,202)" style="font-size:11; stroke-linecap:butt; text-rendering:geometricPrecision; font-family:sans-serif; stroke-linejoin:round; stroke-miterlimit:0;">
      <rect x="0" y="0" width="11" style="clip-path:url(#clipPath29); fill:none;" height="11" />
    </g>
    <g transform="translate(327,652)" style="font-size:11; fill:rgb(122,207,245); text-rendering:geometricPrecision; font-family:sans-serif; stroke:rgb(122,207,245);">
      <rect x="0" y="0" width="11" style="clip-path:url(#clipPath29); stroke:none;" height="11" />
    </g>
    <g transform="translate(327,652)" style="font-size:11; stroke-linecap:butt; text-rendering:geometricPrecision; font-family:sans-serif; stroke-linejoin:round; stroke-miterlimit:0;">
      <rect x="0" y="0" width="11" style="clip-path:url(#clipPath29); fill:none;" height="11" />
    </g>
    <g transform="translate(297,372)" style="font-size:11; fill:rgb(122,207,245); text-rendering:geometricPrecision; font-family:sans-serif; stroke:rgb(122,207,245);">
      <rect x="0" y="0" width="12" style="clip-path:url(#clipPath31); stroke:none;" height="11" />
    </g>
    <g transform="translate(297,372)" style="font-size:11; stroke-linecap:butt; text-rendering:geometricPrecision; font-family:sans-serif; stroke-linejoin:round; stroke-miterlimit:0;">
      <rect x="0" y="0" width="12" style="clip-path:url(#clipPath31); fill:none;" height="11" />
    </g>
    <g transform="translate(356,372)" style="font-size:11; fill:rgb(122,207,245); text-rendering:geometricPrecision; font-family:sans-serif; stroke:rgb(122,207,245);">
      <rect x="0" y="0" width="11" style="clip-path:url(#clipPath29); stroke:none;" height="11" />
    </g>
    <g transform="translate(356,372)" style="font-size:11; stroke-linecap:butt; text-rendering:geometricPrecision; font-family:sans-serif; stroke-linejoin:round; stroke-miterlimit:0;">
      <rect x="0" y="0" width="11" style="clip-path:url(#clipPath29); fill:none;" height="11" />
    </g>
    <g transform="translate(325,422)" style="font-size:11; fill:rgb(122,207,245); text-rendering:geometricPrecision; font-family:sans-serif; stroke:rgb(122,207,245);">
      <rect x="0" y="0" width="11" style="clip-path:url(#clipPath29); stroke:none;" height="11" />
    </g>
    <g transform="translate(325,422)" style="font-size:11; stroke-linecap:butt; text-rendering:geometricPrecision; font-family:sans-serif; stroke-linejoin:round; stroke-miterlimit:0;">
      <rect x="0" y="0" width="11" style="clip-path:url(#clipPath29); fill:none;" height="11" />
    </g>
    <g style="text-rendering:geometricPrecision; font-size:11; font-family:sans-serif;" transform="translate(330,421)">
      <text x="10" y="12" style="clip-path:url(#clipPath34); stroke:none;" xml:space="preserve">path : Node[]</text>
    </g>
    <g style="text-rendering:geometricPrecision; font-size:11; font-family:sans-serif;" transform="translate(359,362)">
      <text x="7" y="12" style="clip-path:url(#clipPath35); stroke:none;" xml:space="preserve">forge : Area</text>
    </g>
    <g style="text-rendering:geometricPrecision; font-size:11; font-family:sans-serif;" transform="translate(233,362)">
      <text x="9" y="12" style="clip-path:url(#clipPath36); stroke:none;" xml:space="preserve">pos : int[2]</text>
    </g>
    <g style="text-rendering:geometricPrecision; font-size:11; font-family:sans-serif;" transform="translate(244,656)">
      <text x="10" y="12" style="clip-path:url(#clipPath34); stroke:none;" xml:space="preserve">path : Node[]</text>
    </g>
    <g style="text-rendering:geometricPrecision; font-size:11; font-family:sans-serif;" transform="translate(409,192)">
      <text x="7" y="12" style="clip-path:url(#clipPath37); stroke:none;" xml:space="preserve">forges : Area[]</text>
    </g>
    <g style="text-rendering:geometricPrecision; font-size:11; font-family:sans-serif;" transform="translate(450,248)">
      <text x="8" y="12" style="clip-path:url(#clipPath38); stroke:none;" xml:space="preserve">forge : Area</text>
    </g>
    <g style="text-rendering:geometricPrecision; font-size:11; font-family:sans-serif;" transform="translate(698,584)">
      <text x="10" y="12" style="clip-path:url(#clipPath39); stroke:none;" xml:space="preserve">reponse : boolean</text>
    </g>
    <g style="text-rendering:geometricPrecision; font-size:11; font-family:sans-serif;" transform="translate(242,574)">
      <text x="10" y="12" style="clip-path:url(#clipPath34); stroke:none;" xml:space="preserve">path : Node[]</text>
    </g>
    <g style="text-rendering:geometricPrecision; font-size:11; font-family:sans-serif;" transform="translate(358,502)">
      <text x="7" y="12" style="clip-path:url(#clipPath37); stroke:none;" xml:space="preserve">forges : Area[]</text>
    </g>
    <g style="text-rendering:geometricPrecision; font-size:11; font-family:sans-serif;" transform="translate(184,490)">
      <text x="11" y="12" style="clip-path:url(#clipPath40); stroke:none;" xml:space="preserve">listPath : Node[][]</text>
    </g>
    <g style="text-rendering:geometricPrecision; font-size:11; font-family:sans-serif;" transform="translate(399,262)">
      <text x="7" y="12" style="clip-path:url(#clipPath37); stroke:none;" xml:space="preserve">forges : Area[]</text>
    </g>
    <g style="text-rendering:geometricPrecision; font-size:11; font-family:sans-serif;" transform="translate(12,109)">
      <text x="16" y="12" style="clip-path:url(#clipPath41); stroke:none;" xml:space="preserve">forges :</text>
      <text x="19" y="27" style="clip-path:url(#clipPath41); stroke:none;" xml:space="preserve">Area[]</text>
    </g>
    <g style="text-rendering:geometricPrecision; font-size:11; font-family:sans-serif;" transform="translate(762,704)">
      <text x="27" y="24" style="clip-path:url(#clipPath42); stroke:none;" xml:space="preserve">outil neuf</text>
    </g>
    <g style="text-rendering:geometricPrecision; font-size:11; font-family:sans-serif;" transform="translate(272,614)">
      <text x="42" y="24" style="clip-path:url(#clipPath43); stroke:none;" xml:space="preserve">outil neuf</text>
    </g>
    <g style="text-rendering:geometricPrecision; font-size:11; font-family:sans-serif;" transform="translate(1067,770)">
      <text x="20" y="12" style="clip-path:url(#clipPath41); stroke:none;" xml:space="preserve">path :</text>
      <text x="18" y="27" style="clip-path:url(#clipPath41); stroke:none;" xml:space="preserve">Node[]</text>
    </g>
    <g style="text-rendering:geometricPrecision; font-size:11; font-family:sans-serif;" transform="translate(12,205)">
      <text x="17" y="19" style="clip-path:url(#clipPath41); stroke:none;" xml:space="preserve">: Dwarf</text>
    </g>
    <g transform="translate(196,264)" style="font-size:11; stroke-linecap:butt; text-rendering:geometricPrecision; font-family:sans-serif; stroke-linejoin:round;">
      <line x1="56" x2="56" y1="55" style="clip-path:url(#clipPath44); fill:none;" y2="80" />
      <line x1="56" x2="106" y1="80" style="clip-path:url(#clipPath44); fill:none;" y2="80" />
      <line x1="106" x2="106" y1="80" style="clip-path:url(#clipPath44); fill:none;" y2="106" />
      <line x1="106" x2="112" y1="106" style="clip-path:url(#clipPath44); fill:none;" y2="94" />
      <line x1="106" x2="100" y1="106" style="clip-path:url(#clipPath44); fill:none;" y2="94" />
    </g>
    <g transform="translate(306,264)" style="font-size:11; stroke-linecap:butt; text-rendering:geometricPrecision; font-family:sans-serif; stroke-linejoin:round;">
      <line x1="96" x2="96" y1="55" style="clip-path:url(#clipPath45); fill:none;" y2="80" />
      <line x1="96" x2="56" y1="80" style="clip-path:url(#clipPath45); fill:none;" y2="80" />
      <line x1="56" x2="56" y1="80" style="clip-path:url(#clipPath45); fill:none;" y2="106" />
      <line x1="56" x2="62" y1="106" style="clip-path:url(#clipPath45); fill:none;" y2="94" />
      <line x1="56" x2="50" y1="106" style="clip-path:url(#clipPath45); fill:none;" y2="94" />
    </g>
    <g transform="translate(236,434)" style="font-size:11; stroke-linecap:butt; text-rendering:geometricPrecision; font-family:sans-serif; stroke-linejoin:round;">
      <line x1="56" x2="56" y1="55" style="clip-path:url(#clipPath46); fill:none;" y2="76" />
      <line x1="56" x2="62" y1="76" style="clip-path:url(#clipPath46); fill:none;" y2="64" />
      <line x1="56" x2="50" y1="76" style="clip-path:url(#clipPath46); fill:none;" y2="64" />
    </g>
    <g transform="translate(26,158)" style="font-size:11; stroke-linecap:butt; text-rendering:geometricPrecision; font-family:sans-serif; stroke-linejoin:round;">
      <line x1="56" x2="226" y1="56" style="clip-path:url(#clipPath47); fill:none;" y2="56" />
      <line x1="226" x2="226" y1="56" style="clip-path:url(#clipPath47); fill:none;" y2="146" />
      <line x1="226" x2="232" y1="146" style="clip-path:url(#clipPath47); fill:none;" y2="134" />
      <line x1="226" x2="220" y1="146" style="clip-path:url(#clipPath47); fill:none;" y2="134" />
    </g>
    <g transform="translate(346,212)" style="font-size:11; stroke-linecap:butt; text-rendering:geometricPrecision; font-family:sans-serif; stroke-linejoin:round;">
      <line x1="56" x2="56" y1="56" style="clip-path:url(#clipPath48); fill:none;" y2="92" />
      <line x1="56" x2="62" y1="92" style="clip-path:url(#clipPath48); fill:none;" y2="80" />
      <line x1="56" x2="50" y1="92" style="clip-path:url(#clipPath48); fill:none;" y2="80" />
    </g>
    <g transform="translate(306,212)" style="font-size:11; stroke-linecap:butt; text-rendering:geometricPrecision; font-family:sans-serif; stroke-linejoin:round;">
      <line x1="96" x2="96" y1="56" style="clip-path:url(#clipPath49); fill:none;" y2="72" />
      <line x1="96" x2="196" y1="72" style="clip-path:url(#clipPath49); fill:none;" y2="72" />
      <line x1="196" x2="196" y1="72" style="clip-path:url(#clipPath49); fill:none;" y2="282" />
      <line x1="196" x2="56" y1="282" style="clip-path:url(#clipPath49); fill:none;" y2="282" />
      <line x1="56" x2="56" y1="282" style="clip-path:url(#clipPath49); fill:none;" y2="298" />
      <line x1="56" x2="62" y1="298" style="clip-path:url(#clipPath49); fill:none;" y2="286" />
      <line x1="56" x2="50" y1="298" style="clip-path:url(#clipPath49); fill:none;" y2="286" />
    </g>
    <g transform="translate(26,78)" style="font-size:11; stroke-linecap:butt; text-rendering:geometricPrecision; font-family:sans-serif; stroke-linejoin:round;">
      <line x1="56" x2="375" y1="56" style="clip-path:url(#clipPath50); fill:none;" y2="56" />
      <line x1="375" x2="375" y1="56" style="clip-path:url(#clipPath50); fill:none;" y2="122" />
      <line x1="375" x2="381" y1="122" style="clip-path:url(#clipPath50); fill:none;" y2="110" />
      <line x1="375" x2="369" y1="122" style="clip-path:url(#clipPath50); fill:none;" y2="110" />
    </g>
    <g transform="translate(276,516)" style="font-size:11; stroke-linecap:butt; text-rendering:geometricPrecision; font-family:sans-serif; stroke-linejoin:round;">
      <line x1="56" x2="56" y1="55" style="clip-path:url(#clipPath51); fill:none;" y2="82" />
      <line x1="56" x2="62" y1="82" style="clip-path:url(#clipPath51); fill:none;" y2="70" />
      <line x1="56" x2="50" y1="82" style="clip-path:url(#clipPath51); fill:none;" y2="70" />
    </g>
    <g transform="translate(276,609)" style="font-size:11; stroke-linecap:butt; text-rendering:geometricPrecision; font-family:sans-serif; stroke-linejoin:round;">
      <line x1="56" x2="56" y1="56" style="clip-path:url(#clipPath52); fill:none;" y2="174" />
      <line x1="56" x2="790" y1="174" style="clip-path:url(#clipPath52); fill:none;" y2="174" />
      <line x1="790" x2="778" y1="174" style="clip-path:url(#clipPath52); fill:none;" y2="168" />
      <line x1="790" x2="778" y1="174" style="clip-path:url(#clipPath52); fill:none;" y2="180" />
    </g>
    <g transform="translate(236,378)" style="font-size:11; stroke-linecap:butt; text-rendering:geometricPrecision; font-family:sans-serif; stroke-linejoin:round;">
      <line x1="96" x2="96" y1="56" style="clip-path:url(#clipPath54); fill:none;" y2="66" />
      <line x1="96" x2="56" y1="66" style="clip-path:url(#clipPath54); fill:none;" y2="66" />
      <line x1="56" x2="56" y1="66" style="clip-path:url(#clipPath54); fill:none;" y2="96" />
      <line x1="56" x2="62" y1="96" style="clip-path:url(#clipPath54); fill:none;" y2="84" />
      <line x1="56" x2="50" y1="96" style="clip-path:url(#clipPath54); fill:none;" y2="84" />
    </g>
    <g transform="translate(756,536)" style="font-size:11; stroke-linecap:butt; text-rendering:geometricPrecision; font-family:sans-serif; stroke-linejoin:round;">
      <line x1="56" x2="56" y1="55" style="clip-path:url(#clipPath55); fill:none;" y2="108" />
      <line x1="56" x2="62" y1="108" style="clip-path:url(#clipPath55); fill:none;" y2="96" />
      <line x1="56" x2="50" y1="108" style="clip-path:url(#clipPath55); fill:none;" y2="96" />
    </g>
    <g transform="translate(756,609)" style="font-size:11; stroke-linecap:butt; text-rendering:geometricPrecision; font-family:sans-serif; stroke-linejoin:round;">
      <line x1="56" x2="56" y1="56" style="clip-path:url(#clipPath56); fill:none;" y2="93" />
      <line x1="56" x2="62" y1="93" style="clip-path:url(#clipPath56); fill:none;" y2="81" />
      <line x1="56" x2="50" y1="93" style="clip-path:url(#clipPath56); fill:none;" y2="81" />
    </g>
    <g transform="translate(458,508)" style="font-size:11; stroke-linecap:butt; text-rendering:geometricPrecision; font-family:sans-serif; stroke-linejoin:round;">
      <line x1="56" x2="305" y1="56" style="clip-path:url(#clipPath57); fill:none;" y2="56" />
      <line x1="305" x2="293" y1="56" style="clip-path:url(#clipPath57); fill:none;" y2="50" />
      <line x1="305" x2="293" y1="56" style="clip-path:url(#clipPath57); fill:none;" y2="62" />
    </g>
    <g transform="translate(325,488)" style="font-size:11; stroke-linecap:butt; text-rendering:geometricPrecision; font-family:sans-serif; stroke-linejoin:round;">
      <line x1="55" x2="175" y1="56" style="clip-path:url(#clipPath58); fill:none;" y2="56" />
      <line x1="175" x2="163" y1="56" style="clip-path:url(#clipPath58); fill:none;" y2="50" />
      <line x1="175" x2="163" y1="56" style="clip-path:url(#clipPath58); fill:none;" y2="62" />
    </g>
    <g transform="translate(458,378)" style="font-size:11; stroke-linecap:butt; text-rendering:geometricPrecision; font-family:sans-serif; stroke-linejoin:round;">
      <line x1="56" x2="244" y1="146" style="clip-path:url(#clipPath59); fill:none;" y2="146" />
      <line x1="244" x2="244" y1="146" style="clip-path:url(#clipPath59); fill:none;" y2="56" />
      <line x1="244" x2="238" y1="56" style="clip-path:url(#clipPath59); fill:none;" y2="68" />
      <line x1="244" x2="250" y1="56" style="clip-path:url(#clipPath59); fill:none;" y2="68" />
    </g>
    <g transform="translate(407,188)" style="font-size:11; stroke-linecap:butt; text-rendering:geometricPrecision; font-family:sans-serif; stroke-linejoin:round;">
      <line x1="295" x2="295" y1="204" style="clip-path:url(#clipPath60); fill:none;" y2="56" />
      <line x1="295" x2="56" y1="56" style="clip-path:url(#clipPath60); fill:none;" y2="56" />
      <line x1="56" x2="68" y1="56" style="clip-path:url(#clipPath60); fill:none;" y2="62" />
      <line x1="56" x2="68" y1="56" style="clip-path:url(#clipPath60); fill:none;" y2="50" />
    </g>
    <g transform="translate(394,168)" style="font-size:11; stroke-linecap:butt; text-rendering:geometricPrecision; font-family:sans-serif; stroke-linejoin:round;">
      <line x1="423" x2="598" y1="485" style="clip-path:url(#clipPath61); fill:none;" y2="485" />
      <line x1="598" x2="598" y1="485" style="clip-path:url(#clipPath61); fill:none;" y2="56" />
      <line x1="598" x2="55" y1="56" style="clip-path:url(#clipPath61); fill:none;" y2="56" />
      <line x1="55" x2="67" y1="56" style="clip-path:url(#clipPath61); fill:none;" y2="62" />
      <line x1="55" x2="67" y1="56" style="clip-path:url(#clipPath61); fill:none;" y2="50" />
    </g>
    <g style="text-rendering:geometricPrecision; font-size:11; font-family:sans-serif;" transform="translate(832,634)">
      <text x="9" y="12" style="clip-path:url(#clipPath62); stroke:none;" xml:space="preserve">[false]</text>
    </g>
    <g style="text-rendering:geometricPrecision; font-size:11; font-family:sans-serif;" transform="translate(762,664)">
      <text x="10" y="12" style="clip-path:url(#clipPath63); stroke:none;" xml:space="preserve">[true]</text>
    </g>
  </g>
</svg>
