<?xml version="1.0" encoding="UTF-8"?>

<!DOCTYPE svg PUBLIC '-//W3C//DTD SVG 1.0//EN' 'http://www.w3.org/TR/2001/REC-SVG-20010904/DTD/svg10.dtd'>
<svg style="fill-opacity:1; color-rendering:auto; color-interpolation:auto; stroke:black; text-rendering:auto; stroke-linecap:square; stroke-miterlimit:10; stroke-opacity:1; shape-rendering:auto; fill:black; stroke-dasharray:none; font-weight:normal; stroke-width:1; font-family:&apos;Dialog&apos;; font-style:normal; stroke-linejoin:miter; font-size:12; stroke-dashoffset:0; image-rendering:auto;" xmlns="http://www.w3.org/2000/svg" width="1006" xmlns:xlink="http://www.w3.org/1999/xlink" height="558">
  <!--Generated by the Batik Graphics2D SVG Generator-->
  <defs id="genericDefs" />
  <g>
    <defs id="defs1">
      <clipPath clipPathUnits="userSpaceOnUse" id="clipPath1">
        <path d="M-3 -3 L587 -3 L587 517 L-3 517 L-3 -3 Z" />
      </clipPath>
      <clipPath clipPathUnits="userSpaceOnUse" id="clipPath2">
        <path d="M0 0 L580 0 L580 15 L0 15 L0 0 Z" />
      </clipPath>
      <clipPath clipPathUnits="userSpaceOnUse" id="clipPath3">
        <path d="M-3 -3 L247 -3 L247 507 L-3 507 L-3 -3 Z" />
      </clipPath>
      <clipPath clipPathUnits="userSpaceOnUse" id="clipPath4">
        <path d="M0 0 L240 0 L240 15 L0 15 L0 0 Z" />
      </clipPath>
      <clipPath clipPathUnits="userSpaceOnUse" id="clipPath5">
        <path d="M-3 -3 L147 -3 L147 517 L-3 517 L-3 -3 Z" />
      </clipPath>
      <clipPath clipPathUnits="userSpaceOnUse" id="clipPath6">
        <path d="M0 0 L140 0 L140 15 L0 15 L0 0 Z" />
      </clipPath>
      <clipPath clipPathUnits="userSpaceOnUse" id="clipPath7">
        <path d="M-3 -3 L297 -3 L297 477 L-3 477 L-3 -3 Z" />
      </clipPath>
      <clipPath clipPathUnits="userSpaceOnUse" id="clipPath8">
        <path d="M0 0 L290 0 L290 15 L0 15 L0 0 Z" />
      </clipPath>
      <clipPath clipPathUnits="userSpaceOnUse" id="clipPath9">
        <path d="M-3 -3 L157 -3 L157 77 L-3 77 L-3 -3 Z" />
      </clipPath>
      <clipPath clipPathUnits="userSpaceOnUse" id="clipPath10">
        <path d="M0 0 L0 62 L150 62 L150 0 Z" />
      </clipPath>
      <clipPath clipPathUnits="userSpaceOnUse" id="clipPath11">
        <path d="M0 0 L150 0 L150 15 L0 15 L0 0 Z" />
      </clipPath>
      <clipPath clipPathUnits="userSpaceOnUse" id="clipPath12">
        <path d="M-3 -3 L87 -3 L87 47 L-3 47 L-3 -3 Z" />
      </clipPath>
      <clipPath clipPathUnits="userSpaceOnUse" id="clipPath13">
        <path d="M0 0 L0 32 L80 32 L80 0 Z" />
      </clipPath>
      <clipPath clipPathUnits="userSpaceOnUse" id="clipPath14">
        <path d="M0 0 L80 0 L80 15 L0 15 L0 0 Z" />
      </clipPath>
      <clipPath clipPathUnits="userSpaceOnUse" id="clipPath15">
        <path d="M-3 -3 L107 -3 L107 47 L-3 47 L-3 -3 Z" />
      </clipPath>
      <clipPath clipPathUnits="userSpaceOnUse" id="clipPath16">
        <path d="M0 0 L0 32 L100 32 L100 0 Z" />
      </clipPath>
      <clipPath clipPathUnits="userSpaceOnUse" id="clipPath17">
        <path d="M0 0 L100 0 L100 15 L0 15 L0 0 Z" />
      </clipPath>
      <clipPath clipPathUnits="userSpaceOnUse" id="clipPath18">
        <path d="M-3 -3 L97 -3 L97 87 L-3 87 L-3 -3 Z" />
      </clipPath>
      <clipPath clipPathUnits="userSpaceOnUse" id="clipPath19">
        <path d="M0 0 L0 72 L90 72 L90 0 Z" />
      </clipPath>
      <clipPath clipPathUnits="userSpaceOnUse" id="clipPath20">
        <path d="M0 0 L90 0 L90 15 L0 15 L0 0 Z" />
      </clipPath>
      <clipPath clipPathUnits="userSpaceOnUse" id="clipPath21">
        <path d="M-3 -3 L227 -3 L227 147 L-3 147 L-3 -3 Z" />
      </clipPath>
      <clipPath clipPathUnits="userSpaceOnUse" id="clipPath22">
        <path d="M0 0 L0 132 L220 132 L220 0 Z" />
      </clipPath>
      <clipPath clipPathUnits="userSpaceOnUse" id="clipPath23">
        <path d="M0 0 L220 0 L220 15 L0 15 L0 0 Z" />
      </clipPath>
      <clipPath clipPathUnits="userSpaceOnUse" id="clipPath24">
        <path d="M-3 -3 L107 -3 L107 67 L-3 67 L-3 -3 Z" />
      </clipPath>
      <clipPath clipPathUnits="userSpaceOnUse" id="clipPath25">
        <path d="M0 0 L0 52 L100 52 L100 0 Z" />
      </clipPath>
      <clipPath clipPathUnits="userSpaceOnUse" id="clipPath26">
        <path d="M-3 -3 L127 -3 L127 107 L-3 107 L-3 -3 Z" />
      </clipPath>
      <clipPath clipPathUnits="userSpaceOnUse" id="clipPath27">
        <path d="M0 0 L0 92 L120 92 L120 0 Z" />
      </clipPath>
      <clipPath clipPathUnits="userSpaceOnUse" id="clipPath28">
        <path d="M0 0 L120 0 L120 15 L0 15 L0 0 Z" />
      </clipPath>
      <clipPath clipPathUnits="userSpaceOnUse" id="clipPath29">
        <path d="M-3 -3 L61 -3 L61 22 L-3 22 L-3 -3 Z" />
      </clipPath>
      <clipPath clipPathUnits="userSpaceOnUse" id="clipPath30">
        <path d="M-3 -3 L50 -3 L50 22 L-3 22 L-3 -3 Z" />
      </clipPath>
      <clipPath clipPathUnits="userSpaceOnUse" id="clipPath31">
        <path d="M-3 -3 L89 -3 L89 23 L-3 23 L-3 -3 Z" />
      </clipPath>
      <clipPath clipPathUnits="userSpaceOnUse" id="clipPath32">
        <path d="M-3 -3 L51 -3 L51 23 L-3 23 L-3 -3 Z" />
      </clipPath>
      <clipPath clipPathUnits="userSpaceOnUse" id="clipPath33">
        <path d="M-3 -3 L51 -3 L51 22 L-3 22 L-3 -3 Z" />
      </clipPath>
      <clipPath clipPathUnits="userSpaceOnUse" id="clipPath34">
        <path d="M-3 -3 L47 -3 L47 22 L-3 22 L-3 -3 Z" />
      </clipPath>
      <clipPath clipPathUnits="userSpaceOnUse" id="clipPath35">
        <path d="M-3 -3 L33 -3 L33 22 L-3 22 L-3 -3 Z" />
      </clipPath>
      <clipPath clipPathUnits="userSpaceOnUse" id="clipPath36">
        <path d="M-3 -3 L62 -3 L62 22 L-3 22 L-3 -3 Z" />
      </clipPath>
      <clipPath clipPathUnits="userSpaceOnUse" id="clipPath37">
        <path d="M-3 -3 L56 -3 L56 22 L-3 22 L-3 -3 Z" />
      </clipPath>
      <clipPath clipPathUnits="userSpaceOnUse" id="clipPath38">
        <path d="M0 0 L104 0 L104 104 L0 104 L0 0 Z" />
      </clipPath>
      <clipPath clipPathUnits="userSpaceOnUse" id="clipPath39">
        <path d="M0 0 L104 0 L104 153 L0 153 L0 0 Z" />
      </clipPath>
      <clipPath clipPathUnits="userSpaceOnUse" id="clipPath40">
        <path d="M0 0 L263 0 L263 154 L0 154 L0 0 Z" />
      </clipPath>
      <clipPath clipPathUnits="userSpaceOnUse" id="clipPath41">
        <path d="M0 0 L283 0 L283 104 L0 104 L0 0 Z" />
      </clipPath>
      <clipPath clipPathUnits="userSpaceOnUse" id="clipPath42">
        <path d="M0 0 L264 0 L264 133 L0 133 L0 0 Z" />
      </clipPath>
      <clipPath clipPathUnits="userSpaceOnUse" id="clipPath43">
        <path d="M0 0 L104 0 L104 133 L0 133 L0 0 Z" />
      </clipPath>
      <clipPath clipPathUnits="userSpaceOnUse" id="clipPath44">
        <path d="M0 0 L593 0 L593 123 L0 123 L0 0 Z" />
      </clipPath>
      <clipPath clipPathUnits="userSpaceOnUse" id="clipPath45">
        <path d="M0 0 L493 0 L493 124 L0 124 L0 0 Z" />
      </clipPath>
      <clipPath clipPathUnits="userSpaceOnUse" id="clipPath46">
        <path d="M0 0 L203 0 L203 104 L0 104 L0 0 Z" />
      </clipPath>
      <clipPath clipPathUnits="userSpaceOnUse" id="clipPath47">
        <path d="M-43 -15 L86 -15 L86 30 L-43 30 L-43 -15 Z" />
      </clipPath>
      <clipPath clipPathUnits="userSpaceOnUse" id="clipPath48">
        <path d="M-26 -15 L52 -15 L52 30 L-26 30 L-26 -15 Z" />
      </clipPath>
      <clipPath clipPathUnits="userSpaceOnUse" id="clipPath49">
        <path d="M-49 -15 L98 -15 L98 30 L-49 30 L-49 -15 Z" />
      </clipPath>
      <clipPath clipPathUnits="userSpaceOnUse" id="clipPath50">
        <path d="M-55 -15 L110 -15 L110 30 L-55 30 L-55 -15 Z" />
      </clipPath>
      <clipPath clipPathUnits="userSpaceOnUse" id="clipPath51">
        <path d="M-40 -15 L80 -15 L80 30 L-40 30 L-40 -15 Z" />
      </clipPath>
      <clipPath clipPathUnits="userSpaceOnUse" id="clipPath52">
        <path d="M-44 -15 L88 -15 L88 30 L-44 30 L-44 -15 Z" />
      </clipPath>
      <clipPath clipPathUnits="userSpaceOnUse" id="clipPath53">
        <path d="M-44 -16 L88 -16 L88 32 L-44 32 L-44 -16 Z" />
      </clipPath>
      <clipPath clipPathUnits="userSpaceOnUse" id="clipPath54">
        <path d="M-82 -16 L164 -16 L164 32 L-82 32 L-82 -16 Z" />
      </clipPath>
      <clipPath clipPathUnits="userSpaceOnUse" id="clipPath55">
        <path d="M-54 -15 L108 -15 L108 30 L-54 30 L-54 -15 Z" />
      </clipPath>
    </defs>
    <g style="fill:white; text-rendering:geometricPrecision; stroke:white;">
      <rect x="0" y="0" width="1006" style="stroke:none;" height="558" />
      <rect x="28" y="18" transform="translate(-28,-18)" width="1005" style="fill:none; stroke:black;" height="557" />
      <text x="35" y="35" transform="translate(-28,-18)" style="fill:black; stroke:none;" xml:space="preserve">class WorldView</text>
      <line transform="translate(-28,-18)" x1="28" x2="126" y1="42" style="fill:none; stroke:black;" y2="42" />
      <line transform="translate(-28,-18)" x1="132" x2="132" y1="18" style="fill:none; stroke:black;" y2="32" />
      <line transform="translate(-28,-18)" x1="132" x2="126" y1="32" style="fill:none; stroke:black;" y2="42" />
    </g>
    <g transform="translate(162,34)" style="font-size:11; fill:rgb(122,207,245); text-rendering:geometricPrecision; font-family:sans-serif; stroke:rgb(122,207,245);">
      <rect x="0" y="0" width="115" style="clip-path:url(#clipPath1); stroke:none;" height="20" />
      <rect x="0" y="20" width="579" style="clip-path:url(#clipPath1); stroke:none;" height="489" />
    </g>
    <g transform="translate(162,34)" style="font-size:11; stroke-linecap:butt; text-rendering:geometricPrecision; font-family:sans-serif; stroke-linejoin:round; stroke-miterlimit:0;">
      <rect x="0" y="0" width="115" style="clip-path:url(#clipPath1); fill:none;" height="20" />
      <rect x="0" y="20" width="579" style="clip-path:url(#clipPath1); fill:none;" height="489" />
    </g>
    <g style="text-rendering:geometricPrecision; font-size:11; font-family:sans-serif;" transform="translate(162,54)">
      <text x="275" y="12" style="clip-path:url(#clipPath2); stroke:none;" xml:space="preserve">views</text>
    </g>
    <g transform="translate(752,44)" style="font-size:11; fill:rgb(122,207,245); text-rendering:geometricPrecision; font-family:sans-serif; stroke:rgb(122,207,245);">
      <rect x="0" y="0" width="47" style="clip-path:url(#clipPath3); stroke:none;" height="20" />
      <rect x="0" y="20" width="239" style="clip-path:url(#clipPath3); stroke:none;" height="479" />
    </g>
    <g transform="translate(752,44)" style="font-size:11; stroke-linecap:butt; text-rendering:geometricPrecision; font-family:sans-serif; stroke-linejoin:round; stroke-miterlimit:0;">
      <rect x="0" y="0" width="47" style="clip-path:url(#clipPath3); fill:none;" height="20" />
      <rect x="0" y="20" width="239" style="clip-path:url(#clipPath3); fill:none;" height="479" />
    </g>
    <g style="text-rendering:geometricPrecision; font-size:11; font-family:sans-serif;" transform="translate(752,64)">
      <text x="103" y="12" style="clip-path:url(#clipPath4); stroke:none;" xml:space="preserve">libGDX</text>
    </g>
    <g transform="translate(12,34)" style="font-size:11; fill:rgb(122,207,245); text-rendering:geometricPrecision; font-family:sans-serif; stroke:rgb(122,207,245);">
      <rect x="0" y="0" width="27" style="clip-path:url(#clipPath5); stroke:none;" height="20" />
      <rect x="0" y="20" width="139" style="clip-path:url(#clipPath5); stroke:none;" height="489" />
    </g>
    <g transform="translate(12,34)" style="font-size:11; stroke-linecap:butt; text-rendering:geometricPrecision; font-family:sans-serif; stroke-linejoin:round; stroke-miterlimit:0;">
      <rect x="0" y="0" width="27" style="clip-path:url(#clipPath5); fill:none;" height="20" />
      <rect x="0" y="20" width="139" style="clip-path:url(#clipPath5); fill:none;" height="489" />
    </g>
    <g style="text-rendering:geometricPrecision; font-size:11; font-family:sans-serif;" transform="translate(12,54)">
      <text x="52" y="12" style="clip-path:url(#clipPath6); stroke:none;" xml:space="preserve">models</text>
    </g>
    <g transform="translate(192,64)" style="font-size:11; fill:rgb(122,207,245); text-rendering:geometricPrecision; font-family:sans-serif; stroke:rgb(122,207,245);">
      <rect x="0" y="0" width="57" style="clip-path:url(#clipPath7); stroke:none;" height="20" />
      <rect x="0" y="20" width="289" style="clip-path:url(#clipPath7); stroke:none;" height="449" />
    </g>
    <g transform="translate(192,64)" style="font-size:11; stroke-linecap:butt; text-rendering:geometricPrecision; font-family:sans-serif; stroke-linejoin:round; stroke-miterlimit:0;">
      <rect x="0" y="0" width="57" style="clip-path:url(#clipPath7); fill:none;" height="20" />
      <rect x="0" y="20" width="289" style="clip-path:url(#clipPath7); fill:none;" height="449" />
    </g>
    <g style="text-rendering:geometricPrecision; font-size:11; font-family:sans-serif;" transform="translate(192,84)">
      <text x="131" y="12" style="clip-path:url(#clipPath8); stroke:none;" xml:space="preserve">world</text>
    </g>
    <g transform="translate(532,224)" style="font-size:11; fill:rgb(122,207,245); text-rendering:geometricPrecision; font-family:sans-serif; stroke:rgb(122,207,245); font-weight:bold;">
      <rect x="0" y="0" width="150" style="clip-path:url(#clipPath9); stroke:none;" height="70" />
    </g>
    <g transform="translate(532,224)" style="font-size:11; stroke-linecap:butt; text-rendering:geometricPrecision; font-family:sans-serif; stroke-linejoin:round; font-weight:bold; stroke-miterlimit:0;">
      <rect x="0" y="0" width="150" style="clip-path:url(#clipPath9); fill:none;" height="70" />
      <line x1="0" x2="150" y1="15" style="clip-path:url(#clipPath9); fill:none;" y2="15" />
    </g>
    <g style="text-rendering:geometricPrecision; font-size:11; font-family:sans-serif;" transform="translate(532,239)">
      <text x="2" y="14" style="clip-path:url(#clipPath10); stroke:none;" xml:space="preserve">-tileSize : int[2]</text>
      <text x="2" y="29" style="clip-path:url(#clipPath10); stroke:none;" xml:space="preserve">-collisionData : boolean[1..*]</text>
      <text x="2" y="44" style="clip-path:url(#clipPath10); stroke:none;" xml:space="preserve">-lineSize : int</text>
    </g>
    <g transform="translate(532,224)" style="text-rendering:geometricPrecision; font-size:11; font-weight:bold; font-family:sans-serif;">
      <text x="57" y="12" style="clip-path:url(#clipPath11); stroke:none;" xml:space="preserve">Tileset</text>
    </g>
    <g transform="translate(862,224)" style="font-size:11; fill:rgb(122,207,245); text-rendering:geometricPrecision; font-family:sans-serif; stroke:rgb(122,207,245); font-weight:bold;">
      <rect x="0" y="0" width="80" style="clip-path:url(#clipPath12); stroke:none;" height="40" />
    </g>
    <g transform="translate(862,224)" style="font-size:11; stroke-linecap:butt; text-rendering:geometricPrecision; font-family:sans-serif; stroke-linejoin:round; font-weight:bold; stroke-miterlimit:0;">
      <rect x="0" y="0" width="80" style="clip-path:url(#clipPath12); fill:none;" height="40" />
      <line x1="0" x2="80" y1="15" style="clip-path:url(#clipPath12); fill:none;" y2="15" />
    </g>
    <g transform="translate(862,224)" style="text-rendering:geometricPrecision; font-size:11; font-weight:bold; font-family:sans-serif;">
      <text x="20" y="12" style="clip-path:url(#clipPath14); stroke:none;" xml:space="preserve">Texture</text>
    </g>
    <g transform="translate(842,284)" style="font-size:11; fill:rgb(122,207,245); text-rendering:geometricPrecision; font-family:sans-serif; stroke:rgb(122,207,245); font-weight:bold;">
      <rect x="0" y="0" width="100" style="clip-path:url(#clipPath15); stroke:none;" height="40" />
    </g>
    <g transform="translate(842,284)" style="font-size:11; stroke-linecap:butt; text-rendering:geometricPrecision; font-family:sans-serif; stroke-linejoin:round; font-weight:bold; stroke-miterlimit:0;">
      <rect x="0" y="0" width="100" style="clip-path:url(#clipPath15); fill:none;" height="40" />
      <line x1="0" x2="100" y1="15" style="clip-path:url(#clipPath15); fill:none;" y2="15" />
    </g>
    <g transform="translate(842,284)" style="text-rendering:geometricPrecision; font-size:11; font-weight:bold; font-family:sans-serif;">
      <text x="10" y="12" style="clip-path:url(#clipPath17); stroke:none;" xml:space="preserve">TextureRegion</text>
    </g>
    <g transform="translate(822,94)" style="font-size:11; fill:rgb(122,207,245); text-rendering:geometricPrecision; font-family:sans-serif; stroke:rgb(122,207,245); font-weight:bold;">
      <rect x="0" y="0" width="80" style="clip-path:url(#clipPath12); stroke:none;" height="40" />
    </g>
    <g transform="translate(822,94)" style="font-size:11; stroke-linecap:butt; text-rendering:geometricPrecision; font-family:sans-serif; stroke-linejoin:round; font-weight:bold; stroke-miterlimit:0;">
      <rect x="0" y="0" width="80" style="clip-path:url(#clipPath12); fill:none;" height="40" />
      <line x1="0" x2="80" y1="15" style="clip-path:url(#clipPath12); fill:none;" y2="15" />
    </g>
    <g transform="translate(822,94)" style="text-rendering:geometricPrecision; font-size:11; font-weight:bold; font-family:sans-serif;">
      <text x="25" y="12" style="clip-path:url(#clipPath14); stroke:none;" xml:space="preserve">Actor</text>
    </g>
    <g transform="translate(832,164)" style="font-size:11; fill:rgb(122,207,245); text-rendering:geometricPrecision; font-family:sans-serif; stroke:rgb(122,207,245); font-weight:bold;">
      <rect x="0" y="0" width="80" style="clip-path:url(#clipPath12); stroke:none;" height="40" />
    </g>
    <g transform="translate(832,164)" style="font-size:11; stroke-linecap:butt; text-rendering:geometricPrecision; font-family:sans-serif; stroke-linejoin:round; font-weight:bold; stroke-miterlimit:0;">
      <rect x="0" y="0" width="80" style="clip-path:url(#clipPath12); fill:none;" height="40" />
      <line x1="0" x2="80" y1="15" style="clip-path:url(#clipPath12); fill:none;" y2="15" />
    </g>
    <g transform="translate(832,164)" style="text-rendering:geometricPrecision; font-size:11; font-weight:bold; font-family:sans-serif;">
      <text x="23" y="12" style="clip-path:url(#clipPath14); stroke:none;" xml:space="preserve">Group</text>
    </g>
    <g transform="translate(32,144)" style="font-size:11; fill:rgb(122,207,245); text-rendering:geometricPrecision; font-family:sans-serif; stroke:rgb(122,207,245); font-weight:bold;">
      <rect x="0" y="0" width="90" style="clip-path:url(#clipPath18); stroke:none;" height="80" />
    </g>
    <g transform="translate(32,144)" style="font-size:11; stroke-linecap:butt; text-rendering:geometricPrecision; font-family:sans-serif; stroke-linejoin:round; font-weight:bold; stroke-miterlimit:0;">
      <rect x="0" y="0" width="90" style="clip-path:url(#clipPath18); fill:none;" height="80" />
      <line x1="0" x2="90" y1="15" style="clip-path:url(#clipPath18); fill:none;" y2="15" />
    </g>
    <g style="text-rendering:geometricPrecision; font-size:11; font-family:sans-serif;" transform="translate(32,159)">
      <text x="2" y="14" style="clip-path:url(#clipPath19); stroke:none;" xml:space="preserve">+name : String</text>
      <text x="2" y="29" style="clip-path:url(#clipPath19); stroke:none;" xml:space="preserve">-filename : String</text>
      <line x1="0" x2="90" y1="34" style="stroke-linecap:butt; clip-path:url(#clipPath19); fill:none; stroke-linejoin:bevel; stroke-miterlimit:0;" y2="34" />
      <text x="2" y="48" style="clip-path:url(#clipPath19); stroke:none;" xml:space="preserve">-load() : boolean</text>
    </g>
    <g transform="translate(32,144)" style="text-rendering:geometricPrecision; font-size:11; font-weight:bold; font-family:sans-serif;">
      <text x="30" y="12" style="clip-path:url(#clipPath20); stroke:none;" xml:space="preserve">Level</text>
    </g>
    <g transform="translate(222,124)" style="font-size:11; fill:rgb(122,207,245); text-rendering:geometricPrecision; font-family:sans-serif; stroke:rgb(122,207,245); font-weight:bold;">
      <rect x="0" y="0" width="220" style="clip-path:url(#clipPath21); stroke:none;" height="140" />
    </g>
    <g transform="translate(222,124)" style="font-size:11; stroke-linecap:butt; text-rendering:geometricPrecision; font-family:sans-serif; stroke-linejoin:round; font-weight:bold; stroke-miterlimit:0;">
      <rect x="0" y="0" width="220" style="clip-path:url(#clipPath21); fill:none;" height="140" />
      <line x1="0" x2="220" y1="15" style="clip-path:url(#clipPath21); fill:none;" y2="15" />
    </g>
    <g style="text-rendering:geometricPrecision; font-size:11; font-family:sans-serif;" transform="translate(222,139)">
      <text x="2" y="14" style="clip-path:url(#clipPath22); stroke:none;" xml:space="preserve">+name : String</text>
      <text x="2" y="29" style="clip-path:url(#clipPath22); stroke:none;" xml:space="preserve">+xSize : int</text>
      <text x="2" y="44" style="clip-path:url(#clipPath22); stroke:none;" xml:space="preserve">+ySize : int</text>
      <text x="2" y="59" style="clip-path:url(#clipPath22); stroke:none;" xml:space="preserve">+tileWidth : int</text>
      <text x="2" y="74" style="clip-path:url(#clipPath22); stroke:none;" xml:space="preserve">+tileHeight : int</text>
      <line x1="0" x2="220" y1="79" style="stroke-linecap:butt; clip-path:url(#clipPath22); fill:none; stroke-linejoin:bevel; stroke-miterlimit:0;" y2="79" />
      <text x="2" y="93" style="clip-path:url(#clipPath22); stroke:none;" xml:space="preserve">+loadFromFile(filename : String) : boolean</text>
      <text x="2" y="108" style="clip-path:url(#clipPath22); stroke:none;" xml:space="preserve">+operation()</text>
    </g>
    <g transform="translate(222,124)" style="text-rendering:geometricPrecision; font-size:11; font-weight:bold; font-family:sans-serif;">
      <text x="89" y="12" style="clip-path:url(#clipPath23); stroke:none;" xml:space="preserve">TileMap</text>
    </g>
    <g transform="translate(282,314)" style="font-size:11; fill:rgb(122,207,245); text-rendering:geometricPrecision; font-family:sans-serif; stroke:rgb(122,207,245); font-weight:bold;">
      <rect x="0" y="0" width="100" style="clip-path:url(#clipPath24); stroke:none;" height="60" />
    </g>
    <g transform="translate(282,314)" style="font-size:11; stroke-linecap:butt; text-rendering:geometricPrecision; font-family:sans-serif; stroke-linejoin:round; font-weight:bold; stroke-miterlimit:0;">
      <rect x="0" y="0" width="100" style="clip-path:url(#clipPath24); fill:none;" height="60" />
      <line x1="0" x2="100" y1="15" style="clip-path:url(#clipPath24); fill:none;" y2="15" />
    </g>
    <g style="text-rendering:geometricPrecision; font-size:11; font-family:sans-serif;" transform="translate(282,329)">
      <text x="2" y="14" style="clip-path:url(#clipPath25); stroke:none;" xml:space="preserve">+xSize : int</text>
      <text x="2" y="29" style="clip-path:url(#clipPath25); stroke:none;" xml:space="preserve">+ySize : int</text>
    </g>
    <g transform="translate(282,314)" style="text-rendering:geometricPrecision; font-size:11; font-weight:bold; font-family:sans-serif;">
      <text x="14" y="12" style="clip-path:url(#clipPath17); stroke:none;" xml:space="preserve">TilemapLayer</text>
    </g>
    <g transform="translate(272,424)" style="font-size:11; fill:rgb(122,207,245); text-rendering:geometricPrecision; font-family:sans-serif; stroke:rgb(122,207,245); font-weight:bold;">
      <rect x="0" y="0" width="120" style="clip-path:url(#clipPath26); stroke:none;" height="100" />
    </g>
    <g transform="translate(272,424)" style="font-size:11; stroke-linecap:butt; text-rendering:geometricPrecision; font-family:sans-serif; stroke-linejoin:round; font-weight:bold; stroke-miterlimit:0;">
      <rect x="0" y="0" width="120" style="clip-path:url(#clipPath26); fill:none;" height="100" />
      <line x1="0" x2="120" y1="15" style="clip-path:url(#clipPath26); fill:none;" y2="15" />
    </g>
    <g style="text-rendering:geometricPrecision; font-size:11; font-family:sans-serif;" transform="translate(272,439)">
      <text x="2" y="14" style="clip-path:url(#clipPath27); stroke:none;" xml:space="preserve">+x : int</text>
      <text x="2" y="29" style="clip-path:url(#clipPath27); stroke:none;" xml:space="preserve">+y : int</text>
      <text x="2" y="44" style="clip-path:url(#clipPath27); stroke:none;" xml:space="preserve">+id : int</text>
      <text x="2" y="59" style="clip-path:url(#clipPath27); stroke:none;" xml:space="preserve">+tilesetId : int</text>
      <line x1="0" x2="120" y1="64" style="stroke-linecap:butt; clip-path:url(#clipPath27); fill:none; stroke-linejoin:bevel; stroke-miterlimit:0;" y2="64" />
      <text x="2" y="78" style="clip-path:url(#clipPath27); stroke:none;" xml:space="preserve">+isBlocking() : boolean</text>
    </g>
    <g transform="translate(272,424)" style="text-rendering:geometricPrecision; font-size:11; font-weight:bold; font-family:sans-serif;">
      <text x="50" y="12" style="clip-path:url(#clipPath28); stroke:none;" xml:space="preserve">Tile</text>
    </g>
    <g transform="translate(282,214)" style="font-size:11; stroke-linecap:butt; text-rendering:geometricPrecision; font-family:sans-serif; stroke-linejoin:round;">
      <line x1="50" x2="50" y1="74" style="clip-path:url(#clipPath39); fill:none;" y2="99" />
      <polygon style="clip-path:url(#clipPath39); stroke:none;" points=" 50 50 44 62 50 74 56 62" />
      <polygon style="fill:none; clip-path:url(#clipPath39);" points=" 50 50 44 62 50 74 56 62" />
    </g>
    <g transform="translate(282,324)" style="font-size:11; stroke-linecap:butt; text-rendering:geometricPrecision; font-family:sans-serif; stroke-linejoin:round;">
      <line x1="50" x2="50" y1="74" style="clip-path:url(#clipPath39); fill:none;" y2="99" />
      <polygon style="clip-path:url(#clipPath39); stroke:none;" points=" 50 50 44 62 50 74 56 62" />
      <polygon style="fill:none; clip-path:url(#clipPath39);" points=" 50 50 44 62 50 74 56 62" />
    </g>
    <g transform="translate(632,214)" style="font-size:11; stroke-linecap:butt; text-rendering:geometricPrecision; font-family:sans-serif; stroke-linejoin:round;">
      <line x1="50" x2="170" y1="50" style="clip-path:url(#clipPath40); fill:none;" y2="50" />
      <line x1="170" x2="170" y1="50" style="clip-path:url(#clipPath40); fill:none;" y2="100" />
      <line x1="170" x2="209" y1="100" style="clip-path:url(#clipPath40); fill:none;" y2="100" />
    </g>
    <g transform="translate(632,194)" style="font-size:11; stroke-linecap:butt; text-rendering:geometricPrecision; font-family:sans-serif; stroke-linejoin:round;">
      <line x1="50" x2="229" y1="50" style="clip-path:url(#clipPath41); fill:none;" y2="50" />
    </g>
    <g transform="translate(392,144)" style="font-size:11; stroke-linecap:butt; text-rendering:geometricPrecision; font-family:sans-serif; stroke-linejoin:round;">
      <line x1="74" x2="210" y1="50" style="clip-path:url(#clipPath42); fill:none;" y2="50" />
      <line x1="210" x2="210" y1="50" style="clip-path:url(#clipPath42); fill:none;" y2="79" />
      <polygon style="clip-path:url(#clipPath42); stroke:none;" points=" 50 50 62 56 74 50 62 44" />
      <polygon style="fill:none; clip-path:url(#clipPath42);" points=" 50 50 62 56 74 50 62 44" />
    </g>
    <g transform="translate(812,84)" style="font-size:11; stroke-linecap:butt; text-rendering:geometricPrecision; font-family:sans-serif; stroke-linejoin:round;">
      <line x1="50" x2="50" y1="50" style="clip-path:url(#clipPath43); fill:none;" y2="79" />
      <polygon style="fill:white; clip-path:url(#clipPath43); stroke:none;" points=" 50 50 44 62 56 62" />
      <polygon style="fill:none; clip-path:url(#clipPath43);" points=" 50 50 44 62 56 62" />
    </g>
    <g transform="translate(282,54)" style="font-size:11; stroke-linecap:butt; text-rendering:geometricPrecision; font-family:sans-serif; stroke-linejoin:round;">
      <line x1="539" x2="50" y1="50" style="clip-path:url(#clipPath44); fill:none;" y2="50" />
      <line x1="50" x2="50" y1="50" style="clip-path:url(#clipPath44); fill:none;" y2="69" />
      <polygon style="fill:white; clip-path:url(#clipPath44); stroke:none;" points=" 539 50 527 44 527 56" />
      <polygon style="fill:none; clip-path:url(#clipPath44);" points=" 539 50 527 44 527 56" />
    </g>
    <g transform="translate(392,114)" style="font-size:11; stroke-linecap:butt; text-rendering:geometricPrecision; font-family:sans-serif; stroke-linejoin:round;">
      <line x1="50" x2="280" y1="50" style="clip-path:url(#clipPath45); fill:none;" y2="50" />
      <line x1="280" x2="280" y1="50" style="clip-path:url(#clipPath45); fill:none;" y2="70" />
      <line x1="280" x2="439" y1="70" style="clip-path:url(#clipPath45); fill:none;" y2="70" />
    </g>
    <g transform="translate(72,134)" style="font-size:11; stroke-linecap:butt; text-rendering:geometricPrecision; font-family:sans-serif; stroke-linejoin:round;">
      <line x1="74" x2="149" y1="50" style="clip-path:url(#clipPath46); fill:none;" y2="50" />
      <polygon style="clip-path:url(#clipPath46); stroke:none;" points=" 50 50 62 56 74 50 62 44" />
      <polygon style="fill:none; clip-path:url(#clipPath46);" points=" 50 50 62 56 74 50 62 44" />
    </g>
    <g style="text-rendering:geometricPrecision; font-size:11; font-family:sans-serif;" transform="translate(292,294)">
      <text x="10" y="12" style="clip-path:url(#clipPath47); stroke:none;" xml:space="preserve">[1..*]</text>
    </g>
    <g style="text-rendering:geometricPrecision; font-size:11; font-family:sans-serif;" transform="translate(342,264)">
      <text x="10" y="12" style="clip-path:url(#clipPath48); stroke:none;" xml:space="preserve">1</text>
    </g>
    <g style="text-rendering:geometricPrecision; font-size:11; font-family:sans-serif;" transform="translate(332,294)">
      <text x="9" y="12" style="clip-path:url(#clipPath49); stroke:none;" xml:space="preserve">layers</text>
    </g>
    <g style="text-rendering:geometricPrecision; font-size:11; font-family:sans-serif;" transform="translate(272,264)">
      <text x="11" y="12" style="clip-path:url(#clipPath50); stroke:none;" xml:space="preserve">tilemap</text>
    </g>
    <g style="text-rendering:geometricPrecision; font-size:11; font-family:sans-serif;" transform="translate(292,404)">
      <text x="10" y="12" style="clip-path:url(#clipPath47); stroke:none;" xml:space="preserve">[1..*]</text>
    </g>
    <g style="text-rendering:geometricPrecision; font-size:11; font-family:sans-serif;" transform="translate(342,374)">
      <text x="10" y="12" style="clip-path:url(#clipPath48); stroke:none;" xml:space="preserve">1</text>
    </g>
    <g style="text-rendering:geometricPrecision; font-size:11; font-family:sans-serif;" transform="translate(332,404)">
      <text x="10" y="12" style="clip-path:url(#clipPath51); stroke:none;" xml:space="preserve">tiles</text>
    </g>
    <g style="text-rendering:geometricPrecision; font-size:11; font-family:sans-serif;" transform="translate(292,374)">
      <text x="10" y="12" style="clip-path:url(#clipPath52); stroke:none;" xml:space="preserve">layer</text>
    </g>
    <g style="text-rendering:geometricPrecision; font-size:11; font-family:sans-serif;" transform="translate(782,184)">
      <text x="10" y="12" style="clip-path:url(#clipPath53); stroke:none;" xml:space="preserve">[0..1]</text>
    </g>
    <g style="text-rendering:geometricPrecision; font-size:11; font-family:sans-serif;" transform="translate(752,164)">
      <text x="10" y="12" style="clip-path:url(#clipPath54); stroke:none;" xml:space="preserve">parentGroup</text>
    </g>
    <g style="text-rendering:geometricPrecision; font-size:11; font-family:sans-serif;" transform="translate(552,204)">
      <text x="10" y="12" style="clip-path:url(#clipPath47); stroke:none;" xml:space="preserve">[1..*]</text>
    </g>
    <g style="text-rendering:geometricPrecision; font-size:11; font-family:sans-serif;" transform="translate(602,204)">
      <text x="10" y="12" style="clip-path:url(#clipPath55); stroke:none;" xml:space="preserve">tilesets</text>
    </g>
  </g>
</svg>
